<?xml version="1.0" standalone="no"?>
<!DOCTYPE svg PUBLIC "-//W3C//DTD SVG 1.1//EN" "http://www.w3.org/Graphics/SVG/1.1/DTD/svg11.dtd" >
<svg>
<metadata>
Created by FontForge 20090622 at Sat Feb 24 16:34:14 2018
 By deploy user
</metadata>
<defs>
<font id="GillSansWd" horiz-adv-x="347" >
  <font-face 
    font-family="GillSans Wd"
    font-weight="400"
    font-stretch="normal"
    units-per-em="1000"
    panose-1="0 0 6 0 0 0 0 2 0 0"
    ascent="800"
    descent="-200"
    x-height="449"
    cap-height="682"
    bbox="-202 -230 1301 911"
    underline-thickness="50"
    underline-position="-55"
    unicode-range="U+0020-U+F002"
  />
<missing-glyph 
 />
    <glyph glyph-name=".notdef" 
 />
    <glyph glyph-name="glyph1" horiz-adv-x="0" 
 />
    <glyph glyph-name="glyph2" horiz-adv-x="278" 
 />
    <glyph glyph-name="space" unicode=" " 
 />
    <glyph glyph-name="space" unicode="&#xa0;" 
 />
    <glyph glyph-name="exclam" unicode="!" horiz-adv-x="338" 
d="M170 111q5 -1 9.5 -2t8.5 -2q2 -1 4.5 -1.5t4.5 -1.5q7 -2 13.5 -5t11.5 -8q6 -4 10 -9.5t6 -10.5q3 -5 5 -10.5t2 -11.5q0 -7 -2 -13t-5 -11q-2 -5 -6 -9.5t-10 -8.5q-5 -4 -11.5 -6l-13.5 -4q-2 -1 -4.5 -1.5t-4.5 -1.5q-4 -1 -8.5 -1.5t-9.5 -0.5q-9 0 -16.5 1.5
t-13.5 3.5q-7 2 -13 4t-11 6q-6 4 -10 8.5t-6 9.5q-3 5 -4 11t-1 13q0 6 1 11.5t4 10.5q2 5 6 10.5t10 9.5q5 5 11 8t13 5q6 2 13.5 3.5t16.5 1.5v2v0v0zM98 543q0 17 1.5 33t2.5 29q2 14 6 25.5t8 21.5q4 9 9 16t12 11q7 5 14.5 7.5t16.5 2.5t16.5 -2.5t13.5 -7.5
q7 -4 13 -11t10 -16q4 -10 7.5 -21.5t4.5 -25.5q2 -13 3.5 -29.5t1.5 -34.5v-8v-8q-1 -4 -1 -7.5v-7.5v-7.5v-7.5q-1 -4 -1 -7.5v-6.5q0 -2 -0.5 -4.5t-0.5 -4.5q-1 -4 -1.5 -8t-0.5 -8q0 -6 -0.5 -11.5t-1.5 -10.5l-31 -170q-1 -4 -2 -8.5t-1 -7.5q-1 -4 -2 -7.5t-2 -6.5
q0 -2 -0.5 -4t-1.5 -4q-1 -3 -1.5 -6t-2.5 -6q-1 -2 -2.5 -4.5t-3.5 -3.5l-1.5 -1.5l-1.5 -1.5q-1 -2 -4 -3t-6 -1q-4 0 -6.5 1t-4.5 3q-3 2 -4.5 4.5t-2.5 6.5l-2 4t-2 5q-1 2 -2 5l-2 6q-1 6 -2.5 13t-2.5 15l-31 174q0 2 -0.5 4t-1.5 5q-1 2 -1.5 5t-0.5 6q-1 6 -1.5 12
t-0.5 13q-1 7 -1.5 14.5t-0.5 14.5v15.5v15.5v2v0v0z" />
    <glyph glyph-name="quotedbl" unicode="&#x22;" horiz-adv-x="442" 
d="M88 462l-28 137v117h110v-117l-29 -137h-53v0v0v0zM301 462l-29 137v117h110v-117l-29 -137h-52v0v0v0z" />
    <glyph glyph-name="numbersign" unicode="#" horiz-adv-x="730" 
d="M245 617h90l-52 -195h243l51 195h90l-51 -195h114v-69h-132l-45 -170h177v-69h-194l-51 -195h-90l51 195h-243l-51 -195h-90l51 195h-112v69h130l45 170h-175v69h192l52 195v0v0v0zM266 353l-45 -170h242l45 170h-242v0v0v0z" />
    <glyph glyph-name="dollar" unicode="$" horiz-adv-x="677" 
d="M587 596v-108q-2 1 -3.5 2t-3.5 2t-3.5 2t-3.5 2t-3.5 2t-2.5 2q-2 1 -3.5 2.5t-3.5 2.5q-4 2 -7.5 4t-7.5 4l-4 2t-4 3q-3 1 -5 2l-4 2q-3 1 -6 2.5t-6 2.5q-6 2 -11.5 5t-12.5 5q-9 4 -18 7.5t-18 6.5q-4 1 -7.5 2t-7.5 2q-4 2 -7 2.5t-6 1.5q-4 1 -7.5 1.5t-7.5 1.5
q-2 1 -4 1t-4 1q-1 0 -2 0.5t-2 0.5v-196q26 -7 50 -15t45 -17q20 -9 38 -20t33 -24t26.5 -26.5t18.5 -28.5q8 -15 11.5 -31t3.5 -33v-2.5v-3.5v-2v-2q-1 -1 -1 -2.5v-3.5v-2v-2v-1.5v-0.5q-1 -1 -1 -1.5v-1.5t-0.5 -1.5l-0.5 -0.5q0 -1 -0.5 -1.5l-0.5 -0.5v-1.5v-1.5
q-1 -1 -1 -1.5v-1.5v-1.5v-0.5q-1 -1 -1 -1.5v-0.5q-4 -13 -10.5 -25t-14.5 -24q-10 -12 -21 -23t-24 -22q-14 -11 -30 -19.5t-35 -14.5t-40.5 -9.5t-44.5 -5.5v-110h-103v109q-12 2 -23.5 3t-22.5 3q-11 1 -21.5 2.5t-20.5 3.5q-3 1 -5.5 1.5t-5.5 1.5t-5.5 1.5t-5.5 1.5
t-5.5 1.5t-4.5 1.5t-4.5 1.5t-5.5 1.5t-5.5 2t-5.5 2t-5.5 2t-5.5 2q-6 2 -10.5 4t-9.5 4q-1 0 -2 0.5t-2 1.5q-1 0 -2 0.5t-2 0.5t-2 0.5t-1 1.5q-1 0 -2 0.5t-2 1.5q-2 0 -3.5 0.5t-2.5 0.5l-1.5 1.5t-1.5 0.5t-2 0.5t-1 1.5q-1 0 -2 0.5t-2 1.5q-1 0 -2 0.5t-2 1.5
q-1 0 -2 0.5t-2 0.5t-2 0.5t-1 1.5q-1 0 -2 0.5t-2 1.5q-3 0 -5 1l-4 2q-1 0 -2 0.5t-2 1.5q-1 0 -2 0.5t-2 1.5v123q3 -2 5.5 -4.5l4.5 -4.5t4.5 -3.5t5.5 -3.5q6 -4 11 -7t9 -6q1 0 1.5 -0.5l1.5 -1.5q2 -1 3.5 -2t2.5 -2q2 -1 4.5 -2.5t5.5 -3.5q1 -1 2 -1.5t2 -1.5
t2 -1.5t2 -1.5q2 -1 4.5 -2t5.5 -2l16.5 -8.5l16.5 -8.5q9 -4 18 -7t19 -6q8 -3 18.5 -6l21.5 -6t23 -5.5t25 -4.5v218q-26 5 -48.5 11.5t-42.5 13.5q-19 8 -36 16t-31 18t-25.5 20.5l-21.5 20.5q-9 11 -15 21.5t-8 21.5q-1 2 -2 3.5t-1 3.5q-1 2 -1 4v4q0 1 -0.5 2t-0.5 2
v1v2v4v4q0 18 4 34.5t11 31.5q8 15 19.5 29t27.5 26q15 12 33.5 22t40.5 17q22 8 46 13.5t51 9.5v38h103v-36q4 -1 8.5 -2t8.5 -2q5 -1 10.5 -1.5t11.5 -1.5q2 -1 4.5 -1.5t4.5 -0.5q3 -1 5.5 -1.5t5.5 -1.5t5.5 -1.5t5.5 -0.5q3 -1 5.5 -1.5t5.5 -1.5q7 -2 14 -4.5t14 -4.5
q4 -1 7.5 -2.5t6.5 -2.5q3 -2 6.5 -3t7.5 -3l13.5 -6l13.5 -6q3 -1 5.5 -2.5t5.5 -3.5q3 -1 5.5 -2.5t5.5 -3.5v2v0v0zM401 262v-180q13 2 24.5 4.5t21.5 6.5t18 8.5t15 9.5q6 5 11 11t9 13t5.5 14.5t1.5 16.5q0 8 -1.5 14.5t-4.5 13.5q-4 7 -8 13t-10 12q-6 5 -14.5 10.5
t-18.5 10.5t-22.5 10t-26.5 10v2v0v0zM298 396v171q-12 -2 -23 -5t-22 -7q-10 -4 -18.5 -8.5t-16.5 -9.5q-8 -6 -13.5 -12.5t-9.5 -13.5t-6 -13.5t-2 -14.5q0 -7 1 -14.5t5 -13.5t9 -12t11 -11q7 -6 15.5 -11t19.5 -10l23 -8.5t27 -8.5v2v0v0z" />
    <glyph glyph-name="percent" unicode="%" horiz-adv-x="850" 
d="M752 691l-561 -701h-94l561 701h94v0v0v0zM627 296q19 -1 37.5 -4.5t35.5 -8.5q17 -6 32 -14.5t29 -19.5t24.5 -23t17.5 -26q8 -13 11.5 -28t3.5 -31t-3.5 -30t-11.5 -28q-7 -13 -17.5 -26t-24.5 -24t-29 -19.5t-32 -13.5q-17 -4 -35.5 -6.5t-37.5 -2.5t-37 2.5t-35 6.5
q-17 5 -33 13.5t-30 19.5t-24 23.5t-18 25.5q-7 14 -10.5 28.5t-3.5 30.5t3.5 31t10.5 28q8 14 18 26t24 23t30 19.5t33 14.5q17 5 35 8t37 3v2v0v0zM627 222q-10 -1 -19.5 -3t-17.5 -5q-10 -3 -17.5 -7.5t-15.5 -10.5q-7 -6 -12.5 -12.5t-9.5 -13.5t-5.5 -14t-1.5 -15
t1.5 -15.5t5.5 -15.5q4 -7 9.5 -13.5t12.5 -11.5q8 -6 15.5 -10.5t17.5 -7.5q8 -3 17.5 -4t19.5 -1q11 0 20 1t18 4q8 3 16.5 7.5t15.5 10.5q7 5 12 11.5t9 13.5q4 8 6 15.5t2 15.5t-2 15t-6 14t-9 13.5t-12 12.5t-15.5 10.5t-16.5 7.5q-9 3 -18 4.5t-20 1.5v2v0v0zM222 690
q19 -1 37.5 -4.5t35.5 -8.5q17 -6 32 -14.5t29 -19.5t24.5 -23t17.5 -26q8 -13 11.5 -28t3.5 -31t-3.5 -30t-11.5 -28q-7 -13 -17.5 -26t-24.5 -24t-29 -19.5t-32 -14.5t-35.5 -8.5t-37.5 -2.5t-37 2.5t-35 8.5q-17 5 -33 13.5t-30 19.5t-24 24t-18 26q-7 14 -10.5 28.5
t-3.5 30.5t3.5 31t10.5 28q8 14 18 26t24 23t30 19.5t33 14.5q17 5 35 8t37 3v2v0v0zM222 616q-10 -1 -19.5 -3t-17.5 -5q-10 -3 -17.5 -7.5t-15.5 -10.5q-7 -6 -12.5 -12.5t-9.5 -13.5t-5.5 -14t-1.5 -15t1.5 -15.5t5.5 -15.5q4 -7 9.5 -13.5t12.5 -11.5q8 -6 15.5 -10.5
t17.5 -7.5q8 -3 17.5 -4t19.5 -1q11 0 20 1t18 4q8 3 16.5 7.5t15.5 10.5q7 5 12 11.5t9 13.5q4 8 6 15.5t2 15.5t-2 15t-6 14t-9 13.5t-12 12.5t-15.5 10.5t-16.5 7.5q-9 3 -18 4.5t-20 1.5v2v0v0z" />
    <glyph glyph-name="ampersand" unicode="&#x26;" horiz-adv-x="781" 
d="M618 339h123q-3 -7 -6 -13t-7 -12q-2 -3 -3.5 -6t-2.5 -6q-2 -3 -3.5 -6t-3.5 -6t-4 -6.5t-4 -6.5q-3 -4 -5 -7l-4 -6q-4 -6 -8.5 -12t-9.5 -12q-5 -5 -9.5 -10.5l-8.5 -10.5t-9 -10.5l-10 -10.5l-3.5 -3.5l-3.5 -3.5q-3 -4 -6.5 -7t-7.5 -7q-5 -5 -10 -9.5t-10 -9.5
l173 -158h-158l-97 93q-21 -16 -40 -28.5t-38 -22.5l-35.5 -18t-33.5 -13q-16 -5 -32 -8l-31 -6q-16 -2 -31 -3.5t-29 -1.5q-22 0 -42.5 3t-39.5 7q-19 5 -36 13.5t-34 20.5q-16 11 -27.5 24t-19.5 28q-8 14 -12 30t-4 33q0 15 3 30t10 28q8 14 18.5 27t24.5 26
q14 12 30 23.5t34 22.5q17 11 38 22.5t43 21.5q-10 8 -19 16.5t-17 17.5q-9 9 -16.5 19l-15.5 20q-7 11 -12.5 21.5t-9.5 20.5q-4 11 -5 21.5t-1 21.5q0 17 4 33t11 30q8 14 19 27t26 24t32 18.5t36 13.5q20 5 42.5 8t47.5 3q23 0 43 -3t39 -8q19 -6 35 -13.5t31 -18.5
q14 -11 24.5 -23t17.5 -25q8 -13 11.5 -27.5t3.5 -29.5q0 -7 -0.5 -14.5t-2.5 -14.5q-1 -4 -2.5 -7.5t-2.5 -6.5q-1 -4 -2.5 -7.5t-2.5 -6.5l-8 -13.5t-9 -13.5t-11 -13.5l-12 -12.5q-3 -2 -5.5 -4.5l-4.5 -4.5l-4.5 -4.5t-5.5 -4.5t-6 -4.5t-6 -4.5q-4 -2 -7 -4.5t-6 -4.5
q-7 -4 -13.5 -8.5t-14.5 -9.5l-14.5 -8.5l-15.5 -9.5l120 -108q0 -1 1 -1t2 1q0 1 0.5 1.5l1.5 1.5l0.5 0.5l1.5 1.5q1 0 1.5 0.5l0.5 0.5q1 1 2 1.5t2 1.5q0 1 0.5 1.5l1.5 1.5l1 0.5t2 1.5t2 1.5t2 1.5q0 1 1 1.5t2 1.5q1 2 2.5 3.5l2.5 2.5l2 2t1 2h1v1q1 0 1.5 1l0.5 1
l1.5 1.5l1.5 1.5q0 1 0.5 1.5l1.5 1.5l2 2l2 2l2 2l2 2q1 2 2 3.5t3 2.5q2 2 3.5 4t2.5 4t2.5 3.5l2.5 2.5q0 1 0.5 1.5l1.5 1.5t1.5 2t0.5 2q1 2 2 3.5t3 2.5q1 2 2 3.5t2 2.5q1 2 1.5 3.5t1.5 2.5q0 1 0.5 1.5t0.5 1.5q1 0 1.5 0.5l1.5 1.5v1.5t1 1.5l0.5 0.5l1.5 1.5
q1 2 1.5 3.5t1.5 2.5v2v0v0zM445 161l-139 128l-14.5 -8.5l-14.5 -8.5t-14 -7.5t-12 -6.5q-7 -4 -12.5 -7.5l-10.5 -6.5q-3 -1 -5 -3t-5 -3q-2 -2 -4 -3.5t-4 -3.5l-6.5 -4.5l-6.5 -4.5l-5.5 -5.5t-5.5 -4.5t-5.5 -4.5l-4.5 -4.5q-2 -3 -3.5 -5.5t-2.5 -4.5q-4 -5 -6 -10.5
l-4 -10.5t-2.5 -10.5t-0.5 -10.5q0 -7 2.5 -14.5t6.5 -13.5t10.5 -12t13.5 -11q8 -5 16 -9t17 -7q3 -1 6.5 -2t6.5 -1q6 -1 12.5 -1.5t13.5 -0.5h11.5t11.5 1l11.5 2l11.5 2q6 2 12 3.5t12 3.5t11.5 4.5l11.5 5.5q11 5 22.5 11.5t22.5 13.5l22.5 16t22.5 17v2v0v0zM260 521
v-4.5v-3.5v-2.5t1 -3.5v-1.5v-1.5v-1.5t1 -0.5v-2v-1v-0.5t1 -0.5v-1.5v-0.5q1 -2 1.5 -4t1.5 -4q1 -3 2.5 -6.5t3.5 -7.5q3 -6 7 -11.5l8 -10.5t8.5 -10t9.5 -10q5 -4 9.5 -8.5t10.5 -8.5v-0.5t1 -0.5v-1v0v0h1q0 -1 0.5 -1h0.5v-1.5v-0.5h0.5h0.5q0 -1 0.5 -1h0.5h0.5h0.5
q1 -1 2 -1.5t2 -1.5l1.5 -1.5l1.5 -1.5q14 6 25 12t20 12q10 6 17.5 11.5l14.5 10.5q1 1 2.5 2t2.5 3l2.5 2.5l2.5 2.5q2 2 4.5 5t5.5 6q1 1 1 1.5t1 1.5q1 2 2 3.5t2 3.5q2 2 3 4.5t2 5.5v1.5t1 1.5v1.5v1.5v1.5t1 1.5v1.5v1.5v1.5v1.5t0.5 1.5l1.5 1.5v1.5v1.5v1.5v1.5
q0 8 -2 14.5t-6 12.5t-8.5 12t-11.5 11t-15 8.5t-16 6.5q-3 1 -6.5 1.5t-6.5 1.5q-6 1 -12.5 1.5t-13.5 0.5q-10 0 -19 -1.5t-17 -3.5l-15.5 -6t-14.5 -8q-7 -4 -11.5 -9.5t-8.5 -11.5t-5 -12t-1 -13v2v0v0z" />
    <glyph glyph-name="quotesingle" unicode="'" horiz-adv-x="235" 
d="M91 462l-29 137v117h110v-117l-29 -137h-52v0v0v0z" />
    <glyph glyph-name="parenleft" unicode="(" horiz-adv-x="403" 
d="M208 232q0 -35 2.5 -68t7.5 -65q6 -31 14.5 -60.5t19.5 -56.5q11 -29 25.5 -56t30.5 -53q17 -26 37 -51.5t43 -50.5l-66 -1q-24 20 -46.5 41.5t-42.5 44.5q-20 22 -38 47t-34 51t-29 52t-22 53q-10 27 -16.5 54.5t-10.5 55.5q-1 4 -1.5 7.5t-0.5 7.5v7.5v7.5v2v2
q-1 1 -1 2v2v4v4v3.5v3.5v4v4v7.5v7.5v7.5t1 7.5v4v4v4t1 4v3.5v3.5v2t1 2v2v2q4 28 10.5 55.5t16.5 54.5q9 27 22 54t29 53t34 51t38 48t42.5 44.5t46.5 40.5l66 2q-23 -25 -43 -51t-37 -53q-16 -27 -30.5 -54t-25.5 -56q-11 -28 -19.5 -58t-14.5 -62q-5 -31 -7.5 -63.5
t-2.5 -66.5v2v0v0z" />
    <glyph glyph-name="parenright" unicode=")" horiz-adv-x="403" 
d="M195 232q0 33 -3 65.5t-9 63.5q-5 31 -13.5 61t-19.5 58q-11 29 -25.5 56t-31.5 54q-16 26 -35.5 51.5t-42.5 50.5l66 2q24 -21 46 -42.5t43 -44.5q20 -23 37.5 -48t33.5 -51t29 -53t22 -54q10 -27 17 -54.5t11 -55.5v-4v-4v-3.5t1 -3.5v-4v-4v-2t1 -2v-2v-2v-4v-4v-2v-1
q0 -1 0.5 -2t0.5 -2v-4v-4v-2v-1v-2v-2v-4v-4v-3.5v-3.5q-1 -2 -1 -4v-4v-4v-4q-1 -4 -1.5 -7.5t-0.5 -7.5v-7.5v-7.5q-4 -28 -11 -55.5t-17 -54.5q-9 -27 -22 -53t-29 -52t-33.5 -51t-37.5 -47q-21 -23 -43 -44.5t-46 -40.5l-66 -1q23 26 42.5 51.5t35.5 51.5
q17 26 31.5 53t25.5 56q11 27 19.5 56.5t13.5 60.5q6 32 9 64.5t3 66.5v2v0v0z" />
    <glyph glyph-name="asterisk" unicode="*" horiz-adv-x="521" 
d="M221 513l-160 44l-0.5 -0.5l-0.5 -0.5q-1 -1 -1.5 -1h-0.5v0v0h-1v0h-1.5h-0.5v0.5v1.5q-4 1 -7.5 2.5t-7.5 3.5t-7.5 4t-6.5 5q-4 2 -6 5l-4 6t-2.5 6t-0.5 7v2v2t0.5 2t1.5 2q0 1 0.5 2t1.5 2v1.5t1 1.5l0.5 0.5l1.5 1.5q1 2 2.5 4.5t3.5 3.5q1 1 2 1.5t2 1.5
q1 0 2.5 0.5t2.5 1.5q2 1 4.5 1.5t5.5 1.5h2t2 1h3.5h2.5v0v0h0.5h1.5v-1v0h1h2h1.5h1.5h2.5h1.5t2 -0.5t2 -0.5q1 -1 2 -1.5t2 -0.5q2 -1 4.5 -2t5.5 -2q1 -1 2 -1.5t2 -0.5q1 -1 2 -1.5t2 -1.5q1 0 1.5 -0.5l1.5 -1.5h1h1q1 -1 2 -1.5t2 -1.5l125 -85q0 -1 1 -1h2l0.5 0.5
l1.5 1.5v0l1 1h0.5h1.5t1.5 0.5l1.5 1.5h1.5t0.5 1h1.5h0.5h0.5t1.5 1q1 0 1.5 0.5l0.5 0.5v0h1v0v0v0l1 1h0.5h1.5v0v1v0v0h0.5h1.5l-31 132h-0.5h-0.5l-1.5 1.5l-0.5 0.5v1.5v1.5v2v2v2v2v0v0v0v1v0v0v0v0v0v0v0.5v1.5q0 4 0.5 7.5t2.5 6.5q1 2 2 3.5t2 3.5q1 1 2.5 3
t2.5 3q2 3 5 5.5t7 3.5q3 1 7 2l8 2h2.5h2.5q6 0 10.5 -1t8.5 -3q4 -1 7.5 -3.5t6.5 -5.5q1 -1 2 -3t2 -3q0 -2 1 -3.5t2 -3.5q0 -1 0.5 -2.5t0.5 -2.5q1 -2 1.5 -4.5t0.5 -5.5v-1.5v-0.5v-1.5v-0.5q-1 -1 -1.5 -2l-0.5 -1v-1.5v-0.5v-1.5v-0.5v-1.5v-0.5q-1 -1 -1 -1.5
v-0.5v-1.5v-0.5l-31 -128l2 -2t2 -1h1h2l0.5 -0.5l1.5 -1.5h0.5h0.5h0.5h1.5q0 -1 0.5 -1h1.5q1 -1 2 -1.5t3 -2.5q1 0 1 -0.5t1 -1.5q1 0 2 -0.5t2 -1.5l125 89h2t2 1l1 0.5t2 1.5t2.5 1.5t2.5 1.5q1 0 2.5 0.5t2.5 1.5q3 1 6 1.5t6 1.5q2 1 5 1.5t6 1.5v0v0h0.5t1.5 1v0v0
h0.5h0.5h0.5h0.5h0.5h1.5h1h2h2h2q1 -1 2 -1h2t2.5 -0.5t2.5 -0.5q1 -1 2.5 -1.5t2.5 -0.5q1 -1 2 -1.5t2 -0.5q1 -1 2 -1.5t2 -1.5l2 -2l2 -2q0 -1 1 -2l2 -2l1.5 -1.5l0.5 -0.5q1 -1 1 -1.5v-1.5t0.5 -2t1.5 -2v-1.5v-0.5q0 -1 0.5 -1.5t1.5 -0.5v-2v-1v-1.5v-0.5
q0 -4 -1 -7t-3 -6t-4.5 -5.5t-6.5 -4.5t-7.5 -4t-7.5 -4t-7.5 -3.5t-7.5 -3.5h-0.5h-0.5h-0.5h-0.5v0v0l-1 -1v0v0v0v0v0v0v0h-1v0v0v0l-156 -41v-2v-1v0v0q0 -1 0.5 -1h0.5v-1.5v-0.5v0v0v-1v0v-1.5v-0.5v-1.5v-0.5v-1.5v-0.5v-1v0v-1.5v-0.5v-1.5v-0.5v-1.5v-0.5v-1v0
q-1 -1 -1 -1.5v-0.5v-1.5v-0.5l156 -41v-2v-1h0.5h1.5v0v0h0.5h1.5h0.5h0.5v-1v0v0h1v0v0q2 -1 3.5 -2t3.5 -1q2 -1 3.5 -2t3.5 -2t3.5 -2t3.5 -2t3.5 -2t3.5 -2l2.5 -2.5l2.5 -2.5q1 -2 2.5 -3t2.5 -3q1 -1 1.5 -3t0.5 -3q1 -2 1 -3.5v-3.5v-1.5v-0.5q-1 -1 -1 -1.5v-0.5
v-1.5v-0.5q-1 -1 -1 -1.5v-0.5l-0.5 -0.5t-0.5 -1.5h-0.5h-0.5q0 -1 -0.5 -1.5t-0.5 -1.5v-1.5v-0.5q-1 -1 -1 -1.5v-0.5l-2 -2t-1 -2l-2 -2l-2 -2t-2 -1.5t-2 -1.5t-2 -1.5t-2 -0.5q-3 -1 -5.5 -1.5t-4.5 -0.5q-1 0 -2.5 -0.5t-3.5 -0.5h-1.5h-1.5h-1.5h-0.5h-1v0h-2h-1
h-1.5h-0.5h-2h-2h-0.5t-1.5 1q-1 0 -1.5 0.5l-0.5 0.5q-3 0 -5.5 0.5t-4.5 1.5q-1 0 -2 0.5t-1 1.5q-1 0 -2 0.5t-2 1.5q-1 0 -2 0.5t-2 1.5q-1 0 -2 0.5t-2 1.5q-1 0 -2 0.5t-1 1.5q-1 1 -2 1.5t-2 1.5l-125 89l-2 -2l-2 -2l-0.5 -0.5t-1.5 -0.5q-1 -1 -1.5 -1h-0.5
l-1.5 -1.5l-0.5 -0.5h-2h-1h-0.5h-0.5l-1 -1v0v0v0q-1 -1 -2 -1h-1v0v0h-1v0h-0.5h-0.5h-0.5h-0.5q0 -1 -0.5 -1h-0.5v0v0q-1 -1 -1.5 -1h-0.5v0v0h-1v0l31 -129v-2v-2v-1.5t1 -0.5v-1.5v-0.5v-1.5v-0.5v-1.5v-0.5v-1h1v-1.5v-0.5v-1.5v-0.5q-1 -4 -1.5 -8t-1.5 -8
q-1 -2 -2 -3.5t-1 -3.5q-1 -1 -2 -2.5t-2 -3.5q-2 -4 -5.5 -6.5t-7.5 -4.5q-3 -1 -7 -2t-8 -1h-2.5h-2.5q-7 0 -12.5 1t-9.5 2q-4 2 -7 4.5t-5 5.5q-3 3 -4.5 6l-3.5 7q-1 3 -1 7v8v2v2v2v2v2v2v1.5t1 1.5l0.5 0.5l1.5 1.5l31 133q-1 0 -2 -0.5t-2 -0.5t-2 0.5t-2 0.5
t-1.5 0.5t-0.5 1.5q-1 0 -1.5 0.5t-1.5 0.5l-1 0.5l-1 0.5q-1 0 -2 1t-2 1q-1 1 -2.5 2t-2.5 2l-126 -86l-2 -2l-2 -2t-2 -1.5t-2 -1.5t-2 -1.5l-1 -0.5q-1 -1 -2 -1.5t-2 -0.5q-3 -1 -5.5 -1.5t-4.5 -1.5t-4.5 -1.5t-4.5 -0.5h-0.5h-0.5l-1 -1v0v0v0q-1 -1 -2 -1h-1v0v0h-1
v0h-0.5h-1.5h-1.5h-0.5h-1.5h-2.5h-2.5h-2.5t-2.5 0.5t-2.5 0.5h-2.5t-2.5 1q-1 0 -2.5 0.5t-2.5 0.5q-2 1 -4 2.5t-4 2.5q-2 2 -3.5 4t-3.5 4q-1 1 -1.5 2t-1.5 2l-1.5 1.5t-0.5 1.5v0.5v1.5q-1 1 -1 2v2v1.5v1.5v0.5v1.5q0 3 0.5 6t2.5 6t4.5 5.5t6.5 4.5t7.5 4.5t7.5 4.5
l4 2l4 2q2 0 4 1l4 2v0v0v0h1v0v0v0v0v0v0h0.5t1.5 1v0v0v0h1v0v0l159 46v-1v0v0v0h-1.5h-0.5v0v1v0v0v0v1v0v0v0.5v1.5h-1v0v0.5v1.5v0v1v0v0v0.5v1.5v0.5v1.5v1.5t1 1.5v1.5v1.5t0.5 1.5t1.5 0.5l0.5 0.5l0.5 0.5v2v0v0z" />
    <glyph glyph-name="plus" unicode="+" horiz-adv-x="730" 
d="M313 589h103v-195h244v-82h-244v-195h-103v195h-243v82h243v195v0v0v0z" />
    <glyph glyph-name="comma" unicode="," horiz-adv-x="273" 
d="M73 -118v19l9.5 7.5t8.5 7.5l7.5 7.5t6.5 8.5q1 2 2.5 4.5t2.5 4.5q1 3 2.5 5.5t2.5 4.5q1 1 1.5 3t0.5 3q1 1 1 2v1q1 3 2 5.5t1 4.5v1.5v0.5v1.5v1.5v2v2v1.5v0.5v1.5t1 0.5v1.5v0.5v1.5v0.5v1.5v1.5v1.5v1.5q-1 1 -1 1.5v1.5v1.5v1.5v1v0q-1 0 -1 0.5v1.5t-0.5 1.5
t-0.5 1.5t-0.5 1.5t-0.5 1.5q-6 0 -10.5 0.5t-8.5 1.5q-2 0 -3 0.5l-3 1.5q-1 1 -2.5 1.5t-2.5 0.5q-4 2 -8 4.5t-7 5.5q-4 4 -7 8.5t-5 8.5q-2 5 -3 10.5t-1 12.5q0 6 1 11.5t4 10.5q2 5 6.5 10t9.5 9t10.5 7t12.5 5t14.5 3t15.5 1h4.5t4.5 -1q7 0 13.5 -2l12.5 -4
q8 -3 15 -8t14 -12q5 -7 9.5 -14.5t8.5 -16.5q3 -9 5 -18.5t2 -20.5v-2v-2v-2v-1q-1 -1 -1.5 -2t-0.5 -2v-1.5v-1.5v-1.5v-1.5q-1 -1 -1 -1.5v-1.5v-1.5v-1.5l-1 -1v0q-3 -9 -7 -18t-9 -18q-6 -9 -13.5 -17.5t-15.5 -16.5q-10 -8 -20 -15t-23 -13q-12 -6 -26 -10.5t-29 -8.5
v-1v0v0z" />
    <glyph glyph-name="hyphen" unicode="-" horiz-adv-x="403" 
d="M353 267v-93h-303v93h303v0v0v0z" />
    <glyph glyph-name="period" unicode="." horiz-adv-x="273" 
d="M136 111q8 -1 14.5 -3l12.5 -4q7 -2 13.5 -5t11.5 -8q6 -4 10 -9.5t7 -10.5l4 -10.5t2 -11.5q0 -7 -2 -13t-4 -11q-3 -5 -7 -9.5t-10 -8.5q-5 -4 -11.5 -6l-13.5 -4q-6 -2 -12.5 -3.5t-14.5 -1.5t-15.5 1.5t-14.5 3.5q-4 1 -8 2.5t-8 3.5l-4 2l-4 2q-5 4 -9.5 8.5
t-6.5 9.5q-3 5 -4 11t-1 13q0 6 1 11.5t4 10.5q2 5 6.5 10.5t9.5 9.5q2 2 4 3l4 2q4 3 8 5t8 3q7 2 14.5 3.5t15.5 1.5v2v0v0z" />
    <glyph glyph-name="slash" unicode="/" horiz-adv-x="351" 
d="M10 -9l245 700h87l-245 -700h-87v0v0v0z" />
    <glyph glyph-name="zero" unicode="0" horiz-adv-x="625" 
d="M587 341q0 -40 -5 -76t-15 -68q-9 -31 -23 -59t-33 -52t-41 -42t-47 -30q-24 -11 -52 -16.5t-59 -5.5t-59 5.5t-53 16.5q-25 12 -47 30t-41 42t-33 52t-23 59q-10 32 -14.5 67t-4.5 75q0 39 4.5 75t14.5 67q9 32 23 60t33 52t41 42t47 30t53 18t59 6t59 -6t52 -18
q25 -12 47 -30t41 -42t33 -52t23 -60q10 -31 15 -67t5 -75v2v0v0zM465 341q0 29 -2.5 55t-7.5 50q-6 23 -13.5 43.5t-18.5 37.5q-10 17 -22 30t-25 22q-14 8 -30 12.5t-34 4.5t-34 -4.5t-30 -12.5q-13 -9 -25.5 -22t-22.5 -30t-17.5 -37.5t-12.5 -43.5q-6 -24 -8 -50.5
t-2 -56.5t2 -57t8 -50q5 -24 12.5 -44.5t17.5 -37.5t22.5 -30t25.5 -21q14 -9 30 -13t34 -4t34 4t30 13q13 8 25 21t22 30q11 17 18.5 37.5t13.5 44.5q5 23 7.5 50t2.5 57v2v0v0z" />
    <glyph glyph-name="one" unicode="1" horiz-adv-x="625" 
d="M375 682v-682h-123v682h123v0v0v0z" />
    <glyph glyph-name="two" unicode="2" horiz-adv-x="625" 
d="M582 93v-93h-540v7q7 5 14 11.5l14 13.5q8 7 15.5 14.5l14.5 14.5l15.5 15.5l14.5 14.5l16 15.5l16 15.5q3 4 6.5 7.5l7.5 7.5l7.5 7.5l7.5 7.5l2 2l2 2l1 1l2 2l2 2l2 2l2 2l2 2q0 1 1 2l2 2v0l1 1l1 1l1 1l2 2l2 2l2 2l2 2l16.5 16.5t15.5 17.5q4 5 8 9.5t8 8.5
q3 5 7 9.5t8 8.5t7.5 8l7.5 9l6.5 8.5t7.5 8.5q7 8 13.5 16.5l12.5 16.5q2 2 3.5 4.5t2.5 5.5q2 2 3.5 4.5t3.5 4.5t3.5 4t3.5 5q1 2 2.5 4t2.5 4l6 8t4 8l1.5 3l1.5 3q1 0 1 1t1 2l2 4l2 4q2 3 2.5 6t1.5 6q1 2 1.5 3.5t0.5 2.5q2 5 3 9.5t2 8.5q2 5 2.5 9.5t1.5 9.5v5.5
t1 5.5v5v6q0 14 -2.5 26.5t-8.5 24.5q-5 11 -12.5 21.5t-18.5 19.5q-10 9 -21.5 16t-24.5 11q-13 5 -28 7t-30 2q-12 0 -24 -1.5t-23 -3.5q-6 -1 -11.5 -3l-11.5 -4l-12 -4l-12 -4q-12 -5 -24 -12t-24 -16q-13 -9 -25.5 -20t-24.5 -24v125q2 2 5 3.5t7 2.5q3 2 6.5 4t7.5 4
q1 1 2 1t2 1l4 2l4 2t3.5 2t2.5 2q2 0 3.5 1t3.5 2q3 2 6 3t6 3q3 1 6.5 2.5t6.5 2.5l11.5 4.5t13.5 4.5q3 1 5.5 2t5.5 2q3 0 6.5 1t6.5 2t6 1.5t6 1.5q3 0 6.5 0.5t6.5 1.5q5 1 11.5 1.5t13.5 1.5h6t7 1h6.5h6.5q28 0 54 -3.5t50 -11.5q23 -7 43.5 -18.5t39.5 -25.5
q18 -15 31.5 -32t22.5 -37q10 -19 14.5 -40.5t4.5 -44.5v-4v-3q-1 -2 -1 -3.5v-3.5t-0.5 -4t-0.5 -3q0 -2 -0.5 -3.5t-0.5 -3.5q-1 -4 -1.5 -7.5t-0.5 -6.5v-4v-3q-1 -2 -1 -3.5v-3.5q-5 -17 -12.5 -34.5t-16.5 -34.5q-10 -18 -22.5 -36t-27.5 -37l-34.5 -40t-41.5 -44
q-22 -24 -48.5 -49.5l-55.5 -53.5l326 2v0v0v0z" />
    <glyph glyph-name="three" unicode="3" horiz-adv-x="625" 
d="M101 569v93q1 -1 2 -1t3 1q1 0 2 0.5l3 1.5q1 0 2 0.5l3 1.5q2 0 3.5 0.5t2.5 1.5q4 1 8.5 2t8.5 3q4 1 8.5 2t8.5 2l8 2t9 2q4 0 8.5 1t8.5 2q8 1 17 1.5t19 1.5q9 1 19 1.5t20 0.5q28 0 54 -3.5t48 -9.5q23 -6 43.5 -15t36.5 -21q17 -12 29.5 -26t21.5 -30t13.5 -34.5
t4.5 -38.5q0 -14 -2 -27l-4 -25q-4 -12 -9 -22t-10 -18q-7 -9 -15 -17t-19 -16l-23.5 -14.5t-26.5 -13.5q15 -4 29 -9.5t25 -13.5q11 -7 20.5 -17t16.5 -21q8 -11 13.5 -23t9.5 -24t6 -24.5t3 -25.5v-1.5v-0.5v0v0v-1.5v-0.5v0v0q0 -23 -5 -44t-14 -39q-10 -19 -23.5 -35.5
t-32.5 -30.5t-40.5 -24.5t-46.5 -17.5q-24 -6 -51 -9.5t-56 -3.5q-11 0 -22.5 0.5t-22.5 2.5q-11 1 -22.5 2.5t-22.5 2.5q-3 0 -6 0.5t-5 0.5q-3 1 -6 1.5t-6 1.5t-5.5 1.5t-5.5 1.5t-5.5 2t-5.5 2q-4 1 -8 2.5t-8 2.5q-2 1 -4 1.5t-4 1.5q-3 1 -5.5 2t-5.5 2t-5.5 2.5
t-5.5 2.5v108l6 -4l6 -4q3 -1 5.5 -2.5t5.5 -3.5q3 -1 6 -2.5l7 -3.5q3 -1 6 -2.5t6 -2.5t6 -2.5t6 -2.5q2 -1 5 -2l6 -2q5 -2 11.5 -3.5t13.5 -3.5q6 -2 11.5 -3.5t11.5 -2.5l11.5 -2l11.5 -2l23 -2t25 -1q15 0 29 1.5t27 5.5q12 4 23 10t21 13q9 8 16 16t11 18
q5 10 7.5 21t2.5 24q0 12 -3 23t-8 21q-6 11 -13.5 20t-17.5 17t-23.5 14.5t-29.5 10.5t-34 6t-38 2h-2h-2h-0.5h-1.5h-1.5h-0.5h-1.5h-2.5h-1.5h-1.5v92q20 -1 38.5 0t34.5 4q17 3 30 8t23 12q11 7 18.5 15t12.5 17q6 9 8.5 19t2.5 22q0 11 -2.5 21.5t-7.5 20.5
q-5 9 -12.5 17t-17.5 15t-22 12t-25 9q-13 3 -28 5t-32 2h-3h-2h-3h-1q-1 -1 -2.5 -1h-2.5h-1.5h-2.5h-1.5h-1.5h-3h-1q-2 -1 -3 -1h-2h-0.5h-1.5h-1.5h-0.5q-3 0 -6.5 -0.5t-6.5 -1.5q-3 0 -6.5 -0.5t-6.5 -1.5t-6.5 -1.5t-6.5 -0.5q-4 -1 -7 -1.5t-6 -1.5
q-7 -1 -13.5 -3.5t-14.5 -4.5l-8 -2t-7 -3l-8 -2t-8 -3v2v0v0z" />
    <glyph glyph-name="four" unicode="4" horiz-adv-x="625" 
d="M497 691v-379h91v-88h-91v-224h-122v224h-362v45l432 422h52v0v0v0zM372 506l-195 -194h198v194h-3v0v0v0z" />
    <glyph glyph-name="five" unicode="5" horiz-adv-x="625" 
d="M505 682v-88h-268v-171v-0.5t1 -0.5v-1v0h0.5h1.5h0.5h0.5v0v0h0.5h1.5h0.5h0.5h0.5h0.5h0.5h1.5v0v0v0l1 1h0.5h1.5v0h1v0v0h0.5h1.5v0v0h0.5h1.5h0.5h0.5v0h1v0v0h1h2v0v0h0.5h1.5q33 -1 63 -5t56 -12q26 -7 48.5 -19t41.5 -27q19 -16 33 -33t23 -36q10 -19 15 -39.5
t5 -43.5q0 -24 -5 -45t-15 -41q-9 -19 -24 -37t-35 -33q-19 -16 -41.5 -27t-48.5 -19q-25 -6 -52.5 -9.5t-57.5 -3.5h-7.5h-6.5q-1 1 -2 1h-2h-4.5h-4.5q-7 0 -13.5 0.5t-12.5 1.5q-7 1 -13.5 1.5t-11.5 1.5q-7 1 -13 1.5t-11 0.5h-7t-6 1q-2 1 -4 1t-4 1q-1 0 -2 0.5
t-2 0.5q-4 1 -7.5 2t-6.5 2q-4 1 -7 2t-5 2l-13.5 4l-13.5 4q-6 2 -12.5 5l-13.5 6v103q11 -7 22.5 -13t22.5 -11t23 -9t25 -7q6 -1 11.5 -2.5t11.5 -2.5l11.5 -2l11.5 -2l23 -2t24 -1q18 0 35 2.5t32 6.5q15 5 29.5 11.5t27.5 15.5q14 9 23 19t16 21t10.5 22.5t3.5 24.5
t-3.5 25t-10.5 24q-7 11 -17 21.5t-23 20.5t-29 17.5t-35 11.5q-19 5 -40.5 7.5t-45.5 2.5h-6h-5q-3 -1 -6 -1h-6h-5.5t-5.5 -1q-3 0 -5.5 -0.5t-5.5 -0.5q-7 -1 -13.5 -1.5t-11.5 -1.5l-12 -2t-13 -2v357h379v0v0v0z" />
    <glyph glyph-name="six" unicode="6" horiz-adv-x="625" 
d="M396 691l74 -75q-21 -10 -41 -21.5t-39 -24.5l-37 -26.5t-35 -28.5l-31 -31.5t-27 -31.5q-13 -16 -23.5 -31.5t-18.5 -32.5q-1 -1 -1.5 -2.5t-0.5 -3.5l-0.5 -1l-0.5 -1q-1 -1 -1.5 -2t-0.5 -2q-1 -1 -1.5 -2.5t-0.5 -3.5l-0.5 -1l-0.5 -1q-1 -1 -1.5 -2t-0.5 -2l13 4.5
t14 5.5q8 2 15.5 4.5t15.5 4.5q6 2 12 3l12 2q3 0 6 1t6 1q2 0 4.5 0.5t5.5 0.5q7 0 14.5 0.5t15.5 0.5q26 0 49 -3.5t45 -10.5q20 -7 40 -18t36 -25q17 -14 29.5 -30t21.5 -34t13.5 -37.5t4.5 -40.5t-4.5 -40.5t-14.5 -37.5q-9 -18 -23 -34t-33 -31t-39.5 -26t-41.5 -19
q-22 -6 -46 -9.5t-49 -3.5q-31 0 -59 4t-53 11q-25 8 -46.5 20.5t-40.5 28.5q-19 17 -33.5 36t-24.5 41q-9 22 -13.5 46.5t-4.5 51.5q0 32 5 63.5t16 62.5t27.5 61.5t38.5 61.5q22 30 48.5 58t57.5 54q32 26 69 50.5t79 46.5v2v0v0zM182 265q-1 -4 -1.5 -8t-2.5 -7
q-1 -3 -1.5 -6t-0.5 -6q-1 -3 -1 -6v-6v-6v-5q0 -16 2.5 -30t8.5 -26q5 -12 14.5 -22.5t20.5 -19.5t22.5 -15.5t24.5 -11.5q5 -1 9 -2.5t9 -2.5q9 -2 18 -2.5t18 -0.5q15 0 28.5 1.5t26.5 5.5q12 4 23 10t21 14q9 8 16 16.5t11 18.5q5 11 7.5 22t2.5 24q0 11 -2.5 21.5
t-7.5 19.5t-12.5 18t-17.5 16q-10 8 -21 13t-25 9q-13 4 -26.5 6t-28.5 2h-4.5h-4.5q-2 -1 -4.5 -1h-5.5h-4h-4q-2 -1 -4 -1h-4q-4 -1 -7.5 -1.5t-7.5 -0.5q-4 -1 -7.5 -1.5t-7.5 -1.5q-2 -1 -4.5 -1.5t-4.5 -0.5q-2 -1 -4 -1.5t-4 -1.5q-4 -1 -7.5 -2.5t-7.5 -3.5
q-5 -2 -9.5 -4.5t-9.5 -4.5q-2 -1 -4.5 -2t-4.5 -2q-3 -2 -5.5 -3t-4.5 -2v2v0v0z" />
    <glyph glyph-name="seven" unicode="7" horiz-adv-x="625" 
d="M612 682l-386 -691l-109 38l313 560h-369v93h551v0v0v0z" />
    <glyph glyph-name="eight" unicode="8" horiz-adv-x="625" 
d="M585 184q0 -22 -5.5 -41.5t-14.5 -36.5q-10 -17 -24.5 -32t-33.5 -29t-41 -24.5t-46 -16.5q-25 -5 -51 -8.5t-54 -3.5q-29 0 -56 3.5t-52 8.5q-24 6 -46.5 16.5t-42.5 24.5q-19 14 -34 29.5t-24 32.5q-10 17 -15 36t-5 40q0 14 1.5 26t5.5 24t10 23t13 21q8 10 17 19
t20 18t24.5 17t29.5 15q-12 7 -22.5 14.5t-20.5 15.5q-9 8 -17 17t-15 19q-7 9 -11.5 19t-8.5 20t-5 20.5t-1 21.5q0 21 4.5 40t13.5 37q10 17 24 33t33 30t39.5 24.5t43.5 17.5t49 10.5t54 3.5q26 0 51.5 -3.5t47.5 -10.5q23 -7 42.5 -18t37.5 -25q17 -14 30.5 -30
t22.5 -34q10 -18 14.5 -37t4.5 -40v-2v-2v-2v-2q-1 -1 -1 -2.5v-2.5v-2v-2v-1.5v-0.5q-1 -1 -1 -1.5v-0.5v-2v-2q-1 -1 -2 -2.5t-1 -2.5v-2v-2l-6.5 -14.5l-7.5 -15.5q-4 -7 -9 -14.5t-11 -15.5q-6 -7 -13.5 -14.5t-16.5 -13.5q-8 -6 -17 -12t-20 -11q14 -7 27 -14.5
t24 -15.5q11 -9 21 -18.5t17 -20.5q8 -11 13 -22.5t9 -23.5t6 -24t2 -25v2v0v0zM462 192q0 11 -2.5 21t-7.5 20q-5 9 -12.5 18t-18.5 16q-10 8 -22 13.5t-26 9.5q-13 4 -27.5 6t-30.5 2q-18 0 -33.5 -2t-29.5 -6t-26 -9t-23 -13q-10 -7 -17.5 -16t-13.5 -19
q-5 -10 -7.5 -20.5t-2.5 -22.5t2.5 -23t7.5 -21q6 -10 14 -18t19 -16q10 -7 22 -13t25 -10q14 -4 29 -5.5t31 -1.5q18 0 34 2t30 6t26 10t21 14q10 8 17 17t12 18t7.5 19.5t2.5 21.5v2v0v0zM450 495q0 10 -2.5 19.5t-7.5 18.5t-11.5 17.5t-16.5 15.5q-9 8 -20 13t-22 9
t-24.5 6t-27.5 2q-16 0 -30 -2t-26 -5q-12 -4 -22.5 -9t-19.5 -12q-10 -7 -17 -15t-12 -17q-4 -9 -6.5 -19.5t-2.5 -21.5q0 -10 2.5 -20.5t7.5 -19.5t12.5 -17t17.5 -16t21 -14t22 -10t24 -5.5t27 -1.5h6.5h6.5q10 1 19.5 2.5t17.5 4.5q11 4 22.5 10t21.5 13q9 8 16.5 16
t13.5 17q5 9 7.5 19t2.5 20v2v0v0z" />
    <glyph glyph-name="nine" unicode="9" horiz-adv-x="625" 
d="M233 -9l-75 72l35.5 18.5t33.5 19.5l31 21.5t29 21.5t27 22.5t24 22.5t21 22.5t18 23.5q2 2 2.5 3.5t1.5 2.5t1.5 2t0.5 2q1 1 2 2.5t2 2.5q1 2 2 3.5t2 2.5q1 2 2 4.5t3 5.5q2 2 3.5 4.5t2.5 5.5q1 2 2.5 4.5t2.5 5.5l2.5 5t2.5 6q0 2 1 4.5t2 5.5q1 2 1.5 4.5t1.5 5.5
q-2 -1 -3.5 -2t-3.5 -2q-3 -1 -6.5 -2.5t-7.5 -3.5l-7.5 -2.5t-8.5 -2.5q-2 0 -4 -0.5t-4 -1.5q-3 -1 -6 -1.5t-6 -1.5q-4 -1 -7 -1.5t-6 -0.5q-3 -1 -5.5 -1.5t-5.5 -0.5q-3 -1 -5.5 -1.5t-5.5 -0.5q-3 -1 -5.5 -1.5t-4.5 -0.5q-3 -1 -5.5 -1h-4.5h-5.5h-4.5h-5.5h-4.5
q-25 0 -48.5 3.5t-45.5 10.5q-22 8 -41 18.5t-36 25.5q-18 14 -31.5 30t-21.5 34q-9 17 -13 36.5t-4 40.5q0 19 4 37t13 36q10 17 23 33.5t31 32.5t38.5 28t43.5 19q24 8 50.5 12t56.5 4q29 0 56 -4.5t51 -13.5q25 -9 46.5 -22.5t41.5 -30.5q19 -18 32.5 -38t23.5 -43
q9 -22 14.5 -46.5t5.5 -50.5v-6.5v-6.5q-1 -4 -1 -7v-6q-1 -3 -1.5 -6t-0.5 -6q-1 -4 -1.5 -7t-0.5 -6l-2 -13.5t-3 -12.5q-1 -3 -2 -6.5t-2 -6.5q-1 -4 -2 -7l-2 -6q-8 -25 -19.5 -50.5t-26.5 -49.5t-33 -48t-39 -47q-22 -24 -45.5 -45t-49.5 -40t-54 -35.5t-58 -29.5v-1v0
v0zM167 490q0 -12 2.5 -22.5t7.5 -20.5q6 -10 14 -18.5t19 -16.5q10 -8 21.5 -14t24.5 -10t27 -5.5t29 -1.5h4h4q4 0 8 0.5t8 0.5l12 2.5t14 2.5q7 2 14 3.5t14 3.5q8 2 15.5 5t14.5 7q1 1 2 1.5l3 1.5q1 0 1 0.5t1 0.5t2 1t2 1q1 1 2 1.5l3 1.5q1 0 2 0.5t2 1.5l1 0.5
t2 0.5q1 2 1.5 3.5t0.5 3.5q1 1 1 3v3v3t1 3q0 1 0.5 2.5t0.5 2.5v2v2q0 2 0.5 3.5t1.5 2.5v2v2v3.5v2.5v0.5v1.5v1.5v1.5v1.5v1.5v1.5v1.5q0 12 -3 24t-9 22q-5 11 -12.5 21t-18.5 19q-10 9 -21.5 16t-24.5 11q-4 2 -8.5 3t-9.5 2q-9 2 -17.5 3.5t-18.5 1.5q-16 0 -30 -2
t-26 -6q-13 -4 -24.5 -9.5t-20.5 -13.5q-10 -7 -17.5 -16t-12.5 -19q-4 -10 -6.5 -20.5t-2.5 -21.5v2v0v0z" />
    <glyph glyph-name="colon" unicode=":" horiz-adv-x="273" 
d="M136 111q8 -1 14.5 -3l12.5 -4q7 -2 13.5 -5t11.5 -8q6 -4 10 -9.5t7 -10.5l4 -10.5t2 -11.5q0 -7 -2 -13t-4 -11q-3 -5 -7 -9.5t-10 -8.5q-5 -4 -11.5 -6l-13.5 -4q-6 -2 -12.5 -3.5t-14.5 -1.5t-15.5 1.5t-14.5 3.5q-4 1 -8 2.5t-8 3.5l-4 2l-4 2q-5 4 -9.5 8.5
t-6.5 9.5q-3 5 -4 11t-1 13q0 6 1 11.5t4 10.5q2 5 6.5 10.5t9.5 9.5q2 2 4 3l4 2q4 3 8 5t8 3q7 2 14.5 3.5t15.5 1.5v2v0v0zM136 458q8 -1 14.5 -3l12.5 -4q7 -2 13.5 -5t11.5 -8q6 -4 10 -9.5t7 -10.5l4 -10.5t2 -11.5q0 -7 -2 -13t-4 -11q-3 -5 -7 -9.5t-10 -9.5
q-5 -4 -11.5 -7.5t-13.5 -5.5q-6 -2 -12.5 -3t-14.5 -1t-15.5 1t-14.5 3q-4 1 -8 3l-8 4q-2 2 -4 3.5t-4 2.5l-9.5 9.5t-6.5 9.5q-3 5 -4 11t-1 13q0 6 1 11.5t4 10.5q2 5 6.5 10.5t9.5 9.5q2 2 4 3l4 2q4 3 8 5t8 3q7 2 14.5 3.5t15.5 1.5v2v0v0z" />
    <glyph glyph-name="semicolon" unicode=";" horiz-adv-x="273" 
d="M76 -115v19q1 2 2 2.5t2 1.5t2 1.5l3 1.5q0 1 1 1.5t2 1.5q2 1 2.5 1.5l1.5 1.5l0.5 0.5t1.5 0.5l1.5 1.5l0.5 0.5q0 1 0.5 2t1.5 1q2 1 2.5 2t1.5 2q0 1 1 1.5t2 1.5t1 1.5t1 1.5t2 2.5t2 2.5q1 2 2 3.5t3 3.5l2 4l2 4q0 2 0.5 4t1.5 4q0 2 0.5 4t1.5 4t1.5 4t0.5 4v4
t1 4v4v4v1.5v0.5v0v0v1.5v0.5v0v0v1v0v1.5v0.5v0v0h-1v1v0.5v1.5v1.5v1.5v1.5v1.5q-7 1 -14.5 2.5t-13.5 3.5q-2 1 -3.5 1.5t-3.5 1.5q-4 2 -7.5 4.5t-6.5 5.5q-4 4 -8 8.5t-6 9.5l-2 10.5t-1 11.5q0 8 1 14t4 12q2 6 6 10.5t10 8.5q5 4 11 7t13 5q6 2 13.5 3t16.5 1
t17.5 -2t15.5 -5q8 -4 15 -9t13 -12q5 -7 9 -14.5t7 -15.5t4.5 -17t1.5 -18q0 -14 -2.5 -26.5t-7.5 -23.5q-4 -11 -11 -22t-15 -21q-9 -10 -20 -18.5t-25 -15.5q-13 -8 -28.5 -13.5t-32.5 -9.5v-1v0v0zM211 398q0 -7 -2 -13.5t-4 -11.5q-3 -6 -7 -10.5t-10 -9.5
q-5 -4 -11.5 -7.5t-13.5 -5.5q-6 -2 -12.5 -3t-14.5 -1t-15.5 1t-14.5 3q-4 1 -8 3l-8 4q-2 2 -4 3.5t-4 2.5l-9.5 9.5t-6.5 9.5q-3 5 -4 11t-1 13q0 6 1 11.5t4 10.5q2 5 6.5 10.5t9.5 9.5q2 2 4 3l4 2q4 3 8 5t8 3q7 2 14.5 3.5t15.5 1.5t14.5 -1.5t12.5 -3.5
q7 -2 13.5 -5t11.5 -8q6 -4 10 -9.5t7 -10.5l4 -10.5t2 -11.5v2v0v0z" />
    <glyph glyph-name="less" unicode="&#x3c;" horiz-adv-x="730" 
d="M68 313v82l593 202v-87l-470 -156l470 -156v-87l-593 202v0v0v0z" />
    <glyph glyph-name="equal" unicode="=" horiz-adv-x="730" 
d="M70 285h590v-82h-590v82v0v0v0zM70 503h590v-82h-590v82v0v0v0z" />
    <glyph glyph-name="greater" unicode="&#x3e;" horiz-adv-x="730" 
d="M661 313l-593 -202v87l470 156l-470 156v87l593 -202v-82v0v0v0z" />
    <glyph glyph-name="question" unicode="?" horiz-adv-x="416" 
d="M192 111q8 -1 14.5 -3l13.5 -4q3 -1 6 -2.5t7 -2.5l6 -4l6 -4q5 -4 9 -9.5t7 -10.5t4.5 -10.5t1.5 -11.5q0 -7 -1.5 -13t-4.5 -11t-7 -9.5t-9 -8.5q-3 -2 -6 -3.5t-6 -2.5q-4 -1 -7 -2l-6 -2q-7 -2 -13.5 -3.5t-14.5 -1.5t-15.5 1.5t-14.5 3.5q-4 1 -8 2.5t-8 3.5l-4 2
l-4 2q-5 4 -9.5 8.5t-6.5 9.5q-3 5 -4 11t-1 13q0 6 1 11.5t4 10.5q2 5 6.5 10.5t9.5 9.5q2 2 4 3l4 2q4 3 8 5t8 3q7 2 14.5 3.5t15.5 1.5v2v0v0zM102 595l59 96q22 -1 41.5 -3t35.5 -7q17 -4 31.5 -10.5t26.5 -14.5q11 -9 20.5 -18t16.5 -18q8 -9 13.5 -18.5t9.5 -19.5
q1 -3 1.5 -5.5t0.5 -4.5t0.5 -3.5t1.5 -3.5q0 -1 0.5 -1.5t0.5 -1.5v-1.5v-0.5v-1.5v-1.5v-2t1 -2v-1.5v-0.5v-1.5v-1.5v-2v-2q0 -13 -1.5 -26.5t-5.5 -26.5t-9.5 -25.5t-13.5 -24.5l-8 -12.5t-7 -12.5l-8 -11.5l-8 -11.5t-8.5 -12l-8.5 -11q-4 -6 -8.5 -11.5l-8.5 -10.5
l-17.5 -22l-16.5 -22q-8 -10 -15.5 -20.5t-15.5 -20.5q-7 -10 -12.5 -20t-9.5 -20t-6 -19.5t-2 -18.5v-1.5v-1.5v-1.5v-1.5v-1.5v-1.5v-1.5t1 -1.5q-10 4 -18.5 8.5t-14.5 8.5q-7 5 -13 10t-10 10t-8 11t-6 13l-2 14.5t-1 16.5q0 10 1 19.5t4 18.5q2 9 6 18t10 18
q5 8 11 16.5t13 16.5q5 8 11.5 16l13.5 16q1 1 1.5 2t1.5 2q0 1 1.5 2t2.5 2q0 1 1 2l2 2t1.5 2t1.5 2q0 1 0.5 1.5t1.5 0.5q0 1 0.5 1.5l0.5 0.5q1 1 2 2.5t2 2.5t1.5 2t1.5 2q2 1 2.5 2t1.5 2q2 3 4 5.5t4 5.5q2 2 4 5l4 6t3.5 6t3.5 6t3.5 6t3.5 6q2 4 3.5 8t2.5 8
q1 2 1.5 4t1.5 4q2 6 3 12t1 13q0 8 -2 14.5t-5 12.5q-2 6 -6 11.5t-10 9.5q-5 5 -11.5 8t-14.5 6q-7 2 -15.5 3.5t-18.5 1.5h-1h-1h-2h-2h-2h-2h-1h-1q-2 -1 -3 -1h-2h-3h-2q-3 -1 -5.5 -1.5t-4.5 -0.5h-2h-2q-1 -1 -2 -1h-2h-1.5h-0.5h-0.5h-0.5h-0.5h-0.5q-1 -1 -1.5 -1
h-0.5v0v0h-1v0h-2h-1v0v0h-1v0l-0.5 -0.5l-0.5 -0.5h-1.5h-0.5v0v0h-1v0v2v0v0z" />
    <glyph glyph-name="at" unicode="@" horiz-adv-x="1262" 
d="M1113 9h113q-21 -25 -45 -48.5t-50 -44.5q-27 -20 -57 -37.5t-64 -31.5t-71 -24.5t-78 -17.5t-85 -10.5t-91 -3.5q-73 0 -137.5 7.5t-120.5 21.5q-56 15 -105 37t-90 51t-72 63t-52 73q-20 40 -30.5 85.5t-10.5 97.5v16.5t1 17.5q0 8 1.5 17t2.5 18t3 18t5 18q2 9 4.5 18
t6.5 19q11 33 27.5 65t38.5 63q23 31 52 60.5t63 57.5q35 28 77.5 49t91.5 35q50 14 107 21t123 7q56 0 108.5 -6.5t98.5 -20.5q47 -13 89 -33.5t79 -47.5t64.5 -57.5t46.5 -64.5t28.5 -72t9.5 -79q0 -34 -7.5 -65.5t-21.5 -61.5t-34.5 -58.5t-49.5 -55.5q-28 -27 -58 -47
t-62 -34q-31 -13 -64 -19t-68 -6q-15 0 -29 1t-25 2q-11 2 -20.5 6t-17.5 9q-7 5 -12.5 11.5t-9.5 13.5q-4 8 -6 17t-2 19q-6 -7 -12.5 -13t-14.5 -11q-7 -5 -14.5 -9.5l-15.5 -9.5q-4 -2 -7.5 -4t-7.5 -4t-7.5 -4t-7.5 -4q-4 -1 -8 -2.5t-8 -3.5q-4 -1 -7.5 -2.5t-7.5 -2.5
q-5 -1 -9.5 -2.5t-8.5 -2.5q-2 0 -4 -0.5t-4 -0.5q-2 -1 -4 -1.5t-4 -0.5h-3h-3h-6h-6h-4h-3h-4h-4q-24 0 -46 3.5t-42 10.5q-20 8 -37.5 19t-34.5 27q-16 15 -27.5 33t-19.5 37q-8 20 -12 42t-4 46q0 29 5.5 57t17.5 55q13 26 31.5 51.5t43.5 49.5t50.5 42t53.5 30
q27 12 56 18t59 6q10 0 18.5 -0.5t17.5 -2.5q5 0 9.5 -1t8.5 -2q13 -3 25.5 -7.5t24.5 -9.5q11 -6 22.5 -13.5t21.5 -15.5l6 -6l6 -6l12.5 -12.5t11.5 -13.5l21 78h110l-102 -377q-1 -3 -2 -4.5t-1 -3.5v-2.5v-3.5q-1 -1 -1 -2.5v-3.5v-2v-2q0 -4 0.5 -8.5t1.5 -7.5
q1 -1 1.5 -2.5t1.5 -2.5q1 -2 2.5 -3.5l3.5 -3.5q3 -3 6.5 -4.5t7.5 -3.5q4 -1 8.5 -1.5t10.5 -0.5q4 0 8.5 1t9.5 2q6 2 13.5 4t14.5 5q8 3 15.5 7l15.5 8q4 2 8.5 4.5t8.5 5.5q4 2 8.5 5t8.5 6q11 8 21.5 18l20.5 20q11 11 21.5 23.5t20.5 26.5q9 14 16 29.5t12 31.5
q5 17 7.5 35.5t2.5 38.5q0 33 -8 63t-23 58q-16 28 -39 53t-55 47q-31 22 -65.5 38.5t-74.5 27.5q-39 11 -82 16.5t-90 5.5q-55 0 -105.5 -7.5t-95.5 -22.5t-86 -37.5t-77 -52.5q-37 -30 -64 -63.5t-45 -71.5q-17 -37 -26 -79t-9 -87t9 -84t26 -74q17 -34 43.5 -63t60.5 -53
q35 -24 76 -42.5t90 -30.5t104.5 -18.5t118.5 -6.5q38 0 74 3t70 8q32 5 62 12.5t58 18.5q27 10 50.5 22t44.5 25q20 13 37.5 27t30.5 28v2v0v0zM413 213q0 -17 2.5 -32t6.5 -28q5 -13 12 -24t17 -21q9 -10 19.5 -17t22.5 -12q13 -5 26.5 -7.5t28.5 -2.5q20 0 39.5 4.5
t38.5 14.5q19 9 37 23.5t34 33.5q17 19 29.5 39t21.5 41t13.5 43.5t4.5 45.5q0 16 -2.5 30.5t-7.5 27.5q-6 13 -12.5 24t-16.5 21q-9 10 -20 17.5t-25 11.5q-13 5 -27 7.5t-30 2.5q-21 0 -40 -5t-38 -14q-19 -10 -35.5 -24t-33.5 -33q-16 -19 -28 -39t-20 -41
q-9 -21 -13 -43.5t-4 -45.5v2v0v0z" />
    <glyph glyph-name="A" unicode="A" horiz-adv-x="833" 
d="M452 686l381 -686h-125l-113 201h-363l-107 -201h-125l366 686h86v0v0v0zM407 536l-127 -247h265l-138 247v0v0v0z" />
    <glyph glyph-name="B" unicode="B" horiz-adv-x="703" 
d="M93 0v682h248q34 -1 63 -5t53 -11q25 -7 45 -16.5t36 -22.5q15 -13 27.5 -27t20.5 -28t12 -29t5 -31v-1.5v-0.5v-1.5v-0.5v-1.5v-0.5v0v0q0 -13 -2 -25.5t-6 -23.5t-10 -21t-14 -19t-18.5 -17t-22.5 -15q-13 -7 -26.5 -13.5t-30.5 -11.5v0q24 -4 45 -10t40 -14t35.5 -18
t29.5 -22q14 -12 24.5 -25.5t17.5 -27.5q6 -14 9.5 -30t3.5 -33v-2v-2v-2v-2q-1 -1 -1 -2v-2v-2v-2v-2v-2q-1 -1 -1 -2v-2v-2v-2q-1 -1 -1 -2v-2q-4 -14 -11 -27.5t-17 -26.5t-23.5 -25.5t-30.5 -23.5q-16 -12 -38 -20.5t-48 -13.5q-26 -6 -56 -8.5t-65 -2.5h-293v0v0v0z
M216 302v-214h154q24 -1 45 0t37 5q17 3 30.5 9t23.5 13q9 7 17.5 14.5t13.5 15.5q6 8 9 16.5t5 17.5v0.5v1.5v0.5t1 1.5v0v1v0.5v1.5v2v2v2v2q0 11 -3.5 21.5t-8.5 20.5q-6 9 -14.5 18t-19.5 16q-12 8 -27 13t-33 9t-38.5 6t-44.5 2l-147 2v0v0v0zM216 594v-204h81
q23 -1 42.5 0t36.5 5q17 3 31 8t25 12t19.5 15.5t14.5 18.5q5 10 8 22t3 26q0 9 -2.5 18t-6.5 17t-9.5 16t-13.5 15q-9 7 -20 12t-25 9q-15 4 -33 6t-39 2l-112 2v0v0v0z" />
    <glyph glyph-name="C" unicode="C" horiz-adv-x="885" 
d="M820 635v-105q-7 2 -13.5 4.5t-12.5 5.5q-6 2 -12 4.5t-12 4.5q-13 5 -24.5 9l-22.5 8q-3 1 -5.5 2t-5.5 2q-3 0 -5.5 1t-5.5 2l-6 2t-5 2q-3 0 -6 1l-6 2t-6 1.5t-6 1.5q-3 0 -5.5 0.5t-5.5 1.5t-6 1.5t-5 1.5q-3 0 -6 0.5t-6 1.5q-3 0 -6.5 0.5t-6.5 1.5q-3 0 -6.5 0.5
t-6.5 0.5q-7 1 -13.5 1.5t-12.5 1.5h-3.5t-3.5 1h-3.5h-3.5h-3.5t-3.5 1h-2.5h-3.5h-4t-3 1h-4h-4h-4h-4h-2h-2q-37 0 -70.5 -5t-63.5 -14q-31 -9 -58 -23t-52 -32q-24 -19 -42.5 -40t-29.5 -44q-13 -24 -18.5 -49.5t-5.5 -53.5q0 -29 5.5 -55.5t18.5 -49.5
q11 -23 28.5 -43.5t42.5 -38.5q23 -18 50.5 -31.5t59.5 -22.5t67 -13.5t73 -4.5h12h12q3 0 6 0.5t6 0.5q5 0 9.5 0.5t9.5 0.5q5 1 9.5 1.5t9.5 1.5q5 0 9.5 1t9.5 1q4 1 9 2t9 2q5 1 9.5 2t9.5 2t9.5 2.5t9.5 2.5t9.5 2.5t9.5 2.5q4 2 9 3.5t9 2.5q5 2 9.5 3.5t9.5 2.5
q5 2 9.5 3.5t9.5 3.5t9.5 3.5t8.5 3.5t9 4l10 4q4 2 8.5 4t9.5 4t9.5 4.5t8.5 5.5v-105q-16 -7 -32.5 -13.5t-33.5 -12.5q-16 -6 -34 -10.5t-36 -8.5q-19 -4 -38.5 -6t-41.5 -4t-45 -3t-47 -1q-48 0 -90 4.5t-79 12.5q-37 9 -69.5 23t-58.5 33q-27 19 -49.5 38.5t-40.5 40.5
q-19 21 -32 43t-21 45q-2 3 -3 6l-2 6q-2 3 -3 6t-1 7q-2 3 -3 6t-1 6q-1 3 -1.5 6t-0.5 6q-2 6 -3 12t-1 12q-1 6 -1 12v12q0 39 8 74.5t24 67.5q17 32 41.5 61.5t57.5 54.5q33 26 70.5 44.5t79.5 31.5q41 13 87.5 19.5t98.5 6.5q11 0 22 -0.5t22 -1.5q5 -1 11 -1t11 -1
q6 0 11.5 -1l11.5 -2q11 -1 22.5 -3l23.5 -4l36 -8.5t38 -9.5q20 -5 41 -11t43 -13v2v0v0z" />
    <glyph glyph-name="D" unicode="D" horiz-adv-x="937" 
d="M95 0v682h331q53 -1 100 -7.5t87 -17.5q41 -12 74.5 -29t60.5 -40q28 -23 49.5 -47t37.5 -50q16 -25 26.5 -51.5t14.5 -54.5v-2.5v-3.5v-2.5t1 -2.5v-2.5v-3.5v-1.5t1 -1.5v-1.5v-1.5v-2.5v-3.5q0 -1 0.5 -2.5t1.5 -2.5v-2.5v-3.5v-2.5v-3.5q0 -33 -8.5 -64.5
t-23.5 -60.5t-37.5 -57t-52.5 -54t-66 -45.5t-77 -32.5t-88 -19t-100 -6h-332v0v0v0zM217 594v-506h195q35 -1 66 1t57 8t47.5 15t40.5 21q18 11 33.5 23.5t28.5 25.5t23.5 26.5t17.5 27.5q2 3 3.5 6.5t2.5 7.5q2 2 2.5 4.5t1.5 4.5q1 1 1.5 2.5t0.5 2.5q1 2 1.5 3.5
t1.5 2.5q0 2 0.5 3.5t1.5 3.5q2 3 2.5 6.5t1.5 7.5q0 3 0.5 6.5t1.5 6.5q1 4 1.5 7t0.5 6q1 6 1.5 11.5t0.5 10.5q0 26 -5 50t-16 46q-11 23 -27 43t-37 39t-48.5 33t-59.5 23q-33 9 -71.5 14t-82.5 5l-189 2v0v0v0z" />
    <glyph glyph-name="E" unicode="E" horiz-adv-x="625" 
d="M577 682v-88h-361v-206h349v-88h-349v-212h372v-88h-495v682h484v0v0v0z" />
    <glyph glyph-name="F" unicode="F" horiz-adv-x="586" 
d="M550 682v-88h-333v-189h333v-88h-333v-317h-122v682h455v0v0v0z" />
    <glyph glyph-name="G" unicode="G" horiz-adv-x="925" 
d="M841 336v-289q-7 -3 -13.5 -5.5t-12.5 -4.5q-3 -1 -6.5 -2t-6.5 -2l-18 -6t-17 -5q-9 -3 -18 -5.5t-17 -4.5q-9 -2 -18 -3.5t-17 -3.5q-3 -1 -5.5 -1.5t-5.5 -0.5q-3 -1 -5.5 -1.5t-5.5 -0.5q-6 -1 -11.5 -1h-10.5h-5.5t-5.5 -1q-3 0 -5.5 -0.5t-5.5 -0.5h-6t-5 -1
q-3 0 -6 -0.5t-6 -0.5q-11 -1 -22.5 -1.5t-22.5 -1.5h-11.5t-11.5 -1h-12h-12q-49 0 -94 5.5t-86 16.5q-41 12 -77 30t-68 43q-33 24 -57 52t-41 59q-16 31 -23.5 65.5t-7.5 71.5q0 38 8 72.5t25 65.5q17 32 41.5 60.5t56.5 53.5q33 26 70 44.5t78 31.5t85.5 19.5t93.5 6.5
h5h6h2h2h4h4q2 -1 5 -1h7h5h6h3h3q1 -1 2.5 -1h2.5h2h3q1 -1 2.5 -1h3.5h2.5h2.5q1 -1 2.5 -1h2.5h3.5h2.5q2 -1 3.5 -1h2.5q11 -1 22.5 -3.5t23.5 -4.5t24 -4.5t25 -5.5l25 -6.5t28 -8.5q15 -4 31.5 -9.5t33.5 -10.5v-97q-4 1 -7.5 2t-6.5 3q-3 1 -6.5 2.5t-7.5 2.5
q-4 2 -7.5 3t-6.5 3q-4 1 -7.5 2.5t-6.5 2.5q-7 2 -14.5 4.5t-15.5 4.5l-14 4t-13 4q-15 4 -29.5 7l-28.5 6q-15 3 -29 5.5t-28 4.5h-5.5t-5.5 1h-4.5h-4.5q-6 0 -10.5 0.5t-9.5 1.5h-5.5h-4.5h-1.5h-1.5q-2 0 -3.5 0.5t-2.5 0.5h-5.5h-4.5h-4.5h-4.5q-34 0 -66 -5t-61 -14
q-30 -9 -56.5 -23t-50.5 -33t-42 -40t-29 -44q-12 -23 -18 -48.5t-6 -53.5t6 -54.5t18 -49.5q11 -24 29.5 -44.5t43.5 -38.5q24 -18 51.5 -31.5t58.5 -22.5t65.5 -13.5t72.5 -4.5q13 0 25 0.5t24 1.5q6 0 11.5 1t11.5 1l11.5 2l11.5 2l22.5 4l22.5 4t22.5 5l22.5 6v142h-163
v88h286v0v0v0z" />
    <glyph glyph-name="H" unicode="H" horiz-adv-x="911" 
d="M816 682v-682h-123v297h-477v-297h-123v682h123v-297h477v297h123v0v0v0z" />
    <glyph glyph-name="I" unicode="I" horiz-adv-x="312" 
d="M217 682v-682h-122v682h122v0v0v0z" />
    <glyph glyph-name="J" unicode="J" horiz-adv-x="312" 
d="M217 682v-690q0 -22 -3.5 -44t-10.5 -42t-16.5 -37.5t-23.5 -33.5q-13 -16 -30.5 -28t-40.5 -20q-22 -8 -49 -12t-57 -4h-1.5h-1.5h-1.5h-2.5q0 1 -1 1h-2h-1.5h-1.5h-1.5h-1.5h-0.5h-1.5h-2h-2h-1h-2v0h-1v0v0h-0.5h-1.5v1v0h-0.5h-1.5h-0.5h-0.5v0h-1v0v0h-1h-2v0v0
h-0.5h-1.5l-26 90h31q26 1 44 3.5t33 7.5q15 4 25.5 11.5t15.5 17.5q6 10 10 22t6 27q3 15 5 31.5t2 35.5v663h122v0v0v0z" />
    <glyph glyph-name="K" unicode="K" horiz-adv-x="820" 
d="M356 359l462 -359h-168l-434 337v-337h-123v682h123v-312l359 312h152l-371 -323v0v0v0z" />
    <glyph glyph-name="L" unicode="L" horiz-adv-x="612" 
d="M215 682v-594h385v-88h-508v682h123v0v0v0z" />
    <glyph glyph-name="M" unicode="M" horiz-adv-x="976" 
d="M886 682v-682h-123v531h-2l-263 -264h-20l-262 264h-3v-531h-122v682h115l282 -280l284 280h114v0v0v0z" />
    <glyph glyph-name="N" unicode="N" horiz-adv-x="976" 
d="M882 682v-682h-105l-570 525v-525h-115v682h98l577 -528v528h115v0v0v0z" />
    <glyph glyph-name="O" unicode="O" horiz-adv-x="1028" 
d="M56 341q0 35 7.5 67.5t23.5 63.5q15 30 38.5 58.5t55.5 54.5q31 26 67.5 45.5t77.5 32.5t88 19.5t99 6.5q53 0 100 -6.5t89 -19.5t78.5 -32.5t67.5 -45.5q32 -26 55 -54.5t38 -59.5t23 -64t8 -68q0 -34 -8 -67t-23 -63q-15 -31 -38 -59.5t-53 -54.5q-31 -26 -67.5 -45.5
t-79.5 -32.5t-91 -19t-101 -6q-52 0 -99.5 6t-88.5 19t-77 32.5t-68 45.5q-31 26 -54 54.5t-38 58.5t-22.5 63t-7.5 68v2v0v0zM182 341q0 -29 6 -55.5t18 -49.5q11 -23 29 -44t41 -39q23 -19 49.5 -33t56.5 -23t63 -13.5t68 -4.5q36 0 69 4.5t63 13.5t56.5 23t49.5 33
q23 18 41 39t30 44q11 23 17.5 49t6.5 54t-6.5 53.5t-17.5 48.5q-12 23 -30 44t-41 40q-23 18 -49.5 32t-56.5 23t-63 14t-69 5q-35 0 -68 -5t-63 -14t-56.5 -23t-49.5 -32q-23 -19 -41 -40t-29 -44q-12 -23 -18 -48.5t-6 -53.5v2v0v0z" />
    <glyph glyph-name="P" unicode="P" horiz-adv-x="637" 
d="M87 682h266q35 -1 65.5 -5t56.5 -12q25 -7 46 -18t37 -25q17 -14 29 -30t20 -33t13 -36t5 -39t-5 -38.5t-13 -35.5q-9 -17 -22 -32.5t-30 -29.5q-18 -14 -40.5 -24.5t-49.5 -17.5q-28 -7 -59.5 -10t-68.5 -3l-127 2v-295h-123v682v0v0v0zM210 594v-211h138q17 -1 32.5 0
t29.5 5q13 3 25 8.5t22 12.5q11 7 18.5 15.5t12.5 18.5t7.5 21t2.5 24v0v1v0v0v0.5v1.5v0v0v0.5v1.5v0v1v0v0v0.5v1.5v0v0v0.5v1.5q-1 8 -3.5 16.5t-7.5 16.5q-2 4 -5 8l-6 8q-3 3 -6.5 7t-7.5 8q-8 8 -19 13t-25 9q-13 4 -29.5 6t-35.5 2l-143 2v0v0v0z" />
    <glyph glyph-name="Q" unicode="Q" horiz-adv-x="1028" 
d="M620 0v1v-2l39 -12t37 -11q4 -1 8 -2.5t9 -2.5q12 -4 24.5 -7t23.5 -6l29.5 -6t27.5 -4q14 -2 26.5 -3t25.5 -1h4h4q2 1 4.5 1h4.5h4h4q3 1 5 1h5q2 0 4 0.5t4 0.5q2 1 4 1.5t4 0.5q4 1 8.5 1.5t8.5 1.5l4 -4l-110 -87q-31 3 -60.5 7t-58.5 10q-28 6 -55.5 13.5
t-52.5 17.5l-51 20.5t-49 22.5q-25 12 -47.5 24l-44.5 24q-40 5 -76.5 14.5t-68.5 24.5q-31 15 -60 34.5t-53 43.5q-25 23 -44 48.5t-31 53.5q-13 28 -18.5 58t-5.5 62q0 38 8 73.5t24 66.5q17 32 41.5 59.5t57.5 52.5q33 24 70.5 42.5t79.5 30.5t89.5 18.5t99.5 6.5
q48 0 91.5 -6.5t83.5 -19.5q39 -13 75.5 -31.5t69.5 -43.5q32 -25 56 -53.5t40 -60.5q16 -31 24.5 -65t8.5 -72q0 -31 -6.5 -60.5t-18.5 -56.5q-13 -28 -32 -53.5t-43 -49.5q-25 -24 -53.5 -43.5t-60.5 -34.5t-67.5 -24.5t-73.5 -14.5v0v0v0zM521 601q-36 -1 -67.5 -5
t-58.5 -11q-28 -7 -50.5 -17t-41.5 -24q-19 -13 -35 -27.5t-28 -29.5q-13 -15 -22.5 -30.5t-16.5 -31.5q-2 -4 -3.5 -8t-2.5 -8q-1 -2 -1.5 -3.5t-1.5 -3.5q0 -2 -1 -4t-1 -4q-1 -3 -2 -6.5t-2 -7.5q0 -2 -0.5 -4t-0.5 -4q-1 -3 -1.5 -6.5t-0.5 -7.5q-1 -5 -1 -10v-10
q0 -26 5 -50t16 -47q11 -22 26.5 -43t37.5 -41q22 -19 49 -34t59 -25t68.5 -14.5t79.5 -4.5q36 0 68 4.5t61 14.5q29 9 55.5 23.5t49.5 33.5t40 40t28 43q11 23 17 47.5t6 50.5q0 28 -6 53.5t-17 49.5q-11 23 -29 44t-41 40q-24 19 -50 33t-55 24q-30 9 -62 14t-67 5v2v0v0z
" />
    <glyph glyph-name="R" unicode="R" horiz-adv-x="755" 
d="M96 682h215q32 -1 61 -5t55 -10t48 -15.5t41 -22.5t33 -28t23 -33q10 -18 14.5 -37.5t4.5 -41.5q0 -15 -2.5 -29t-7.5 -27q-4 -13 -11 -24t-17 -22q-9 -11 -20 -20.5t-25 -17.5q-13 -8 -28 -15t-32 -12q9 -5 17.5 -10.5l16.5 -10.5l8 -6l8 -6q3 -3 7 -6l8 -6t7.5 -6.5
l7.5 -7.5l6.5 -6.5l7.5 -7.5l7.5 -7.5l7.5 -7.5q3 -4 6.5 -8t7.5 -8q4 -5 7.5 -10t7.5 -10l8.5 -10.5l8.5 -10.5q3 -3 6 -7t6 -7q1 -2 3 -4t3 -4q4 -6 8.5 -11.5l8.5 -10.5q2 -1 2.5 -2.5t1.5 -3.5q0 -1 1 -2t3 -2v-1.5t1 -0.5q0 -1 0.5 -1.5t0.5 -1.5q2 -1 2.5 -2t1.5 -2
l2 -2l2 -2q1 -2 2 -3l2 -2l2 -2l2 -2q0 -1 1 -2l2 -2v-1.5v-0.5v0h1v-1.5v-0.5h0.5h0.5q0 -1 0.5 -1h0.5q0 -1 0.5 -1.5t1.5 -0.5q0 -1 1 -1.5t2 -0.5q2 -2 4 -4.5t4 -4.5q2 -3 4 -5.5t4 -4.5q4 -4 8.5 -9.5l8.5 -10.5l10.5 -11l11.5 -12q5 -6 11.5 -12.5l13.5 -13.5h-147
l-112 140l-34 39t-31 33l-27 26.5t-23 18.5q-11 8 -22 14t-22 10q-7 3 -13.5 5l-12.5 4q-3 0 -6.5 1t-6.5 1h-1.5h-1.5h-2t-2 1h-0.5h-1.5h-1.5h-0.5h-1.5h-2.5h-1.5h-1.5h-2t-1 1h-2.5h-1.5h-1.5h-1.5l-52 2v-296h-122v682v0v0v0zM218 598v-214h79q25 -1 45 0.5t36 5.5
q17 5 29.5 11t22.5 14q8 8 15 17t11 19q4 9 6.5 19.5t2.5 20.5v0v0v0v0v0v0v0v1v0v0v0v0v0v0v0v0v0v0v0v1v0v0v0v0q-1 12 -4 22.5t-8 20.5q-5 9 -12 17t-16 15q-10 7 -23.5 12t-29.5 9q-16 3 -34.5 5t-40.5 2l-79 2v0v0v0z" />
    <glyph glyph-name="S" unicode="S" horiz-adv-x="572" 
d="M498 643v-111l-26.5 17.5t-26.5 15.5t-26 12t-26 9q-3 1 -6.5 2t-6.5 2l-19.5 4t-17.5 3q-12 2 -23 3t-22 1q-15 0 -28.5 -1.5t-26.5 -4.5q-12 -3 -22.5 -7.5t-19.5 -9.5q-10 -6 -17 -12t-12 -14q-4 -7 -6.5 -15t-2.5 -17q0 -10 2.5 -18.5t6.5 -16.5q4 -7 10.5 -14.5
t14.5 -13.5q8 -7 18 -13l21 -12l22 -12t24 -11q4 -2 7.5 -4t7.5 -4l4 -2t4 -1l4 -2l4 -2q3 -1 6 -2.5t6 -3.5q1 0 3 -0.5t3 -1.5l4 -2t4 -1q2 -1 4.5 -2t4.5 -2q17 -8 33 -17t32 -19q17 -10 32 -20.5l30 -21.5q14 -12 24.5 -25.5t17.5 -29.5q8 -16 11.5 -34t3.5 -38
t-4.5 -38t-12.5 -35q-9 -16 -21 -31t-29 -28t-36.5 -23t-41.5 -16q-22 -4 -45 -7.5t-49 -3.5q-17 0 -34 1t-33 3q-16 1 -31 3t-29 6q-15 4 -29.5 8.5t-28.5 10.5q-13 6 -26.5 13t-26.5 15v126q11 -13 24 -24.5t26 -20.5t26.5 -17t28.5 -14q14 -7 28.5 -11.5t29.5 -7.5
t30.5 -4.5t31.5 -1.5q14 0 27 1t24 4q11 2 21.5 6t18.5 9t15 10.5t12 11.5q6 5 10 11t7 13v2v2q0 2 0.5 3.5t1.5 2.5v0.5v1.5v1t1 2v0.5v1.5v1.5v1.5q0 11 -2.5 21.5t-8.5 19.5q-5 9 -12.5 18t-18.5 16q-11 8 -22.5 15.5t-23.5 14.5q-6 4 -12.5 7.5l-13.5 7.5l-13 6.5
t-14 7.5q-1 0 -2.5 0.5t-2.5 1.5q-2 0 -3 0.5l-3 1.5q-3 2 -6 3.5l-5 2.5l-3 1.5t-2 1.5q-2 0 -3 1l-2 2q-2 0 -3 0.5t-2 1.5l-3 1.5t-2 1.5q-18 8 -35 17t-33 19q-16 9 -31 19.5l-29 20.5q-15 11 -25.5 23t-18.5 26q-7 14 -10 30t-3 34q0 20 4 39t13 35q8 17 21.5 31
t31.5 27q17 12 38 21.5t44 15.5t49.5 9.5t56.5 3.5h4h4h2h2q3 -1 6 -1h6q6 0 12 -0.5t13 -1.5q3 0 6 -0.5t6 -1.5q2 0 5 -0.5t6 -1.5t6 -1.5t6 -0.5q3 -1 6.5 -1.5t6.5 -1.5q12 -3 24 -6.5t23 -8.5q6 -2 11.5 -4.5l11.5 -5.5q6 -2 11.5 -5l11.5 -6v2v0v0z" />
    <glyph glyph-name="T" unicode="T" horiz-adv-x="755" 
d="M733 682v-88h-295v-594h-122v594h-295v88h712v0v0v0z" />
    <glyph glyph-name="U" unicode="U" horiz-adv-x="885" 
d="M810 682v-414q0 -32 -6.5 -60.5t-17.5 -54.5q-12 -25 -30 -47t-41 -41q-24 -19 -53 -33t-65 -23q-35 -8 -77 -12.5t-89 -4.5q-34 0 -66.5 4t-62.5 10q-31 8 -60 19.5t-56 27.5q-28 16 -48.5 36.5t-34.5 45.5q-13 26 -20 56t-7 65v426h122v-403q0 -16 0.5 -29t2.5 -24
t4 -20t5 -17q2 -7 6 -14.5t9 -13.5q5 -7 11.5 -13t13.5 -11q8 -7 17.5 -14t19.5 -12q11 -5 22 -9.5t23 -8.5q11 -4 23 -6.5t25 -4.5l26.5 -2t26.5 -1q17 0 33.5 1t31.5 3t28.5 5t26.5 7t24 8.5l21 8.5q10 5 19 10.5t16 11.5q8 6 14.5 13.5l12.5 14.5q5 8 9 16.5t7 18.5
q2 6 3.5 12.5t2.5 13.5q1 4 1.5 7.5t1.5 6.5q1 11 1.5 22.5t0.5 23.5v399h123v0v0v0z" />
    <glyph glyph-name="V" unicode="V" horiz-adv-x="755" 
d="M755 682l-362 -688h-25l-368 688h122l256 -479l255 479h122v0v0v0z" />
    <glyph glyph-name="W" unicode="W" horiz-adv-x="1302" 
d="M1301 682l-346 -688h-24l-280 558l-283 -558h-23l-345 688h122l235 -470l236 470h117l237 -470l233 470h121v0v0v0z" />
    <glyph glyph-name="X" unicode="X" horiz-adv-x="885" 
d="M858 682l-340 -329l364 -353h-147l-290 282l-294 -282h-149l368 353l-342 329h149l268 -260l266 260h147v0v0v0z" />
    <glyph glyph-name="Y" unicode="Y" horiz-adv-x="755" 
d="M376 447l231 235h148l-317 -322v-360h-122v361l-316 321h147l229 -235v0v0v0z" />
    <glyph glyph-name="Z" unicode="Z" horiz-adv-x="807" 
d="M562 594h-509v88h735l-542 -594h542v-88h-768l542 594v0v0v0z" />
    <glyph glyph-name="bracketleft" unicode="[" horiz-adv-x="416" 
d="M398 682v-80h-171v-743h171v-80h-291v903h291v0v0v0z" />
    <glyph glyph-name="backslash" unicode="\" horiz-adv-x="351" 
d="M342 -9h-87l-245 700h87l245 -700v0v0v0z" />
    <glyph glyph-name="bracketright" unicode="]" horiz-adv-x="416" 
d="M17 -221v80h171v743h-171v80h291v-903h-291v0v0v0z" />
    <glyph glyph-name="asciicircum" unicode="^" horiz-adv-x="586" 
d="M145 291h-113l216 391h89l216 -391h-111l-150 292l-147 -292v0v0v0z" />
    <glyph glyph-name="underscore" unicode="_" horiz-adv-x="625" 
d="M-7 -75h639v-50h-639v50v0v0v0z" />
    <glyph glyph-name="grave" unicode="`" horiz-adv-x="416" 
d="M200 654l83 -147h-68l-140 147h125v0v0v0z" />
    <glyph glyph-name="a" unicode="a" horiz-adv-x="533" 
d="M513 80v-54q-6 -4 -12 -7.5l-11 -6.5q-6 -3 -11 -5t-9 -4q-3 -1 -5 -1.5t-5 -0.5q-2 -1 -4 -1t-4 -1q-4 -2 -8 -2.5t-8 -1.5h-2t-2 -1h-2h-2h-2t-1 -1h-2h-2h-0.5h-1.5h-1.5h-0.5h-1.5t-2.5 -1h-1.5h-1.5h-2h-2q-10 0 -18 0.5t-16 2.5q-7 1 -13 2.5t-11 2.5q-5 2 -9 6
l-8 8q-4 5 -6 10t-4 11q-5 -3 -9.5 -6t-9.5 -5l-9.5 -5.5t-9.5 -4.5q-4 -2 -9 -4t-9 -4q-5 -1 -9.5 -2.5t-9.5 -2.5q-2 0 -4.5 -0.5t-4.5 -0.5q-3 0 -5.5 -0.5t-4.5 -1.5q-5 -1 -10 -1.5t-9 -1.5q-3 0 -5.5 -0.5t-4.5 -0.5q-2 -1 -4.5 -1h-5.5h-4.5t-4.5 -1h-4.5h-4.5
q-16 0 -30 2t-27 6q-13 3 -23.5 9t-19.5 14q-10 8 -17 17t-12 18q-4 9 -6.5 19.5t-2.5 21.5q0 15 3 28t10 24q5 11 15 20t23 16t26 13l27 12t29 11.5t31 9.5h2h2l1 0.5t2 1.5h0.5h1.5h0.5h0.5q1 0 2 0.5t2 1.5h1.5h1.5l1.5 0.5t2.5 1.5h1h2t1.5 0.5l1.5 1.5l99 30v24
q0 9 -1.5 18t-4.5 16q-4 8 -8.5 14t-10.5 10q-7 5 -15 8t-17 6q-10 2 -21 3.5t-23 1.5h-0.5h-1.5h-1.5h-0.5h-1.5h-0.5q-2 -1 -3 -1h-1h-0.5h-0.5h-1.5h-0.5h-1.5h-0.5h-1.5h-1.5h-1.5h-0.5h-1.5h-1.5q-10 -1 -20 -3t-21 -5l-20 -6t-20 -8q-7 -3 -13.5 -6.5t-12.5 -7.5
q-3 -2 -6.5 -4t-6.5 -4l-8.5 -6.5l-8.5 -6.5q-5 -4 -9 -8t-9 -8v99q6 5 12.5 9.5l13.5 9.5q2 1 4.5 3t4.5 3q10 6 21 10.5t23 8.5q11 4 23.5 7t25.5 4q13 2 28 3t31 1q20 0 39.5 -2t37.5 -7q18 -4 34.5 -11t31.5 -16t26.5 -20.5t18.5 -25.5q8 -14 11.5 -30.5t3.5 -35.5v-229
q0 -4 0.5 -7.5t1.5 -5.5q0 -3 1 -4.5t2 -2.5q2 -1 3.5 -2.5t3.5 -1.5q2 -1 4.5 -1h5.5h4t6 1q2 1 5.5 2.5t7.5 2.5q4 2 8 3.5l9 3.5t9.5 5t8.5 6v2v0v0zM322 91v131l-34.5 -11.5l-32.5 -10.5l-30 -11.5l-28 -10.5q-13 -6 -23 -13t-17 -15q-7 -7 -9.5 -16t-2.5 -19
q0 -7 1 -13.5t4 -12.5q2 -6 7 -10.5t10 -9.5q2 -1 3 -2t3 -2q4 -3 8.5 -5.5t10.5 -3.5q8 -2 15.5 -3t17.5 -1h6h7q3 0 6 0.5t6 1.5q5 2 11.5 3.5t13.5 4.5q3 1 6 2.5t6 2.5q3 2 5.5 3.5t5.5 2.5l4 2t4 3q4 2 8.5 5t7.5 6v2v0v0z" />
    <glyph glyph-name="b" unicode="b" horiz-adv-x="625" 
d="M185 682v-265q8 5 17 8.5l19 7.5q5 2 9.5 3.5t9.5 3.5q4 1 9 3t9 3q3 1 6.5 1.5t6.5 1.5l12.5 2l13.5 2q11 2 21.5 2.5t21.5 0.5q26 0 49.5 -4t45.5 -12q21 -8 41 -20t37 -28t29.5 -34t22.5 -38q8 -20 12.5 -42t4.5 -46q0 -28 -5 -53.5t-15 -48.5q-10 -22 -25 -41
t-35 -35q-19 -16 -42.5 -28t-52.5 -20q-28 -6 -59 -10t-66 -4h-2.5h-3.5h-3h-2t-2 0.5t-2 0.5h-1h-1h-3h-2h-2h-1h-2h-2h-1.5h-0.5h-1.5h-1.5l-0.5 0.5t-1.5 0.5h-1.5h-2.5h-2.5h-2.5q-11 1 -22.5 1.5t-22.5 2.5q-6 1 -11.5 1.5t-10.5 0.5q-6 0 -11.5 0.5t-10.5 1.5
q-8 1 -15.5 2.5t-14.5 3.5q-3 1 -5.5 1.5t-4.5 1.5t-4.5 1.5t-4.5 0.5q-7 2 -13.5 4.5t-12.5 5.5v659h112v0v0v0zM185 332v-243l5 -2.5t7 -2.5q3 -1 6.5 -1.5t7.5 -1.5t7.5 -1.5t7.5 -0.5q4 -1 7.5 -1.5t7.5 -0.5q1 0 2 -0.5t2 -0.5q0 -1 1 -1h2h2h2h2h2t2 -0.5t2 -0.5h1h1
h2h2h2h2q2 0 3.5 -0.5t3.5 -0.5h2.5h3.5h3.5h3.5h3.5h3.5q19 0 36 2.5t32 7.5t28.5 13t26.5 18q12 10 21 21.5t15 24.5q5 14 8.5 28.5t3.5 30.5q0 17 -2.5 33t-8.5 30q-5 14 -13.5 27t-18.5 24q-11 11 -23.5 18.5t-26.5 13.5q-14 5 -30 8t-33 3h-4h-4q-2 -1 -4 -1h-4h-4h-3
q-2 -1 -4 -1h-4q-4 -1 -7.5 -1.5t-7.5 -1.5t-7.5 -2t-6.5 -2q-2 -1 -4.5 -2t-4.5 -1l-4 -2l-4 -2q-4 -1 -7.5 -3.5t-7.5 -4.5q-5 -2 -9.5 -4.5t-8.5 -5.5l-8 -6t-9 -6v2v0v0z" />
    <glyph glyph-name="c" unicode="c" horiz-adv-x="547" 
d="M491 427v-95l-19 7.5t-17 7.5q-9 4 -16.5 7t-13.5 5q-7 2 -14.5 4.5t-14.5 3.5q-7 2 -14 3l-14 2h-1.5h-1.5h-3t-1 1h-3h-2h-0.5h-1.5h-1.5h-0.5h-1.5h-2.5h-2t-1 1h-3h-2h-2h-2q-19 0 -37 -3t-33 -8t-29 -12.5t-25 -18.5q-12 -10 -21.5 -22.5t-14.5 -26.5
q-6 -13 -8.5 -28.5t-2.5 -32.5q0 -18 2.5 -33.5t9.5 -29.5q6 -13 16 -25t23 -22t28 -17t33 -12q17 -5 36.5 -7.5t41.5 -2.5h2h3h2h2h1h2h2h2h1h1h2h2t2 0.5t2 0.5h4.5h4.5q4 1 8.5 1.5t9.5 1.5q8 1 15.5 2.5t14.5 3.5l15.5 4t16.5 5q8 2 16 5t17 6v-86q-5 -3 -11 -5l-12 -4
q-7 -2 -14 -3.5t-15 -3.5q-3 0 -5.5 -0.5t-5.5 -0.5h-11.5t-10.5 -1q-4 -1 -8 -1.5t-8 -1.5q-4 0 -8 -0.5t-8 -1.5h-2h-2h-2h-2h-1h-1q-1 0 -2 -0.5t-2 -0.5h-2h-1h-2h-2h-3h-2h-2h-1h-2h-2h-1.5h-0.5q-1 0 -1.5 -0.5t-1.5 -0.5h-2h-1h-2h-2h-3h-2q-32 0 -60 3.5t-54 10.5
q-26 8 -48.5 19t-42.5 27q-21 16 -36 34t-24 38q-10 20 -15 42.5t-5 47.5q0 28 4.5 52.5t14.5 46.5q9 22 23 41.5t33 35.5q19 17 40.5 29t46.5 20q26 8 55 12.5t60 4.5h9h8q4 -1 8 -1h8q8 -1 14.5 -1.5t12.5 -1.5q3 -1 6.5 -1.5t7.5 -0.5q3 -1 6.5 -1.5t6.5 -1.5
q6 -1 12.5 -2.5t13.5 -3.5q1 -1 2 -1.5t3 -0.5q1 0 2 -0.5t2 -0.5h1h2t1.5 -0.5t1.5 -0.5q0 -1 0.5 -1h1.5t2 -0.5t2 -0.5q1 -1 2 -1h2t2 -0.5t2 -1.5h0.5h1.5q1 -1 2.5 -1.5t3.5 -1.5l6 -2t7 -2v2v0v0z" />
    <glyph glyph-name="d" unicode="d" horiz-adv-x="637" 
d="M563 682v-682h-236q-31 0 -59.5 4t-52.5 11q-25 8 -47 19.5t-40 27.5q-19 16 -32.5 34.5t-23.5 39.5q-9 21 -13 45.5t-4 51.5q0 24 5 46.5t15 42.5q9 20 24 37.5t34 33.5q20 16 42.5 28t47.5 19q25 8 53 12t59 4h2h3h1h1h2h2h0.5h1.5h0.5h1.5h0.5h0.5q0 -1 0.5 -1h1.5
h2.5h1.5q3 0 6 -0.5t6 -0.5q2 -1 5 -1h6t5.5 -0.5t5.5 -0.5q3 -1 5.5 -1.5t5.5 -0.5q2 0 4 -0.5t4 -1.5h2h2q3 -1 6 -1.5t6 -1.5l6 -2t6 -1q3 -1 6.5 -2t7.5 -2v244h111v0v0v0zM452 75v286h-2h-1q-1 0 -2 0.5t-2 0.5q-2 0 -3.5 0.5t-3.5 1.5h-2h-1q-1 0 -2 0.5t-2 0.5
t-2 0.5t-2 0.5t-1 0.5t-1 0.5h-2t-2 1h-2h-2t-2.5 0.5t-2.5 1.5h-2.5h-3.5t-3 0.5t-2 1.5h-3.5t-3.5 1h-3.5h-3.5q-4 0 -7 0.5t-5 1.5h-2h-2h-2h-2h-2.5t-2.5 1h-2h-1h-2h-2h-2h-1h-2h-2q-20 0 -38 -3t-34 -8q-17 -6 -31 -13.5t-27 -18.5q-13 -10 -22.5 -23t-14.5 -27
q-7 -14 -10 -30t-3 -33q0 -16 2.5 -30t6.5 -28q5 -13 12 -24.5t17 -22.5q9 -10 22 -18.5t29 -13.5q17 -5 37.5 -7.5t45.5 -2.5l112 2v0v0v0z" />
    <glyph glyph-name="e" unicode="e" horiz-adv-x="598" 
d="M547 130v-86q-1 -1 -1.5 -2t-2.5 -2q-1 -1 -2 -1.5l-1 -0.5l-3 -1.5t-2 -0.5q-1 -1 -2 -1.5t-2 -0.5q-1 -1 -2 -1.5t-2 -0.5q-1 -1 -2 -1.5t-2 -0.5t-2 -0.5l-1 -0.5q-1 -1 -2 -1.5t-2 -0.5q-6 -3 -11.5 -5t-10.5 -5q-5 -2 -10.5 -3.5t-11.5 -3.5t-11.5 -3.5t-10.5 -2.5
l-10.5 -2l-11.5 -2q-11 -1 -23 -3t-25 -3t-27.5 -1.5t-29.5 -0.5q-32 0 -61 4t-55 12q-25 9 -46.5 22.5t-39.5 31.5t-31 37.5t-22 40.5t-13 43t-4 45q0 26 4 48.5t13 43.5q10 21 23 39t32 34q18 16 39 28t45 19q25 8 51.5 12t54.5 4t52.5 -4t46.5 -12q23 -7 42.5 -18.5
t36.5 -26.5q16 -16 28 -35.5t21 -42.5q8 -23 12.5 -50t4.5 -58l-395 2q3 -18 8.5 -33t12.5 -28q8 -13 18 -23.5t22 -18.5q11 -9 25 -15t30 -11q17 -4 34.5 -6t38.5 -2h9.5h9.5q4 0 8.5 0.5t9.5 1.5q3 0 6 0.5t6 0.5q1 0 3 0.5t3 0.5q5 1 9.5 2t9.5 2t9.5 2t8.5 2q4 2 9 3.5
t10 2.5q4 2 8.5 3.5t9.5 2.5q5 2 9.5 3.5t8.5 3.5h1.5t1.5 1l0.5 0.5t1.5 0.5t2 0.5t2 1.5q1 0 2 0.5t2 0.5q1 1 2 1.5l3 1.5t3.5 1.5t2.5 1.5q3 2 6 3.5t7 2.5q2 2 5 3.5t7 2.5v2v0v0zM165 270h282q-1 12 -3.5 23t-7.5 21q-4 10 -11 19t-15 16q-10 8 -20.5 13t-21.5 9
q-12 4 -25 6t-27 2q-16 0 -30 -2t-28 -6q-13 -4 -24 -9t-21 -12q-9 -7 -17 -16t-14 -20q-5 -10 -10 -21.5t-7 -24.5v2v0v0z" />
    <glyph glyph-name="f" unicode="f" horiz-adv-x="312" 
d="M370 682v-87q-1 0 -2 -0.5t-2 -0.5h-2h-2t-2.5 0.5t-2.5 1.5h-1.5t-1.5 1h-1.5h-0.5q-1 0 -2.5 0.5t-2.5 1.5h-1.5h-2.5h-1.5t-0.5 1h-3h-1h-1.5h-2.5h-1.5h-1.5h-2t-1 1h-2.5h-1.5h-1.5h-1.5q-17 0 -32 -2t-26 -6t-20 -9t-16 -13q-7 -7 -11.5 -16t-7.5 -19
q-4 -10 -5 -21.5t-1 -24.5v-41h101v-80h-101v-369h-111v369h-79v80h79v33q0 15 1 29t4 27q2 13 5.5 24t7.5 20q5 9 10.5 17.5t12.5 16.5t14.5 15.5t15.5 14.5q5 5 12 9.5t14 8.5t14.5 7.5t15.5 6.5l12.5 4t13.5 3q2 1 4.5 1.5t4.5 0.5t4.5 0.5t5.5 0.5q7 1 14.5 1.5
t15.5 0.5q4 -1 8.5 -1.5t9.5 -0.5h4.5h4.5q2 -1 4.5 -1h4.5q3 0 5.5 -0.5t4.5 -0.5q2 -1 4.5 -1.5t5.5 -0.5l10.5 -2l11.5 -2v2v0v0z" />
    <glyph glyph-name="g" unicode="g" horiz-adv-x="533" 
d="M526 449v-69h-115q1 -1 2 -2.5t2 -2.5l4 -4l4 -4l6 -6t6 -5l2.5 -2.5l2.5 -2.5q1 -2 2.5 -3t2.5 -2t2 -2.5t2 -2.5q1 -2 2 -3l2 -2l2 -4t2 -3q1 -2 2 -3.5t2 -3.5q1 -1 1.5 -3t1.5 -3q1 -2 1.5 -3.5t0.5 -3.5q1 -4 1.5 -7.5t0.5 -6.5q0 -2 0.5 -4t0.5 -3q0 -2 0.5 -4
t0.5 -4v-1.5v-1.5v-1.5v-1.5l-1.5 -1.5t-0.5 -1.5v-1.5v-1.5v-1.5v-1.5q-1 -1 -1 -1.5v-1.5v-1.5v-1.5q-1 -1 -1 -1.5v-1.5l-2 -6l-2 -6t-2 -5.5t-2 -5.5q-2 -5 -5 -10.5t-7 -10.5q-1 -1 -2 -2.5t-2 -2.5q-1 -2 -2 -3l-2 -2q0 -1 -1 -2t-1 -2q-1 -1 -2 -2.5t-2 -2.5l-2 -2
t-1 -2l-2 -2l-2 -2t-2 -1.5t-2 -1.5t-2 -1.5t-2 -1.5q-4 -4 -9 -7.5t-11 -6.5q-3 -2 -7.5 -4t-8.5 -4q-2 -1 -4 -1.5t-4 -1.5l-6 -2l-6 -2q-4 -1 -7 -2l-6 -2q-5 -2 -11.5 -3.5t-13.5 -2.5q-1 0 -2 -0.5l-1 -0.5q-1 -1 -2 -1h-2h-2h-2q0 -1 -1 -1h-1q-1 0 -2 -0.5t-2 -0.5
q-1 -1 -2 -1h-2h-2h-1h-2h-2q-4 -1 -7.5 -1.5t-7.5 -0.5q-4 -1 -7 -1.5t-6 -0.5q-4 -1 -8 -1.5t-8 -0.5q-3 -1 -7 -1.5t-7 -1.5q-6 -1 -10.5 -2t-8.5 -2l-3 -1.5t-3 -0.5q-5 -2 -10 -5t-7 -6q-3 -3 -4 -6.5t-1 -8.5q0 -4 1 -7.5t5 -6.5q3 -3 7.5 -6t11.5 -5q6 -3 14.5 -6
t17.5 -5q10 -3 21 -5.5t24 -4.5q4 -1 7.5 -1.5t7.5 -1.5t8 -1.5t8 -1.5q3 0 6 -0.5t6 -1.5q1 0 3 -0.5t3 -0.5q5 -1 9.5 -1.5t10.5 -1.5q23 -4 41.5 -8.5t34.5 -10.5q15 -6 28 -12.5t22 -13.5q8 -8 15 -17t11 -19q5 -9 7.5 -19.5t2.5 -21.5q0 -17 -4.5 -31.5t-12.5 -27.5
q-10 -14 -23 -25t-30 -21q-17 -9 -38 -16.5t-45 -11.5q-25 -5 -52.5 -7.5t-59.5 -2.5q-28 0 -54 2.5t-49 7.5q-24 4 -44.5 11.5t-38.5 17.5q-19 10 -32 21t-23 23q-9 12 -13 25.5t-4 27.5q0 13 2 24t6 21t10.5 18t14.5 16q9 7 20 13t24 11q14 5 29.5 9.5t34.5 8.5
q-3 1 -5.5 2t-4.5 2q-1 1 -2 1.5t-2 1.5q-1 0 -2 0.5t-2 1.5q-1 0 -2 0.5t-1 1.5q-1 0 -2 0.5t-2 1.5l-3.5 3.5l-2.5 2.5q-4 2 -7 4.5t-5 4.5t-4 4.5t-3 4.5q-2 2 -3.5 4.5t-1.5 5.5q-1 2 -1 4.5v5.5q0 5 1 10.5t4 9.5q1 2 3 4.5t4 5.5q2 2 5 4.5t6 4.5q6 5 13.5 8.5
t15.5 6.5t17 5.5t19 4.5v4q-8 2 -15.5 4.5t-14.5 5.5q-6 2 -10.5 4.5t-8.5 4.5q-2 1 -3 2t-3 2t-3.5 2t-3.5 2l-7.5 5.5t-6.5 5.5q-5 4 -9 8.5t-8 8.5t-7.5 8.5t-6.5 9.5q-2 3 -3.5 6.5t-2.5 6.5q-1 2 -1.5 3.5t-1.5 3.5q0 2 -1 3.5t-1 3.5q-1 4 -2 7.5t-2 7.5q-1 5 -1 11
v13q0 18 4 34t12 30t20 26.5t29 22.5q16 11 35.5 18.5t41.5 12.5q23 5 48.5 8t54.5 3l231 2v0v0v0zM416 -94q0 8 -2.5 15t-7.5 13q-4 6 -11 10.5t-15 8.5q-3 1 -6.5 2.5t-6.5 2.5q-7 3 -13.5 5l-12.5 4q-10 3 -21 4.5t-22 3.5q-4 1 -8.5 1.5t-8.5 0.5q-1 0 -3 0.5t-3 0.5h-6
h-6q-4 1 -8 1h-8h-7.5h-7.5q-14 0 -27 -1t-24 -3q-12 -2 -22.5 -6t-18.5 -9q-10 -5 -16.5 -10t-10.5 -11t-6 -13.5t-2 -14.5q0 -8 2 -15.5t8 -13.5q5 -6 12.5 -12t17.5 -10q9 -5 21 -8t27 -5q14 -2 31.5 -3.5t36.5 -1.5q18 0 34 1.5t31 3.5q14 2 26.5 5t22.5 7t17.5 9.5
t13.5 11.5q5 6 7.5 12.5t2.5 14.5v-1v0v0zM370 293q0 7 -2.5 13.5t-6.5 13.5t-10 13.5t-14 12.5q-5 4 -11.5 7.5t-12.5 5.5q-3 2 -6 3l-6 2q-10 3 -19.5 4.5t-20.5 1.5q-12 0 -23 -1.5t-21 -4.5q-2 -1 -4.5 -1.5t-4.5 -1.5q-7 -3 -13.5 -6.5t-12.5 -8.5q-8 -6 -14.5 -12.5
t-10.5 -13.5t-5.5 -15t-1.5 -16q0 -10 1.5 -18t5.5 -16q4 -7 10 -14t14 -12q8 -6 16.5 -10t18.5 -7q11 -3 22 -4t24 -1q11 0 22 1t21 4q2 1 4.5 1.5t4.5 1.5q7 3 13.5 7l12.5 8q8 6 13 13t9 14q4 8 6 16t2 18v2v0v0z" />
    <glyph glyph-name="h" unicode="h" horiz-adv-x="625" 
d="M187 682v-292h3q8 7 16.5 13.5t18.5 12.5q9 6 19.5 12t21.5 10q11 5 22.5 8t22.5 5t22.5 3.5t23.5 1.5q21 0 40 -3t35 -9q17 -6 32.5 -14.5t28.5 -19.5q14 -11 24.5 -25.5t17.5 -31.5q6 -17 9.5 -37t3.5 -43v-273h-111v278q0 11 -1.5 21.5t-5.5 20.5t-9.5 19t-13.5 16
q-7 8 -16 13t-19 9t-21.5 6t-23.5 2h-4h-3q-2 -1 -4 -1h-4q-4 0 -7.5 -0.5t-7.5 -1.5t-7.5 -1.5t-7.5 -1.5t-7 -2t-5 -2q-6 -2 -10.5 -4.5l-9.5 -5.5q-6 -3 -10.5 -6t-9.5 -6q-3 -2 -5.5 -4t-5.5 -3q-3 -2 -5.5 -4t-5.5 -4q-2 -1 -3.5 -2.5l-3.5 -3.5q-3 -3 -6.5 -6t-7.5 -6
v-320h-111v682h111v0v0v0z" />
    <glyph glyph-name="i" unicode="i" horiz-adv-x="273" 
d="M192 449v-449h-111v449h111v0v0v0zM203 585q0 -7 -1.5 -12.5t-3.5 -10.5q-2 -4 -6 -8.5t-9 -8.5q-4 -4 -9.5 -6.5t-11.5 -4.5q-5 -2 -11.5 -3t-13.5 -1t-14 1t-12 3q-6 2 -11 4.5t-10 6.5t-8.5 8.5t-5.5 8.5q-3 5 -4 10t-1 11q0 5 1 10.5t4 9.5q2 5 5.5 9t8.5 8t10 7
t11 5q5 2 12 3t14 1t13.5 -1t11.5 -3q6 -2 11.5 -5t9.5 -7q5 -4 9 -8t6 -9q2 -4 3.5 -9.5t1.5 -10.5v2v0v0z" />
    <glyph glyph-name="j" unicode="j" horiz-adv-x="273" 
d="M187 449v-508q0 -17 -1.5 -33t-5.5 -29q-4 -14 -9.5 -25t-12.5 -21q-7 -9 -15.5 -18t-19.5 -16q-10 -8 -22 -15t-25 -13l-83 65q5 2 8.5 4t7.5 4l8 4l8 4q5 3 9.5 6.5l8.5 6.5q2 2 4.5 4t4.5 4q6 6 10 13t8 15q2 7 4 16t2 18v514h111v0v0v0zM198 585q0 -7 -1.5 -12.5
t-3.5 -10.5q-2 -4 -6 -8.5t-9 -8.5q-4 -4 -9.5 -6.5t-11.5 -4.5q-5 -2 -11.5 -3t-13.5 -1t-14 1t-12 3q-6 2 -11 4.5t-10 6.5t-8.5 8.5t-5.5 8.5q-3 5 -4 10t-1 11q0 5 1 10.5t4 9.5q2 5 5.5 9t8.5 8t10 7t11 5q5 2 12 3t14 1t13.5 -1t11.5 -3q6 -2 11.5 -5t9.5 -7
q5 -4 9 -8t6 -9q2 -4 3.5 -9.5t1.5 -10.5v2v0v0z" />
    <glyph glyph-name="k" unicode="k" horiz-adv-x="598" 
d="M188 682v-682h-111v682h111v0v0v0zM575 449l-240 -220l290 -229h-150l-282 229l249 220h133v0v0v0z" />
    <glyph glyph-name="l" unicode="l" horiz-adv-x="273" 
d="M192 682v-682h-111v682h111v0v0v0z" />
    <glyph glyph-name="m" unicode="m" horiz-adv-x="963" 
d="M73 449h112v-59q10 8 20.5 15t21.5 13l21 11.5t20 9.5q11 4 21 7t19 5l10 2l10 2q5 0 10 0.5t10 0.5q14 0 26 -1.5t24 -3.5q13 -3 24.5 -7t22.5 -9q10 -5 19.5 -11t18.5 -14q10 -7 18 -16t15 -19q8 8 17.5 16t19.5 15l22 13.5l22 12.5t23.5 10.5t25.5 7.5t27.5 4.5
t29.5 1.5q21 0 40.5 -3t36.5 -9t31 -15t27 -21t22 -26t16 -30t10.5 -34t3.5 -38v-280h-112v278q0 12 -2 22.5t-6 20.5q-5 10 -11.5 18t-15.5 15q-8 7 -17 12t-20 8q-10 3 -21.5 5t-22.5 2v0v0v0v0h-1v0v0v0v0v0v0v0v0v0v0v0h-1v0v0v0v0v0v0v0h-4t-4 -1q-3 0 -5 -0.5t-4 -0.5
t-4 -0.5t-4 -1.5q-2 0 -4 -0.5t-4 -1.5q-3 -1 -5.5 -1.5t-4.5 -1.5q-1 -1 -2 -1.5l-1 -0.5q-1 -1 -2 -1.5t-2 -0.5q-3 -1 -5.5 -2t-4.5 -2q-1 0 -1.5 -0.5l-1.5 -1.5q-2 0 -3.5 -0.5t-2.5 -1.5q-4 -2 -7.5 -4t-7.5 -4q-4 -1 -7 -3.5t-6 -4.5q-4 -2 -7.5 -4.5t-5.5 -5.5
q-4 -3 -7 -5.5t-6 -4.5v-324h-111v279q0 13 -2 24t-6 21t-9 18t-13 14q-7 6 -15.5 10.5t-17.5 7.5t-18.5 5t-19.5 2q-7 0 -14.5 -0.5t-14.5 -1.5q-4 0 -8 -1t-8 -1q-2 -1 -4 -1t-4 -1q-3 -1 -5.5 -2t-5.5 -2t-5.5 -2t-5.5 -2l-6 -2t-5 -3l-6 -2t-6 -3q-1 -1 -2.5 -1.5
t-2.5 -1.5t-2.5 -2t-2.5 -2l-1 -0.5t-1 -1.5q-1 0 -2 -0.5t-2 -1.5q-2 -1 -3 -2l-2 -2t-2 -1.5l-1 -0.5l-1.5 -1.5t-0.5 -1.5q-2 -1 -3 -2l-2 -2t-2 -1.5t-2 -0.5q0 -1 -1 -1.5t-1 -1.5q-2 -1 -3 -2l-2 -2v-324h-112v449v0v0v0z" />
    <glyph glyph-name="n" unicode="n" horiz-adv-x="625" 
d="M187 449v-59h3q8 7 16.5 13.5t18.5 12.5q9 6 19.5 12t21.5 10q11 5 22.5 8t22.5 5t22.5 3.5t23.5 1.5q20 0 38.5 -3t35.5 -8q17 -6 32 -14.5t29 -19.5t25 -25t18 -31q6 -17 9.5 -37t3.5 -43v-275h-111v278q0 11 -1.5 21.5t-5.5 20.5t-9.5 19t-13.5 16q-7 8 -16 13t-19 9
t-21.5 6t-23.5 2h-4h-3q-2 -1 -4 -1h-4q-4 0 -7.5 -0.5t-7.5 -1.5t-7.5 -1.5t-7.5 -1.5t-7 -2t-5 -2q-6 -2 -10.5 -4.5l-9.5 -5.5q-6 -3 -10.5 -6t-9.5 -6q-3 -2 -5.5 -4t-5.5 -3q-3 -2 -5.5 -4t-5.5 -4q-2 -1 -3.5 -2.5l-3.5 -3.5q-3 -3 -6.5 -6t-7.5 -6v-320h-111v449h111
v0v0v0z" />
    <glyph glyph-name="o" unicode="o" horiz-adv-x="690" 
d="M341 458q33 -1 63 -6t57 -13t51.5 -20t45.5 -28q22 -16 38 -34.5t27 -38.5q11 -21 16.5 -43.5t5.5 -47.5q0 -27 -5.5 -51t-16.5 -45q-11 -22 -27 -40.5t-36 -35.5q-22 -16 -46.5 -28.5t-51.5 -20.5q-27 -6 -57 -10t-64 -4q-33 0 -63 4t-56 11q-26 8 -49.5 20.5
t-44.5 29.5t-37 35.5t-26 39.5t-15 45t-5 50q0 24 5 46t16 43q11 20 26.5 39t37.5 35q21 17 45.5 29t50.5 20t54.5 12.5t60.5 4.5v2v0v0zM340 378q-20 -1 -38 -4.5t-35 -8.5q-16 -5 -30.5 -12.5t-26.5 -18.5q-13 -10 -23.5 -22t-15.5 -26q-7 -13 -10 -28t-3 -31
q0 -18 3 -34.5t10 -30.5q5 -14 14.5 -26.5t22.5 -23.5t27 -19.5t31 -13.5t35 -7.5t39 -2.5t41 2.5t37 7.5t33 13.5t29 18.5q12 11 21 23t16 26t10.5 30.5t3.5 35.5q0 16 -3.5 31t-10.5 28q-7 14 -16.5 26t-23.5 22q-14 11 -29.5 18.5t-32.5 13.5q-17 5 -36 8t-39 3v2v0v0z
" />
    <glyph glyph-name="p" unicode="p" horiz-adv-x="625" 
d="M182 11v-241h-111v679h192q39 -1 73 -5t62 -12q29 -7 54.5 -18.5t45.5 -25.5q20 -15 35 -32.5t25 -38.5q11 -21 16.5 -45.5t5.5 -52.5q0 -25 -5.5 -48.5t-14.5 -43.5q-10 -21 -25 -39t-35 -34q-21 -16 -43.5 -28t-48.5 -20q-26 -6 -54 -10t-59 -4h-2h-2h-2h-2h-2.5h-2.5
h-1.5h-0.5h-2h-1q-1 1 -2.5 1h-1.5h-1.5h-0.5q-3 0 -6 0.5t-5 0.5q-3 1 -6 1.5t-6 0.5t-5.5 0.5t-4.5 0.5q-2 1 -4.5 1.5t-5.5 0.5t-5.5 0.5t-5.5 0.5t-5.5 0.5t-5.5 1.5q-6 2 -12 3.5t-12 3.5v2v0v0zM182 369v-278q4 -3 8.5 -4.5t9.5 -3.5q4 -1 8.5 -2.5t8.5 -2.5t8.5 -2
t9.5 -2q4 -1 8.5 -1.5t8.5 -1.5q1 0 2 -0.5t2 -0.5q1 -1 2 -1h2h4.5h5.5h2h2h1h2h4.5h5.5q19 0 36.5 2.5t33.5 7.5t30.5 13.5t27.5 19.5q12 11 21 23t16 25q7 14 10.5 29t3.5 31q0 17 -3.5 33t-9.5 29q-5 14 -13.5 25t-19.5 21t-26 17.5t-32 11.5q-16 5 -36 7.5t-43 2.5
l-101 2v0v0v0z" />
    <glyph glyph-name="q" unicode="q" horiz-adv-x="625" 
d="M442 -230v237q-8 -3 -15.5 -4.5t-15.5 -2.5q-4 0 -7.5 -0.5t-7.5 -1.5q-4 0 -7.5 -0.5t-6.5 -1.5q-7 -1 -14.5 -1.5t-14.5 -1.5h-6t-6 -1h-5.5h-5.5q-32 0 -60 4t-54 10q-26 8 -48.5 20t-42.5 28q-21 16 -36 34t-24 39q-10 20 -15 43.5t-5 48.5v9.5t1 10.5q0 5 1 11t3 13
q1 6 2.5 12.5t3.5 13.5q2 6 5 12.5t7 13.5q6 12 15 24t20 23t24.5 22.5t29.5 21.5t36 17.5t44 12.5q23 5 51.5 8t59.5 3l205 2v-679h-111v0v0v0zM442 369h-101q0 -1 -0.5 -1.5t-1.5 -0.5h-1.5h-0.5h-1.5h-2.5h-1.5h-0.5v0v0h-0.5h-0.5h-1.5h-0.5v0v0h-1v0q-16 -1 -31 -4
t-30 -8t-28.5 -12t-26.5 -15q-13 -9 -23 -20t-17 -25q-7 -13 -10 -29t-3 -34q0 -16 3 -31.5t10 -29.5q5 -13 14.5 -26t22.5 -24t27 -19.5t31 -14.5q16 -6 34 -8.5t37 -2.5h2h2h2h2h4.5h5.5h2h2h1h2q2 0 4.5 0.5t5.5 1.5q4 1 8.5 1.5t9.5 1.5q4 1 8.5 2t8.5 2q2 0 3.5 0.5
t2.5 0.5q3 1 6.5 2t5.5 2q4 2 8.5 3.5t8.5 2.5v285v0v0v0z" />
    <glyph glyph-name="r" unicode="r" horiz-adv-x="495" 
d="M86 449h111v-103h3q10 14 20.5 26.5t20.5 22.5l10 10t11 9l10 8t10 7q11 7 21 12t19 8q10 3 20 5t20 2h3.5h2.5q2 -1 3.5 -1h3.5h3.5h3.5q1 -1 2.5 -1h3.5q3 -1 6 -1.5t7 -1.5t7.5 -1.5t7.5 -1.5q5 -1 9.5 -3.5t9.5 -4.5t9.5 -4.5t10.5 -4.5q2 -1 4.5 -3t4.5 -3
q3 -2 5.5 -3.5t5.5 -3.5q5 -3 10 -6.5l11 -7.5l-59 -75q-3 1 -5.5 2.5t-4.5 2.5q-1 1 -2.5 2t-3.5 2q-1 0 -1.5 1t-1.5 1t-1.5 0.5t-0.5 1.5q-1 0 -1.5 0.5t-1.5 0.5t-1.5 0.5t-0.5 1.5q-1 0 -1.5 0.5t-1.5 0.5l-1 0.5l-1 0.5q-1 0 -2 1t-2 1q-1 1 -2.5 1.5t-2.5 1.5
q-4 2 -8.5 4.5t-8.5 3.5q-5 2 -9.5 3.5t-8.5 2.5t-8 1.5t-8 1.5t-7 1.5t-6 0.5q-15 0 -28 -2.5t-25 -7.5q-13 -5 -24 -12.5t-20 -17.5q-10 -10 -17.5 -21.5t-12.5 -23.5q-4 -12 -6.5 -25.5t-2.5 -27.5v-233h-111v449v0v0v0z" />
    <glyph glyph-name="s" unicode="s" horiz-adv-x="481" 
d="M405 421v-88q-13 5 -24.5 10t-22.5 9q-7 3 -14 5.5t-14 5.5q-4 1 -7 2t-7 2q-11 2 -21 4.5t-19 3.5q-10 2 -18 2.5t-16 0.5t-15.5 -0.5t-14.5 -2.5q-7 -1 -13 -3.5t-11 -5.5q-3 -1 -5 -3t-4 -3l-3.5 -3.5t-2.5 -3.5q-2 -4 -3.5 -7.5t-1.5 -8.5q0 -4 2 -7.5t6 -8.5
q2 -2 4 -4.5t5 -4.5q3 -3 7 -5.5t8 -4.5l18 -11t23 -13l29 -15t35 -16l17.5 -10t15.5 -10q8 -4 15 -8.5t14 -8.5t12.5 -8l10.5 -8t9 -8l8 -8q3 -4 6 -7.5t4 -6.5l2 -4t2 -3q1 -2 2 -3.5t2 -3.5q1 -4 1.5 -7.5t1.5 -6.5q2 -4 2.5 -7.5t0.5 -7.5q0 -15 -3.5 -28.5t-10.5 -25.5
t-16 -22t-23 -19q-13 -9 -28 -15.5t-32 -10.5q-16 -4 -34 -6t-38 -2h-6h-5q-3 1 -6 1h-6h-3.5h-3.5h-2h-2q-3 1 -5.5 1h-4.5q-3 0 -5.5 0.5t-5.5 0.5q-3 1 -5.5 1h-5.5q-6 1 -10.5 1.5t-9.5 1.5q-7 1 -13.5 1.5t-13.5 1.5q-6 2 -12.5 3.5t-13.5 3.5q-2 1 -4.5 1.5t-4.5 1.5
q-4 2 -8.5 3.5t-9.5 3.5q-4 1 -7.5 2.5t-6.5 2.5q-4 2 -7.5 3.5t-7.5 2.5v98l12.5 -8l13.5 -8l13.5 -6l12.5 -6q14 -6 26 -10.5t24 -8.5q11 -4 22.5 -6.5l21.5 -4.5q11 -1 20 -2t18 -1q8 0 16 1.5t15 2.5q3 1 6.5 2t6.5 2q3 2 6.5 3.5t6.5 2.5q6 3 10.5 7t8.5 8
q3 5 4.5 10.5t1.5 11.5v3t-1 3q0 1 -0.5 2.5t-0.5 2.5q-1 1 -1.5 2t-1.5 2l-0.5 0.5t-0.5 1.5q-1 1 -2 2.5t-3 2.5q-3 2 -6 4.5t-7 5.5q-2 1 -4 2.5t-4 2.5q-2 2 -4 3.5t-4 2.5l-9 4.5l-11 5.5q-3 1 -5.5 2t-5.5 3q-3 1 -5.5 2.5t-5.5 2.5q-7 2 -13.5 5t-11.5 6l-4 2l-4 2
l-8 4l-8 4q-12 5 -23.5 11t-22.5 13l-22 14.5l-22 15.5q-10 8 -18 16t-13 18q-6 10 -8 20.5t-2 21.5q0 14 2.5 27t9.5 24q6 11 15.5 20.5t22.5 17.5q12 8 27 14.5t31 10.5q17 4 36 6t41 2q9 0 19.5 -0.5t20.5 -1.5q9 -1 19.5 -3l20.5 -4t20.5 -5t20.5 -7q11 -4 22 -7.5
t22 -8.5v2v0v0z" />
    <glyph glyph-name="t" unicode="t" horiz-adv-x="416" 
d="M208 542v-93h178v-80h-178v-230q0 -9 1.5 -16l2.5 -12q2 -6 5 -10.5t8 -8.5q4 -4 8.5 -7t8.5 -6q3 -2 6.5 -3.5t7.5 -2.5q2 0 3.5 -0.5t3.5 -0.5q1 0 1.5 -0.5t1.5 -0.5q0 -1 0.5 -1h1.5t2 -0.5t2 -0.5h2h2h2h3h2h2h1h2q8 0 15.5 0.5t14.5 1.5q8 1 15.5 2.5t16.5 3.5
q8 2 15.5 5l15.5 6l16.5 6.5l17.5 7.5v-81q-4 -3 -7.5 -4.5t-7.5 -3.5q-2 -1 -4 -1.5t-4 -1.5q-3 -1 -5 -1.5t-4 -0.5q-4 -1 -8.5 -2.5t-8.5 -2.5t-7.5 -2t-7.5 -1q-6 0 -10.5 -0.5t-9.5 -1.5q-2 0 -4.5 -0.5t-4.5 -1.5q-3 0 -5.5 -0.5t-4.5 -0.5q-4 -1 -8.5 -1.5t-8.5 -0.5
h-5t-4 -1h-3.5h-2.5q-24 0 -44.5 2.5t-37.5 5.5q-16 5 -30.5 12t-25.5 17t-19.5 21t-14.5 24q-5 12 -8 26t-3 30v239h-97v10l208 163v0v0v0z" />
    <glyph glyph-name="u" unicode="u" horiz-adv-x="625" 
d="M546 0h-111v57l-4 -4t-4 -3q-4 -4 -8 -7l-8 -6q-7 -4 -13.5 -8.5l-12.5 -8.5q-4 -2 -7.5 -3.5t-6.5 -3.5q-4 -1 -7.5 -2.5t-7.5 -3.5q-7 -3 -14 -4.5t-14 -2.5h-2h-1h-2h-2h-2t-2 -1q-1 0 -2 -0.5t-2 -0.5h-2t-2 -1h-2h-2h-2t-2 -1q-1 0 -2 -0.5t-2 -0.5q-4 -1 -7.5 -1.5
t-7.5 -0.5h-4t-3 -1h-3.5h-3.5q-21 0 -40.5 3t-36.5 7q-18 5 -33.5 13.5t-29.5 20.5q-13 11 -23.5 25.5t-17.5 30.5q-7 17 -9.5 35.5t-2.5 40.5v281h111v-285q0 -13 1 -24t5 -20t10 -17t13 -14q6 -7 15 -12t20 -8t23.5 -4.5t27.5 -1.5q9 0 18 1t18 3q10 2 18.5 5t16.5 7
q3 1 5.5 2.5t5.5 2.5q6 3 11.5 6.5t10.5 7.5q8 6 15.5 13t14.5 15v323h111v-449v0v0v0z" />
    <glyph glyph-name="v" unicode="v" horiz-adv-x="547" 
d="M257 -9l-254 458h122l151 -276l147 276h119l-247 -458h-38v0v0v0z" />
    <glyph glyph-name="w" unicode="w" horiz-adv-x="898" 
d="M491 449l142 -272l147 272h118l-247 -458h-35l-166 314l-165 -314h-35l-250 458h118l148 -272l142 272h83v0v0v0z" />
    <glyph glyph-name="x" unicode="x" horiz-adv-x="625" 
d="M608 449l-231 -221l248 -228h-143l-176 161l-166 -161h-140l236 228l-236 221h140l166 -154l160 154h142v0v0v0z" />
    <glyph glyph-name="y" unicode="y" horiz-adv-x="547" 
d="M547 449l-397 -679h-124l191 326l-217 353h126l151 -253l145 253h125v0v0v0z" />
    <glyph glyph-name="z" unicode="z" horiz-adv-x="521" 
d="M505 449l-299 -369h300v-80h-493l298 369h-285v80h479v0v0v0z" />
    <glyph glyph-name="braceleft" unicode="{" horiz-adv-x="416" 
d="M35 219v80q19 -1 34.5 1t28.5 7t22 13.5t16 19.5q5 11 10 24t9 28q2 15 4 32t2 36v90q0 21 2 40t7 35q5 17 12.5 30.5t17.5 24.5q9 11 22.5 19.5t30.5 14.5t38.5 9t46.5 3l49 2v-76h-19q-16 -1 -29.5 -3t-23.5 -4q-11 -3 -19 -6.5t-13 -8.5t-9 -12.5t-6 -17.5t-3.5 -23
t-1.5 -28v-70q0 -26 -1.5 -48.5t-5.5 -41.5t-9.5 -34t-11.5 -27q-7 -12 -17.5 -22.5t-22.5 -19.5q-13 -9 -27.5 -16t-31.5 -13q17 -6 31.5 -13.5t27.5 -16.5q12 -9 22.5 -19.5t17.5 -22.5q6 -12 11.5 -27.5t9.5 -33.5q4 -19 5.5 -40.5t1.5 -46.5v-70q0 -14 1.5 -27t3.5 -23
t6 -17.5t9 -12.5t13 -8.5t19 -6.5q10 -2 23.5 -3.5t29.5 -1.5l19 -1v-76h-49q-25 1 -46.5 4t-38.5 9t-30.5 14.5t-22.5 19.5q-10 11 -17.5 24.5t-12.5 30.5q-5 16 -7 35.5t-2 41.5v87q0 18 -2 34.5l-4 31.5q-4 15 -9 28t-10 24q-7 11 -16 18.5t-22 13.5q-13 5 -28.5 8
t-34.5 3v2v0v0z" />
    <glyph glyph-name="bar" unicode="|" horiz-adv-x="325" 
d="M115 -230v912h95v-912h-95v0v0v0z" />
    <glyph glyph-name="braceright" unicode="}" horiz-adv-x="416" 
d="M381 299v-80q-19 -1 -35.5 -4.5t-28.5 -8.5q-13 -6 -22.5 -13.5t-14.5 -18.5q-7 -11 -11.5 -24t-7.5 -28q-4 -15 -5 -32t-1 -36v-86q0 -21 -2.5 -40.5t-7.5 -35.5q-6 -17 -13 -30.5t-16 -24.5q-10 -11 -24 -19.5t-31 -14.5t-38 -9t-46 -3l-49 -1v76h19q16 1 29.5 2.5
t24.5 3.5q11 3 19 6.5t12 8.5q5 5 8.5 12.5t6.5 17.5q2 10 3.5 23t1.5 28v71q0 24 1 45.5t5 39.5t10 33.5t13 27.5t16.5 22.5t22.5 19.5q12 9 27 16.5t33 13.5q-18 6 -33 13t-27 16q-13 9 -22.5 19.5t-16.5 22.5t-13 27t-10 34q-4 18 -5 40.5t-1 47.5v74q0 14 -1.5 26.5
t-3.5 22.5q-3 10 -6.5 17.5t-8.5 12.5q-4 5 -12 8.5t-19 6.5q-11 2 -24.5 3.5t-29.5 1.5l-19 2v76h49q25 -1 46 -4.5t38 -9.5t31 -14.5t24 -19.5q9 -11 16 -24.5t13 -30.5q5 -16 7.5 -35.5t2.5 -41.5v-86q0 -20 1 -37.5t5 -32.5q3 -15 7.5 -28t11.5 -24q5 -11 14.5 -19.5
t22.5 -13.5q12 -5 28.5 -7.5t35.5 -2.5v2v0v0z" />
    <glyph glyph-name="asciitilde" unicode="~" horiz-adv-x="730" 
d="M31 198v83q5 3 9.5 6t9.5 6q6 2 11 5t11 6l22.5 10.5t23.5 9.5q13 5 25 8l24 6q12 2 24.5 3.5t25.5 1.5q7 0 13.5 -0.5t12.5 -1.5q7 -1 13.5 -1.5t13.5 -2.5q6 -1 12.5 -2.5t13.5 -3.5q3 -1 6.5 -2t6.5 -2t6.5 -2t6.5 -2q2 -1 3.5 -1.5t2.5 -0.5q2 -1 3.5 -1.5t3.5 -1.5
t5.5 -2t7.5 -2q2 -1 3.5 -1.5t2.5 -0.5q2 -1 3.5 -1.5t3.5 -1.5t3.5 -1.5t3.5 -0.5q2 -1 3.5 -1.5t3.5 -0.5q5 -2 9.5 -4t9.5 -3q5 -2 10 -3.5t9 -3.5q3 -1 6.5 -2t6.5 -2l13.5 -4l12.5 -4l12.5 -3.5t11.5 -3.5q3 0 6 -0.5t6 -1.5q5 -1 9.5 -1.5t9.5 -0.5q4 -1 8.5 -1h9.5
h9.5t10.5 1q5 0 9.5 1.5t10.5 2.5q5 1 10 2.5t11 2.5q3 1 5.5 2t5.5 2t5.5 2t5.5 2l6 2l6 2q2 2 5 3.5t7 2.5q2 2 4.5 3.5t6.5 2.5q3 2 6 3.5t6 2.5q3 2 5.5 3.5t5.5 2.5q3 2 5.5 3.5t5.5 3.5t6 3.5t6 3.5q2 1 5 3l6 4v-81l-9.5 -7.5t-9.5 -6.5l-9.5 -5.5l-9.5 -5.5
t-10 -5.5t-10 -5.5q-6 -2 -11 -4.5t-10 -4.5l-6 -2t-5 -2l-6 -2l-6 -2q-2 -1 -3.5 -1.5t-3.5 -1.5q-4 -1 -7.5 -1.5t-6.5 -1.5t-5.5 -1.5t-5.5 -1.5t-5.5 -1.5t-5.5 -0.5t-6 -0.5t-5 -0.5h-6h-6q-1 -1 -1.5 -1h-2.5h-1.5h-1.5h-2h-2h-0.5h-1.5h-1.5h-0.5h-4.5h-4.5
q-4 0 -8.5 0.5t-9.5 0.5q-7 1 -14 2.5t-14 2.5q-4 1 -7.5 1.5t-6.5 1.5q-4 1 -7.5 2t-7.5 2q-5 2 -9.5 3.5t-8.5 2.5q-2 1 -4.5 1.5t-4.5 1.5l-6 2t-5 2l-6 2l-6 2q-2 1 -5 2l-6 2q-1 0 -2.5 0.5t-2.5 1.5q-2 0 -3 0.5l-3 1.5q-5 2 -10.5 3.5t-10.5 3.5q-5 1 -9.5 3t-9.5 3
q-5 2 -10 3.5t-10 3.5q-1 0 -3 0.5t-3 1.5q-3 1 -6.5 2t-6.5 2q-7 2 -13.5 3.5t-12.5 3.5q-3 0 -6.5 1t-6.5 1q-4 1 -8.5 1.5t-8.5 0.5q-5 1 -9 1h-9q-6 0 -12.5 -0.5t-13.5 -1.5q-3 -1 -6.5 -1.5t-6.5 -0.5q-3 -1 -6 -1.5t-6 -1.5q-7 -2 -13 -4.5t-12 -4.5q-7 -2 -13 -4.5
t-12 -4.5q-1 -1 -2.5 -1.5t-2.5 -0.5l-3 -1.5t-2 -1.5t-2.5 -1.5t-2.5 -0.5q0 -1 -0.5 -1h-0.5q-1 -1 -1.5 -1t-1.5 -1t-2.5 -1.5t-2.5 -0.5q-1 -1 -2.5 -1.5t-2.5 -1.5t-2.5 -1.5t-2.5 -0.5q-1 -1 -2.5 -1.5t-2.5 -1.5q-2 -1 -4.5 -2.5t-4.5 -2.5q-2 -2 -4.5 -3t-4.5 -3
q-3 -1 -5.5 -2.5t-4.5 -2.5q-2 -2 -4.5 -3t-4.5 -3v2v0v0z" />
    <glyph glyph-name="Adieresis" unicode="&#xc4;" horiz-adv-x="833" 
d="M452 686l381 -686h-125l-113 201h-363l-107 -201h-125l366 686h86v0v0v0zM407 536l-127 -247h265l-138 247v0v0v0zM301 848q3 -1 5.5 -1.5t5.5 -1.5t5.5 -1.5t5.5 -1.5q5 -1 10 -3.5t9 -5.5q4 -4 7 -7.5t4 -7.5q2 -4 3.5 -8.5t1.5 -9.5t-1.5 -9.5t-3.5 -8.5q-1 -4 -4 -8
t-7 -7q-4 -4 -9 -6.5t-10 -4.5q-3 -1 -5.5 -1.5t-5.5 -0.5q-3 -1 -5.5 -1h-5.5q-7 0 -12.5 1l-10.5 2q-5 2 -9.5 4.5t-8.5 6.5q-5 3 -8.5 7t-5.5 8t-3 8.5t-1 9.5t1 9.5t3 8.5t5.5 7.5t8.5 7.5q4 3 8.5 5.5t9.5 3.5q5 2 10.5 3t12.5 1v2v0v0zM533 848q3 -1 6 -1.5t6 -1.5
q2 -1 5 -1.5t6 -1.5q5 -1 9.5 -3.5l9.5 -5.5q4 -4 6.5 -7.5t4.5 -7.5q0 -1 0.5 -2t1.5 -2q1 -4 2 -7.5t1 -6.5q0 -4 -1 -7.5t-2 -6.5q-1 -1 -1.5 -2t-0.5 -2q-2 -4 -4.5 -8t-6.5 -7q-5 -4 -9.5 -6.5t-9.5 -4.5q-3 -1 -6 -1.5t-5 -0.5q-3 -1 -6 -1h-6q-6 0 -11.5 1l-10.5 2
q-6 2 -10.5 4.5t-8.5 6.5q-4 3 -8 7t-6 8q-1 4 -2 8.5t-1 9.5t1 9.5t2 8.5q2 4 6 7.5t8 7.5q4 3 8.5 5.5t10.5 3.5q5 2 10.5 3t11.5 1v2v0v0z" />
    <glyph glyph-name="Aring" unicode="&#xc5;" horiz-adv-x="833" 
d="M452 686l381 -686h-125l-113 201h-363l-107 -201h-125l366 686h86v0v0v0zM407 536l-127 -247h265l-138 247v0v0v0zM417 911q11 -1 22.5 -3.5t21.5 -5.5q11 -4 20 -9t17 -12q9 -7 15.5 -14.5t11.5 -15.5q4 -8 6 -17t2 -18q0 -10 -2 -19t-6 -17q-5 -8 -11.5 -15.5
t-15.5 -14.5q-8 -7 -17 -12t-20 -8q-10 -4 -21.5 -5.5t-22.5 -1.5q-12 0 -23 1.5t-22 5.5q-10 3 -19.5 8t-17.5 12q-9 7 -15 14.5t-10 15.5q-5 8 -7 17t-2 19q0 9 2 18t7 17q4 8 10 15.5t15 14.5q8 7 17.5 12t19.5 9q11 3 22 5t23 2v2v0v0zM417 873q-7 -1 -14 -2.5t-12 -3.5
q-7 -2 -12.5 -5t-10.5 -7t-9 -8.5t-6 -9.5t-3.5 -10.5t-1.5 -10.5q0 -6 1.5 -11t3.5 -10t6 -9.5t9 -8.5t10.5 -7t12.5 -5q5 -2 12 -3t14 -1t13.5 1t12.5 3l6 2t6 3q2 1 5 3l6 4q5 4 8.5 8.5t6.5 9.5q0 1 0.5 2l1.5 3q1 3 2 7.5t1 8.5t-1 8l-2 8q-1 1 -1.5 2.5t-0.5 2.5
q-3 5 -6.5 9.5t-8.5 8.5q-3 2 -6 3.5t-5 3.5q-3 1 -6 2.5t-6 2.5q-6 2 -12.5 3t-13.5 1v2v0v0z" />
    <glyph glyph-name="Ccedilla" unicode="&#xc7;" horiz-adv-x="885" 
d="M828 158v-107q-1 -1 -1.5 -2l-0.5 -1v-0.5v-0.5h-1v0h-0.5h-0.5h-0.5h-0.5v0v0q-1 -1 -1.5 -1h-0.5v0v0q-15 -7 -31 -12.5t-33 -10.5q-16 -5 -33.5 -9.5t-35.5 -8.5q-17 -3 -38 -5t-45 -4q-25 -2 -52.5 -3t-57.5 -1l-5 -15q5 0 9.5 -1.5t8.5 -2.5q2 -1 4.5 -2t4.5 -2
q6 -3 11.5 -6.5t9.5 -7.5q5 -4 9 -8.5t5 -9.5q2 -5 3.5 -10.5t1.5 -11.5q0 -11 -2.5 -21t-7.5 -19t-12.5 -16t-18.5 -13q-10 -5 -21.5 -9.5t-24.5 -7.5t-27.5 -4.5t-29.5 -1.5h-2h-1h-2h-2h-3h-2t-2 0.5t-2 0.5h-2h-2h-1.5h-0.5h-1.5h-1.5h-2.5h-2.5q-2 1 -3.5 1h-3.5h-3.5
h-3.5q-1 1 -2.5 1h-3.5v54q1 1 1.5 1h1.5h1l1 -1h2h2h2t3 -1h2.5h2.5h2h2h2h2h4.5h5.5q5 0 9.5 0.5t8.5 0.5q2 0 4.5 0.5t4.5 0.5q3 1 6 1.5t5 0.5q3 1 5.5 1.5t4.5 1.5q5 2 9 4.5t6 4.5q2 3 3.5 6t1.5 6t-0.5 6t-2.5 5q-1 1 -2.5 2t-2.5 2t-2.5 2t-2.5 2q-4 2 -9 3.5
t-10 2.5q-2 0 -4 0.5t-4 0.5h-7.5h-8.5h-1.5h-0.5h-0.5h-0.5h-0.5h-0.5h-1.5h-0.5h-1v-1h-2h-1h-1.5h-0.5h-2h-1v0v0h-1v0l30 66q-37 4 -69.5 11.5t-60.5 18.5q-29 11 -54.5 25t-45.5 31q-22 17 -40 35t-33 36t-25 37.5t-18 39.5q-2 3 -3 6l-2 6q-2 3 -3 6t-1 7q-2 3 -3 6
t-1 6q-1 3 -1.5 6t-0.5 6q-2 6 -3 12t-1 12q-1 6 -1 12v12q0 39 8 74.5t24 67.5q17 32 41.5 61.5t57.5 54.5q33 26 70.5 44.5t79.5 31.5q41 13 87.5 19.5t98.5 6.5q11 0 22 -0.5t22 -1.5q5 -1 11 -1t11 -1q6 0 11.5 -1l11.5 -2q11 -1 22.5 -3l23.5 -4l36 -8.5t38 -9.5
q20 -5 41 -11t43 -13v-103q-7 2 -13.5 4.5t-12.5 5.5q-6 2 -12 4.5t-12 4.5q-13 5 -24.5 9l-22.5 8q-3 1 -5.5 2t-5.5 2q-3 0 -5.5 1t-5.5 2l-6 2t-5 2q-3 0 -6 1l-6 2t-6 1.5t-6 1.5q-3 0 -5.5 0.5t-5.5 1.5t-6 1.5t-5 1.5q-3 0 -6 0.5t-6 1.5q-3 0 -6.5 0.5t-6.5 1.5
q-3 0 -6.5 0.5t-6.5 0.5q-7 1 -13.5 1.5t-12.5 1.5h-3.5t-3.5 1h-3.5h-3.5h-3.5t-3.5 1h-2.5h-3.5h-4t-3 1h-4h-4h-4h-4h-2h-2q-37 0 -70.5 -5t-63.5 -14q-31 -9 -58 -23t-52 -32q-24 -19 -42.5 -40t-29.5 -44q-13 -24 -18.5 -49.5t-5.5 -53.5q0 -29 5.5 -55.5t18.5 -49.5
q11 -23 28.5 -43.5t42.5 -38.5q23 -18 50.5 -31.5t59.5 -22.5t67 -13.5t73 -4.5h12h12q3 0 6 0.5t6 0.5q5 0 9.5 0.5t9.5 0.5q5 1 9.5 1.5t9.5 1.5q5 0 9.5 1t9.5 1q4 1 9 2t9 2q5 1 9.5 2t9.5 2t9.5 2.5t9.5 2.5t9.5 2.5t9.5 2.5q4 2 9 3.5t9 2.5q5 2 9.5 3.5t9.5 2.5
q5 2 9.5 3.5t9.5 3.5t9.5 3.5t8.5 3.5t9 4l10 4q4 2 8.5 4t9.5 4t9.5 4.5t8.5 5.5v2v0v0z" />
    <glyph glyph-name="Eacute" unicode="&#xc9;" horiz-adv-x="625" 
d="M577 682v-88h-361v-206h349v-88h-349v-212h372v-88h-495v682h484v0v0v0zM327 874h125l-140 -147h-69l84 147v0v0v0z" />
    <glyph glyph-name="Ntilde" unicode="&#xd1;" horiz-adv-x="976" 
d="M882 682v-682h-105l-570 525v-525h-115v682h98l577 -528v528h115v0v0v0zM623 863h48q0 -14 -2 -26.5t-6 -23.5q-4 -10 -8.5 -20t-11.5 -18t-15 -14t-17 -10q-3 -1 -6.5 -2.5t-6.5 -2.5q-6 -2 -12.5 -2.5t-13.5 -0.5h-13t-12 1q-4 0 -8 0.5t-8 1.5q-2 1 -4 1.5t-4 0.5
q-2 1 -3.5 1t-3.5 1q-4 1 -7.5 2t-6.5 2q-5 2 -10 3.5t-10 3.5h-2h-1q-1 0 -2 0.5t-2 0.5q-2 0 -3 0.5t-2 1.5q-2 0 -3.5 0.5t-3.5 1.5h-1.5t-0.5 1q-1 0 -1.5 0.5t-1.5 0.5h-2t-1 1q-1 0 -2 0.5t-2 0.5h-2t-2 1q-1 0 -2 0.5t-2 0.5h-2h-1q-1 0 -2 0.5t-2 0.5h-2t-2 1
q-1 0 -2 0.5t-2 0.5q-4 1 -7.5 1.5t-7.5 0.5h-4t-3 1h-4h-4q-4 0 -8 -0.5t-8 -1.5t-7.5 -3t-6.5 -4q-2 -2 -4 -5l-4 -6q-2 -4 -3 -7.5t-1 -7.5l-51 2q1 13 3.5 25t6.5 22q4 11 8.5 20t11.5 16q5 8 12.5 13t15.5 9q9 4 18.5 6t20.5 2h3.5h2.5q2 -1 3.5 -1h3.5h2.5h2.5
q2 -1 3.5 -1h3.5q3 -1 6 -1.5t7 -0.5t7.5 -0.5t7.5 -1.5q2 -1 5 -1.5t6 -1.5q2 0 3 -0.5t3 -0.5q1 -1 2.5 -1.5t2.5 -0.5q1 -1 2.5 -1.5t2.5 -0.5h2.5h1.5h1.5h0.5q1 0 1.5 -0.5t1.5 -0.5q0 -1 0.5 -1h1.5h2h2q0 -1 1 -1h2q3 -1 5.5 -2t5.5 -2t5.5 -1.5t5.5 -1.5
q4 -1 7.5 -2t6.5 -2q2 -1 3.5 -1t3.5 -1q5 -1 10 -2.5t9 -1.5q2 0 4 -0.5t4 -0.5h4h4q5 0 9.5 0.5t8.5 1.5l7 3.5t5 3.5q3 2 6 5t4 7q2 3 3 7.5t2 9.5v2v0v0z" />
    <glyph glyph-name="Odieresis" unicode="&#xd6;" horiz-adv-x="1028" 
d="M56 341q0 35 7.5 67.5t23.5 63.5q15 30 38.5 58.5t55.5 54.5q31 26 67.5 45.5t77.5 32.5t88 19.5t99 6.5q53 0 100 -6.5t89 -19.5t78.5 -32.5t67.5 -45.5q32 -26 55 -54.5t38 -59.5t23 -64t8 -68q0 -34 -8 -67t-23 -63q-15 -31 -38 -59.5t-53 -54.5q-31 -26 -67.5 -45.5
t-79.5 -32.5t-91 -19t-101 -6q-52 0 -99.5 6t-88.5 19t-77 32.5t-68 45.5q-31 26 -54 54.5t-38 58.5t-22.5 63t-7.5 68v2v0v0zM182 341q0 -29 6 -55.5t18 -49.5q11 -23 29 -44t41 -39q23 -19 49.5 -33t56.5 -23t63 -13.5t68 -4.5q36 0 69 4.5t63 13.5t56.5 23t49.5 33
q23 18 41 39t30 44q11 23 17.5 49t6.5 54t-6.5 53.5t-17.5 48.5q-12 23 -30 44t-41 40q-23 18 -49.5 32t-56.5 23t-63 14t-69 5q-35 0 -68 -5t-63 -14t-56.5 -23t-49.5 -32q-23 -19 -41 -40t-29 -44q-12 -23 -18 -48.5t-6 -53.5v2v0v0zM398 848q3 -1 6 -1.5t6 -1.5
q2 -1 5 -1.5t6 -1.5q5 -1 9.5 -3.5l9.5 -5.5q4 -4 6.5 -7.5t4.5 -7.5q0 -1 0.5 -2t1.5 -2q1 -4 2 -7.5t1 -6.5q0 -4 -1 -7.5t-2 -6.5q-1 -1 -1.5 -2t-0.5 -2q-2 -4 -4.5 -8t-6.5 -7q-5 -4 -9.5 -6.5t-9.5 -4.5q-3 -1 -6 -1.5t-5 -0.5q-3 -1 -6 -1h-6q-6 0 -11.5 1l-10.5 2
q-6 2 -10.5 4.5t-8.5 6.5q-4 3 -8 7t-6 8q-1 4 -2 8.5t-1 9.5t1 9.5t2 8.5q2 4 6 7.5t8 7.5q4 3 8.5 5.5t10.5 3.5q5 2 10.5 3t11.5 1v2v0v0zM631 848q3 -1 5.5 -1.5t5.5 -1.5t5.5 -1.5t5.5 -1.5q5 -1 10 -3.5t9 -5.5q4 -4 7 -7.5t4 -7.5q2 -4 3.5 -8.5t1.5 -9.5t-1.5 -9.5
t-3.5 -8.5q-1 -4 -4 -8t-7 -7q-4 -4 -9 -6.5t-10 -4.5q-3 -1 -5.5 -1.5t-5.5 -0.5q-3 -1 -5.5 -1h-5.5q-7 0 -12.5 1l-10.5 2q-5 2 -9.5 4.5t-8.5 6.5q-5 3 -8.5 7t-5.5 8t-3 8.5t-1 9.5t1 9.5t3 8.5t5.5 7.5t8.5 7.5q4 3 8.5 5.5t9.5 3.5q5 2 10.5 3t12.5 1v2v0v0z" />
    <glyph glyph-name="Udieresis" unicode="&#xdc;" horiz-adv-x="885" 
d="M810 682v-414q0 -32 -6.5 -60.5t-17.5 -54.5q-12 -25 -30 -47t-41 -41q-24 -19 -53 -33t-65 -23q-35 -8 -77 -12.5t-89 -4.5q-34 0 -66.5 4t-62.5 10q-31 8 -60 19.5t-56 27.5q-28 16 -48.5 36.5t-34.5 45.5q-13 26 -20 56t-7 65v426h122v-403q0 -16 0.5 -29t2.5 -24
t4 -20t5 -17q2 -7 6 -14.5t9 -13.5q5 -7 11.5 -13t13.5 -11q8 -7 17.5 -14t19.5 -12q11 -5 22 -9.5t23 -8.5q11 -4 23 -6.5t25 -4.5l26.5 -2t26.5 -1q17 0 33.5 1t31.5 3t28.5 5t26.5 7t24 8.5l21 8.5q10 5 19 10.5t16 11.5q8 6 14.5 13.5l12.5 14.5q5 8 9 16.5t7 18.5
q2 6 3.5 12.5t2.5 13.5q1 4 1.5 7.5t1.5 6.5q1 11 1.5 22.5t0.5 23.5v399h123v0v0v0zM327 848q3 -1 6 -1.5t6 -1.5q2 -1 5 -1.5t6 -1.5q5 -1 9.5 -3.5t8.5 -5.5q4 -4 7 -7.5t5 -7.5q0 -1 0.5 -2t1.5 -2q1 -4 2 -7.5t1 -6.5q0 -4 -1 -7.5t-2 -6.5q-1 -1 -1.5 -2t-0.5 -2
q-2 -4 -5 -8t-7 -7q-4 -4 -8.5 -6.5t-9.5 -4.5q-3 -1 -6 -1.5t-5 -0.5q-3 -1 -6 -1h-6q-7 0 -12 1l-10 2q-6 2 -10.5 4.5t-8.5 6.5q-4 3 -8 7t-6 8q-1 4 -2.5 8.5t-1.5 9.5t1.5 9.5t2.5 8.5q2 4 6 7.5t8 7.5q4 3 8.5 5.5t10.5 3.5q5 2 10 3t12 1v2v0v0zM560 848
q3 -1 5.5 -1.5t5.5 -1.5t5.5 -1.5t5.5 -1.5q2 -1 4.5 -2t5.5 -2q2 -1 4.5 -2t4.5 -3q4 -4 7 -7.5t4 -7.5q2 -4 3.5 -8.5t1.5 -9.5t-1.5 -9.5t-3.5 -8.5q-1 -4 -4 -8t-7 -7q-2 -2 -4.5 -3.5t-4.5 -3.5q-3 -1 -5.5 -2t-4.5 -2q-3 -1 -5.5 -1.5t-5.5 -0.5q-3 -1 -5.5 -1h-5.5
q-7 0 -12.5 1l-10.5 2q-5 2 -10 4.5t-9 6.5q-4 3 -7.5 7t-5.5 8t-3 8.5t-1 9.5t1 9.5t3 8.5t5.5 7.5l7.5 7.5q4 3 9 5.5t10 3.5q5 2 10.5 3t12.5 1v2v0v0z" />
    <glyph glyph-name="aacute" unicode="&#xe1;" horiz-adv-x="533" 
d="M513 80v-54q-6 -4 -12 -7.5l-11 -6.5q-6 -3 -11 -5t-9 -4q-3 -1 -5 -1.5t-5 -0.5q-2 -1 -4 -1t-4 -1q-4 -2 -8 -2.5t-8 -1.5h-2t-2 -1h-2h-2h-2t-1 -1h-2h-2h-0.5h-1.5h-1.5h-0.5h-1.5t-2.5 -1h-1.5h-1.5h-2h-2q-10 0 -18 0.5t-16 2.5q-7 1 -13 2.5t-11 2.5q-5 2 -9 6
l-8 8q-4 5 -6 10t-4 11q-5 -3 -9.5 -6t-9.5 -5l-9.5 -5.5t-9.5 -4.5q-4 -2 -9 -4t-9 -4q-5 -1 -9.5 -2.5t-9.5 -2.5q-2 0 -4.5 -0.5t-4.5 -0.5q-3 0 -5.5 -0.5t-4.5 -1.5q-5 -1 -10 -1.5t-9 -1.5q-3 0 -5.5 -0.5t-4.5 -0.5q-2 -1 -4.5 -1h-5.5h-4.5t-4.5 -1h-4.5h-4.5
q-16 0 -30 2t-27 6q-13 3 -23.5 9t-19.5 14q-10 8 -17 17t-12 18q-4 9 -6.5 19.5t-2.5 21.5q0 15 3 28t10 24q5 11 15 20t23 16t26 13l27 12t29 11.5t31 9.5h2h2l1 0.5t2 1.5h0.5h1.5h0.5h0.5q1 0 2 0.5t2 1.5h1.5h1.5l1.5 0.5t2.5 1.5h1h2t1.5 0.5l1.5 1.5l99 30v24
q0 9 -1.5 18t-4.5 16q-4 8 -8.5 14t-10.5 10q-7 5 -15 8t-17 6q-10 2 -21 3.5t-23 1.5h-0.5h-1.5h-1.5h-0.5h-1.5h-0.5q-2 -1 -3 -1h-1h-0.5h-0.5h-1.5h-0.5h-1.5h-0.5h-1.5h-1.5h-1.5h-0.5h-1.5h-1.5q-10 -1 -20 -3t-21 -5l-20 -6t-20 -8q-7 -3 -13.5 -6.5t-12.5 -7.5
q-3 -2 -6.5 -4t-6.5 -4l-8.5 -6.5l-8.5 -6.5q-5 -4 -9 -8t-9 -8v99q6 5 12.5 9.5l13.5 9.5q2 1 4.5 3t4.5 3q10 6 21 10.5t23 8.5q11 4 23.5 7t25.5 4q13 2 28 3t31 1q20 0 39.5 -2t37.5 -7q18 -4 34.5 -11t31.5 -16t26.5 -20.5t18.5 -25.5q8 -14 11.5 -30.5t3.5 -35.5v-229
q0 -4 0.5 -7.5t1.5 -5.5q0 -3 1 -4.5t2 -2.5q2 -1 3.5 -2.5t3.5 -1.5q2 -1 4.5 -1h5.5h4t6 1q2 1 5.5 2.5t7.5 2.5q4 2 8 3.5l9 3.5t9.5 5t8.5 6v2v0v0zM322 91v131l-34.5 -11.5l-32.5 -10.5l-30 -11.5l-28 -10.5q-13 -6 -23 -13t-17 -15q-7 -7 -9.5 -16t-2.5 -19
q0 -7 1 -13.5t4 -12.5q2 -6 7 -10.5t10 -9.5q2 -1 3 -2t3 -2q4 -3 8.5 -5.5t10.5 -3.5q8 -2 15.5 -3t17.5 -1h6h7q3 0 6 0.5t6 1.5q5 2 11.5 3.5t13.5 4.5q3 1 6 2.5t6 2.5q3 2 5.5 3.5t5.5 2.5l4 2t4 3q4 2 8.5 5t7.5 6v2v0v0zM281 654h125l-140 -147h-69l84 147v0v0v0z
" />
    <glyph glyph-name="agrave" unicode="&#xe0;" horiz-adv-x="533" 
d="M513 80v-54q-6 -4 -12 -7.5l-11 -6.5q-6 -3 -11 -5t-9 -4q-3 -1 -5 -1.5t-5 -0.5q-2 -1 -4 -1t-4 -1q-4 -2 -8 -2.5t-8 -1.5h-2t-2 -1h-2h-2h-2t-1 -1h-2h-2h-0.5h-1.5h-1.5h-0.5h-1.5t-2.5 -1h-1.5h-1.5h-2h-2q-10 0 -18 0.5t-16 2.5q-7 1 -13 2.5t-11 2.5q-5 2 -9 6
l-8 8q-4 5 -6 10t-4 11q-5 -3 -9.5 -6t-9.5 -5l-9.5 -5.5t-9.5 -4.5q-4 -2 -9 -4t-9 -4q-5 -1 -9.5 -2.5t-9.5 -2.5q-2 0 -4.5 -0.5t-4.5 -0.5q-3 0 -5.5 -0.5t-4.5 -1.5q-5 -1 -10 -1.5t-9 -1.5q-3 0 -5.5 -0.5t-4.5 -0.5q-2 -1 -4.5 -1h-5.5h-4.5t-4.5 -1h-4.5h-4.5
q-16 0 -30 2t-27 6q-13 3 -23.5 9t-19.5 14q-10 8 -17 17t-12 18q-4 9 -6.5 19.5t-2.5 21.5q0 15 3 28t10 24q5 11 15 20t23 16t26 13l27 12t29 11.5t31 9.5h2h2l1 0.5t2 1.5h0.5h1.5h0.5h0.5q1 0 2 0.5t2 1.5h1.5h1.5l1.5 0.5t2.5 1.5h1h2t1.5 0.5l1.5 1.5l99 30v24
q0 9 -1.5 18t-4.5 16q-4 8 -8.5 14t-10.5 10q-7 5 -15 8t-17 6q-10 2 -21 3.5t-23 1.5h-0.5h-1.5h-1.5h-0.5h-1.5h-0.5q-2 -1 -3 -1h-1h-0.5h-0.5h-1.5h-0.5h-1.5h-0.5h-1.5h-1.5h-1.5h-0.5h-1.5h-1.5q-10 -1 -20 -3t-21 -5l-20 -6t-20 -8q-7 -3 -13.5 -6.5t-12.5 -7.5
q-3 -2 -6.5 -4t-6.5 -4l-8.5 -6.5l-8.5 -6.5q-5 -4 -9 -8t-9 -8v99q6 5 12.5 9.5l13.5 9.5q2 1 4.5 3t4.5 3q10 6 21 10.5t23 8.5q11 4 23.5 7t25.5 4q13 2 28 3t31 1q20 0 39.5 -2t37.5 -7q18 -4 34.5 -11t31.5 -16t26.5 -20.5t18.5 -25.5q8 -14 11.5 -30.5t3.5 -35.5v-229
q0 -4 0.5 -7.5t1.5 -5.5q0 -3 1 -4.5t2 -2.5q2 -1 3.5 -2.5t3.5 -1.5q2 -1 4.5 -1h5.5h4t6 1q2 1 5.5 2.5t7.5 2.5q4 2 8 3.5l9 3.5t9.5 5t8.5 6v2v0v0zM322 91v131l-34.5 -11.5l-32.5 -10.5l-30 -11.5l-28 -10.5q-13 -6 -23 -13t-17 -15q-7 -7 -9.5 -16t-2.5 -19
q0 -7 1 -13.5t4 -12.5q2 -6 7 -10.5t10 -9.5q2 -1 3 -2t3 -2q4 -3 8.5 -5.5t10.5 -3.5q8 -2 15.5 -3t17.5 -1h6h7q3 0 6 0.5t6 1.5q5 2 11.5 3.5t13.5 4.5q3 1 6 2.5t6 2.5q3 2 5.5 3.5t5.5 2.5l4 2t4 3q4 2 8.5 5t7.5 6v2v0v0zM233 654l84 -147h-69l-140 147h125v0v0v0z
" />
    <glyph glyph-name="acircumflex" unicode="&#xe2;" horiz-adv-x="533" 
d="M513 80v-54q-6 -4 -12 -7.5l-11 -6.5q-6 -3 -11 -5t-9 -4q-3 -1 -5 -1.5t-5 -0.5q-2 -1 -4 -1t-4 -1q-4 -2 -8 -2.5t-8 -1.5h-2t-2 -1h-2h-2h-2t-1 -1h-2h-2h-0.5h-1.5h-1.5h-0.5h-1.5t-2.5 -1h-1.5h-1.5h-2h-2q-10 0 -18 0.5t-16 2.5q-7 1 -13 2.5t-11 2.5q-5 2 -9 6
l-8 8q-4 5 -6 10t-4 11q-5 -3 -9.5 -6t-9.5 -5l-9.5 -5.5t-9.5 -4.5q-4 -2 -9 -4t-9 -4q-5 -1 -9.5 -2.5t-9.5 -2.5q-2 0 -4.5 -0.5t-4.5 -0.5q-3 0 -5.5 -0.5t-4.5 -1.5q-5 -1 -10 -1.5t-9 -1.5q-3 0 -5.5 -0.5t-4.5 -0.5q-2 -1 -4.5 -1h-5.5h-4.5t-4.5 -1h-4.5h-4.5
q-16 0 -30 2t-27 6q-13 3 -23.5 9t-19.5 14q-10 8 -17 17t-12 18q-4 9 -6.5 19.5t-2.5 21.5q0 15 3 28t10 24q5 11 15 20t23 16t26 13l27 12t29 11.5t31 9.5h2h2l1 0.5t2 1.5h0.5h1.5h0.5h0.5q1 0 2 0.5t2 1.5h1.5h1.5l1.5 0.5t2.5 1.5h1h2t1.5 0.5l1.5 1.5l99 30v24
q0 9 -1.5 18t-4.5 16q-4 8 -8.5 14t-10.5 10q-7 5 -15 8t-17 6q-10 2 -21 3.5t-23 1.5h-0.5h-1.5h-1.5h-0.5h-1.5h-0.5q-2 -1 -3 -1h-1h-0.5h-0.5h-1.5h-0.5h-1.5h-0.5h-1.5h-1.5h-1.5h-0.5h-1.5h-1.5q-10 -1 -20 -3t-21 -5l-20 -6t-20 -8q-7 -3 -13.5 -6.5t-12.5 -7.5
q-3 -2 -6.5 -4t-6.5 -4l-8.5 -6.5l-8.5 -6.5q-5 -4 -9 -8t-9 -8v99q6 5 12.5 9.5l13.5 9.5q2 1 4.5 3t4.5 3q10 6 21 10.5t23 8.5q11 4 23.5 7t25.5 4q13 2 28 3t31 1q20 0 39.5 -2t37.5 -7q18 -4 34.5 -11t31.5 -16t26.5 -20.5t18.5 -25.5q8 -14 11.5 -30.5t3.5 -35.5v-229
q0 -4 0.5 -7.5t1.5 -5.5q0 -3 1 -4.5t2 -2.5q2 -1 3.5 -2.5t3.5 -1.5q2 -1 4.5 -1h5.5h4t6 1q2 1 5.5 2.5t7.5 2.5q4 2 8 3.5l9 3.5t9.5 5t8.5 6v2v0v0zM322 91v131l-34.5 -11.5l-32.5 -10.5l-30 -11.5l-28 -10.5q-13 -6 -23 -13t-17 -15q-7 -7 -9.5 -16t-2.5 -19
q0 -7 1 -13.5t4 -12.5q2 -6 7 -10.5t10 -9.5q2 -1 3 -2t3 -2q4 -3 8.5 -5.5t10.5 -3.5q8 -2 15.5 -3t17.5 -1h6h7q3 0 6 0.5t6 1.5q5 2 11.5 3.5t13.5 4.5q3 1 6 2.5t6 2.5q3 2 5.5 3.5t5.5 2.5l4 2t4 3q4 2 8.5 5t7.5 6v2v0v0zM298 657l118 -151h-69l-109 87l-103 -87h-67
l114 151h116v0v0v0z" />
    <glyph glyph-name="adieresis" unicode="&#xe4;" horiz-adv-x="533" 
d="M513 80v-54q-6 -4 -12 -7.5l-11 -6.5q-6 -3 -11 -5t-9 -4q-3 -1 -5 -1.5t-5 -0.5q-2 -1 -4 -1t-4 -1q-4 -2 -8 -2.5t-8 -1.5h-2t-2 -1h-2h-2h-2t-1 -1h-2h-2h-0.5h-1.5h-1.5h-0.5h-1.5t-2.5 -1h-1.5h-1.5h-2h-2q-10 0 -18 0.5t-16 2.5q-7 1 -13 2.5t-11 2.5q-5 2 -9 6
l-8 8q-4 5 -6 10t-4 11q-5 -3 -9.5 -6t-9.5 -5l-9.5 -5.5t-9.5 -4.5q-4 -2 -9 -4t-9 -4q-5 -1 -9.5 -2.5t-9.5 -2.5q-2 0 -4.5 -0.5t-4.5 -0.5q-3 0 -5.5 -0.5t-4.5 -1.5q-5 -1 -10 -1.5t-9 -1.5q-3 0 -5.5 -0.5t-4.5 -0.5q-2 -1 -4.5 -1h-5.5h-4.5t-4.5 -1h-4.5h-4.5
q-16 0 -30 2t-27 6q-13 3 -23.5 9t-19.5 14q-10 8 -17 17t-12 18q-4 9 -6.5 19.5t-2.5 21.5q0 15 3 28t10 24q5 11 15 20t23 16t26 13l27 12t29 11.5t31 9.5h2h2l1 0.5t2 1.5h0.5h1.5h0.5h0.5q1 0 2 0.5t2 1.5h1.5h1.5l1.5 0.5t2.5 1.5h1h2t1.5 0.5l1.5 1.5l99 30v24
q0 9 -1.5 18t-4.5 16q-4 8 -8.5 14t-10.5 10q-7 5 -15 8t-17 6q-10 2 -21 3.5t-23 1.5h-0.5h-1.5h-1.5h-0.5h-1.5h-0.5q-2 -1 -3 -1h-1h-0.5h-0.5h-1.5h-0.5h-1.5h-0.5h-1.5h-1.5h-1.5h-0.5h-1.5h-1.5q-10 -1 -20 -3t-21 -5l-20 -6t-20 -8q-7 -3 -13.5 -6.5t-12.5 -7.5
q-3 -2 -6.5 -4t-6.5 -4l-8.5 -6.5l-8.5 -6.5q-5 -4 -9 -8t-9 -8v99q6 5 12.5 9.5l13.5 9.5q2 1 4.5 3t4.5 3q10 6 21 10.5t23 8.5q11 4 23.5 7t25.5 4q13 2 28 3t31 1q20 0 39.5 -2t37.5 -7q18 -4 34.5 -11t31.5 -16t26.5 -20.5t18.5 -25.5q8 -14 11.5 -30.5t3.5 -35.5v-229
q0 -4 0.5 -7.5t1.5 -5.5q0 -3 1 -4.5t2 -2.5q2 -1 3.5 -2.5t3.5 -1.5q2 -1 4.5 -1h5.5h4t6 1q2 1 5.5 2.5t7.5 2.5q4 2 8 3.5l9 3.5t9.5 5t8.5 6v2v0v0zM322 91v131l-34.5 -11.5l-32.5 -10.5l-30 -11.5l-28 -10.5q-13 -6 -23 -13t-17 -15q-7 -7 -9.5 -16t-2.5 -19
q0 -7 1 -13.5t4 -12.5q2 -6 7 -10.5t10 -9.5q2 -1 3 -2t3 -2q4 -3 8.5 -5.5t10.5 -3.5q8 -2 15.5 -3t17.5 -1h6h7q3 0 6 0.5t6 1.5q5 2 11.5 3.5t13.5 4.5q3 1 6 2.5t6 2.5q3 2 5.5 3.5t5.5 2.5l4 2t4 3q4 2 8.5 5t7.5 6v2v0v0zM126 628q3 -1 5.5 -1.5t5.5 -1.5t5.5 -1.5
t5.5 -1.5q5 -1 10 -3.5t9 -5.5q4 -4 7 -7.5t4 -7.5q2 -4 3.5 -8.5t1.5 -9.5t-1.5 -9.5t-3.5 -8.5q-1 -4 -4 -8t-7 -7q-4 -4 -9 -6.5t-10 -4.5q-3 -1 -5.5 -1.5t-5.5 -0.5q-3 -1 -5.5 -1h-5.5q-7 0 -12.5 1l-10.5 2q-5 2 -9.5 4.5t-8.5 6.5q-5 3 -8.5 7t-5.5 8t-3 8.5t-1 9.5
t1 9.5t3 8.5t5.5 7.5t8.5 7.5q4 3 8.5 5.5t9.5 3.5q5 2 10.5 3t12.5 1v2v0v0zM358 628q3 -1 6 -1.5t6 -1.5q2 -1 5 -1.5t6 -1.5q5 -1 9.5 -3.5l9.5 -5.5q4 -4 6.5 -7.5t4.5 -7.5q0 -1 0.5 -2t1.5 -2q1 -4 2 -7.5t1 -6.5q0 -4 -1 -7.5t-2 -6.5q-1 -1 -1.5 -2t-0.5 -2
q-2 -4 -4.5 -8t-6.5 -7q-5 -4 -9.5 -6.5t-9.5 -4.5q-3 -1 -6 -1.5t-5 -0.5q-3 -1 -6 -1h-6q-6 0 -11.5 1l-10.5 2q-6 2 -10.5 4.5t-8.5 6.5q-4 3 -8 7t-6 8q-1 4 -2 8.5t-1 9.5t1 9.5t2 8.5q2 4 6 7.5t8 7.5q4 3 8.5 5.5t10.5 3.5q5 2 10.5 3t11.5 1v2v0v0z" />
    <glyph glyph-name="atilde" unicode="&#xe3;" horiz-adv-x="533" 
d="M513 80v-54q-6 -4 -12 -7.5l-11 -6.5q-6 -3 -11 -5t-9 -4q-3 -1 -5 -1.5t-5 -0.5q-2 -1 -4 -1t-4 -1q-4 -2 -8 -2.5t-8 -1.5h-2t-2 -1h-2h-2h-2t-1 -1h-2h-2h-0.5h-1.5h-1.5h-0.5h-1.5t-2.5 -1h-1.5h-1.5h-2h-2q-10 0 -18 0.5t-16 2.5q-7 1 -13 2.5t-11 2.5q-5 2 -9 6
l-8 8q-4 5 -6 10t-4 11q-5 -3 -9.5 -6t-9.5 -5l-9.5 -5.5t-9.5 -4.5q-4 -2 -9 -4t-9 -4q-5 -1 -9.5 -2.5t-9.5 -2.5q-2 0 -4.5 -0.5t-4.5 -0.5q-3 0 -5.5 -0.5t-4.5 -1.5q-5 -1 -10 -1.5t-9 -1.5q-3 0 -5.5 -0.5t-4.5 -0.5q-2 -1 -4.5 -1h-5.5h-4.5t-4.5 -1h-4.5h-4.5
q-16 0 -30 2t-27 6q-13 3 -23.5 9t-19.5 14q-10 8 -17 17t-12 18q-4 9 -6.5 19.5t-2.5 21.5q0 15 3 28t10 24q5 11 15 20t23 16t26 13l27 12t29 11.5t31 9.5h2h2l1 0.5t2 1.5h0.5h1.5h0.5h0.5q1 0 2 0.5t2 1.5h1.5h1.5l1.5 0.5t2.5 1.5h1h2t1.5 0.5l1.5 1.5l99 30v24
q0 9 -1.5 18t-4.5 16q-4 8 -8.5 14t-10.5 10q-7 5 -15 8t-17 6q-10 2 -21 3.5t-23 1.5h-0.5h-1.5h-1.5h-0.5h-1.5h-0.5q-2 -1 -3 -1h-1h-0.5h-0.5h-1.5h-0.5h-1.5h-0.5h-1.5h-1.5h-1.5h-0.5h-1.5h-1.5q-10 -1 -20 -3t-21 -5l-20 -6t-20 -8q-7 -3 -13.5 -6.5t-12.5 -7.5
q-3 -2 -6.5 -4t-6.5 -4l-8.5 -6.5l-8.5 -6.5q-5 -4 -9 -8t-9 -8v99q6 5 12.5 9.5l13.5 9.5q2 1 4.5 3t4.5 3q10 6 21 10.5t23 8.5q11 4 23.5 7t25.5 4q13 2 28 3t31 1q20 0 39.5 -2t37.5 -7q18 -4 34.5 -11t31.5 -16t26.5 -20.5t18.5 -25.5q8 -14 11.5 -30.5t3.5 -35.5v-229
q0 -4 0.5 -7.5t1.5 -5.5q0 -3 1 -4.5t2 -2.5q2 -1 3.5 -2.5t3.5 -1.5q2 -1 4.5 -1h5.5h4t6 1q2 1 5.5 2.5t7.5 2.5q4 2 8 3.5l9 3.5t9.5 5t8.5 6v2v0v0zM322 91v131l-34.5 -11.5l-32.5 -10.5l-30 -11.5l-28 -10.5q-13 -6 -23 -13t-17 -15q-7 -7 -9.5 -16t-2.5 -19
q0 -7 1 -13.5t4 -12.5q2 -6 7 -10.5t10 -9.5q2 -1 3 -2t3 -2q4 -3 8.5 -5.5t10.5 -3.5q8 -2 15.5 -3t17.5 -1h6h7q3 0 6 0.5t6 1.5q5 2 11.5 3.5t13.5 4.5q3 1 6 2.5t6 2.5q3 2 5.5 3.5t5.5 2.5l4 2t4 3q4 2 8.5 5t7.5 6v2v0v0zM377 643h48q0 -14 -2 -26.5t-6 -23.5
q-4 -10 -8.5 -20t-11.5 -18t-15 -14t-17 -10q-3 -1 -6.5 -2.5t-6.5 -2.5q-6 -2 -12.5 -2.5t-13.5 -0.5h-13.5t-11.5 1q-4 0 -8 0.5t-8 1.5q-2 1 -4 1.5t-4 0.5q-2 1 -3.5 1t-3.5 1q-4 1 -7.5 2t-6.5 2l-10.5 3.5t-9.5 3.5h-2h-2t-2 0.5t-2 0.5h-1.5t-0.5 1q-1 0 -1.5 0.5
t-1.5 0.5h-1h-1q-1 1 -2 1.5t-2 0.5t-2.5 0.5t-2.5 1.5h-2t-1 1q-1 0 -2 0.5t-2 0.5h-2t-2 1q-1 0 -2 0.5t-2 0.5h-2h-1q-1 0 -2 0.5t-2 0.5h-2t-2 1q-1 0 -2 0.5t-2 0.5q-4 1 -7.5 1.5t-7.5 0.5h-4t-3 1h-4h-4q-4 0 -8 -0.5t-8 -1.5t-7.5 -3t-6.5 -4q-2 -1 -3.5 -3t-2.5 -4
q-1 -1 -1.5 -2t-1.5 -2q-1 -4 -2 -7.5t-1 -7.5l-52 2l4 25t6 22q4 11 9 20t11 16q6 8 13.5 13t15.5 9t18 6t21 2h2h2h0.5h1.5q1 -1 2.5 -1h3.5h3.5h2.5q2 -1 3.5 -1h3.5q1 0 2 -0.5t2 -0.5q2 0 4 -0.5t4 -0.5q4 0 7.5 -0.5t7.5 -1.5q3 -1 6 -1.5t6 -1.5q2 -1 5 -1.5t6 -1.5
q1 -1 2 -1.5t3 -0.5h3.5h2.5q1 -1 2.5 -1.5t2.5 -0.5h2h1l1 -1v0h1.5h0.5l6 -2l6 -2q2 -1 5 -1.5t6 -1.5q5 -1 10.5 -2.5t10.5 -3.5q2 -1 4.5 -1.5t5.5 -1.5q2 0 4.5 -0.5t4.5 -0.5t4 -0.5t4 -0.5h4h4h3.5h2.5q3 0 6.5 0.5t5.5 1.5q3 1 4.5 2t3.5 2q1 1 2 1.5t2 1.5q3 2 6 5
t4 7q2 3 3 7.5t2 9.5v2v0v0z" />
    <glyph glyph-name="aring" unicode="&#xe5;" horiz-adv-x="533" 
d="M513 80v-54q-6 -4 -12 -7.5l-11 -6.5q-6 -3 -11 -5t-9 -4q-3 -1 -5 -1.5t-5 -0.5q-2 -1 -4 -1t-4 -1q-4 -2 -8 -2.5t-8 -1.5h-2t-2 -1h-2h-2h-2t-1 -1h-2h-2h-0.5h-1.5h-1.5h-0.5h-1.5t-2.5 -1h-1.5h-1.5h-2h-2q-10 0 -18 0.5t-16 2.5q-7 1 -13 2.5t-11 2.5q-5 2 -9 6
l-8 8q-4 5 -6 10t-4 11q-5 -3 -9.5 -6t-9.5 -5l-9.5 -5.5t-9.5 -4.5q-4 -2 -9 -4t-9 -4q-5 -1 -9.5 -2.5t-9.5 -2.5q-2 0 -4.5 -0.5t-4.5 -0.5q-3 0 -5.5 -0.5t-4.5 -1.5q-5 -1 -10 -1.5t-9 -1.5q-3 0 -5.5 -0.5t-4.5 -0.5q-2 -1 -4.5 -1h-5.5h-4.5t-4.5 -1h-4.5h-4.5
q-16 0 -30 2t-27 6q-13 3 -23.5 9t-19.5 14q-10 8 -17 17t-12 18q-4 9 -6.5 19.5t-2.5 21.5q0 15 3 28t10 24q5 11 15 20t23 16t26 13l27 12t29 11.5t31 9.5h2h2l1 0.5t2 1.5h0.5h1.5h0.5h0.5q1 0 2 0.5t2 1.5h1.5h1.5l1.5 0.5t2.5 1.5h1h2t1.5 0.5l1.5 1.5l99 30v24
q0 9 -1.5 18t-4.5 16q-4 8 -8.5 14t-10.5 10q-7 5 -15 8t-17 6q-10 2 -21 3.5t-23 1.5h-0.5h-1.5h-1.5h-0.5h-1.5h-0.5q-2 -1 -3 -1h-1h-0.5h-0.5h-1.5h-0.5h-1.5h-0.5h-1.5h-1.5h-1.5h-0.5h-1.5h-1.5q-10 -1 -20 -3t-21 -5l-20 -6t-20 -8q-7 -3 -13.5 -6.5t-12.5 -7.5
q-3 -2 -6.5 -4t-6.5 -4l-8.5 -6.5l-8.5 -6.5q-5 -4 -9 -8t-9 -8v99q6 5 12.5 9.5l13.5 9.5q2 1 4.5 3t4.5 3q10 6 21 10.5t23 8.5q11 4 23.5 7t25.5 4q13 2 28 3t31 1q20 0 39.5 -2t37.5 -7q18 -4 34.5 -11t31.5 -16t26.5 -20.5t18.5 -25.5q8 -14 11.5 -30.5t3.5 -35.5v-229
q0 -4 0.5 -7.5t1.5 -5.5q0 -3 1 -4.5t2 -2.5q2 -1 3.5 -2.5t3.5 -1.5q2 -1 4.5 -1h5.5h4t6 1q2 1 5.5 2.5t7.5 2.5q4 2 8 3.5l9 3.5t9.5 5t8.5 6v2v0v0zM322 91v131l-34.5 -11.5l-32.5 -10.5l-30 -11.5l-28 -10.5q-13 -6 -23 -13t-17 -15q-7 -7 -9.5 -16t-2.5 -19
q0 -7 1 -13.5t4 -12.5q2 -6 7 -10.5t10 -9.5q2 -1 3 -2t3 -2q4 -3 8.5 -5.5t10.5 -3.5q8 -2 15.5 -3t17.5 -1h6h7q3 0 6 0.5t6 1.5q5 2 11.5 3.5t13.5 4.5q3 1 6 2.5t6 2.5q3 2 5.5 3.5t5.5 2.5l4 2t4 3q4 2 8.5 5t7.5 6v2v0v0zM242 691q11 -1 22.5 -3.5t21.5 -5.5
q11 -4 20 -9t17 -12q9 -7 15.5 -14.5t11.5 -15.5q4 -8 6 -17t2 -18q0 -10 -2 -19t-6 -17q-5 -8 -11.5 -15.5t-15.5 -14.5q-8 -7 -17 -12t-20 -8q-10 -4 -21.5 -5.5t-22.5 -1.5q-12 0 -23 1.5t-22 5.5q-10 3 -19.5 8t-17.5 12q-9 7 -15 14.5t-10 15.5q-5 8 -7 17t-2 19
q0 9 2 18t7 17q4 8 10 15.5t15 14.5q8 7 17.5 12t19.5 9q11 3 22 5t23 2v2v0v0zM242 653q-7 -1 -14 -2.5t-12 -3.5q-7 -2 -12.5 -5t-10.5 -7t-9 -8.5t-6 -9.5t-3.5 -10.5t-1.5 -10.5q0 -6 1.5 -11t3.5 -10t6 -9.5t9 -8.5t10.5 -7t12.5 -5q5 -2 12 -3t14 -1t13.5 1t12.5 3
l6 2t6 3q2 1 5 3l6 4q5 4 8.5 8.5t6.5 9.5q0 1 0.5 2l1.5 3q1 3 2 7.5t1 8.5t-1 8l-2 8q-1 1 -1.5 2.5t-0.5 2.5q-3 5 -6.5 9.5t-8.5 8.5q-3 2 -6 3.5t-5 3.5q-3 1 -6 2.5t-6 2.5q-6 2 -12.5 3t-13.5 1v2v0v0z" />
    <glyph glyph-name="ccedilla" unicode="&#xe7;" horiz-adv-x="547" 
d="M503 105v-88q-6 -4 -13.5 -7t-17.5 -5q-9 -2 -19 -3.5t-21 -1.5q-6 -1 -11.5 -1.5t-10.5 -1.5q-6 0 -11.5 -0.5t-11.5 -1.5q-11 -1 -23 -1.5t-24 -1.5h-2h-1v0v0h-1.5h-0.5h-0.5h-0.5h-0.5h-0.5h-1.5h-1.5h-2h-2l-5 -15q8 -1 14.5 -3t12.5 -5t11.5 -6.5t10.5 -7.5
t8.5 -8.5t4.5 -9.5q2 -5 3.5 -10.5t1.5 -11.5q0 -11 -2.5 -21t-7.5 -19t-12.5 -16t-18.5 -13q-10 -5 -21.5 -9.5t-24.5 -7.5t-27 -4.5t-29 -1.5h-2h-2h-2h-2h-2.5h-2.5t-2 0.5l-1 0.5h-2h-2h-3h-2h-3h-3q-2 1 -3.5 1h-3.5h-3.5h-3.5q-1 1 -2.5 1h-2.5v54q1 1 2 1t2 -1h2h2
h2.5t2.5 -1h2.5h2.5h2h2h2h2h4.5h5.5q8 0 14.5 0.5t12.5 1.5q3 1 6 1.5t5 0.5q3 1 5.5 1.5t5.5 1.5q5 2 8.5 4.5l6.5 4.5q0 1 0.5 1.5l1.5 1.5q1 2 2 4.5t1 4.5q0 3 -1 6t-3 5t-4.5 4t-5.5 4q-4 2 -8.5 3.5t-10.5 2.5q-5 1 -11 1h-13h-1.5h-0.5v0v0h-1v0h-2h-1h-1v-1h-0.5
h-0.5h-1.5h-0.5h-1.5h-0.5h-0.5h-0.5h-1.5h-0.5v0v0h-1v0l30 67q-23 3 -44 9.5t-40 16.5q-19 9 -35.5 21t-30.5 27q-14 14 -24 30t-18 34q-7 18 -10.5 37t-3.5 40q0 28 4.5 52.5t14.5 46.5q9 22 23 41.5t33 35.5q19 17 40.5 29t46.5 20q26 8 55 12.5t60 4.5h9h8q4 -1 8 -1h8
q8 -1 14.5 -1.5t12.5 -1.5q3 -1 6.5 -1.5t7.5 -0.5q3 -1 6.5 -1.5t6.5 -1.5q6 -1 12.5 -2.5t13.5 -3.5q1 -1 2 -1.5t3 -0.5q1 0 2 -0.5t2 -0.5h1h2t1.5 -0.5t1.5 -0.5q0 -1 0.5 -1h1.5t2 -0.5t2 -0.5q1 -1 2 -1h2t2 -0.5t2 -1.5h0.5h1.5q1 -1 2.5 -1.5t3.5 -1.5l6 -2t7 -2
v-93l-19 7.5t-17 7.5q-9 4 -16.5 7t-13.5 5q-7 2 -14.5 4.5t-14.5 3.5q-7 2 -14 3l-14 2h-1.5h-1.5h-3t-1 1h-3h-2h-0.5h-1.5h-1.5h-0.5h-1.5h-2.5h-2t-1 1h-3h-2h-2h-2q-19 0 -37 -3t-33 -8t-29 -12.5t-25 -18.5q-12 -10 -21.5 -22.5t-14.5 -26.5q-6 -13 -8.5 -28.5
t-2.5 -32.5q0 -18 2.5 -33.5t9.5 -29.5q6 -13 16 -25t23 -22t28 -17t33 -12q17 -5 36.5 -7.5t41.5 -2.5h2h3h2h2h1h2h2h2h1h1h2h2t2 0.5t2 0.5h4.5h4.5q4 1 8.5 1.5t9.5 1.5q8 1 15.5 2.5t14.5 3.5l15.5 4t16.5 5q8 2 16 5t17 6v2v0v0z" />
    <glyph glyph-name="eacute" unicode="&#xe9;" horiz-adv-x="598" 
d="M547 130v-86q-1 -1 -1.5 -2t-2.5 -2q-1 -1 -2 -1.5l-1 -0.5l-3 -1.5t-2 -0.5q-1 -1 -2 -1.5t-2 -0.5q-1 -1 -2 -1.5t-2 -0.5q-1 -1 -2 -1.5t-2 -0.5t-2 -0.5l-1 -0.5q-1 -1 -2 -1.5t-2 -0.5q-6 -3 -11.5 -5t-10.5 -5q-5 -2 -10.5 -3.5t-11.5 -3.5t-11.5 -3.5t-10.5 -2.5
l-10.5 -2l-11.5 -2q-11 -1 -23 -3t-25 -3t-27.5 -1.5t-29.5 -0.5q-32 0 -61 4t-55 12q-25 9 -46.5 22.5t-39.5 31.5t-31 37.5t-22 40.5t-13 43t-4 45q0 26 4 48.5t13 43.5q10 21 23 39t32 34q18 16 39 28t45 19q25 8 51.5 12t54.5 4t52.5 -4t46.5 -12q23 -7 42.5 -18.5
t36.5 -26.5q16 -16 28 -35.5t21 -42.5q8 -23 12.5 -50t4.5 -58l-395 2q3 -18 8.5 -33t12.5 -28q8 -13 18 -23.5t22 -18.5q11 -9 25 -15t30 -11q17 -4 34.5 -6t38.5 -2h9.5h9.5q4 0 8.5 0.5t9.5 1.5q3 0 6 0.5t6 0.5q1 0 3 0.5t3 0.5q5 1 9.5 2t9.5 2t9.5 2t8.5 2q4 2 9 3.5
t10 2.5q4 2 8.5 3.5t9.5 2.5q5 2 9.5 3.5t8.5 3.5h1.5t1.5 1l0.5 0.5t1.5 0.5t2 0.5t2 1.5q1 0 2 0.5t2 0.5q1 1 2 1.5l3 1.5t3.5 1.5t2.5 1.5q3 2 6 3.5t7 2.5q2 2 5 3.5t7 2.5v2v0v0zM165 270h282q-1 12 -3.5 23t-7.5 21q-4 10 -11 19t-15 16q-10 8 -20.5 13t-21.5 9
q-12 4 -25 6t-27 2q-16 0 -30 -2t-28 -6q-13 -4 -24 -9t-21 -12q-9 -7 -17 -16t-14 -20q-5 -10 -10 -21.5t-7 -24.5v2v0v0zM313 654h125l-140 -147h-68l83 147v0v0v0z" />
    <glyph glyph-name="egrave" unicode="&#xe8;" horiz-adv-x="598" 
d="M547 130v-86q-1 -1 -1.5 -2t-2.5 -2q-1 -1 -2 -1.5l-1 -0.5l-3 -1.5t-2 -0.5q-1 -1 -2 -1.5t-2 -0.5q-1 -1 -2 -1.5t-2 -0.5q-1 -1 -2 -1.5t-2 -0.5t-2 -0.5l-1 -0.5q-1 -1 -2 -1.5t-2 -0.5q-6 -3 -11.5 -5t-10.5 -5q-5 -2 -10.5 -3.5t-11.5 -3.5t-11.5 -3.5t-10.5 -2.5
l-10.5 -2l-11.5 -2q-11 -1 -23 -3t-25 -3t-27.5 -1.5t-29.5 -0.5q-32 0 -61 4t-55 12q-25 9 -46.5 22.5t-39.5 31.5t-31 37.5t-22 40.5t-13 43t-4 45q0 26 4 48.5t13 43.5q10 21 23 39t32 34q18 16 39 28t45 19q25 8 51.5 12t54.5 4t52.5 -4t46.5 -12q23 -7 42.5 -18.5
t36.5 -26.5q16 -16 28 -35.5t21 -42.5q8 -23 12.5 -50t4.5 -58l-395 2q3 -18 8.5 -33t12.5 -28q8 -13 18 -23.5t22 -18.5q11 -9 25 -15t30 -11q17 -4 34.5 -6t38.5 -2h9.5h9.5q4 0 8.5 0.5t9.5 1.5q3 0 6 0.5t6 0.5q1 0 3 0.5t3 0.5q5 1 9.5 2t9.5 2t9.5 2t8.5 2q4 2 9 3.5
t10 2.5q4 2 8.5 3.5t9.5 2.5q5 2 9.5 3.5t8.5 3.5h1.5t1.5 1l0.5 0.5t1.5 0.5t2 0.5t2 1.5q1 0 2 0.5t2 0.5q1 1 2 1.5l3 1.5t3.5 1.5t2.5 1.5q3 2 6 3.5t7 2.5q2 2 5 3.5t7 2.5v2v0v0zM165 270h282q-1 12 -3.5 23t-7.5 21q-4 10 -11 19t-15 16q-10 8 -20.5 13t-21.5 9
q-12 4 -25 6t-27 2q-16 0 -30 -2t-28 -6q-13 -4 -24 -9t-21 -12q-9 -7 -17 -16t-14 -20q-5 -10 -10 -21.5t-7 -24.5v2v0v0zM291 654l84 -147h-69l-140 147h125v0v0v0z" />
    <glyph glyph-name="ecircumflex" unicode="&#xea;" horiz-adv-x="598" 
d="M547 130v-86q-1 -1 -1.5 -2t-2.5 -2q-1 -1 -2 -1.5l-1 -0.5l-3 -1.5t-2 -0.5q-1 -1 -2 -1.5t-2 -0.5q-1 -1 -2 -1.5t-2 -0.5q-1 -1 -2 -1.5t-2 -0.5t-2 -0.5l-1 -0.5q-1 -1 -2 -1.5t-2 -0.5q-6 -3 -11.5 -5t-10.5 -5q-5 -2 -10.5 -3.5t-11.5 -3.5t-11.5 -3.5t-10.5 -2.5
l-10.5 -2l-11.5 -2q-11 -1 -23 -3t-25 -3t-27.5 -1.5t-29.5 -0.5q-32 0 -61 4t-55 12q-25 9 -46.5 22.5t-39.5 31.5t-31 37.5t-22 40.5t-13 43t-4 45q0 26 4 48.5t13 43.5q10 21 23 39t32 34q18 16 39 28t45 19q25 8 51.5 12t54.5 4t52.5 -4t46.5 -12q23 -7 42.5 -18.5
t36.5 -26.5q16 -16 28 -35.5t21 -42.5q8 -23 12.5 -50t4.5 -58l-395 2q3 -18 8.5 -33t12.5 -28q8 -13 18 -23.5t22 -18.5q11 -9 25 -15t30 -11q17 -4 34.5 -6t38.5 -2h9.5h9.5q4 0 8.5 0.5t9.5 1.5q3 0 6 0.5t6 0.5q1 0 3 0.5t3 0.5q5 1 9.5 2t9.5 2t9.5 2t8.5 2q4 2 9 3.5
t10 2.5q4 2 8.5 3.5t9.5 2.5q5 2 9.5 3.5t8.5 3.5h1.5t1.5 1l0.5 0.5t1.5 0.5t2 0.5t2 1.5q1 0 2 0.5t2 0.5q1 1 2 1.5l3 1.5t3.5 1.5t2.5 1.5q3 2 6 3.5t7 2.5q2 2 5 3.5t7 2.5v2v0v0zM165 270h282q-1 12 -3.5 23t-7.5 21q-4 10 -11 19t-15 16q-10 8 -20.5 13t-21.5 9
q-12 4 -25 6t-27 2q-16 0 -30 -2t-28 -6q-13 -4 -24 -9t-21 -12q-9 -7 -17 -16t-14 -20q-5 -10 -10 -21.5t-7 -24.5v2v0v0zM356 657l117 -151h-68l-109 87l-104 -87h-66l114 151h116v0v0v0z" />
    <glyph glyph-name="edieresis" unicode="&#xeb;" horiz-adv-x="598" 
d="M547 130v-86q-1 -1 -1.5 -2t-2.5 -2q-1 -1 -2 -1.5l-1 -0.5l-3 -1.5t-2 -0.5q-1 -1 -2 -1.5t-2 -0.5q-1 -1 -2 -1.5t-2 -0.5q-1 -1 -2 -1.5t-2 -0.5t-2 -0.5l-1 -0.5q-1 -1 -2 -1.5t-2 -0.5q-6 -3 -11.5 -5t-10.5 -5q-5 -2 -10.5 -3.5t-11.5 -3.5t-11.5 -3.5t-10.5 -2.5
l-10.5 -2l-11.5 -2q-11 -1 -23 -3t-25 -3t-27.5 -1.5t-29.5 -0.5q-32 0 -61 4t-55 12q-25 9 -46.5 22.5t-39.5 31.5t-31 37.5t-22 40.5t-13 43t-4 45q0 26 4 48.5t13 43.5q10 21 23 39t32 34q18 16 39 28t45 19q25 8 51.5 12t54.5 4t52.5 -4t46.5 -12q23 -7 42.5 -18.5
t36.5 -26.5q16 -16 28 -35.5t21 -42.5q8 -23 12.5 -50t4.5 -58l-395 2q3 -18 8.5 -33t12.5 -28q8 -13 18 -23.5t22 -18.5q11 -9 25 -15t30 -11q17 -4 34.5 -6t38.5 -2h9.5h9.5q4 0 8.5 0.5t9.5 1.5q3 0 6 0.5t6 0.5q1 0 3 0.5t3 0.5q5 1 9.5 2t9.5 2t9.5 2t8.5 2q4 2 9 3.5
t10 2.5q4 2 8.5 3.5t9.5 2.5q5 2 9.5 3.5t8.5 3.5h1.5t1.5 1l0.5 0.5t1.5 0.5t2 0.5t2 1.5q1 0 2 0.5t2 0.5q1 1 2 1.5l3 1.5t3.5 1.5t2.5 1.5q3 2 6 3.5t7 2.5q2 2 5 3.5t7 2.5v2v0v0zM165 270h282q-1 12 -3.5 23t-7.5 21q-4 10 -11 19t-15 16q-10 8 -20.5 13t-21.5 9
q-12 4 -25 6t-27 2q-16 0 -30 -2t-28 -6q-13 -4 -24 -9t-21 -12q-9 -7 -17 -16t-14 -20q-5 -10 -10 -21.5t-7 -24.5v2v0v0zM183 628q3 -1 6 -1.5t6 -1.5q2 -1 5 -1.5t6 -1.5q5 -1 9.5 -3.5l9.5 -5.5q4 -4 6.5 -7.5t4.5 -7.5q0 -1 0.5 -2t1.5 -2q1 -4 2 -7.5t1 -6.5
q0 -4 -1 -7.5t-2 -6.5q-1 -1 -1.5 -2t-0.5 -2q-2 -4 -4.5 -8t-6.5 -7q-5 -4 -9.5 -6.5t-9.5 -4.5q-3 -1 -6 -1.5t-5 -0.5q-3 -1 -6 -1h-6q-6 0 -11.5 1l-10.5 2q-6 2 -10.5 4.5t-8.5 6.5q-4 3 -8 7t-6 8q-1 4 -2 8.5t-1 9.5t1 9.5t2 8.5q2 4 6 7.5t8 7.5q4 3 8.5 5.5
t10.5 3.5q5 2 10.5 3t11.5 1v2v0v0zM416 628q3 -1 5.5 -1.5t5.5 -1.5t5.5 -1.5t5.5 -1.5q5 -1 10 -3.5t9 -5.5q4 -4 7 -7.5t4 -7.5q2 -4 3.5 -8.5t1.5 -9.5t-1.5 -9.5t-3.5 -8.5q-1 -4 -4 -8t-7 -7q-4 -4 -9 -6.5t-10 -4.5q-3 -1 -5.5 -1.5t-5.5 -0.5q-3 -1 -5.5 -1h-5.5
q-7 0 -12.5 1l-10.5 2q-5 2 -9.5 4.5t-8.5 6.5q-5 3 -8.5 7t-5.5 8t-3 8.5t-1 9.5t1 9.5t3 8.5t5.5 7.5t8.5 7.5q4 3 8.5 5.5t9.5 3.5q5 2 10.5 3t12.5 1v2v0v0z" />
    <glyph glyph-name="iacute" unicode="&#xed;" horiz-adv-x="273" 
d="M192 449v-449h-111v449h111v0v0v0zM151 654h125l-140 -147h-69l84 147v0v0v0z" />
    <glyph glyph-name="igrave" unicode="&#xec;" horiz-adv-x="273" 
d="M192 449v-449h-111v449h111v0v0v0zM128 654l84 -147h-69l-140 147h125v0v0v0z" />
    <glyph glyph-name="icircumflex" unicode="&#xee;" horiz-adv-x="273" 
d="M192 449v-449h-111v449h111v0v0v0zM193 657l118 -151h-69l-109 87l-103 -87h-66l113 151h116v0v0v0z" />
    <glyph glyph-name="idieresis" unicode="&#xef;" horiz-adv-x="273" 
d="M192 449v-449h-111v449h111v0v0v0zM21 628q3 -1 5.5 -1.5t5.5 -1.5t5.5 -1.5t5.5 -1.5q5 -1 10 -3.5t9 -5.5q4 -4 7 -7.5t4 -7.5q2 -4 3.5 -8.5t1.5 -9.5t-1.5 -9.5t-3.5 -8.5q-1 -4 -4 -8t-7 -7q-4 -4 -9 -6.5t-10 -4.5q-3 -1 -5.5 -1.5t-5.5 -0.5q-3 -1 -5.5 -1h-5.5
q-7 0 -12 1t-9 2q-3 2 -7.5 4.5t-8.5 6.5q-4 3 -7.5 7t-5.5 8q0 1 -0.5 2t-1.5 2q-1 3 -2 6.5t-1 7.5q0 3 1 6.5t2 7.5q1 1 1.5 2t0.5 2q2 4 5.5 7.5l7.5 7.5q4 3 8.5 5.5t7.5 3.5q4 2 9 3t12 1v2v0v0zM253 628q3 -1 6 -1.5t6 -1.5q2 -1 5 -1.5t6 -1.5q5 -1 9.5 -3.5
l9.5 -5.5q4 -4 6.5 -7.5t4.5 -7.5q0 -1 0.5 -2t1.5 -2q1 -4 2 -7.5t1 -6.5q0 -4 -1 -7.5t-2 -6.5q-1 -1 -1.5 -2t-0.5 -2q-2 -4 -4.5 -8t-6.5 -7q-5 -4 -9.5 -6.5t-9.5 -4.5q-3 -1 -6 -1.5t-5 -0.5q-3 -1 -6 -1h-6q-6 0 -11.5 1l-10.5 2q-6 2 -10.5 4.5t-8.5 6.5q-4 3 -8 7
t-6 8q-1 4 -2 8.5t-1 9.5t1 9.5t2 8.5q2 4 6 7.5t8 7.5q4 3 8.5 5.5t10.5 3.5q5 2 10.5 3t11.5 1v2v0v0z" />
    <glyph glyph-name="ntilde" unicode="&#xf1;" horiz-adv-x="625" 
d="M187 449v-59h3q8 7 16.5 13.5t18.5 12.5q9 6 19.5 12t21.5 10q11 5 22.5 8t22.5 5t22.5 3.5t23.5 1.5q20 0 38.5 -3t35.5 -8q17 -6 32 -14.5t29 -19.5t25 -25t18 -31q6 -17 9.5 -37t3.5 -43v-275h-111v278q0 11 -1.5 21.5t-5.5 20.5t-9.5 19t-13.5 16q-7 8 -16 13t-19 9
t-21.5 6t-23.5 2h-4h-3q-2 -1 -4 -1h-4q-4 0 -7.5 -0.5t-7.5 -1.5t-7.5 -1.5t-7.5 -1.5t-7 -2t-5 -2q-6 -2 -10.5 -4.5l-9.5 -5.5q-6 -3 -10.5 -6t-9.5 -6q-3 -2 -5.5 -4t-5.5 -3q-3 -2 -5.5 -4t-5.5 -4q-2 -1 -3.5 -2.5l-3.5 -3.5q-3 -3 -6.5 -6t-7.5 -6v-320h-111v449h111
v0v0v0zM448 643h48q0 -14 -2 -26.5t-6 -23.5q-4 -10 -8.5 -20t-11.5 -18t-15 -14t-17 -10q-3 -1 -6.5 -2.5t-6.5 -2.5q-6 -2 -12.5 -2.5t-13.5 -0.5h-13t-12 1q-4 0 -8 0.5t-8 1.5q-2 1 -4 1.5t-4 0.5q-2 1 -3.5 1t-3.5 1q-4 1 -7.5 2t-6.5 2q-5 2 -10 3.5t-10 3.5h-2h-1
q-1 0 -2 0.5t-2 0.5q-2 0 -3 0.5t-2 1.5q-2 0 -3.5 0.5t-3.5 1.5h-1.5t-0.5 1q-1 0 -1.5 0.5t-1.5 0.5h-2t-1 1q-1 0 -2 0.5t-2 0.5h-2t-2 1q-1 0 -2 0.5t-2 0.5h-2h-1q-1 0 -2 0.5t-2 0.5h-2t-2 1q-1 0 -2 0.5t-2 0.5q-4 1 -7.5 1.5t-7.5 0.5h-4t-3 1h-4h-4q-4 0 -8 -0.5
t-8 -1.5t-7.5 -3t-6.5 -4q-2 -2 -4 -5l-4 -6q-2 -4 -3 -7.5t-1 -7.5l-51 2q1 13 3.5 25t6.5 22q4 11 8.5 20t11.5 16q5 8 12.5 13t15.5 9q9 4 18.5 6t20.5 2h3.5h2.5q2 -1 3.5 -1h3.5h2.5h2.5q2 -1 3.5 -1h3.5q3 -1 6 -1.5t7 -0.5t7.5 -0.5t7.5 -1.5q2 -1 5 -1.5t6 -1.5
q2 0 3 -0.5t3 -0.5q1 -1 2.5 -1.5t2.5 -0.5q1 -1 2.5 -1.5t2.5 -0.5h2.5h1.5h1.5h0.5q1 0 1.5 -0.5t1.5 -0.5q0 -1 0.5 -1h1.5h2h2q0 -1 1 -1h2q3 -1 5.5 -2t5.5 -2t5.5 -1.5t5.5 -1.5q4 -1 7.5 -2t6.5 -2q2 -1 3.5 -1t3.5 -1q5 -1 10 -2.5t9 -1.5q2 0 4 -0.5t4 -0.5h4h4
q5 0 9.5 0.5t8.5 1.5l7 3.5t5 3.5q3 2 6 5t4 7q2 3 3 7.5t2 9.5v2v0v0z" />
    <glyph glyph-name="oacute" unicode="&#xf3;" horiz-adv-x="690" 
d="M341 458q33 -1 63 -6t57 -13t51.5 -20t45.5 -28q22 -16 38 -34.5t27 -38.5q11 -21 16.5 -43.5t5.5 -47.5q0 -27 -5.5 -51t-16.5 -45q-11 -22 -27 -40.5t-36 -35.5q-22 -16 -46.5 -28.5t-51.5 -20.5q-27 -6 -57 -10t-64 -4q-33 0 -63 4t-56 11q-26 8 -49.5 20.5
t-44.5 29.5t-37 35.5t-26 39.5t-15 45t-5 50q0 24 5 46t16 43q11 20 26.5 39t37.5 35q21 17 45.5 29t50.5 20t54.5 12.5t60.5 4.5v2v0v0zM340 378q-20 -1 -38 -4.5t-35 -8.5q-16 -5 -30.5 -12.5t-26.5 -18.5q-13 -10 -23.5 -22t-15.5 -26q-7 -13 -10 -28t-3 -31
q0 -18 3 -34.5t10 -30.5q5 -14 14.5 -26.5t22.5 -23.5t27 -19.5t31 -13.5t35 -7.5t39 -2.5t41 2.5t37 7.5t33 13.5t29 18.5q12 11 21 23t16 26t10.5 30.5t3.5 35.5q0 16 -3.5 31t-10.5 28q-7 14 -16.5 26t-23.5 22q-14 11 -29.5 18.5t-32.5 13.5q-17 5 -36 8t-39 3v2v0v0z
M360 654h125l-140 -147h-69l84 147v0v0v0z" />
    <glyph glyph-name="ograve" unicode="&#xf2;" horiz-adv-x="690" 
d="M341 458q33 -1 63 -6t57 -13t51.5 -20t45.5 -28q22 -16 38 -34.5t27 -38.5q11 -21 16.5 -43.5t5.5 -47.5q0 -27 -5.5 -51t-16.5 -45q-11 -22 -27 -40.5t-36 -35.5q-22 -16 -46.5 -28.5t-51.5 -20.5q-27 -6 -57 -10t-64 -4q-33 0 -63 4t-56 11q-26 8 -49.5 20.5
t-44.5 29.5t-37 35.5t-26 39.5t-15 45t-5 50q0 24 5 46t16 43q11 20 26.5 39t37.5 35q21 17 45.5 29t50.5 20t54.5 12.5t60.5 4.5v2v0v0zM340 378q-20 -1 -38 -4.5t-35 -8.5q-16 -5 -30.5 -12.5t-26.5 -18.5q-13 -10 -23.5 -22t-15.5 -26q-7 -13 -10 -28t-3 -31
q0 -18 3 -34.5t10 -30.5q5 -14 14.5 -26.5t22.5 -23.5t27 -19.5t31 -13.5t35 -7.5t39 -2.5t41 2.5t37 7.5t33 13.5t29 18.5q12 11 21 23t16 26t10.5 30.5t3.5 35.5q0 16 -3.5 31t-10.5 28q-7 14 -16.5 26t-23.5 22q-14 11 -29.5 18.5t-32.5 13.5q-17 5 -36 8t-39 3v2v0v0z
M337 654l84 -147h-69l-140 147h125v0v0v0z" />
    <glyph glyph-name="ocircumflex" unicode="&#xf4;" horiz-adv-x="690" 
d="M341 458q33 -1 63 -6t57 -13t51.5 -20t45.5 -28q22 -16 38 -34.5t27 -38.5q11 -21 16.5 -43.5t5.5 -47.5q0 -27 -5.5 -51t-16.5 -45q-11 -22 -27 -40.5t-36 -35.5q-22 -16 -46.5 -28.5t-51.5 -20.5q-27 -6 -57 -10t-64 -4q-33 0 -63 4t-56 11q-26 8 -49.5 20.5
t-44.5 29.5t-37 35.5t-26 39.5t-15 45t-5 50q0 24 5 46t16 43q11 20 26.5 39t37.5 35q21 17 45.5 29t50.5 20t54.5 12.5t60.5 4.5v2v0v0zM340 378q-20 -1 -38 -4.5t-35 -8.5q-16 -5 -30.5 -12.5t-26.5 -18.5q-13 -10 -23.5 -22t-15.5 -26q-7 -13 -10 -28t-3 -31
q0 -18 3 -34.5t10 -30.5q5 -14 14.5 -26.5t22.5 -23.5t27 -19.5t31 -13.5t35 -7.5t39 -2.5t41 2.5t37 7.5t33 13.5t29 18.5q12 11 21 23t16 26t10.5 30.5t3.5 35.5q0 16 -3.5 31t-10.5 28q-7 14 -16.5 26t-23.5 22q-14 11 -29.5 18.5t-32.5 13.5q-17 5 -36 8t-39 3v2v0v0z
M402 657l118 -151h-69l-109 87l-104 -87h-66l114 151h116v0v0v0z" />
    <glyph glyph-name="odieresis" unicode="&#xf6;" horiz-adv-x="690" 
d="M341 458q33 -1 63 -6t57 -13t51.5 -20t45.5 -28q22 -16 38 -34.5t27 -38.5q11 -21 16.5 -43.5t5.5 -47.5q0 -27 -5.5 -51t-16.5 -45q-11 -22 -27 -40.5t-36 -35.5q-22 -16 -46.5 -28.5t-51.5 -20.5q-27 -6 -57 -10t-64 -4q-33 0 -63 4t-56 11q-26 8 -49.5 20.5
t-44.5 29.5t-37 35.5t-26 39.5t-15 45t-5 50q0 24 5 46t16 43q11 20 26.5 39t37.5 35q21 17 45.5 29t50.5 20t54.5 12.5t60.5 4.5v2v0v0zM340 378q-20 -1 -38 -4.5t-35 -8.5q-16 -5 -30.5 -12.5t-26.5 -18.5q-13 -10 -23.5 -22t-15.5 -26q-7 -13 -10 -28t-3 -31
q0 -18 3 -34.5t10 -30.5q5 -14 14.5 -26.5t22.5 -23.5t27 -19.5t31 -13.5t35 -7.5t39 -2.5t41 2.5t37 7.5t33 13.5t29 18.5q12 11 21 23t16 26t10.5 30.5t3.5 35.5q0 16 -3.5 31t-10.5 28q-7 14 -16.5 26t-23.5 22q-14 11 -29.5 18.5t-32.5 13.5q-17 5 -36 8t-39 3v2v0v0z
M230 628q3 -1 5.5 -1.5t5.5 -1.5t5.5 -1.5t5.5 -1.5q2 -1 4.5 -2t5.5 -2q2 -1 4.5 -2t4.5 -3q4 -4 7 -7.5t4 -7.5q2 -4 3.5 -8.5t1.5 -9.5t-1.5 -9.5t-3.5 -8.5q-1 -4 -4 -8t-7 -7q-2 -2 -4.5 -3.5t-4.5 -3.5q-3 -1 -5.5 -2t-4.5 -2q-3 -1 -5.5 -1.5t-5.5 -0.5
q-3 -1 -5.5 -1h-5.5q-7 0 -12.5 1l-10.5 2q-5 2 -10 4.5t-9 6.5q-4 3 -7.5 7t-5.5 8t-3 8.5t-1 9.5t1 9.5t3 8.5t5.5 7.5l7.5 7.5q4 3 9 5.5t10 3.5q5 2 10.5 3t12.5 1v2v0v0zM462 628q3 -1 6 -1.5t6 -1.5q2 -1 5 -1.5t6 -1.5q5 -1 9.5 -3.5t8.5 -5.5q4 -4 7 -7.5t5 -7.5
q0 -1 0.5 -2t1.5 -2q1 -4 2 -7.5t1 -6.5q0 -4 -1 -7.5t-2 -6.5q-1 -1 -1.5 -2t-0.5 -2q-2 -4 -5 -8t-7 -7q-4 -4 -8.5 -6.5t-9.5 -4.5q-3 -1 -6 -1.5t-5 -0.5q-3 -1 -6 -1h-6q-7 0 -12 1l-10 2q-6 2 -10.5 4.5t-8.5 6.5q-4 3 -8 7t-6 8q-1 4 -2.5 8.5t-1.5 9.5t1.5 9.5
t2.5 8.5q2 4 6 7.5t8 7.5q4 3 8.5 5.5t10.5 3.5q5 2 10 3t12 1v2v0v0z" />
    <glyph glyph-name="otilde" unicode="&#xf5;" horiz-adv-x="690" 
d="M341 458q33 -1 63 -6t57 -13t51.5 -20t45.5 -28q22 -16 38 -34.5t27 -38.5q11 -21 16.5 -43.5t5.5 -47.5q0 -27 -5.5 -51t-16.5 -45q-11 -22 -27 -40.5t-36 -35.5q-22 -16 -46.5 -28.5t-51.5 -20.5q-27 -6 -57 -10t-64 -4q-33 0 -63 4t-56 11q-26 8 -49.5 20.5
t-44.5 29.5t-37 35.5t-26 39.5t-15 45t-5 50q0 24 5 46t16 43q11 20 26.5 39t37.5 35q21 17 45.5 29t50.5 20t54.5 12.5t60.5 4.5v2v0v0zM340 378q-20 -1 -38 -4.5t-35 -8.5q-16 -5 -30.5 -12.5t-26.5 -18.5q-13 -10 -23.5 -22t-15.5 -26q-7 -13 -10 -28t-3 -31
q0 -18 3 -34.5t10 -30.5q5 -14 14.5 -26.5t22.5 -23.5t27 -19.5t31 -13.5t35 -7.5t39 -2.5t41 2.5t37 7.5t33 13.5t29 18.5q12 11 21 23t16 26t10.5 30.5t3.5 35.5q0 16 -3.5 31t-10.5 28q-7 14 -16.5 26t-23.5 22q-14 11 -29.5 18.5t-32.5 13.5q-17 5 -36 8t-39 3v2v0v0z
M481 643h47q0 -14 -1.5 -26.5t-5.5 -23.5q-4 -10 -8.5 -20t-11.5 -18t-15 -14t-18 -10q-9 -4 -18.5 -6t-19.5 -2h-13.5t-11.5 1q-7 0 -13 1.5t-11 2.5q-6 2 -11 3.5t-10 2.5l-10.5 3.5t-9.5 3.5h-2h-2t-2 0.5t-2 0.5t-2.5 0.5t-2.5 1.5h-1h-1q-1 1 -2 1.5t-2 0.5
q-2 0 -3 0.5t-2 1.5h-2t-2 1q-1 0 -2 0.5t-2 0.5h-2t-1 1q-1 0 -2 0.5t-2 0.5h-2h-2t-2 0.5t-2 0.5h-2t-1 1q-1 0 -2 0.5t-2 0.5q-4 1 -7.5 1.5t-7.5 0.5h-4t-3 1h-4h-4q-4 0 -8 -0.5t-8 -1.5t-7.5 -3t-6.5 -4q-2 -1 -3.5 -3t-2.5 -4q-1 -1 -1.5 -2t-1.5 -2q-1 -4 -2.5 -7.5
t-1.5 -7.5l-51 2q1 13 3.5 25t6.5 22q4 11 8.5 20t11.5 16q6 8 13.5 13t15.5 9t18 6t21 2h2.5h2.5q2 -1 3.5 -1h3.5h3.5h2.5q2 -1 3.5 -1h3.5q2 -1 5 -1.5t7 -0.5t7.5 -0.5t7.5 -1.5q3 -1 6 -1.5t5 -1.5q3 -1 6 -1.5t6 -1.5q1 -1 2 -1.5t3 -0.5h1h1h2h2q1 -1 2 -1.5t3 -0.5
h1.5h1.5q1 -1 1.5 -1h1.5l6 -2l6 -2q2 -1 5 -1.5t6 -1.5q2 0 3.5 -0.5t3.5 -1.5q3 -1 6.5 -2t7.5 -2q5 -1 9.5 -2.5t9.5 -1.5q2 0 4 -0.5t4 -0.5h4h4q5 0 9 0.5t8 1.5l7 3.5t6 3.5t5.5 5t4.5 7q2 3 3 7.5t2 9.5v2v0v0z" />
    <glyph glyph-name="uacute" unicode="&#xfa;" horiz-adv-x="625" 
d="M546 0h-111v57l-4 -4t-4 -3q-4 -4 -8 -7l-8 -6q-7 -4 -13.5 -8.5l-12.5 -8.5q-4 -2 -7.5 -3.5t-6.5 -3.5q-4 -1 -7.5 -2.5t-7.5 -3.5q-7 -3 -14 -4.5t-14 -2.5h-2h-1h-2h-2h-2t-2 -1q-1 0 -2 -0.5t-2 -0.5h-2t-2 -1h-2h-2h-2t-2 -1q-1 0 -2 -0.5t-2 -0.5q-4 -1 -7.5 -1.5
t-7.5 -0.5h-4t-3 -1h-3.5h-3.5q-21 0 -40.5 3t-36.5 7q-18 5 -33.5 13.5t-29.5 20.5q-13 11 -23.5 25.5t-17.5 30.5q-7 17 -9.5 35.5t-2.5 40.5v281h111v-285q0 -13 1 -24t5 -20t10 -17t13 -14q6 -7 15 -12t20 -8t23.5 -4.5t27.5 -1.5q9 0 18 1t18 3q10 2 18.5 5t16.5 7
q3 1 5.5 2.5t5.5 2.5q6 3 11.5 6.5t10.5 7.5q8 6 15.5 13t14.5 15v323h111v-449v0v0v0zM327 654h125l-140 -147h-69l84 147v0v0v0z" />
    <glyph glyph-name="ugrave" unicode="&#xf9;" horiz-adv-x="625" 
d="M546 0h-111v57l-4 -4t-4 -3q-4 -4 -8 -7l-8 -6q-7 -4 -13.5 -8.5l-12.5 -8.5q-4 -2 -7.5 -3.5t-6.5 -3.5q-4 -1 -7.5 -2.5t-7.5 -3.5q-7 -3 -14 -4.5t-14 -2.5h-2h-1h-2h-2h-2t-2 -1q-1 0 -2 -0.5t-2 -0.5h-2t-2 -1h-2h-2h-2t-2 -1q-1 0 -2 -0.5t-2 -0.5q-4 -1 -7.5 -1.5
t-7.5 -0.5h-4t-3 -1h-3.5h-3.5q-21 0 -40.5 3t-36.5 7q-18 5 -33.5 13.5t-29.5 20.5q-13 11 -23.5 25.5t-17.5 30.5q-7 17 -9.5 35.5t-2.5 40.5v281h111v-285q0 -13 1 -24t5 -20t10 -17t13 -14q6 -7 15 -12t20 -8t23.5 -4.5t27.5 -1.5q9 0 18 1t18 3q10 2 18.5 5t16.5 7
q3 1 5.5 2.5t5.5 2.5q6 3 11.5 6.5t10.5 7.5q8 6 15.5 13t14.5 15v323h111v-449v0v0v0zM305 654l83 -147h-68l-140 147h125v0v0v0z" />
    <glyph glyph-name="ucircumflex" unicode="&#xfb;" horiz-adv-x="625" 
d="M546 0h-111v57l-4 -4t-4 -3q-4 -4 -8 -7l-8 -6q-7 -4 -13.5 -8.5l-12.5 -8.5q-4 -2 -7.5 -3.5t-6.5 -3.5q-4 -1 -7.5 -2.5t-7.5 -3.5q-7 -3 -14 -4.5t-14 -2.5h-2h-1h-2h-2h-2t-2 -1q-1 0 -2 -0.5t-2 -0.5h-2t-2 -1h-2h-2h-2t-2 -1q-1 0 -2 -0.5t-2 -0.5q-4 -1 -7.5 -1.5
t-7.5 -0.5h-4t-3 -1h-3.5h-3.5q-21 0 -40.5 3t-36.5 7q-18 5 -33.5 13.5t-29.5 20.5q-13 11 -23.5 25.5t-17.5 30.5q-7 17 -9.5 35.5t-2.5 40.5v281h111v-285q0 -13 1 -24t5 -20t10 -17t13 -14q6 -7 15 -12t20 -8t23.5 -4.5t27.5 -1.5q9 0 18 1t18 3q10 2 18.5 5t16.5 7
q3 1 5.5 2.5t5.5 2.5q6 3 11.5 6.5t10.5 7.5q8 6 15.5 13t14.5 15v323h111v-449v0v0v0zM370 657l117 -151h-69l-108 87l-104 -87h-66l113 151h117v0v0v0z" />
    <glyph glyph-name="udieresis" unicode="&#xfc;" horiz-adv-x="625" 
d="M546 0h-111v57l-4 -4t-4 -3q-4 -4 -8 -7l-8 -6q-7 -4 -13.5 -8.5l-12.5 -8.5q-4 -2 -7.5 -3.5t-6.5 -3.5q-4 -1 -7.5 -2.5t-7.5 -3.5q-7 -3 -14 -4.5t-14 -2.5h-2h-1h-2h-2h-2t-2 -1q-1 0 -2 -0.5t-2 -0.5h-2t-2 -1h-2h-2h-2t-2 -1q-1 0 -2 -0.5t-2 -0.5q-4 -1 -7.5 -1.5
t-7.5 -0.5h-4t-3 -1h-3.5h-3.5q-21 0 -40.5 3t-36.5 7q-18 5 -33.5 13.5t-29.5 20.5q-13 11 -23.5 25.5t-17.5 30.5q-7 17 -9.5 35.5t-2.5 40.5v281h111v-285q0 -13 1 -24t5 -20t10 -17t13 -14q6 -7 15 -12t20 -8t23.5 -4.5t27.5 -1.5q9 0 18 1t18 3q10 2 18.5 5t16.5 7
q3 1 5.5 2.5t5.5 2.5q6 3 11.5 6.5t10.5 7.5q8 6 15.5 13t14.5 15v323h111v-449v0v0v0zM197 628q3 -1 6 -1.5t6 -1.5q2 -1 5 -1.5t6 -1.5q5 -1 9.5 -3.5t8.5 -5.5q4 -4 7 -7.5t5 -7.5q0 -1 0.5 -2t1.5 -2q1 -4 2 -7.5t1 -6.5q0 -4 -1 -7.5t-2 -6.5q-1 -1 -1.5 -2t-0.5 -2
q-2 -4 -5 -8t-7 -7q-4 -4 -8.5 -6.5t-9.5 -4.5q-3 -1 -6 -1.5t-5 -0.5q-3 -1 -6 -1h-6q-7 0 -12 1l-10 2q-6 2 -10.5 4.5t-8.5 6.5q-4 3 -8 7t-6 8q-1 4 -2.5 8.5t-1.5 9.5t1.5 9.5t2.5 8.5q2 4 6 7.5t8 7.5q4 3 8.5 5.5t10.5 3.5q5 2 10 3t12 1v2v0v0zM430 628
q3 -1 5.5 -1.5t5.5 -1.5t5.5 -1.5t5.5 -1.5q2 -1 4.5 -2t5.5 -2q2 -1 4.5 -2t4.5 -3q4 -4 7 -7.5t4 -7.5q2 -4 3.5 -8.5t1.5 -9.5t-1.5 -9.5t-3.5 -8.5q-1 -4 -4 -8t-7 -7q-2 -2 -4.5 -3.5t-4.5 -3.5q-3 -1 -5.5 -2t-4.5 -2q-3 -1 -5.5 -1.5t-5.5 -0.5q-3 -1 -5.5 -1h-5.5
q-7 0 -12.5 1l-10.5 2q-5 2 -10 4.5t-9 6.5q-4 3 -7.5 7t-5.5 8t-3 8.5t-1 9.5t1 9.5t3 8.5t5.5 7.5l7.5 7.5q4 3 9 5.5t10 3.5q5 2 10.5 3t12.5 1v2v0v0z" />
    <glyph glyph-name="dagger" unicode="&#x2020;" horiz-adv-x="612" 
d="M311 691q5 -1 8.5 -2.5t7.5 -2.5l4 -2l4 -2q5 -3 9 -7.5t8 -10.5t7 -13.5t4 -15.5q2 -9 3 -19t1 -21v-5.5v-4.5q-1 -3 -1 -5.5v-5.5q0 -5 -0.5 -10.5t-2.5 -11.5q-1 -3 -1.5 -6t-0.5 -6q0 -1 -0.5 -2t-0.5 -2q-1 -2 -1.5 -3.5t-0.5 -3.5q-1 -3 -1.5 -6t-0.5 -6
q0 -1 -0.5 -2t-0.5 -2q-1 -2 -1.5 -4t-0.5 -4q-1 -2 -1.5 -4t-0.5 -4v-2v-2q-1 -1 -1 -2v-2l-2 -4t-1 -4v-2v-1q-1 -1 -1 -2v-2t-0.5 -1.5t-0.5 -1.5q-1 -1 -1.5 -2.5t-0.5 -3.5q-1 -2 -1 -4v-4q-1 -2 -1.5 -4t-0.5 -4l-2 -4t-1 -4q-1 -4 -1.5 -8t-2.5 -8q-1 -4 -1.5 -7
t-0.5 -6q5 2 10 3t11 2q5 2 10 3l10 2q11 2 21 4.5t20 4.5q5 1 10 1.5t9 1.5q5 0 10 0.5t10 1.5h4t4 1h5.5h5.5h4.5t4.5 1h4.5h5.5h0.5h1.5h1h2q0 -1 0.5 -1h1.5h1h2h2h3h2h2h1h2l12 -2t12 -3q5 -2 10.5 -4.5t10.5 -4.5q5 -3 8.5 -6t6.5 -7t4.5 -7.5t1.5 -8.5
q0 -6 -1.5 -10.5t-4.5 -9.5q-4 -4 -8 -7.5t-9 -5.5l-4 -2l-4 -2q-4 -1 -8 -2.5t-8 -2.5q-7 -1 -13.5 -2.5t-12.5 -1.5h-2h-1h-1.5h-0.5h-2h-1h-1.5h-0.5h-9.5h-9.5q-6 0 -10.5 0.5t-9.5 1.5q-4 1 -7.5 1.5t-6.5 0.5q-2 0 -3.5 0.5t-3.5 0.5q-3 0 -5.5 0.5t-5.5 1.5
q-3 0 -5.5 0.5t-5.5 1.5h-1.5h-0.5h-1.5h-1.5h-1.5t-0.5 1q-1 0 -1.5 0.5t-1.5 0.5h-1h-1h-2h-2t-2.5 0.5t-2.5 1.5q-3 0 -5.5 0.5t-4.5 1.5q-3 0 -5.5 0.5t-4.5 1.5h-2.5t-2.5 1q-2 0 -3 0.5t-3 0.5q-3 0 -6 0.5t-5 1.5h-2t-1 1h-1.5h-0.5q-2 0 -3 0.5t-2 1.5h-3h-2
q-2 0 -3 0.5t-2 1.5q1 -8 1.5 -16.5t1.5 -16.5q2 -9 2.5 -18t1.5 -19t2.5 -19.5t2.5 -19.5q0 -5 0.5 -10t1.5 -10q1 -6 1.5 -11t1.5 -10v-8.5v-9.5q0 -4 1 -8.5t2 -9.5q0 -4 0.5 -8.5t1.5 -9.5q0 -4 1 -8.5t2 -9.5l2 -31t3 -30q1 -7 1.5 -14.5t1.5 -15.5q0 -7 0.5 -14.5
t1.5 -14.5q1 -14 1.5 -26.5t1.5 -25.5q0 -6 0.5 -12t0.5 -12t0.5 -11.5t0.5 -11.5q0 -11 -0.5 -21.5t-1.5 -20.5q0 -5 -0.5 -9.5t-0.5 -9.5q-1 -14 -3.5 -27.5t-5.5 -25.5q-2 -12 -7 -21t-11 -15q-7 -6 -16 -9t-19 -3q-11 0 -20 2.5t-15 7.5q-7 4 -12.5 11.5t-7.5 16.5
q-3 10 -5 21t-4 24t-2.5 28t-0.5 32q0 10 0.5 21t1.5 24q0 13 0.5 26.5t1.5 27.5q1 15 2.5 31t2.5 32l2 16l2 16q1 9 2 17t2 17v10.5t1 10.5q0 5 0.5 10.5t1.5 10.5q0 4 0.5 7t1.5 7q0 2 0.5 3.5t0.5 3.5q0 5 0.5 10.5t1.5 10.5q0 4 0.5 7.5t1.5 6.5q0 2 0.5 4t0.5 4
q0 5 0.5 10.5t1.5 10.5q0 5 0.5 10t1.5 10q0 5 0.5 10t1.5 10q0 5 1 9.5t2 8.5q0 5 0.5 9.5t1.5 8.5v7.5t1 7.5q0 2 0.5 4.5t1.5 4.5q0 1 0.5 2.5t0.5 2.5h-0.5h-0.5h-0.5h-0.5q0 -1 -0.5 -1h-0.5h-1v0q-1 -1 -1.5 -1h-0.5h-2h-1q-1 -1 -2.5 -1.5t-2.5 -0.5h-0.5h-1.5
q0 -1 -0.5 -1h-1.5t-2 -0.5t-2 -0.5q-1 -1 -2 -1h-2t-2 -0.5t-2 -0.5h-2h-2q-3 -1 -5.5 -1.5t-4.5 -0.5q-1 0 -2 -0.5l-1 -0.5q-1 -1 -2 -1h-2q-5 -1 -9.5 -2t-8.5 -2q-2 0 -4 -0.5t-4 -0.5q-2 -1 -4 -1.5t-4 -0.5t-4.5 -0.5t-4.5 -0.5q-3 -1 -5.5 -1.5t-4.5 -0.5
q-4 -1 -9 -1.5t-10 -0.5q-4 -1 -8.5 -1.5t-9.5 -0.5h-9.5h-8.5h-2.5h-2.5h-2.5h-2.5h-1.5h-0.5h-1.5h-0.5h-1.5h-0.5h-0.5h-0.5h-0.5t-0.5 1h-0.5h-0.5q-3 0 -6 0.5t-6 0.5q-4 1 -7 1.5t-6 1.5q-6 2 -12 3.5t-11 4.5q-6 2 -10.5 5t-6.5 7t-3.5 8.5t-1.5 9.5q0 2 0.5 4t0.5 5
l2 4l2 4q2 4 6 7.5t8 7.5q5 4 11.5 7t16.5 4q9 2 20.5 3t24.5 1h4h4q2 -1 4 -1h4h4.5h4.5q2 -1 4.5 -1h5.5q1 0 2 -0.5t2 -0.5q1 -1 2 -1h2h2.5h2.5h2.5h2.5t2.5 -0.5t2.5 -0.5q1 -1 2.5 -1h2.5h2.5h2.5q1 -1 2.5 -1h2.5q3 -1 5.5 -1.5t4.5 -0.5q2 -1 4.5 -1.5t5.5 -1.5
t6 -1.5t6 -0.5q2 -1 5 -1.5t6 -0.5q5 -1 10.5 -2.5t10.5 -3.5q2 -1 4.5 -1.5t5.5 -0.5q2 -1 4.5 -1.5t4.5 -0.5q0 1 -0.5 1.5t-0.5 1.5q-1 2 -1.5 3.5t-0.5 2.5q-1 2 -1.5 4.5t-0.5 4.5q0 1 -0.5 1.5t-0.5 1.5q-1 2 -1.5 3.5t-0.5 2.5q-1 2 -1.5 4.5t-0.5 4.5q0 1 -0.5 1.5
t-0.5 1.5q-1 2 -1.5 3.5t-0.5 3.5q-1 2 -1.5 4.5t-0.5 5.5q0 1 -0.5 1.5t-0.5 1.5q-1 2 -1.5 3.5t-0.5 3.5v2v3q-1 1 -1 2.5v2.5q-1 3 -2 6.5t-1 7.5q-1 3 -2 6.5t-2 7.5t-2 7.5t-1 7.5q-1 3 -1.5 6.5t-0.5 7.5l-2 13.5t-1 12.5q-1 6 -1 12v11q0 11 1 20.5t3 18.5
q2 8 4.5 15.5t6.5 14.5q4 6 8.5 11t11.5 8q5 3 12.5 5t17.5 2v2v0v0z" />
    <glyph glyph-name="degree" horiz-adv-x="416" 
d="M208 691q11 -1 22.5 -3.5t21.5 -5.5q11 -4 20 -9t18 -12q8 -7 15 -14.5t11 -15.5t6.5 -17t2.5 -18q0 -10 -2.5 -19t-6.5 -17t-11 -15.5t-15 -14.5q-9 -7 -18 -12t-20 -8q-10 -4 -21.5 -5.5t-22.5 -1.5q-12 0 -23 1.5t-22 5.5q-10 3 -19.5 8t-17.5 12t-14.5 14.5
t-10.5 15.5t-6.5 17t-2.5 19q0 9 2.5 18t6.5 17t10.5 15.5t14.5 14.5t17.5 12t19.5 9q11 3 22 5t23 2v2v0v0zM208 653q-7 -1 -13.5 -2.5t-12.5 -3.5q-7 -2 -12 -5t-10 -7q-6 -4 -9.5 -8.5t-5.5 -9.5q-3 -5 -4 -10.5t-1 -10.5q0 -6 1 -11t4 -10q2 -5 5.5 -9.5t9.5 -8.5
q5 -4 10 -7t12 -5q6 -2 12.5 -3t13.5 -1t13.5 1t13.5 3q3 1 5.5 2t5.5 3q3 1 5.5 3t5.5 4q5 4 8.5 8.5t6.5 9.5q2 5 3.5 10t1.5 11q0 5 -1.5 10.5t-3.5 10.5q-3 5 -6.5 9.5t-8.5 8.5q-3 2 -5.5 3.5t-5.5 3.5q-3 1 -5.5 2.5t-5.5 2.5q-7 2 -13.5 3t-13.5 1v2v0v0z" />
    <glyph glyph-name="cent" unicode="&#xa2;" horiz-adv-x="547" 
d="M510 620l-79 -175l2 -2t3 -2q1 0 2 -0.5t2 -1.5h1h1q1 0 2 -0.5t2 -0.5q1 -1 2 -1h2t2 -0.5t2 -0.5q0 -1 1 -1h2q0 -1 1 -1.5t2 -0.5h0.5h1.5v0v0h1h2v-1v0v0h1v0v0q1 -1 2 -1.5t3 -0.5q2 -1 3.5 -1.5t2.5 -0.5q1 -1 2.5 -1.5t2.5 -0.5l3 -1.5t2 -0.5v-92q-2 0 -3.5 0.5
t-3.5 1.5t-3.5 1.5t-3.5 1.5t-3.5 2t-2.5 2q-2 1 -3.5 2t-3.5 2q-4 2 -7.5 3.5t-7.5 2.5q-4 2 -7.5 3.5t-7.5 2.5h-2t-1 1h-1.5h-0.5q-2 0 -3 0.5t-1 1.5h-3h-2h-0.5t-1.5 1q-1 0 -1.5 0.5l-0.5 0.5q-2 0 -3.5 0.5t-2.5 0.5t-1.5 0.5t-1.5 0.5h-2t-1 1q-1 0 -2 0.5t-2 0.5
l-128 -279q4 -2 7.5 -3.5t7.5 -2.5l8 -2t9 -2q4 -1 7.5 -1.5t7.5 -1.5t8.5 -1h8.5q1 -1 2.5 -1h2.5h2.5h2.5h2.5h2.5h2.5h1.5h1.5h0.5h0.5h0.5h0.5h0.5h0.5h1.5v0v0h1h2h1.5h1.5h2.5h1.5q8 0 17 1l18 2q8 2 17 3.5t18 3.5q3 1 5.5 1.5t5.5 1.5q6 2 11.5 3.5t10.5 3.5
q8 2 15.5 5l14.5 6v-84q-10 -4 -18.5 -6.5t-16.5 -4.5q-9 -2 -17 -3.5t-16 -3.5q-8 -1 -16 -1.5t-16 -1.5q-9 -2 -17 -2.5t-16 -1.5h-2.5h-2.5h-2.5t-2.5 -1h-1h-1h-2h-2h-3h-2h-3h-2h-3t-2 -1h-3.5h-2.5h-3h-2h-6h-6h-3.5h-2.5q-2 1 -3 1h-2h-3.5h-3.5q-1 1 -2.5 1h-2.5h-6
h-6t-5.5 0.5t-5.5 0.5q-3 1 -6 1.5t-6 0.5q-2 0 -4 0.5t-4 1.5q-4 0 -8 0.5t-8 0.5l-86 -190h-59l96 209q-16 6 -30 14t-26 18t-22.5 22t-20.5 25q-9 13 -16 26.5t-11 28.5t-6.5 30t-2.5 31q0 26 4 50t14 46q9 21 22.5 40.5t32.5 36.5q17 17 39.5 30t48.5 22q26 8 56 12.5
t64 4.5h1.5h1.5h0.5h1.5h2h2h2h2q1 -1 2 -1h3h2h2h1h2h3.5h2.5q2 -1 3.5 -1h3.5h2h2h0.5h1.5q1 -1 2.5 -1h3.5l74 167h58v0v0v0zM222 109l120 266l-1.5 -1.5t-2.5 -0.5h-1.5h-1.5h-2h-2h-0.5h-1.5h-1.5h-0.5q-19 0 -37 -3t-33 -9q-16 -6 -29 -15t-23 -21q-11 -12 -20 -24.5
t-14 -26.5q-6 -13 -8 -27t-2 -28q0 -9 1 -17t3 -16t4.5 -15.5t6.5 -14.5t8.5 -13.5t10.5 -12.5q5 -6 12.5 -12t14.5 -11v2v0v0z" />
    <glyph glyph-name="sterling" unicode="&#xa3;" horiz-adv-x="663" 
d="M416 374v-88h-128l-62 -189q0 -1 0.5 -1h1.5h0.5h1.5h0.5h0.5v0h1h1h2h0.5h1.5h1h2v0h1v0l1 1h0.5h0.5h1.5h1.5h0.5h1.5h2h2h2h2h4h5h4.5h6.5h10h10q1 -1 3 -1h3h6.5h6.5h8h8q4 -1 8 -1h8q2 0 3.5 -0.5t3.5 -0.5q2 -1 3.5 -1h3.5h3.5h3.5h3.5h3.5q2 -1 5 -1.5t7 -0.5h3.5
h2.5q2 -1 3.5 -1h3.5q1 0 2 -0.5t2 -0.5q1 -1 2 -1h2h2.5h2.5q1 -1 2.5 -1h2.5t2.5 -0.5t2.5 -0.5q1 -1 2.5 -1h2.5h2.5h2.5h2.5h2.5q3 -1 6 -1.5t7 -0.5h6.5h7.5q2 -1 5.5 -1h7.5h7.5h7.5h9.5h9.5t9.5 0.5t9.5 0.5q8 0 16.5 1.5t17.5 2.5q8 1 15.5 2.5t14.5 3.5l6 2t7 2
q3 1 6 2.5t6 2.5v-93l-2 -2t-2 -1h-2h-1l-1 -1v0q-1 -1 -2.5 -1.5t-2.5 -0.5h-1.5h-2.5q-1 0 -2 -0.5l-1 -0.5q-1 -1 -2 -1h-2t-2 -0.5t-2 -0.5h-2h-2h-1.5h-1.5h-3h-1h-3h-2h-0.5h-1.5h-1.5h-0.5h-2t-1 -1h-2h-2h-2t-2 -1q-1 0 -2 -0.5t-2 -0.5h-4.5t-4.5 -1h-4h-4h-4
t-4 -1q-3 0 -5 -0.5t-4 -0.5h-4.5t-4.5 -1h-4h-4h-4t-4 -1h-4.5h-5.5h-5.5h-5.5q-3 1 -5.5 1h-5.5q-6 0 -12 0.5t-13 1.5q-2 0 -3.5 0.5t-3.5 0.5q-2 1 -3.5 1h-3.5h-7h-5t-3.5 0.5t-3.5 0.5q-2 1 -3.5 1h-3.5h-3.5h-3.5q-2 1 -3.5 1h-3.5h-2h-1h-2h-2h-3.5h-3.5h-2h-1h-2
h-2h-2h-2h-1h-1h-7.5h-7.5t-7 0.5t-6 1.5h-2h-1h-2h-2h-2h-2t-2 0.5t-2 0.5h-2h-1h-2h-2h-2h-1h-2h-2h-2h-1h-2h-2h-3.5t-2.5 1h-2h-2h-2h-2h-2.5h-3.5h-12h-11q-6 -1 -11.5 -1h-11.5q-11 0 -22 -0.5t-21 -1.5h-3.5h-3.5q-2 -1 -3.5 -1h-3.5h-4h-4h-2h-2h-14t-12 -1
q-7 0 -13.5 -0.5t-11.5 -1.5h-5.5h-4.5h-1.5h-1.5q-2 -1 -3.5 -1.5t-2.5 -0.5h-2.5t-3.5 -1h-2h-2h-2t-2 -1q-1 0 -2 -0.5t-2 -0.5l99 294h-90v88h119q11 29 23 57t27 55t31 53t35 51q18 25 39.5 43.5t46.5 30.5t53 18.5t60 6.5h2h3h2h3q1 -1 2 -1h3h3.5h2.5q3 -1 6 -1.5
t5 -0.5h3.5h2.5q2 -1 3.5 -1h3.5l65 -96h-14q-5 0 -10 0.5t-10 1.5q-4 1 -8 1.5t-8 1.5h-4t-3 1h-4h-4h-4t-3 1h-4h-4q-19 0 -37 -3.5t-34 -10.5q-17 -7 -31.5 -16.5t-27.5 -22.5t-26 -30.5t-24 -38.5q-12 -22 -23 -47.5t-22 -54.5l95 2v0v0v0z" />
    <glyph glyph-name="section" unicode="&#xa7;" horiz-adv-x="507" 
d="M187 559q0 -10 1 -19.5t4 -17.5t7.5 -15.5t11.5 -15.5q5 -7 12.5 -14.5t14.5 -15.5l16.5 -14l17.5 -14l6 -6t7 -6q2 -3 5.5 -5.5t7.5 -4.5q1 -1 2 -1.5t2 -1.5t2 -1.5t2 -1.5t2 -1.5t2 -0.5q0 -1 1 -1.5t2 -0.5q2 -1 3.5 -2.5l3.5 -3.5q1 -1 2 -1.5t2 -0.5q0 -1 1 -1.5
t2 -1.5q14 -10 26 -21l24 -22l11.5 -11.5l11.5 -11.5q6 -5 11.5 -11l11.5 -12q11 -13 19 -26.5t14 -28.5q5 -15 8 -31.5t3 -33.5q0 -6 -0.5 -12t-1.5 -12q-1 -3 -1.5 -6t-0.5 -5q-1 -3 -1.5 -5.5t-1.5 -5.5t-2.5 -5.5t-2.5 -4.5q-1 -3 -2.5 -5.5t-2.5 -5.5l-6 -10.5
t-7 -10.5q-1 -1 -2 -2.5t-2 -3.5q-2 -2 -3.5 -4.5t-4.5 -5.5q-4 -4 -7.5 -8t-7.5 -8l-1.5 -1.5l-1.5 -1.5q-2 -1 -3.5 -2.5l-2.5 -2.5l-2 -2l-2 -2t-2 -1.5t-2 -1.5t-2.5 -2t-2.5 -2t-2.5 -2t-2.5 -2l-2 -2l-2 -2l-2 -2l-2 -2l9.5 -13.5l8.5 -12.5q4 -4 7.5 -11t6.5 -14
q2 -5 3.5 -9.5t2.5 -8.5q1 -3 1.5 -5.5t1.5 -4.5q1 -8 1.5 -15.5t0.5 -15.5q0 -16 -3.5 -30.5t-11.5 -27.5q-7 -13 -17.5 -25t-24.5 -23t-30 -18.5t-34 -13.5q-18 -5 -37.5 -8t-39.5 -3q-15 0 -29 2t-26 5q-13 3 -24.5 8t-22.5 11q-10 7 -17.5 14t-12.5 15t-7.5 17t-2.5 19
q0 7 1.5 13t3.5 11t6 9.5t9 9.5q5 4 10.5 7.5t12.5 5.5q5 2 12.5 3t14.5 1t13 -1t11 -2q2 -1 4.5 -2t5.5 -2q2 -2 4.5 -3.5t4.5 -3.5q4 -3 7 -7t4 -8q2 -4 3.5 -8.5t1.5 -9.5v0v0v-0.5v-1.5h-0.5t-0.5 -1v0v0v-0.5v-1.5q-1 -1 -1 -1.5v-1.5v-1.5v-1.5q-1 0 -2 -0.5t-1 -1.5
v-0.5v-1.5v-0.5v-1.5v-1.5v-1.5h-1v0v-0.5v-1.5v0v-1v0v0v-0.5v-1.5v-1.5v-1.5l0.5 -0.5t0.5 -1.5t0.5 -1.5l1.5 -1.5h0.5t0.5 -1q1 0 1.5 -0.5l0.5 -0.5q1 -1 3 -1.5l6 -1.5q3 -1 7 -1.5t8 -0.5q8 0 16.5 1.5t17.5 3.5q8 3 15 7t13 9q7 5 11.5 11t8.5 12q4 7 6 13.5t2 13.5
q0 6 -1 11l-2 10q-1 2 -1.5 3.5t-0.5 3.5q-2 7 -5.5 13.5t-7.5 12.5q-4 7 -8.5 13t-9.5 12l-4 4l-4 4l-7.5 7.5t-8.5 6.5q-2 2 -4.5 4t-4.5 4q-3 2 -5.5 4t-4.5 4q-5 5 -10 9.5t-10 8.5q-2 1 -3.5 2.5t-3.5 2.5l-7.5 5.5t-6.5 5.5q-6 5 -10.5 9.5t-9.5 8.5q-14 11 -27 22.5
l-26 23.5q-12 12 -23 24.5l-22 25.5t-19.5 27t-13.5 30q-6 15 -8 31.5t-2 34.5q0 11 1 21t4 20q2 10 5.5 19t9.5 18q5 8 11.5 16.5t13.5 16.5l17 16.5t20 16.5q-1 2 -2.5 4t-2.5 4q-2 1 -3 3t-3 4q-2 3 -3.5 5.5t-2.5 5.5q-1 2 -1.5 3.5t-1.5 2.5q0 2 -1 3.5t-1 2.5l-2 6
l-2 6q-2 5 -3 9.5t-2 8.5q0 1 -0.5 1.5l-0.5 0.5q-1 1 -1.5 2.5t-0.5 2.5q-1 2 -1 4v4v2v2v1v2v4v4v6t1 7q0 3 0.5 5.5t1.5 4.5q0 2 0.5 3.5t0.5 2.5l2 8t3 8q1 4 3 8.5t4 8.5q5 8 11.5 16.5t13.5 15.5q8 8 16.5 15.5t18.5 14.5q11 7 23 12t26 9t30.5 6t35.5 2
q17 0 31.5 -1.5t27.5 -4.5q14 -3 25 -7.5t21 -10.5q11 -6 18.5 -13t13.5 -15q5 -7 7.5 -15.5t2.5 -17.5q0 -4 -1 -8.5t-2 -8.5q-1 -1 -1.5 -2.5t-0.5 -2.5q-2 -5 -5.5 -9.5t-8.5 -8.5l-6.5 -4.5t-7.5 -3.5q-2 -1 -3.5 -1.5t-3.5 -1.5l-6 -2t-6 -1q-4 -1 -7 -1h-6
q-5 0 -9.5 0.5t-8.5 1.5q-4 2 -7.5 3.5t-6.5 3.5t-4.5 3.5l-3.5 3.5l-0.5 0.5l-1.5 1.5q0 1 -1 1.5t-1 1.5l-2 4l-2 4v0v1h-1v0v0.5v1.5h-1v0v0.5v1.5v0v1v0v0v0.5v1.5v0v0v0.5v1.5q0 2 -0.5 4t-0.5 4q0 1 -0.5 3t-0.5 4q-1 3 -1.5 6t-1.5 6q-1 2 -3.5 4t-6.5 3
q-4 2 -9.5 2.5t-12.5 0.5q-10 0 -19 -1.5t-17 -3.5t-15 -5t-12 -8q-6 -4 -10.5 -10t-7.5 -12t-4 -13t-1 -15v2v0v0zM175 384l-6 -6l-6 -6q-2 -3 -4 -5.5t-4 -4.5q-1 -1 -2 -2.5t-2 -3.5q0 -1 -0.5 -1.5l-1.5 -1.5l-1.5 -1.5l-0.5 -0.5q-1 -1 -1.5 -2.5t-2.5 -3.5
q-1 -1 -1.5 -2.5t-0.5 -3.5q0 -1 -0.5 -1.5t-0.5 -1.5q-1 -1 -1.5 -2.5t-0.5 -2.5q-1 -2 -1.5 -3.5t-0.5 -3.5q-1 -2 -1 -4v-4v-2.5v-3.5q0 -9 1 -17.5t4 -16.5q2 -8 5.5 -15.5t9.5 -15.5l10 -14.5t12 -15.5l14.5 -14l15.5 -14l4.5 -4.5t5.5 -4.5q2 -3 4.5 -5t5.5 -4
q3 -3 6 -5.5t5 -4.5q3 -2 6 -4.5t6 -4.5t5.5 -4.5t5.5 -4.5l5.5 -5.5t5.5 -4.5q2 -1 4 -3t4 -3l2 -2t2 -1q3 -3 6 -5.5t6 -4.5q1 -1 2 -1.5t2 -1.5q0 -1 1 -1.5t2 -1.5l0.5 -1t1.5 -1l0.5 -0.5l0.5 -0.5q1 -1 2 -1.5t2 -1.5l1.5 -1.5l1.5 -1.5q0 -1 1.5 -1.5t2.5 -1.5
q0 -1 1 -1.5t2 -1.5l1.5 -1.5l1.5 -1.5l3.5 3.5t3.5 2.5l3.5 3.5t3.5 2.5l6 6t5 7q1 1 1.5 2t1.5 2q2 3 3.5 5.5t2.5 4.5q2 2 2.5 4.5t1.5 4.5q1 1 1.5 2.5t0.5 2.5q2 2 2.5 4t0.5 4t0.5 4t1.5 4v2v2t0.5 2t1.5 2v2v2v2v2q0 10 -2 19.5t-6 18.5t-9 18t-12 17l-8 8l-8 8
q-4 3 -8 7t-9 8q-4 4 -8.5 8t-8.5 8q-5 3 -9.5 7t-9.5 8q-1 1 -2.5 1.5t-2.5 1.5t-2.5 2t-2.5 2l-1 0.5l-1 0.5q-1 1 -2 1.5t-2 1.5q-2 1 -3 2l-2 2l-6 4t-5 4q-3 2 -5.5 4t-4.5 4q-1 0 -2 0.5t-2 1.5q-1 0 -2 0.5t-2 1.5q0 1 -1 1.5l-1 0.5l-2 2l-2 2q-1 0 -2 0.5t-2 1.5
t-2 1.5t-2 1.5t-2 1.5t-1 1.5q-1 1 -2 1.5t-2 1.5q-4 2 -7.5 4.5t-6.5 5.5q-4 3 -7 6t-5 6v2v0v0z" />
    <glyph glyph-name="bullet" horiz-adv-x="442" 
d="M221 465q16 -1 31 -4t28 -8q3 -1 6.5 -2.5t6.5 -2.5q10 -4 19.5 -9.5t17.5 -12.5q11 -9 19.5 -19t13.5 -21q6 -10 9.5 -22t3.5 -25t-3.5 -25t-9.5 -23q-5 -11 -13.5 -21t-19.5 -19q-8 -7 -17.5 -12.5t-19.5 -9.5q-3 -1 -6.5 -2.5t-6.5 -2.5q-13 -4 -28 -6.5t-31 -2.5
t-31 2.5t-29 6.5q-14 5 -26.5 11.5t-23.5 15.5t-19.5 19t-14.5 21q-5 11 -8 23t-3 25t3 25t8 22q6 11 14.5 21t19.5 19t23.5 16t26.5 11q14 5 29 7.5t31 2.5v2v0v0z" />
    <glyph glyph-name="paragraph" unicode="&#xb6;" horiz-adv-x="677" 
d="M247 -199v510q-29 0 -55 4t-49 11q-22 8 -41.5 18.5t-35.5 23.5q-17 14 -29 29.5t-20 33.5t-12 38.5t-4 42.5q0 24 4.5 45t14.5 40q9 19 23 35t33 29t41.5 22.5t48.5 16.5t57 10.5t65 3.5l387 2v-80h-88v-835h-104v835h-136v-835h-100v0v0v0z" />
    <glyph glyph-name="germandbls" unicode="&#xdf;" horiz-adv-x="625" 
d="M73 0v517q0 20 4 38t13 34q8 17 20.5 30.5t29.5 24.5q16 11 34.5 19.5t40.5 14.5q21 5 45.5 8t50.5 3q27 0 52 -3t47 -8q21 -6 40 -14t35 -19t28 -24.5t19 -28.5q8 -15 12 -32t4 -36q0 -13 -2 -25t-6 -23q-4 -12 -10.5 -22.5t-14.5 -20.5q-9 -10 -18.5 -18t-20.5 -16
q-11 -7 -24 -13t-27 -11v0q19 -4 35 -10.5t31 -14.5t27.5 -18t22.5 -21q11 -12 18.5 -25.5t12.5 -27.5q6 -15 8.5 -31t2.5 -33q0 -23 -4 -44t-12 -39q-7 -19 -19 -35t-27 -30q-16 -14 -33.5 -24.5t-37.5 -17.5q-21 -5 -43.5 -8.5t-48.5 -3.5h-2h-1h-2h-2h-3h-2h-0.5h-0.5
h-1.5h-0.5h-1.5h-0.5l-0.5 0.5l-0.5 0.5h-1.5h-0.5h-1.5h-0.5q-4 1 -7 1.5t-6 0.5h-3.5h-2.5q-1 1 -1.5 1h-0.5h-2h-2q-4 1 -7.5 1.5t-7.5 0.5q-4 1 -8.5 1.5t-9.5 0.5v87q1 0 1.5 -0.5l1.5 -1.5q2 -1 3.5 -1.5t2.5 -1.5q1 0 2 -0.5t2 -0.5q1 -1 2 -1.5t2 -0.5l1.5 -1.5
t1.5 -0.5h1.5h2.5q0 -1 1 -1h2h1.5h1.5q2 -1 3.5 -1.5t3.5 -0.5h2h2h1h2h2h2h2h2h4h4q14 0 27.5 2t25.5 6q11 5 22 11t20 14t15.5 18t11.5 21t7.5 23.5t2.5 26.5q0 13 -2.5 25t-6.5 23t-11 22.5t-15 21.5q-9 11 -22 18.5t-30 12.5t-38.5 8t-47.5 3h-1.5h-0.5h-2h-1h-1.5
h-0.5h-0.5h-0.5h-0.5h-0.5v82q0 -1 0.5 -1.5l0.5 -0.5h0.5h0.5h0.5h1.5v0h1v0v0h0.5h1.5h0.5h0.5q17 0 32 1.5t28 5.5q13 3 23.5 8t20.5 12q8 7 15 15t11 18q4 9 6.5 20t2.5 24q0 11 -2.5 21.5t-6.5 19.5t-11 18t-15 16q-2 2 -4.5 3.5t-5.5 3.5q-7 5 -14.5 9t-15.5 7
q-11 4 -22.5 6t-25.5 2t-26.5 -2t-23.5 -5t-21.5 -7.5t-19.5 -10.5q-10 -7 -17 -16t-11 -20t-6 -24.5t-2 -30.5v-504h-112v0v0v0z" />
    <glyph glyph-name="registered" unicode="&#xae;" horiz-adv-x="925" 
d="M922 360q0 -39 -8.5 -75t-25.5 -69q-16 -33 -41.5 -62.5t-59.5 -56.5t-71 -47t-78 -33t-85 -19t-92 -6t-92.5 6t-85.5 19t-77.5 33t-70.5 47t-59.5 56.5t-42.5 62.5q-16 33 -24 68.5t-8 73.5t8 73.5t24 67.5q17 32 42.5 62t59.5 57t70.5 47.5t77.5 33.5q41 14 85.5 20.5
t92.5 6.5t92 -6.5t85 -20.5q41 -13 78 -33.5t71 -47.5t59.5 -57t41.5 -62q17 -32 25.5 -67.5t8.5 -73.5v2v0v0zM846 360q0 31 -7.5 60t-21.5 56t-34.5 52t-49.5 47q-28 23 -59.5 39.5t-65.5 27.5t-71 17t-76 6q-40 0 -77 -6t-71 -17t-64.5 -27.5t-58.5 -39.5
q-28 -22 -49.5 -47t-35.5 -52t-21 -56.5t-7 -61.5t7 -62t21 -57t35.5 -51.5t49.5 -47.5q28 -22 58.5 -39.5t64.5 -28.5t71 -16.5t77 -5.5q39 0 76 5.5t71 16.5t65.5 28.5t59.5 39.5q29 23 49.5 47.5t34.5 51.5t21.5 57t7.5 62v2v0v0zM260 156v396h218q18 -1 34 -3t29 -5
t24 -7.5t21 -9.5q9 -6 16.5 -12l14.5 -12q6 -6 10.5 -12.5t7.5 -13.5q1 -2 1.5 -4t0.5 -4t1 -4l2 -4v-2t1 -2v-2v-2v-2t1 -2v-1.5v-1.5q0 -12 -2.5 -23t-7.5 -21t-12.5 -19t-17.5 -17t-21.5 -14t-23.5 -10q-13 -4 -27 -6.5t-29 -3.5v0l4 -2l4 -2l4 -2l4 -2q4 -1 7.5 -3.5
t7.5 -4.5t7.5 -4.5l7.5 -5.5q2 -1 4 -3t4 -3q1 -2 3 -3.5t4 -3.5q2 -1 3.5 -3t2.5 -3l3.5 -3.5l3.5 -3.5q2 -4 5 -7.5t7 -7.5q3 -4 6.5 -7.5t7.5 -8.5q4 -4 7.5 -8.5l7.5 -9.5l60 -75h-98l-43 62q-7 8 -12.5 15l-10.5 14t-10 13l-9 11t-8.5 9.5l-8.5 8.5t-8 7.5t-8 6.5
q-5 2 -9.5 4.5t-8.5 4.5q-2 1 -4 1.5t-4 1.5t-4 1.5t-4 1.5q-2 0 -4.5 0.5t-4.5 1.5q-3 0 -5.5 0.5t-4.5 0.5h-4.5t-4.5 1h-5.5h-5.5l-47 2v-168h-80v0v0v0zM340 379h115q11 -1 21 -0.5t20 1.5q9 2 17 4.5t15 6.5t12.5 8.5t9.5 10.5q4 5 5.5 12t1.5 15q0 7 -1.5 13t-4.5 11
q-4 5 -8.5 10t-10.5 9q-7 4 -14 7t-15 5q-7 2 -16 3t-19 1l-128 2v-119v0v0v0z" />
    <glyph glyph-name="copyright" unicode="&#xa9;" horiz-adv-x="925" 
d="M922 360q0 -39 -8.5 -75t-25.5 -69q-16 -33 -41.5 -62.5t-59.5 -56.5t-71 -47t-78 -33t-85 -19t-92 -6t-92.5 6t-85.5 19t-77.5 33t-70.5 47t-59.5 56.5t-42.5 62.5q-16 33 -24 68.5t-8 73.5t8 73.5t24 67.5q17 32 42.5 62t59.5 57t70.5 47.5t77.5 33.5q41 14 85.5 20.5
t92.5 6.5t92 -6.5t85 -20.5q41 -13 78 -33.5t71 -47.5t59.5 -57t41.5 -62q17 -32 25.5 -67.5t8.5 -73.5v2v0v0zM846 360q0 31 -7.5 60t-21.5 56t-34.5 52t-49.5 47q-28 23 -59.5 39.5t-65.5 27.5t-71 17t-76 6q-40 0 -77 -6t-71 -17t-64.5 -27.5t-58.5 -39.5
q-28 -22 -49.5 -47t-35.5 -52t-21 -56.5t-7 -61.5t7 -62t21 -57t35.5 -51.5t49.5 -47.5q28 -22 58.5 -39.5t64.5 -28.5t71 -16.5t77 -5.5q39 0 76 5.5t71 16.5t65.5 28.5t59.5 39.5q29 23 49.5 47.5t34.5 51.5t21.5 57t7.5 62v2v0v0zM610 300l75 -18q-5 -17 -12.5 -32
t-16.5 -27q-10 -13 -22.5 -23.5t-27.5 -18.5q-15 -9 -32 -15t-36 -11q-19 -4 -39 -6t-42 -2q-27 0 -51.5 3.5t-45.5 10.5q-22 8 -40.5 18.5t-34.5 25.5q-16 14 -28 31.5t-20 36.5q-8 20 -12 42.5t-4 47.5q0 23 4 43.5t12 38.5t21.5 34.5t29.5 29.5q17 14 36.5 24t41.5 17
q23 7 48 10.5t53 3.5q20 0 38 -2t35 -6t32 -9t29 -13q13 -7 25 -16t21 -20q10 -10 16.5 -22.5t12.5 -26.5l-73 -12q-4 8 -9.5 16t-13.5 15q-7 7 -15 13t-17 10q-9 5 -19 8l-21 6q-11 2 -22.5 3.5t-24.5 1.5q-18 0 -34 -3t-30 -8q-15 -6 -27 -13.5t-23 -18.5t-19 -24t-13 -27
q-6 -14 -8 -30t-2 -33q0 -18 2 -33.5t8 -29.5q5 -13 13 -25t18 -22q11 -10 23 -17t27 -12q14 -5 30.5 -7.5t35.5 -2.5q14 0 26 1.5t24 4.5q11 3 22.5 7.5t21.5 11.5q11 6 19 13.5t15 16.5q6 8 11 18t9 21v2v0v0z" />
    <glyph glyph-name="trademark" unicode="&#x2122;" horiz-adv-x="1250" 
d="M298 318v339h-161v59h406v-59h-162v-339h-83v0v0v0zM600 318v398h122l124 -318h2l120 318h120v-398h-76v334h-2l-125 -334h-75l-132 339h-2v-339h-76v0v0v0z" />
    <glyph glyph-name="acute" unicode="&#xb4;" horiz-adv-x="416" 
d="M222 654h125l-140 -147h-69l84 147v0v0v0z" />
    <glyph glyph-name="dieresis" unicode="&#xa8;" horiz-adv-x="416" 
d="M92 628q3 -1 6 -1.5t6 -1.5q2 -1 5 -1.5t6 -1.5q5 -1 9.5 -3.5t8.5 -5.5q4 -4 7 -7.5t5 -7.5q0 -1 0.5 -2t1.5 -2q1 -4 2 -7.5t1 -6.5q0 -4 -1 -7.5t-2 -6.5q-1 -1 -1.5 -2t-0.5 -2q-2 -4 -5 -8t-7 -7q-4 -4 -8.5 -6.5t-9.5 -4.5q-3 -1 -6 -1.5t-5 -0.5q-3 -1 -6 -1h-6
q-7 0 -12 1l-10 2q-6 2 -10.5 4.5t-8.5 6.5q-4 3 -8 7t-6 8q-1 4 -2.5 8.5t-1.5 9.5t1.5 9.5t2.5 8.5q2 4 6 7.5t8 7.5q4 3 8.5 5.5t10.5 3.5q5 2 10 3t12 1v2v0v0zM325 628q3 -1 5.5 -1.5t5.5 -1.5t5.5 -1.5t5.5 -1.5q2 -1 4.5 -2t5.5 -2q2 -1 4.5 -2t4.5 -3q4 -4 7 -7.5
t4 -7.5q2 -4 3.5 -8.5t1.5 -9.5t-1.5 -9.5t-3.5 -8.5q-1 -4 -4 -8t-7 -7q-2 -2 -4.5 -3.5t-4.5 -3.5q-3 -1 -5.5 -2t-4.5 -2q-3 -1 -5.5 -1.5t-5.5 -0.5q-3 -1 -5.5 -1h-5.5q-7 0 -12.5 1l-10.5 2q-5 2 -10 4.5t-9 6.5q-4 3 -7.5 7t-5.5 8t-3 8.5t-1 9.5t1 9.5t3 8.5
t5.5 7.5l7.5 7.5q4 3 9 5.5t10 3.5q5 2 10.5 3t12.5 1v2v0v0z" />
    <glyph glyph-name="notequal" unicode="&#x2260;" 
 />
    <glyph glyph-name="AE" unicode="&#xc6;" horiz-adv-x="1120" 
d="M1063 682v-88h-350v-205h339v-88h-339v-213h364v-88h-486v301h-239l-224 -301h-126l505 682h556v0v0v0zM588 622l-173 -233h176v233h-3v0v0v0z" />
    <glyph glyph-name="Oslash" unicode="&#xd8;" horiz-adv-x="1028" 
d="M247 51l-59 -55l-58 33l61 57q-17 12 -31 25.5t-27 27.5t-23.5 29.5t-18.5 31.5q-10 16 -16 32.5t-10 34.5q-5 17 -7 35t-2 37q0 35 7.5 68t23.5 64q15 31 38.5 59.5t55.5 54.5q31 26 67.5 45.5t77.5 32.5t88 19.5t99 6.5q19 0 37.5 -1t36.5 -3q18 -1 35 -4l33 -6
q16 -4 31.5 -8.5t30.5 -9.5l29.5 -12t28.5 -13l63 61l58 -40l-60 -56l27 -24t25 -25q11 -13 21.5 -27t20.5 -29q8 -16 15 -31.5t12 -30.5q5 -16 8.5 -31.5t5.5 -31.5v-4v-4v-2.5v-3.5v-2v-2v-2t1 -1v-2v-2v-1.5v-1.5q0 -34 -8 -67t-23 -63q-15 -31 -38 -59.5t-53 -54.5
q-31 -26 -67.5 -45.5t-79.5 -32.5t-91 -19t-101 -6h-3h-2h-3h-2q-2 1 -3.5 1h-2.5h-3h-2h-5.5h-4.5h-5.5h-4.5q-15 1 -30 2.5t-30 3.5q-15 1 -29.5 3.5t-28.5 6.5l-21.5 6t-20.5 7q-3 1 -6.5 2t-6.5 2t-6.5 2.5t-6.5 2.5q-10 4 -19.5 8.5t-17.5 9.5v2v0v0zM756 523
l-430 -399q9 -6 19 -10.5t21 -8.5t22 -7.5t22 -6.5t23 -5l25 -4q3 0 6.5 -0.5t6.5 -0.5q10 -1 20.5 -1.5t21.5 -0.5q36 0 69 4.5t63 13.5t56.5 23t49.5 33q23 18 41 39t30 44q11 23 17.5 49t6.5 54q0 14 -2 27l-4 26q-4 13 -9 25l-10 24l-14 22t-15 21q-7 10 -16 19t-20 18
v2v0v0zM270 160l427 401q-1 -1 -1.5 -1h-0.5h-2t-1 1h-1.5h-0.5h-0.5t-0.5 1l-0.5 0.5l-0.5 0.5l-10 4l-10 4q-5 1 -10 3l-10 4q-9 3 -19 6t-21 5l-21 4t-24 3q-12 2 -24 2.5t-26 0.5q-35 0 -68 -5t-63 -14t-56.5 -23t-49.5 -32q-23 -19 -41 -40t-29 -44q-12 -23 -18 -48.5
t-6 -53.5q0 -14 1 -27.5t4 -25.5t7.5 -23.5t10.5 -22.5q5 -11 12 -21.5l15 -21.5q8 -10 18 -20t20 -19v2v0v0z" />
    <glyph glyph-name="infinity" unicode="&#x221e;" 
 />
    <glyph glyph-name="plusminus" unicode="&#xb1;" horiz-adv-x="730" 
d="M70 82h590v-82h-590v82v0v0v0zM313 589h103v-195h244v-82h-244v-195h-103v195h-243v82h243v195v0v0v0z" />
    <glyph glyph-name="lessequal" unicode="&#x2264;" 
 />
    <glyph glyph-name="greaterequal" unicode="&#x2265;" 
 />
    <glyph glyph-name="yen" unicode="&#xa5;" horiz-adv-x="690" 
d="M291 0v159h-254v67h254v70h-254v73h209l-247 347h122l225 -322l216 322h129l-245 -347h206v-73h-250v-70h250v-67h-250v-159h-111v0v0v0z" />
    <glyph glyph-name="mu" unicode="&#xb5;" horiz-adv-x="690" 
d="M586 449v-449h-103v53h-2q-7 -9 -13.5 -16.5t-12.5 -13.5q-7 -6 -13.5 -11t-14.5 -8q-7 -3 -16 -5t-19 -3q-9 -2 -20 -3t-22 -1q-10 0 -20 0.5t-19 2.5q-10 1 -18 3l-16 4q-7 3 -14.5 7t-14.5 9t-13.5 11.5t-12.5 13.5l-2 2v-217h-112v621h112v-248q0 -19 2 -35.5
t6 -30.5q4 -13 10.5 -24.5t16.5 -19.5q8 -9 17.5 -15.5t20.5 -11.5q11 -4 24 -6t26 -2q15 0 29 2.5t26 6.5q13 5 23 11.5t19 16.5q8 9 15 20t11 24t6.5 28t2.5 32v252h111v0v0v0z" />
    <glyph glyph-name="partialdiff" unicode="&#x2202;" 
 />
    <glyph glyph-name="summation" unicode="&#x3a3;" 
 />
    <glyph glyph-name="product" unicode="&#x220f;" 
 />
    <glyph glyph-name="pi" unicode="&#x3c0;" 
 />
    <glyph glyph-name="integral" unicode="&#x222b;" 
 />
    <glyph glyph-name="ordfeminine" unicode="&#xaa;" horiz-adv-x="351" 
d="M341 474v-42q-1 -1 -3 -2t-3 -2q-3 -2 -6 -3.5t-6 -2.5q-4 -2 -7.5 -3.5t-5.5 -2.5q-4 -1 -7 -2.5t-6 -2.5q-1 0 -2.5 -0.5t-2.5 -0.5q-2 -1 -3 -1h-3q-1 0 -2 -0.5t-2 -1.5h-1h-1h-3h-2h-2h-2h-2h-2h-2.5h-2.5h-3.5h-3.5q-4 0 -7.5 0.5t-6.5 0.5q-4 1 -8 2.5t-8 2.5
q-4 2 -7.5 3.5t-6.5 3.5t-4.5 4.5t-3.5 5.5q-2 -1 -3.5 -2t-2.5 -2q-2 -1 -3.5 -1.5t-3.5 -1.5t-3.5 -1.5t-3.5 -1.5t-3.5 -1.5t-3.5 -0.5q-4 -1 -7.5 -2.5t-7.5 -2.5t-7.5 -1.5t-7.5 -1.5q-3 -1 -5.5 -1.5t-4.5 -0.5h-2h-2h-2h-2h-0.5h-0.5q-1 -1 -1.5 -1h-0.5h-3h-1h-3h-2
h-0.5h-1.5h-1.5h-0.5q-10 0 -19 1t-17 4q-8 2 -15.5 6t-14.5 9t-12 10.5t-9 11.5t-5.5 13t-1.5 14q0 11 3 20t10 17t17 14.5t23 11.5l27.5 10.5t31.5 9.5q8 2 17 4t18 5l18.5 4l19.5 4q0 8 -0.5 14.5t-1.5 12.5q-1 3 -2 5t-2 5l-2 4t-2 3q-2 3 -7 5.5t-10 3.5q-6 2 -13.5 3
t-15.5 1h-3.5h-3.5q-1 -1 -2.5 -1h-2.5h-3.5h-3.5q-1 -1 -2.5 -1h-3.5q-1 -1 -2.5 -1.5t-3.5 -0.5h-3h-2t-2 -0.5t-2 -1.5h-1h-1h-2h-1q-1 -1 -1.5 -1h-0.5q-3 -1 -5.5 -1.5t-4.5 -1.5q-1 -1 -2 -1.5t-2 -0.5q-1 -1 -2 -1.5t-2 -0.5q-3 -1 -5.5 -2.5t-4.5 -2.5
q-1 -1 -2 -1.5t-2 -0.5l-1 -1h-1q-1 -1 -1.5 -1t-1.5 -1q-2 -1 -4.5 -3t-4.5 -3q-2 -2 -4.5 -3.5t-4.5 -3.5q-6 -4 -10.5 -7.5l-9.5 -7.5v71q5 4 11.5 7.5l13.5 7.5q6 4 13.5 7t16.5 5l16 4t17 3q2 0 4.5 0.5t5.5 0.5q7 1 14.5 1.5t15.5 0.5q13 0 25 -1.5t24 -3.5
q11 -3 22.5 -7t21.5 -9q11 -5 18.5 -12t12.5 -15q6 -9 8.5 -19t2.5 -22v-124v-7.5v-5.5q0 -3 0.5 -4.5t1.5 -2.5v-2t1 -1q1 -1 2 -1h2h2.5t3.5 1q2 0 4 1t5 2q2 1 5.5 2.5t7.5 3.5t8 4.5t10 5.5v2v0v0zM203 543q-4 -2 -7.5 -3.5t-7.5 -2.5t-7.5 -2t-5.5 -2q-4 -1 -7 -2
l-6 -2t-5.5 -1.5t-4.5 -1.5q-4 -1 -6.5 -2t-4.5 -2q-3 -1 -5.5 -2t-4.5 -2t-3.5 -2t-2.5 -2q-1 0 -1.5 -0.5t-1.5 -0.5l-1 -0.5t-1 -1.5q-1 0 -2 -0.5t-2 -1.5q-2 -1 -3.5 -3t-2.5 -3t-1.5 -2t-1.5 -2q-1 -3 -1.5 -6.5t-0.5 -7.5t0.5 -7.5t1.5 -6.5q1 -1 1.5 -2t1.5 -2
q1 -2 2.5 -3.5l3.5 -3.5q3 -2 6.5 -3.5t7.5 -3.5q4 -1 8.5 -1.5t9.5 -0.5h1.5h1.5h0.5h1.5h2h2h1h2h2t3 1h1h1q1 1 2 1.5t2 0.5h2t2 1l1 0.5t2 0.5t2 0.5t2 1.5q1 0 2 0.5t2 0.5t2 0.5t2 1.5l1 0.5t2 1.5t2.5 1.5t2.5 1.5t2.5 1.5t2.5 1.5v74v0v0v0z" />
    <glyph glyph-name="ordmasculine" unicode="&#xba;" horiz-adv-x="456" 
d="M427 550q0 -16 -3.5 -30.5t-11.5 -27.5q-7 -13 -17.5 -24t-24.5 -21t-30 -17.5t-34 -12.5t-37.5 -7.5t-41.5 -2.5t-41.5 2.5t-37.5 7.5q-17 5 -33 12.5t-30 17.5t-24.5 21t-18.5 24q-7 12 -10.5 26t-3.5 30q0 15 3.5 28.5t10.5 26.5q8 13 18.5 24.5t24.5 21.5t30 17.5
t33 12.5q18 5 37.5 7.5t41.5 2.5t41.5 -2.5t37.5 -7.5t34 -12.5t30 -17.5t24.5 -21.5t17.5 -24.5q8 -13 11.5 -26.5t3.5 -28.5v2v0v0zM341 550q0 9 -2.5 17.5t-6.5 15.5q-4 8 -9 15t-13 13q-7 6 -16.5 10.5t-20.5 7.5q-10 3 -21 4.5t-24 1.5t-24.5 -1.5t-22.5 -4.5
q-10 -3 -18.5 -7.5t-16.5 -10.5t-14 -13t-10 -15q-4 -7 -5.5 -16t-1.5 -19t1.5 -18.5t5.5 -16.5t10 -15t14 -13t16.5 -10.5t18.5 -7.5q11 -3 22.5 -4.5t24.5 -1.5t24 1.5t21 4.5q11 3 20.5 7.5t16.5 10.5q8 6 13 13t9 15t6.5 16.5t2.5 18.5v2v0v0z" />
    <glyph glyph-name="Omega" unicode="&#x3a9;" 
 />
    <glyph glyph-name="ae" unicode="&#xe6;" horiz-adv-x="833" 
d="M786 128v-89q-10 -7 -19.5 -12t-20.5 -10l-22.5 -8t-23.5 -7q-6 -1 -12.5 -1.5t-12.5 -1.5q-6 0 -12.5 -1l-12.5 -2q-7 -1 -13.5 -1.5t-12.5 -1.5q-7 0 -13.5 -0.5t-13.5 -0.5q-16 0 -31 1.5t-29 3.5q-9 1 -18 2.5t-18 4.5q-5 1 -9 2.5t-9 2.5q-13 5 -24.5 10t-21.5 11
q-9 6 -17.5 13.5t-14.5 15.5q-14 -9 -28 -17t-27 -14q-4 -2 -9 -4t-9 -4q-9 -4 -18 -7l-18 -6l-18 -4t-18 -3q-5 -1 -9 -1.5t-9 -1.5l-12.5 -2l-13.5 -2q-7 0 -13.5 -0.5t-12.5 -0.5q-16 0 -30 2t-28 6q-13 2 -25 8t-22 14t-18 17t-14 19q-5 11 -7.5 22t-2.5 24q0 14 3.5 27
t10.5 24q8 11 18.5 21t25.5 18q14 8 32 16.5t40 15.5q11 4 23 7.5l25 7.5l27 6.5l29 7.5h0.5t1.5 1h1.5h1.5q2 0 2.5 0.5t1.5 0.5t1.5 0.5l0.5 0.5h1.5h1.5h0.5h1.5h2t2 1q1 0 2 0.5t2 0.5t2 0.5t2 0.5q2 0 4 1t4 1q3 1 6.5 1.5t7.5 1.5v0.5v1.5v1t1 2v0.5v1.5v1.5v1.5v1.5
v1.5v1v2v0.5v1.5v1.5v1.5q0 11 -1.5 20.5t-4.5 17.5t-6.5 15t-8.5 13q-5 5 -12.5 9.5t-16.5 7.5q-8 3 -18.5 4.5t-21.5 1.5t-22 -1t-20 -3q-7 -1 -13.5 -2.5t-12.5 -2.5q-3 -1 -6.5 -2t-6.5 -2l-6 -2t-6 -3q-6 -2 -12 -5l-12 -6q-10 -4 -18.5 -10l-16.5 -12l-0.5 -0.5
t-1.5 -0.5l-1.5 -1.5l-0.5 -0.5q-1 -1 -1.5 -2t-2.5 -1q-1 -1 -1.5 -2t-1.5 -2t-2 -1.5t-2 -1.5l-0.5 -0.5t-1.5 -0.5l-1.5 -1.5l-0.5 -0.5q-1 -1 -1.5 -2t-2.5 -1q-1 -1 -1.5 -2t-1.5 -2t-2 -1.5t-2 -1.5v109q8 5 16.5 9.5t18.5 8.5q9 5 20 8.5l24 7.5l23 6t25 4q5 1 9 1
t9 1q9 1 18 1.5t18 0.5q6 0 12 -0.5t13 -0.5q6 -1 12 -1.5t12 -1.5t11.5 -2.5t11.5 -2.5q6 -2 11.5 -3.5t11.5 -3.5q11 -4 21 -8.5t19 -9.5q10 -5 18 -11t15 -13q5 5 11 8.5t12 7.5q7 4 14.5 7.5t14.5 7.5l15.5 6l14.5 6q8 2 15.5 4.5t15.5 4.5q3 1 6 1.5t7 0.5h3.5t3.5 1
q2 0 3.5 0.5t3.5 0.5h2.5t2.5 1h3.5h3.5h3.5t2.5 1h3.5h3.5q23 0 44.5 -3.5t40.5 -10.5t36 -16.5t32 -22.5t26.5 -29.5t18.5 -34.5q8 -18 11.5 -39t3.5 -44v-2v-2v-2v-2v-1.5v-0.5v-1v0v-1.5v-0.5v-1.5v-0.5l-345 2q0 -22 3 -41.5t10 -36.5q7 -16 17 -29.5t23 -24.5
q13 -10 27 -18.5t29 -13.5t31 -7.5t34 -2.5h6h7h3.5h3.5q1 0 2.5 0.5t3.5 0.5q3 0 6 0.5t7 1.5h3.5t3.5 1q2 0 3.5 0.5t3.5 0.5q6 2 13 3.5t14 3.5q8 2 15.5 5t14.5 7q8 3 15.5 6.5l15.5 7.5l10.5 6l11.5 6q3 2 5.5 3.5t5.5 3.5v2v0v0zM327 224q-3 -1 -6.5 -2.5t-6.5 -2.5
q-3 -2 -6.5 -3t-6.5 -2q-4 -1 -8 -2.5t-8 -3.5q-2 0 -4 -0.5t-4 -1.5t-3.5 -1.5t-3.5 -1.5q-4 -1 -7.5 -2.5t-6.5 -2.5q-6 -1 -10.5 -2.5t-9.5 -3.5l-18.5 -7.5t-16.5 -8.5q-7 -4 -13 -8t-11 -8t-9 -8.5t-6 -9.5q-3 -4 -4 -9.5t-1 -10.5q0 -7 1 -14.5t4 -13.5t7.5 -12
t10.5 -11q5 -5 11 -9t12 -7q7 -3 14.5 -4t15.5 -1h1.5h1.5h0.5h1.5h2h2h1h2h2h3h1h1t2 0.5t2 0.5h2h2q2 1 4 1.5t4 0.5q4 1 7.5 2.5t7.5 2.5q4 2 9 3.5t10 3.5l3 1.5t3 0.5q4 2 8.5 4.5t10.5 5.5v147v0v0v0zM452 302h221q-1 9 -4 17t-7 15t-9 13t-12 10q-7 5 -15 8t-18 6
q-9 2 -20 3.5t-23 1.5q-10 0 -20 -1.5t-18 -3.5q-8 -3 -15.5 -7t-15.5 -9q-7 -5 -14 -11t-12 -13q-6 -7 -10 -15l-8 -16v2v0v0z" />
    <glyph glyph-name="oslash" unicode="&#xf8;" horiz-adv-x="690" 
d="M172 29l-70 -66l-41 30l69 64q-10 7 -19.5 15t-17.5 18q-7 9 -13.5 19.5t-12.5 21.5l-10 22.5t-7 23.5q-3 12 -4 24.5t-1 25.5q0 24 5 46t16 43q11 20 26.5 39t37.5 35q21 17 45.5 29t50.5 20t54.5 12.5t60.5 4.5q13 0 25.5 -0.5t24.5 -2.5q12 -1 24 -3.5t23 -4.5
l21.5 -6l20.5 -6q3 -1 6 -2.5t6 -2.5q6 -3 12.5 -5.5t11.5 -5.5l59 56l41 -30l-55 -51q5 -4 10 -9t10 -9q4 -5 8 -9.5t8 -9.5q8 -10 14.5 -19.5t11.5 -19.5q3 -5 5 -10.5l4 -10.5q2 -6 3.5 -11.5t2.5 -10.5q3 -11 5 -22.5t2 -23.5q0 -27 -5.5 -51t-16.5 -45
q-11 -22 -27 -40.5t-36 -35.5q-22 -16 -46.5 -28.5t-51.5 -20.5q-27 -6 -57 -10t-64 -4q-13 0 -25.5 0.5t-23.5 2.5q-12 1 -23 2.5t-22 2.5l-15.5 4l-14.5 4q-3 1 -5.5 2t-4.5 2t-4.5 1.5t-4.5 1.5l-13.5 6l-12.5 6v2v0v0zM490 325l-249 -232l6.5 -4.5t7.5 -3.5
q2 -1 3.5 -1.5t3.5 -1.5l6 -2l6 -2q2 -1 5 -1.5t6 -1.5q5 -1 11.5 -2.5t13.5 -2.5q6 -1 13.5 -1h16.5q21 0 41 2.5t37 7.5t33 13.5t29 18.5q12 11 21 23t16 26t10.5 30.5t3.5 35.5v2v3q-1 1 -1 2.5v2.5q0 2 -0.5 3.5t-0.5 2.5q0 2 -0.5 3.5t-0.5 2.5q-1 2 -1.5 3.5t-0.5 2.5
v3.5v2.5t-0.5 1.5l-0.5 0.5q-1 1 -1.5 2t-0.5 2v2v2q-1 0 -1 1v2q-1 3 -2.5 6t-3.5 6q-1 2 -2 3.5t-2 3.5q-1 1 -2 3l-2 4t-2 3.5t-2 2.5q-1 2 -2 3.5t-2 2.5q-1 2 -2.5 3.5l-2.5 2.5q-1 2 -2.5 3.5l-2.5 2.5v2v0v0zM200 123l248 232q-1 -1 -1.5 -1h-0.5v0v0h-0.5h-0.5h-1.5
h-0.5v0v1q-1 0 -1 0.5v0.5q-3 1 -5.5 1.5t-4.5 1.5q-3 1 -5.5 2t-4.5 2h-2.5t-2.5 1q-2 0 -3 0.5l-3 1.5q-4 1 -7 1.5t-6 1.5t-6 1.5t-7 1.5q-3 0 -6.5 0.5t-7.5 1.5q-4 0 -8 0.5t-7 0.5q-4 1 -8 1h-8q-20 0 -38 -3t-35 -8q-16 -5 -30.5 -12.5t-26.5 -18.5
q-13 -10 -23.5 -22t-15.5 -26q-7 -13 -10 -28t-3 -31v-2v-2v-2v-2v-2.5v-2.5v-2v-2q0 -2 0.5 -4t1.5 -4q0 -2 0.5 -4t1.5 -4q1 -5 2.5 -10t2.5 -10t3 -9.5t5 -9.5q2 -5 4.5 -9.5t6.5 -8.5q3 -4 6.5 -8t7.5 -8v2v0v0z" />
    <glyph glyph-name="questiondown" unicode="&#xbf;" horiz-adv-x="416" 
d="M313 -97l-58 -96q-22 1 -42 3t-37 6t-31 10.5t-25 14.5q-13 9 -22 18t-17 18q-7 9 -13 18.5t-8 19.5q-1 3 -2 5.5t-2 4.5q-1 3 -1 5.5v4.5q-1 2 -1.5 4.5t-0.5 4.5v4.5v4.5q0 13 2 26.5t6 23.5q4 12 9.5 24.5t12.5 25.5q4 6 7.5 12t7.5 12l8.5 11t8.5 12l16 23.5t17 22.5
q5 5 9 10.5l8 11.5q5 5 9 10.5l8 10.5l8 10.5l8 10.5q3 5 7 10.5l8 10.5q8 10 13.5 19.5t9.5 19.5t5.5 19.5t1.5 19.5v1.5v1.5v1.5v1.5v0v1v0v0v0.5v1.5h-0.5t-0.5 1v0v0v0.5v1.5q5 -2 9.5 -4t8.5 -4q4 -3 8 -5l8 -4q7 -4 12.5 -9.5t9.5 -10.5t7.5 -11t5.5 -13q0 -2 0.5 -4
t1.5 -4q1 -5 2 -11t1 -12q0 -10 -2 -20t-4 -19q-3 -9 -7 -18t-10 -17q-3 -4 -5.5 -8.5t-5.5 -8.5l-5.5 -9t-5.5 -8l-12 -15.5l-13 -15.5q0 -1 -0.5 -1.5t-1.5 -0.5l-1.5 -1.5l-0.5 -0.5q-1 -1 -1.5 -2t-2.5 -2q-1 -1 -1.5 -2.5t-1.5 -2.5l-2 -2t-1 -2q-1 -1 -1.5 -2t-2.5 -2
q-1 -1 -1.5 -2t-0.5 -2q-2 -1 -3 -2t-1 -2q-1 -1 -1.5 -2t-2.5 -2l-8 -12l-8 -12l-7.5 -11.5l-6.5 -10.5q-2 -3 -3.5 -5.5t-2.5 -5.5l-0.5 -1.5t-1.5 -2.5q0 -2 -0.5 -3.5t-1.5 -2.5q-1 -6 -1.5 -12t-0.5 -13q0 -8 1 -14.5t4 -12.5t7.5 -11.5t9.5 -9.5q6 -5 13 -8l14 -6
q8 -2 16 -3.5t17 -1.5h1.5h1.5h0.5h1.5h2h2h1h2q1 1 2 1h3h1h1h2h2t2.5 0.5t3.5 1.5h1.5h1.5h2h2q1 1 2 1h2h0.5h0.5h0.5h0.5h0.5h1.5v0.5t1 0.5v0v0h0.5h1.5h0.5h0.5v0h1v0v0h1h2v0.5t1 0.5v0v0h0.5h1.5v-1v0v0zM223 387q-8 -1 -15.5 -0.5t-14.5 2.5q-6 2 -12 5.5t-11 7.5
q-6 5 -10.5 9.5t-6.5 9.5t-3.5 11t-1.5 13q0 6 1.5 11.5t3.5 10.5t6.5 10.5t10.5 9.5q5 5 11 8t12 5q7 2 14.5 3.5t15.5 1.5t14.5 -1.5t13.5 -3.5t13 -5t12 -8q5 -4 9 -9.5t7 -10.5t4.5 -10.5t1.5 -11.5q0 -7 -1.5 -13t-4.5 -11t-7 -9.5t-9 -9.5q-6 -4 -12 -7.5t-13 -5.5
t-13.5 -3t-14.5 -1v2v0v0z" />
    <glyph glyph-name="exclamdown" unicode="&#xa1;" horiz-adv-x="338" 
d="M170 -192q-10 1 -17.5 3.5t-14.5 7.5q-6 4 -11.5 11t-9.5 16q-4 10 -8 21.5t-6 25.5q-1 13 -2 29.5t-1 34.5v15.5v15.5v9v8q0 2 0.5 4.5t0.5 4.5q0 7 0.5 13t1.5 12q2 6 2.5 11.5t1.5 10.5l31 174q1 4 1.5 7.5t1.5 6.5q0 4 0.5 7t1.5 6t2 5.5t2 5.5l2 4l2 4q1 4 3 7t4 4
q2 2 5 3t7 1q1 0 2.5 -0.5t2.5 -0.5q1 -1 2.5 -1.5t2.5 -1.5l2 -2l2 -2q1 -2 2 -3.5t2 -3.5l2 -4l2 -4q0 -3 1 -5.5t2 -5.5q1 -2 1 -4t1 -5q1 -4 2 -9t2 -11l31 -170q0 -2 0.5 -4t0.5 -4q0 -1 0.5 -2l0.5 -1q0 -3 0.5 -6t0.5 -6q0 -6 0.5 -12.5t1.5 -13.5v-4.5v-4.5v-2t1 -2
v-5.5v-7.5t0.5 -7.5t0.5 -7.5t0.5 -8t0.5 -8q0 -14 -1 -26.5t-2 -23.5q-1 -4 -1.5 -7.5t-0.5 -6.5q-2 -14 -5.5 -25.5t-7.5 -21.5q-4 -9 -10 -16t-12 -11q-7 -5 -14.5 -7.5t-15.5 -2.5v-1v0v0zM168 388q-8 -1 -15.5 -0.5t-14.5 2.5q-6 2 -12 5.5t-11 7.5q-6 5 -10.5 9.5
t-6.5 9.5t-3.5 11t-1.5 13q0 6 1.5 11.5t3.5 10.5t6.5 10.5t10.5 9.5q5 5 11 8t12 5q7 2 14.5 3.5t15.5 1.5t14.5 -1.5t13.5 -3.5t13 -5t12 -8q5 -4 9 -9.5t7 -10.5t4.5 -10.5t1.5 -11.5q0 -7 -1.5 -13t-4.5 -11t-7 -9.5t-9 -9.5q-6 -4 -12 -7.5t-13 -5.5t-13.5 -3t-14.5 -1
v2v0v0z" />
    <glyph glyph-name="logicalnot" unicode="&#xac;" 
 />
    <glyph glyph-name="radical" unicode="&#x221a;" 
 />
    <glyph glyph-name="florin" unicode="&#x192;" horiz-adv-x="690" 
d="M28 -198l22 76q4 0 7.5 -0.5t7.5 -1.5q3 0 6.5 -0.5t6.5 -1.5q7 -1 13.5 -1.5t11.5 -1.5q3 0 5.5 -0.5t5.5 -0.5q3 -1 5.5 -1h5.5h4.5t4.5 -1h4.5h4.5q8 0 14.5 1t13.5 3q2 0 3.5 1t3.5 2q4 1 7.5 3t6.5 4q4 4 7.5 8.5t6.5 10.5t5.5 12t4.5 14l112 523h-122l14 68h123
l18 85q3 16 8 29.5t12 25.5q8 12 17 22t20 17q11 8 23 13t27 9t32 6t36 2h6.5t6.5 -1q3 0 6.5 -0.5t6.5 -0.5q7 -1 14.5 -1.5t14.5 -1.5q8 -1 15.5 -2.5t16.5 -3.5q3 0 6.5 -1t6.5 -1q6 -2 12.5 -3t13.5 -3l-21 -73q-7 0 -14 1t-12 2q-6 2 -11 2.5t-9 1.5q-5 1 -9 1.5
t-8 0.5t-7.5 0.5t-7.5 1.5h-1.5h-0.5h-0.5h-0.5q-1 0 -1.5 0.5l-0.5 0.5h-1.5h-0.5h-0.5h-0.5h-1.5h-0.5h-1.5h-0.5h-1.5h-1.5h-1.5h-0.5h-1.5h-1.5q-9 0 -17 -1.5t-15 -3.5q-7 -3 -11.5 -6.5t-8.5 -8.5t-7.5 -11t-6.5 -14q-3 -6 -4.5 -12t-3.5 -13q0 -3 -0.5 -5.5
t-1.5 -4.5l-11 -49h124l-15 -68h-125l-117 -533q-4 -16 -9 -31t-12 -27t-14.5 -22t-16.5 -17q-10 -7 -21.5 -12t-24.5 -9q-14 -4 -30 -6t-34 -2h-6.5h-6.5q-4 1 -7 1h-6q-7 0 -14.5 0.5t-15.5 1.5q-9 1 -17 1.5t-16 1.5l-16.5 2l-17.5 2l-1.5 1.5l-0.5 0.5h-0.5h-0.5h-1.5
h-0.5h-1.5h-0.5h-0.5h-0.5h-1.5h-0.5v-1v0v0z" />
    <glyph glyph-name="approxequal" unicode="&#x2248;" 
 />
    <glyph glyph-name="Delta" unicode="&#x2206;" 
 />
    <glyph glyph-name="guillemotleft" unicode="&#xab;" horiz-adv-x="612" 
d="M146 225l185 -225h-110l-184 225l184 225h110l-185 -225v0v0v0zM400 225l185 -225h-110l-184 225l184 225h110l-185 -225v0v0v0z" />
    <glyph glyph-name="guillemotright" unicode="&#xbb;" horiz-adv-x="612" 
d="M212 225l-185 225h110l184 -225l-184 -225h-110l185 225v0v0v0zM466 225l-185 225h110l184 -225l-184 -225h-110l185 225v0v0v0z" />
    <glyph glyph-name="ellipsis" unicode="&#x2026;" horiz-adv-x="1250" 
d="M207 111q8 -1 14.5 -3l13.5 -4q3 -1 6 -2.5t7 -2.5l6 -4l6 -4q5 -4 9 -9.5t7 -10.5t4.5 -10.5t1.5 -11.5q0 -7 -1.5 -13t-4.5 -11t-7 -9.5t-9 -8.5q-3 -2 -6 -3.5t-6 -2.5q-4 -1 -7 -2l-6 -2q-7 -2 -13.5 -3.5t-14.5 -1.5t-15.5 1.5t-14.5 3.5q-4 1 -8 2.5t-8 3.5l-4 2
l-4 2q-5 4 -9.5 8.5t-6.5 9.5q-3 5 -4 11t-1 13q0 6 1 11.5t4 10.5q2 5 6.5 10.5t9.5 9.5q2 2 4 3l4 2q4 3 8 5t8 3q7 2 14.5 3.5t15.5 1.5v2v0v0zM625 111q5 -1 9.5 -2t8.5 -2q2 -1 4.5 -1.5t4.5 -1.5q7 -2 13.5 -5t11.5 -8q6 -4 10 -9.5t6 -10.5q3 -5 5 -10.5t2 -11.5
q0 -7 -2 -13t-5 -11q-2 -5 -6 -9.5t-10 -8.5q-5 -4 -11.5 -6l-13.5 -4q-2 -1 -4.5 -1.5t-4.5 -1.5q-4 -1 -8.5 -1.5t-9.5 -0.5q-9 0 -16.5 1.5t-13.5 3.5q-7 2 -13 4t-11 6q-6 4 -10 8.5t-6 9.5q-3 5 -4 11t-1 13q0 6 1 11.5t4 10.5q2 5 6 10.5t10 9.5q5 5 11 8t13 5
q6 2 13.5 3.5t16.5 1.5v2v0v0zM1042 111q8 -1 14.5 -3l13.5 -4q3 -1 6 -2.5t7 -2.5l6 -4l6 -4q5 -4 9 -9.5t7 -10.5t4.5 -10.5t1.5 -11.5q0 -7 -1.5 -13t-4.5 -11t-7 -9.5t-9 -8.5q-3 -2 -6 -3.5t-6 -2.5q-4 -1 -7 -2l-6 -2q-7 -2 -13.5 -3.5t-14.5 -1.5t-15.5 1.5
t-14.5 3.5q-4 1 -8 2.5t-8 3.5l-4 2l-4 2q-5 4 -9.5 8.5t-6.5 9.5q-3 5 -4 11t-1 13q0 6 1 11.5t4 10.5q2 5 6.5 10.5t9.5 9.5q2 2 4 3l4 2q4 3 8 5t8 3q7 2 14.5 3.5t15.5 1.5v2v0v0z" />
    <glyph glyph-name="Agrave" unicode="&#xc0;" horiz-adv-x="833" 
d="M452 686l381 -686h-125l-113 201h-363l-107 -201h-125l366 686h86v0v0v0zM407 536l-127 -247h265l-138 247v0v0v0zM408 874l84 -147h-69l-140 147h125v0v0v0z" />
    <glyph glyph-name="Atilde" unicode="&#xc3;" horiz-adv-x="833" 
d="M452 686l381 -686h-125l-113 201h-363l-107 -201h-125l366 686h86v0v0v0zM407 536l-127 -247h265l-138 247v0v0v0zM552 863h48q0 -14 -2 -26.5t-6 -23.5q-4 -10 -8.5 -20t-11.5 -18t-15 -14t-17 -10q-3 -1 -6.5 -2.5t-6.5 -2.5q-6 -2 -12.5 -2.5t-13.5 -0.5h-13.5
t-11.5 1q-4 0 -8 0.5t-8 1.5q-2 1 -4 1.5t-4 0.5q-2 1 -3.5 1t-3.5 1q-4 1 -7.5 2t-6.5 2l-10.5 3.5t-9.5 3.5h-2h-2t-2 0.5t-2 0.5h-1.5t-0.5 1q-1 0 -1.5 0.5t-1.5 0.5h-1h-1q-1 1 -2 1.5t-2 0.5t-2.5 0.5t-2.5 1.5h-2t-1 1q-1 0 -2 0.5t-2 0.5h-2t-2 1q-1 0 -2 0.5
t-2 0.5h-2h-1q-1 0 -2 0.5t-2 0.5h-2t-2 1q-1 0 -2 0.5t-2 0.5q-4 1 -7.5 1.5t-7.5 0.5h-4t-3 1h-4h-4q-4 0 -8 -0.5t-8 -1.5t-7.5 -3t-6.5 -4q-2 -1 -3.5 -3t-2.5 -4q-1 -1 -1.5 -2t-1.5 -2q-1 -4 -2 -7.5t-1 -7.5l-52 2l4 25t6 22q4 11 9 20t11 16q6 8 13.5 13t15.5 9
t18 6t21 2h2h2h0.5h1.5q1 -1 2.5 -1h3.5h3.5h2.5q2 -1 3.5 -1h3.5q1 0 2 -0.5t2 -0.5q2 0 4 -0.5t4 -0.5q4 0 7.5 -0.5t7.5 -1.5q3 -1 6 -1.5t6 -1.5q2 -1 5 -1.5t6 -1.5q1 -1 2 -1.5t3 -0.5h3.5h2.5q1 -1 2.5 -1.5t2.5 -0.5h2h1l1 -1v0h1.5h0.5l6 -2l6 -2q2 -1 5 -1.5
t6 -1.5q5 -1 10.5 -2.5t10.5 -3.5q2 -1 4.5 -1.5t5.5 -1.5q2 0 4.5 -0.5t4.5 -0.5t4 -0.5t4 -0.5h4h4h3.5h2.5q3 0 6.5 0.5t5.5 1.5q3 1 4.5 2t3.5 2q1 1 2 1.5t2 1.5q3 2 6 5t4 7q2 3 3 7.5t2 9.5v2v0v0z" />
    <glyph glyph-name="Otilde" unicode="&#xd5;" horiz-adv-x="1028" 
d="M56 341q0 35 7.5 67.5t23.5 63.5q15 30 38.5 58.5t55.5 54.5q31 26 67.5 45.5t77.5 32.5t88 19.5t99 6.5q53 0 100 -6.5t89 -19.5t78.5 -32.5t67.5 -45.5q32 -26 55 -54.5t38 -59.5t23 -64t8 -68q0 -34 -8 -67t-23 -63q-15 -31 -38 -59.5t-53 -54.5q-31 -26 -67.5 -45.5
t-79.5 -32.5t-91 -19t-101 -6q-52 0 -99.5 6t-88.5 19t-77 32.5t-68 45.5q-31 26 -54 54.5t-38 58.5t-22.5 63t-7.5 68v2v0v0zM182 341q0 -29 6 -55.5t18 -49.5q11 -23 29 -44t41 -39q23 -19 49.5 -33t56.5 -23t63 -13.5t68 -4.5q36 0 69 4.5t63 13.5t56.5 23t49.5 33
q23 18 41 39t30 44q11 23 17.5 49t6.5 54t-6.5 53.5t-17.5 48.5q-12 23 -30 44t-41 40q-23 18 -49.5 32t-56.5 23t-63 14t-69 5q-35 0 -68 -5t-63 -14t-56.5 -23t-49.5 -32q-23 -19 -41 -40t-29 -44q-12 -23 -18 -48.5t-6 -53.5v2v0v0zM650 863h47q0 -14 -1.5 -26.5
t-5.5 -23.5q-4 -10 -9 -20t-11 -18q-7 -8 -15 -14t-18 -10q-9 -4 -18.5 -6t-20.5 -2h-6h-6q-4 0 -7 0.5t-6 0.5q-6 0 -12 1.5t-11 2.5q-6 2 -11.5 3.5t-10.5 2.5q-3 1 -5.5 1.5t-4.5 1.5t-4.5 2t-5.5 2h-2h-1q-1 0 -2 0.5t-2 0.5q-2 0 -3 0.5t-2 1.5q-2 0 -3.5 0.5t-2.5 1.5
q-2 0 -3 0.5t-2 1.5h-2t-2 1q-1 0 -2 0.5t-2 0.5h-2t-1 1q-1 0 -2 0.5t-2 0.5h-2h-2t-2 0.5t-2 0.5h-2t-1 1q-1 0 -2 0.5t-2 0.5q-4 1 -7.5 1.5t-7.5 0.5h-4t-3 1h-4h-4q-5 0 -9 -0.5t-8 -1.5t-7.5 -3t-5.5 -4q-3 -2 -5 -5l-4 -6q-2 -4 -3 -7.5t-1 -7.5l-51 2q1 13 3.5 25
t6.5 22q4 11 8.5 20t11.5 16q5 8 12.5 13t16.5 9q8 4 17.5 6t20.5 2h3.5h2.5q2 -1 3.5 -1h3.5h2h2h0.5h1.5q1 -1 2.5 -1h3.5q3 -1 6 -1.5t7 -0.5t7.5 -0.5t7.5 -1.5q2 0 3 -0.5t3 -0.5q1 -1 2.5 -1.5t2.5 -0.5q3 -1 6 -1.5t5 -1.5q1 0 1.5 -0.5t1.5 -0.5q0 -1 0.5 -1h1.5h2
h2h1h2q1 -1 2 -1.5t3 -0.5h1h1v0h1q0 -1 1 -1h2q3 -1 5.5 -2t5.5 -2t5.5 -1.5t5.5 -1.5t5.5 -1.5t5.5 -1.5t5.5 -1.5t5.5 -1.5q5 -1 9.5 -2.5t8.5 -1.5q2 0 4 -0.5t5 -0.5h4h4q5 0 9 0.5t8 1.5l7 3.5t6 3.5l2.5 2.5l2.5 2.5q1 2 2.5 3.5t2.5 3.5t1.5 3.5t1.5 3.5q0 3 0.5 5
t1.5 5v2v0v0z" />
    <glyph glyph-name="OE" unicode="&#x152;" horiz-adv-x="1146" 
d="M1093 682v-88h-348v-205h336v-88h-336v-213h362v-88h-555q-52 0 -100 5.5t-92 16.5t-84 28t-75 40q-36 23 -63 50t-45 58q-17 31 -26 66t-9 74q0 38 8 72t25 65t42 58.5t59 51.5q34 23 72.5 41t82.5 30t92.5 18t101.5 6l552 2v0v0v0zM622 85v512h-71q-46 -1 -86 -6.5
t-74 -15.5t-62.5 -24.5t-51.5 -34.5q-23 -19 -41 -40t-29 -43t-16.5 -45.5t-5.5 -48.5q0 -28 6 -53t19 -48q13 -22 32 -43t44 -39q26 -19 54 -32.5t60 -22.5q31 -9 65.5 -13.5t71.5 -4.5l85 2v0v0v0z" />
    <glyph glyph-name="oe" unicode="&#x153;" horiz-adv-x="1041" 
d="M997 129v-90q-4 -3 -9 -5.5t-9 -5.5q-5 -2 -9.5 -4t-9.5 -4l-21 -8l-22 -8q-11 -3 -25 -5t-29 -3q-15 -2 -32 -3t-36 -1q-18 0 -35 1.5t-32 4.5q-15 2 -28.5 5.5t-27.5 8.5t-26 12t-23 15t-20 18t-17 21q-11 -11 -23 -21t-26 -18q-13 -8 -27.5 -15t-29.5 -12
q-16 -5 -33 -8.5t-34 -5.5q-16 -3 -34 -4.5t-37 -1.5q-31 0 -60 4t-55 10q-26 8 -50 20.5t-46 28.5q-22 17 -38.5 35t-27.5 37q-11 20 -16.5 41t-5.5 44q0 27 5.5 51.5t16.5 46.5q10 22 26 41.5t37 36.5t45.5 29.5t52.5 21.5q27 8 58 12.5t66 4.5q19 0 36.5 -1.5t34.5 -4.5
t32 -7.5t29 -9.5q10 -4 18.5 -8.5l17.5 -9.5q5 -2 9.5 -5t8.5 -6q13 -9 25.5 -19t24.5 -22q8 11 18 21t21 19q10 8 22 15.5t25 13.5q3 2 6.5 3t6.5 3q10 4 20.5 7t21.5 5q14 3 29 4.5t31 1.5q20 0 38.5 -3.5t37.5 -9.5t36 -15.5t33 -21.5q16 -13 28.5 -28.5t19.5 -33.5
q8 -19 11.5 -40.5t3.5 -46.5v-1.5v-0.5v-1.5v-0.5v-1.5v-0.5v-1.5v-0.5v-1.5v-0.5v-1.5v-0.5v-1.5v-0.5v-1.5v-0.5l-350 2v-2v-2v-1.5v-1.5v-1.5v-0.5v-1.5v-0.5l-1.5 -1.5t-0.5 -1.5v-1.5v-1.5v-1.5v-0.5v-1.5v-0.5q0 -18 3 -33.5t10 -29.5t16 -26t21 -23q13 -10 27 -18
t30 -13q15 -5 32 -7.5t36 -2.5h5.5h4.5h4.5h5.5q6 0 11 0.5t9 1.5q3 0 5.5 0.5t4.5 1.5q2 0 4.5 0.5t5.5 1.5q3 0 5.5 0.5t4.5 1.5t4.5 1.5t5.5 1.5t6 1.5t6 1.5q2 1 5 2l6 2q5 2 11.5 5l13.5 6q5 3 11.5 6t13.5 7q3 2 6.5 3.5t6.5 3.5l6.5 4.5l6.5 4.5v2v0v0zM347 378
q-22 -1 -41 -4.5t-36 -9.5t-32 -14.5t-28 -19.5q-13 -12 -23.5 -25t-16.5 -27q-7 -14 -10 -29.5t-3 -32.5q0 -15 3 -29t10 -27q6 -13 16.5 -24.5t24.5 -22.5q13 -11 28 -19.5t32 -13.5q17 -6 35 -8.5t37 -2.5q21 0 40.5 2.5t36.5 8.5q17 5 31 13.5t27 19.5t22 23.5t16 26.5
q5 14 8.5 29.5t3.5 32.5q0 15 -3.5 29.5t-9.5 27.5q-7 14 -16.5 26t-22.5 23t-28 19.5t-31 14.5q-16 5 -33.5 8t-36.5 3v2v0v0zM656 302h229q-1 2 -1.5 4t-0.5 4q-2 6 -3.5 11.5t-4.5 10.5q-4 7 -9.5 13t-12.5 11q-6 5 -13.5 8.5t-17.5 6.5q-9 2 -19.5 3.5t-21.5 1.5
q-12 0 -23 -1.5t-21 -3.5q-2 -1 -4.5 -1.5t-4.5 -1.5q-7 -2 -13.5 -5l-12.5 -6q-8 -5 -15 -11t-12 -13q-6 -7 -10.5 -15.5t-8.5 -17.5v2v0v0z" />
    <glyph glyph-name="endash" horiz-adv-x="625" 
d="M636 285v-64h-647v64h647v0v0v0z" />
    <glyph glyph-name="emdash" unicode="&#x2014;" horiz-adv-x="1250" 
d="M1261 285v-64h-1272v64h1272v0v0v0z" />
    <glyph glyph-name="quotedblleft" unicode="&#x201c;" horiz-adv-x="533" 
d="M193 691v-19q-2 -3 -4 -4.5t-4 -3.5q-1 -1 -2 -1.5t-2 -1.5t-2 -1.5t-2 -1.5l-1.5 -1.5t-2.5 -1.5q-1 -1 -1.5 -2t-1.5 -1l-2 -2t-1 -2l-1.5 -1.5t-0.5 -1.5l-2 -2l-2 -2l-2 -2l-2 -2q-1 -2 -2.5 -3.5t-2.5 -3.5t-2.5 -4t-1.5 -4q-1 -2 -1.5 -4t-0.5 -4q0 -1 -0.5 -2.5
t-0.5 -2.5q-1 -3 -1.5 -5.5t-0.5 -5.5q-1 -4 -1 -8v-8v-1.5v-0.5v0v0v-1.5v-0.5v0v0v-1v0v-1.5v-0.5v-1.5t1 -0.5v-1.5v-0.5v0v0v-1.5v-0.5v0v0v-1v0v-1.5v-0.5v0v0v-1.5v-0.5v0v0v-1v0q8 -1 14.5 -2.5t12.5 -3.5q2 -1 3.5 -2t3.5 -2q4 -2 7.5 -4t6.5 -5q5 -4 8.5 -8.5
t5.5 -9.5q0 -1 0.5 -2.5t1.5 -2.5l2 -8t1 -9q0 -7 -2 -14t-5 -13q-2 -6 -6 -10.5t-9 -8.5t-11.5 -6.5t-13.5 -4.5q-6 -2 -13 -3t-15 -1q-10 0 -18.5 1.5t-16.5 5.5q-7 3 -14 8t-13 12q-5 7 -9.5 14.5t-7.5 15.5t-4 17t-1 19q0 14 2 27t7 25q4 12 11 23t16 21q10 10 21 18.5
t24 15.5q14 8 29 13.5t32 9.5v2v0v0zM466 691v-19l-3.5 -3.5l-2.5 -2.5q-1 0 -1.5 -0.5l-1.5 -1.5t-2 -1.5t-1 -1.5q-1 -1 -2 -1.5t-2 -1.5t-2 -1.5t-2 -1.5q0 -1 -0.5 -1.5t-1.5 -0.5q-1 -1 -1.5 -1h-0.5q-1 -1 -1.5 -2t-0.5 -2q-1 -1 -2 -1.5t-1 -1.5l-2 -2t-1 -2l-2 -2
l-2 -2q-2 -2 -3 -3.5t-2 -3.5q-2 -2 -3 -4t-1 -4q0 -1 -0.5 -1.5t-0.5 -1.5q-1 -1 -1.5 -2.5t-0.5 -2.5q-1 -4 -1.5 -7.5t-0.5 -8.5q-1 -4 -1 -8v-8v-1.5v-0.5v0v0v-1.5v-0.5v0v0v-1v0v-1.5v-0.5v-1.5t1 -0.5v-1.5v-0.5v0v0v-1.5v-0.5v0v0v-1v0v-1.5v-0.5v0v0v-1.5v-0.5v0v0
v-1v0q8 -1 14.5 -2.5t11.5 -3.5l11.5 -6t9.5 -7q5 -4 9 -8.5t5 -9.5q2 -5 3.5 -10.5t1.5 -11.5q0 -7 -1.5 -14t-4.5 -13t-6.5 -10.5t-8.5 -8.5q-6 -4 -12 -6.5t-13 -4.5t-14 -3t-15 -1q-10 0 -18.5 1.5t-16.5 5.5q-7 3 -14 8t-12 12q-6 7 -10.5 14.5t-7.5 15.5q-2 8 -3.5 17
t-1.5 19q0 14 2.5 27t6.5 25t11 23t17 21q9 10 20.5 18.5t24.5 15.5q13 8 28 13.5t33 9.5v2v0v0z" />
    <glyph glyph-name="quotedblright" unicode="&#x201d;" horiz-adv-x="533" 
d="M67 445v19h0.5h1.5t1.5 0.5l0.5 0.5q1 1 2 1.5l3 1.5q0 1 1 1.5l3 1.5l1.5 1.5l1.5 1.5t2 1.5t2 1.5q0 1 1 1.5t2 1.5t1 1.5t1 0.5q1 1 2 2.5t2 2.5q2 2 3 4t3 4q1 1 2.5 3t2.5 4q2 4 3.5 7.5t2.5 7.5q2 4 2.5 8t1.5 8v4t1 4v4.5v4.5v0.5v1.5v0.5v1.5v0v1v0v0v0.5v1.5v0
v0v0.5v1.5q-1 0 -1 0.5v1.5v0.5v1.5v1.5v1.5v1.5v1.5q-7 1 -14.5 2.5t-12.5 3.5q-6 2 -11.5 5.5t-10.5 7.5q-4 4 -7.5 8.5t-5.5 9.5t-3 10.5t-1 11.5q0 8 1 14t4 12q2 6 6.5 10.5t9.5 8.5q2 1 4 2.5t4 2.5l8 4t8 3q7 2 14.5 3t15.5 1q9 0 18 -2t16 -5q8 -4 15 -9t12 -12
q6 -7 10 -14.5t6 -15.5q3 -8 5 -17t2 -18q0 -14 -2.5 -27t-7.5 -25t-11.5 -23t-15.5 -21t-20 -18.5t-25 -16.5q-13 -7 -28.5 -12.5t-32.5 -9.5v2v0v0zM340 445v19h1.5t1.5 1q1 0 1.5 0.5l1.5 1.5l0.5 0.5t1.5 0.5q0 1 1.5 1.5t2.5 1.5l0.5 0.5l1.5 1.5q1 0 1.5 0.5l0.5 0.5
l3.5 3.5l2.5 2.5q2 1 2.5 2t1.5 2l1.5 1.5t0.5 1.5q3 4 6 7.5t6 7.5q1 1 1.5 2.5t0.5 2.5q1 3 2.5 5.5t1.5 4.5l2 8l2 8v4t1 4v4.5v4.5v0.5v1.5v0.5v1.5v0v1v0v0v0.5v1.5v0v0v0.5v1.5q-1 0 -1 0.5v1.5v0.5v1.5v1.5v1.5v1.5v1.5q-7 1 -14.5 2.5t-13.5 3.5q-2 1 -3.5 1.5
t-3.5 1.5q-4 2 -7.5 4.5t-6.5 5.5q-4 4 -8 8.5t-6 9.5q-1 5 -2.5 10.5t-1.5 11.5q0 8 1.5 14t3.5 12t6.5 10.5t10.5 8.5q5 4 11 7t12 5q7 2 14.5 3t15.5 1q10 0 18.5 -2t15.5 -5q8 -4 15 -9t13 -12q5 -7 9 -14.5t7 -15.5t4.5 -17t1.5 -18q0 -14 -2.5 -27t-7.5 -25
q-4 -12 -11 -23t-15 -21q-10 -10 -21 -18.5t-24 -16.5q-13 -7 -28.5 -12.5t-32.5 -9.5v2v0v0z" />
    <glyph glyph-name="quoteleft" unicode="&#x2018;" horiz-adv-x="273" 
d="M200 691v-19q-3 -3 -5 -4.5t-4 -3.5q-1 -1 -2 -1.5t-2 -1.5t-2 -1.5t-2 -1.5l-1.5 -1.5l-1.5 -1.5l-2 -2t-2 -1l-0.5 -0.5t-0.5 -1.5q-1 0 -1.5 -0.5t-0.5 -1.5l-1.5 -1.5t-0.5 -1.5l-2 -2l-2 -2l-2 -2l-2 -2t-1.5 -2t-0.5 -2l-1.5 -1.5l-1.5 -1.5l-2 -4t-1 -4l-2 -4
t-1 -4q-1 -4 -1.5 -7.5t-0.5 -8.5q-1 -4 -1.5 -8t-0.5 -8v-1.5v-0.5v0v0v-1.5v-0.5v0v0v-1v0v-1.5v-0.5q0 -1 0.5 -1.5t1.5 -0.5v-1.5v-0.5v0v0v-1.5v-0.5v0v0v-1v0v-1.5v-0.5v0v0v-1.5v-0.5v0v0v-1v0q8 -1 14 -2.5t12 -3.5q2 -1 3.5 -2t3.5 -2q4 -2 7.5 -4t6.5 -5
q5 -4 8.5 -8.5t5.5 -9.5q0 -1 0.5 -2.5t1.5 -2.5l2 -8t1 -9q0 -7 -2 -14t-4 -13q-3 -6 -6.5 -10.5t-8.5 -8.5q-3 -2 -6 -3.5t-6 -3.5q-4 -1 -7 -2l-6 -2q-7 -2 -14 -3t-15 -1q-10 0 -18.5 1.5t-16.5 5.5q-7 3 -14 8t-12 12q-6 7 -10.5 14.5t-7.5 15.5t-4 17t-1 19
q0 14 2.5 27t6.5 25t11 23t16 21q10 10 21 18.5t24 15.5q14 8 29 13.5t33 9.5v2v0v0z" />
    <glyph glyph-name="quoteright" unicode="&#x2019;" horiz-adv-x="273" 
d="M73 445v19h2.5t1.5 1t2.5 1.5t2.5 1.5q0 1 1 1.5l3 1.5q1 1 2 1.5t2 1.5t1 1.5t1 0.5l2 2l2 2l3.5 3.5t2.5 3.5q3 4 6 7.5t5 7.5t4 7.5t3 7.5t1.5 8t1.5 8q0 2 0.5 4t0.5 4t0.5 4.5t0.5 4.5v0.5v1.5v0.5v1.5v0v1v0v0v0.5v1.5v0v0v0.5v1.5q-1 0 -1.5 0.5t-0.5 1.5v0.5v1.5
v1.5v1.5v1.5v1.5q-7 1 -14.5 2.5t-12.5 3.5q-6 2 -11 5.5t-10 7.5t-8.5 8.5t-5.5 9.5t-3 10.5t-1 11.5q0 8 1 14t4 12q2 6 6.5 10.5t9.5 8.5q2 1 4 2.5t4 2.5l8 4t8 3q7 2 14.5 3t15.5 1q10 0 18.5 -2t15.5 -5q8 -4 15 -9t12 -12q6 -7 10 -14.5t7 -15.5q2 -8 4 -17t2 -18
q0 -14 -2.5 -27t-7.5 -25q-4 -12 -11 -23t-15 -21q-10 -10 -21 -18.5t-24 -16.5q-13 -7 -29 -12.5t-33 -9.5v2v0v0z" />
    <glyph glyph-name="divide" unicode="&#xf7;" 
 />
    <glyph glyph-name="lozenge" unicode="&#x25ca;" 
 />
    <glyph glyph-name="ydieresis" unicode="&#xff;" horiz-adv-x="547" 
d="M547 449l-397 -679h-124l191 326l-217 353h126l151 -253l145 253h125v0v0v0zM158 628q3 -1 6 -1.5t6 -1.5q2 -1 5 -1.5t6 -1.5q5 -1 9.5 -3.5l9.5 -5.5q4 -4 6.5 -7.5t4.5 -7.5q0 -1 0.5 -2t1.5 -2q1 -4 2 -7.5t1 -6.5q0 -4 -1 -7.5t-2 -6.5q-1 -1 -1.5 -2t-0.5 -2
q-2 -4 -4.5 -8t-6.5 -7q-5 -4 -9.5 -6.5t-9.5 -4.5q-3 -1 -6 -1.5t-5 -0.5q-3 -1 -6 -1h-6q-6 0 -11.5 1l-10.5 2q-6 2 -10.5 4.5t-8.5 6.5q-4 3 -8 7t-6 8q-1 4 -2 8.5t-1 9.5t1 9.5t2 8.5q2 4 6 7.5t8 7.5q4 3 8.5 5.5t10.5 3.5q5 2 10.5 3t11.5 1v2v0v0zM391 628
q3 -1 5.5 -1.5t5.5 -1.5t5.5 -1.5t5.5 -1.5q5 -1 10 -3.5t9 -5.5q4 -4 7 -7.5t4 -7.5q2 -4 3.5 -8.5t1.5 -9.5t-1.5 -9.5t-3.5 -8.5q-1 -4 -4 -8t-7 -7q-4 -4 -9 -6.5t-10 -4.5q-3 -1 -5.5 -1.5t-5.5 -0.5q-3 -1 -5.5 -1h-5.5q-7 0 -12.5 1l-10.5 2q-5 2 -9.5 4.5t-8.5 6.5
q-5 3 -8.5 7t-5.5 8t-3 8.5t-1 9.5t1 9.5t3 8.5t5.5 7.5t8.5 7.5q4 3 8.5 5.5t9.5 3.5q5 2 10.5 3t12.5 1v2v0v0z" />
    <glyph glyph-name="Ydieresis" unicode="&#x178;" horiz-adv-x="755" 
d="M376 447l231 235h148l-317 -322v-360h-122v361l-316 321h147l229 -235v0v0v0zM262 848q3 -1 6 -1.5t6 -1.5q2 -1 5 -1.5t6 -1.5q5 -1 9.5 -3.5t8.5 -5.5q4 -4 7 -7.5t5 -7.5q0 -1 0.5 -2t1.5 -2q1 -4 2 -7.5t1 -6.5q0 -4 -1 -7.5t-2 -6.5q-1 -1 -1.5 -2t-0.5 -2
q-2 -4 -5 -8t-7 -7q-4 -4 -8.5 -6.5t-9.5 -4.5q-3 -1 -6 -1.5t-5 -0.5q-3 -1 -6 -1h-6q-7 0 -12 1l-10 2q-6 2 -10.5 4.5t-8.5 6.5q-4 3 -8 7t-6 8q-1 4 -2.5 8.5t-1.5 9.5t1.5 9.5t2.5 8.5q2 4 6 7.5t8 7.5q4 3 8.5 5.5t10.5 3.5q5 2 10 3t12 1v2v0v0zM495 848
q3 -1 5.5 -1.5t5.5 -1.5t5.5 -1.5t5.5 -1.5q2 -1 4.5 -2t5.5 -2q2 -1 4.5 -2t4.5 -3q4 -4 7 -7.5t4 -7.5q2 -4 3.5 -8.5t1.5 -9.5t-1.5 -9.5t-3.5 -8.5q-1 -4 -4 -8t-7 -7q-2 -2 -4.5 -3.5t-4.5 -3.5q-3 -1 -5.5 -2t-4.5 -2q-3 -1 -5.5 -1.5t-5.5 -0.5q-3 -1 -5.5 -1h-5.5
q-7 0 -12.5 1l-10.5 2q-5 2 -10 4.5t-9 6.5q-4 3 -7.5 7t-5.5 8t-3 8.5t-1 9.5t1 9.5t3 8.5t5.5 7.5l7.5 7.5q4 3 9 5.5t10 3.5q5 2 10.5 3t12.5 1v2v0v0z" />
    <glyph glyph-name="fraction" unicode="&#x2215;" horiz-adv-x="247" 
d="M450 691l-568 -718h-84l568 718h84v0v0v0z" />
    <glyph glyph-name="currency" unicode="&#xa4;" horiz-adv-x="690" 
d="M560 226l83 -67l-71 -57l-84 67l-14.5 -8.5t-15.5 -7.5l-16.5 -6t-18.5 -5q-4 -1 -9 -2.5t-10 -2.5t-9.5 -1.5t-9.5 -1.5t-10 -1.5t-10 -0.5h-10h-10q-11 0 -22 0.5t-22 1.5q-10 2 -19.5 3.5t-18.5 4.5q-9 2 -17 5l-16 6l-14.5 6.5t-14.5 7.5l-84 -65l-71 57l84 67
q-5 4 -9.5 9t-8.5 11t-7.5 13.5l-6.5 14.5q-3 6 -4.5 11.5t-3.5 11.5q0 2 -0.5 4t-1.5 4q-1 8 -1.5 16.5t-0.5 17.5q0 8 0.5 16.5t1.5 16.5q2 8 5 16.5t7 15.5q2 8 5.5 14.5t7.5 12.5l8 12t9 11l-84 69l71 57l84 -67l12 5l14 6q4 2 8 3t9 3q4 1 9 2.5t10 2.5q3 1 6.5 1.5
t6.5 1.5q6 1 12.5 2.5t13.5 2.5q11 2 21.5 2.5t21.5 0.5h10t10 -1q5 0 10 -0.5t10 -1.5t9.5 -1.5t9.5 -1.5q4 -1 9 -2t9 -2t8.5 -2.5t8.5 -2.5q4 -2 8.5 -3t8.5 -3l16.5 -6.5t15.5 -7.5l84 69l71 -57l-83 -67q1 -2 2.5 -4t2.5 -4t2.5 -3.5t2.5 -3.5q1 -1 2 -3t2 -3
q1 -2 2 -3.5t2 -3.5q2 -2 2.5 -4t1.5 -4q0 -1 1 -2.5t3 -3.5q0 -2 0.5 -4t1.5 -4q1 -1 1.5 -2l0.5 -1q1 -1 1.5 -2t0.5 -2q0 -2 0.5 -4t1.5 -4t1.5 -4t0.5 -4l2 -8l2 -8t1.5 -8t0.5 -7v-3.5t1 -3.5v-2.5v-3.5v-2v-2v-2v-2q-1 -1 -1 -2.5v-2.5v-2v-2q-1 -2 -1.5 -4t-0.5 -4
v-4v-4l-2 -6t-1 -6q-1 -3 -2 -5.5t-2 -5.5q-1 -6 -4 -11.5l-6 -10.5q-2 -6 -5 -10.5t-6 -9.5q-4 -4 -7 -8.5t-5 -8.5v2v0v0zM345 468q-17 -1 -32.5 -4t-29.5 -8q-13 -4 -26.5 -11t-24.5 -16q-12 -10 -20.5 -20.5t-14.5 -21.5q-5 -11 -8 -23t-3 -25t3 -25.5t8 -23.5
q6 -11 14.5 -21.5t20.5 -19.5q11 -10 24.5 -16.5t26.5 -11.5q14 -4 29.5 -6.5t32.5 -2.5q16 0 31 2.5t29 6.5q14 5 27 11.5t25 16.5q11 9 19.5 19.5t14.5 21.5q5 11 8.5 23.5t3.5 25.5t-3.5 25t-8.5 23q-6 11 -14.5 21.5t-19.5 20.5q-12 9 -25 16t-27 11q-14 5 -29 7.5
t-31 2.5v2v0v0z" />
    <glyph glyph-name="guilsinglleft" unicode="&#x2039;" horiz-adv-x="391" 
d="M153 225l185 -225h-110l-183 225l183 225h110l-185 -225v0v0v0z" />
    <glyph glyph-name="guilsinglright" unicode="&#x203a;" horiz-adv-x="391" 
d="M237 225l-185 225h110l184 -225l-184 -225h-110l185 225v0v0v0z" />
    <glyph glyph-name="fi" unicode="&#xf001;" horiz-adv-x="625" 
d="M336 449v-75h-125v-374h-111v374h-84v75h84q-1 30 2.5 57t10.5 49q8 23 19.5 41.5t27.5 33.5q16 14 35 25.5t41 18.5q22 8 47 11.5t54 3.5q23 0 44.5 -2.5t40.5 -7.5q19 -4 35 -11.5t30 -17.5t25.5 -21t18.5 -25q8 -13 11.5 -27.5t4.5 -30.5l-111 2q-4 8 -8.5 14.5
t-9.5 12.5q-2 2 -3.5 4t-3.5 3q-3 4 -6.5 7t-7.5 5q-7 4 -14 7t-15 4q-7 2 -15.5 3t-17.5 1q-16 0 -30 -2t-25 -7q-11 -4 -21 -10.5t-18 -14.5q-8 -9 -14 -19.5t-10 -23.5t-5.5 -27.5t-1.5 -31.5v-1.5v-1.5v-2v-1v-2v-2v-1.5v-1.5v-1.5v-1.5v-2v-1v-2v-2v-0.5t1 -0.5v-1.5
v-0.5l125 2v0v0v0zM547 449v-449h-111v449h111v0v0v0z" />
    <glyph glyph-name="fl" unicode="&#xf002;" horiz-adv-x="625" 
d="M378 682v-82h-1.5t-1.5 1q-2 0 -3 0.5t-2 1.5h-3t-2 1h-2t-1 1q-1 0 -2 0.5t-2 0.5h-2t-1 1h-2h-2h-2t-2 1h-1h-1h-2t-2 1h-2h-2h-2h-1h-2h-2q-17 0 -32 -2t-26 -6t-20 -9.5t-16 -13.5t-12 -17t-9 -20q-4 -10 -5.5 -22t-1.5 -26v-44h125v-75h-125v-374h-111v374h-86v75
h86v33q0 15 1 29t4 27q2 13 6 24t8 20q5 9 11 17.5t13 16.5q6 8 13.5 15t16.5 14q6 5 13.5 10t14.5 9q5 3 10.5 5t11.5 5q3 1 5.5 2t5.5 2q8 2 16.5 4.5t18.5 3.5q9 2 19 2.5t20 0.5h4h4q2 -1 4.5 -1h4.5h4h4q3 -1 5 -1h5q5 -1 9.5 -1.5t8.5 -1.5q3 -1 5.5 -1.5t4.5 -0.5
q2 -1 4.5 -1.5t5.5 -0.5v2v0v0zM545 682v-682h-112v682h112v0v0v0z" />
    <glyph glyph-name="daggerdbl" unicode="&#x2021;" horiz-adv-x="612" 
d="M305 691q8 -1 15 -3t12 -5q6 -3 10 -7.5t8 -9.5q1 -3 2.5 -6l2.5 -5q1 -3 2.5 -6t2.5 -6t1.5 -6t1.5 -7q0 -3 0.5 -6.5t1.5 -6.5v-1.5v-1.5v-1.5t1 -0.5v-2v-1v-1.5v-0.5v-2v-2v-2v-2v-4.5v-4.5q-1 -2 -1 -4.5v-4.5q0 -3 -0.5 -6.5t-1.5 -6.5q0 -2 -0.5 -3.5t-0.5 -3.5
q0 -1 -0.5 -2.5t-0.5 -2.5q-1 -2 -1 -3v-3q-1 -1 -1.5 -2.5t-0.5 -2.5v-3v-3q0 -1 -0.5 -2.5t-0.5 -2.5q-1 -2 -1 -3v-3q0 -1 -0.5 -2t-0.5 -2l-0.5 -0.5l-0.5 -0.5q0 -2 -0.5 -3t-0.5 -3q-1 -1 -1.5 -2t-0.5 -2v-2v-2l-0.5 -0.5t-0.5 -1.5l-1.5 -1.5t-0.5 -1.5v-2v-2
q-1 -2 -1.5 -4t-0.5 -4q-1 -2 -1 -4v-4q-2 -4 -3 -7.5t-2 -6.5q-1 -4 -2 -7l-2 -6q0 -2 -0.5 -3.5t-1.5 -3.5q-1 -1 -1.5 -2.5t-0.5 -3.5q-1 -3 -1.5 -5.5t-0.5 -4.5h1.5h1.5q2 0 2.5 0.5l1.5 1.5h2.5t2.5 1q1 0 2.5 0.5t2.5 1.5q4 1 7.5 2t7.5 2t8.5 2t9.5 2h2t2 1l1 0.5
t2 0.5q2 0 4.5 0.5t5.5 1.5h4.5t4.5 1q2 0 4.5 0.5t5.5 1.5h2t2 1h3.5h2.5q2 0 4.5 0.5t5.5 1.5h4.5h5.5q2 0 4.5 0.5t5.5 1.5q5 1 9.5 1.5t9.5 0.5h4.5t4.5 1h4.5h4.5h8t8 -1q4 0 8 -0.5t8 -1.5q5 -1 9.5 -2.5t8.5 -2.5q2 -1 4.5 -1.5t4.5 -1.5q7 -3 11.5 -6t8.5 -8
q3 -4 4.5 -10t1.5 -12q0 -5 -1.5 -9.5t-4.5 -7.5q-3 -4 -6.5 -7t-8.5 -5q-5 -3 -10.5 -4.5t-10.5 -3.5q-6 -1 -12 -2.5t-12 -2.5h-1.5h-2.5h-1.5h-0.5q-2 -1 -3 -1h-1h-1.5h-0.5h-2h-1h-2h-2h-1.5h-0.5h-1.5h-1.5h-8.5h-9.5t-9.5 0.5t-9.5 1.5h-2.5t-3.5 1h-2h-2
q-2 0 -3.5 0.5t-2.5 0.5t-1.5 0.5t-1.5 0.5h-2.5t-2.5 1h-3h-2q-3 0 -5.5 0.5t-4.5 1.5h-2.5t-2.5 1q-2 0 -3 0.5t-3 0.5q-3 0 -6 0.5t-5 1.5h-2t-1 1h-2h-2h-1.5t-0.5 1q-1 0 -1.5 0.5t-1.5 0.5h-0.5h-1.5h-1.5h-2.5q-1 0 -2.5 0.5t-2.5 1.5q-3 0 -5.5 0.5t-4.5 1.5
q-3 0 -5.5 0.5t-4.5 1.5q-3 0 -5.5 0.5t-4.5 1.5h-2t-1 1q-1 0 -2 0.5t-2 0.5v-4.5v-4.5v-5.5v-4.5q0 -4 0.5 -9.5t1.5 -10.5q0 -3 0.5 -5.5t1.5 -5.5q1 -2 1.5 -5t0.5 -6l2 -11.5l2 -10.5v-2.5t1 -3.5v-2.5v-3.5q0 -3 0.5 -5.5t1.5 -4.5v-6v-6q0 -2 0.5 -3.5t1.5 -3.5
q0 -1 0.5 -1.5t0.5 -1.5q1 -6 1.5 -11t0.5 -10q0 -3 0.5 -5.5t0.5 -4.5t0.5 -4.5t0.5 -4.5q0 -3 -0.5 -5.5t-0.5 -4.5q0 -3 -0.5 -5.5t-0.5 -4.5q0 -5 -0.5 -10.5t-1.5 -10.5q0 -1 -0.5 -2t-0.5 -2q-1 -2 -1.5 -4t-0.5 -4v-5.5v-4.5q-1 -3 -1.5 -6t-0.5 -6v-2.5v-2.5
q-1 -2 -1 -3v-2l-2 -12t-2 -11q0 -3 -0.5 -6t-1.5 -5q-1 -3 -1.5 -5.5t-0.5 -5.5q-1 -6 -1.5 -11.5t-0.5 -10.5v-9.5v-9.5h1.5h1.5q2 0 2.5 0.5l1.5 1.5h0.5h1.5t1.5 0.5l0.5 0.5q1 0 2 0.5l3 1.5q3 1 6.5 1.5t7.5 1.5t8 1.5t8 1.5h2t2 1l1 0.5t2 0.5h2.5t2.5 1q1 0 2.5 0.5
t2.5 0.5h2h2t2 0.5t2 0.5q2 0 4.5 0.5t5.5 1.5q5 1 10.5 1.5t10.5 1.5q4 1 7.5 1.5t6.5 0.5q2 0 3.5 0.5t3.5 0.5h5.5t4.5 1h4.5h4.5h3.5h2.5h2t1 1h5h4h0.5h1.5h1h2q0 -1 0.5 -1h1.5h1h2h2h3h2h2h1h2l12 -2t12 -3q5 -2 10.5 -4.5t10.5 -4.5q5 -3 8.5 -6t6.5 -7t4.5 -7.5
t1.5 -8.5q0 -7 -1.5 -12t-5.5 -10q-4 -4 -8.5 -8t-11.5 -6t-13.5 -3.5t-14.5 -1.5q-7 -1 -15.5 -1.5t-16.5 -0.5h-3h-3h-2h-1q-3 1 -5 1h-4h-4.5h-4.5q-2 1 -4.5 1h-4.5h-5.5h-5.5t-5.5 0.5t-5.5 0.5h-5.5t-4.5 1q-2 0 -4.5 0.5t-5.5 0.5h-2.5t-2.5 1q-1 0 -2.5 0.5
t-2.5 0.5h-2t-1 1q-1 0 -2 0.5t-2 0.5h-5.5t-4.5 1h-2t-2 1q-1 0 -2 0.5t-2 0.5q-4 1 -8.5 2t-8.5 2t-7.5 2t-7.5 2h-0.5h-0.5h-1.5h-0.5q-1 0 -1 0.5v1.5h-1.5h-0.5h-1.5t-0.5 1h-1v0h-1.5h-2.5q-1 0 -1.5 0.5l-1.5 1.5q0 -2 0.5 -4.5t1.5 -4.5q0 -1 0.5 -2.5t1.5 -2.5
l1.5 -3t0.5 -2v-1.5t1 -0.5v-1.5v-0.5l1 -1.5t2 -2.5v-3.5v-2.5q0 -2 0.5 -3.5t1.5 -2.5v-0.5t1 -1.5v-0.5v-1.5t0.5 -1.5t0.5 -1.5h0.5h0.5q0 -1 0.5 -1.5l0.5 -0.5v-2v-2q0 -2 0.5 -3.5t1.5 -2.5q0 -2 0.5 -3.5t1.5 -2.5q0 -1 0.5 -2t0.5 -2v-3t1 -3q0 -1 0.5 -2.5
t0.5 -2.5q0 -2 0.5 -3t0.5 -3l0.5 -0.5l0.5 -0.5q0 -1 0.5 -2t0.5 -2v-3t1 -3q0 -1 0.5 -2.5t0.5 -2.5v-3v-3q0 -1 0.5 -2.5t1.5 -2.5v-3t1 -3q0 -1 0.5 -2.5t0.5 -2.5q0 -2 0.5 -3.5t0.5 -3.5q1 -3 1.5 -6.5t0.5 -6.5v-4.5t1 -4.5v-4v-4v-1.5v-1.5v-1v-2v-0.5v-1.5v-1.5
v-1.5v-1.5v-1.5v-1.5v-1.5q-1 -1 -1 -1.5v-1.5v-1.5v-1.5q-1 -3 -1.5 -6t-1.5 -7l-2 -6l-2 -6q-1 -6 -4 -11.5l-6 -10.5q-4 -5 -8 -9t-9 -7q-1 -1 -2.5 -1.5t-3.5 -1.5q-4 -1 -8.5 -2t-10.5 -1q-7 0 -14 1.5t-12 3.5q-6 3 -10.5 7t-7.5 9q-3 4 -4.5 8t-3.5 8q0 2 -0.5 3
l-1.5 3q0 1 -0.5 2.5t-1.5 3.5q-1 4 -2 8.5t-1 9.5q-1 1 -1 2.5v3.5v2.5v3.5v2.5v3.5v2v2v4.5v4.5v5.5v4.5v4.5t1 4.5q0 3 0.5 5.5t0.5 4.5q2 5 2.5 10t1.5 10t2.5 10t2.5 10q0 2 0.5 4.5t1.5 4.5t1.5 4t0.5 4l2 8l2 8l2 8t3 8q1 4 2 7.5t3 5.5v2.5v2.5q0 2 0.5 3.5t1.5 2.5
q0 2 1 3.5t2 2.5q0 2 0.5 3.5t1.5 2.5h-0.5h-0.5l-1 -1v0h-1.5h-0.5q-1 -1 -1.5 -1h-0.5h-0.5h-0.5h-1.5h-0.5h-0.5h-0.5l-1 -1v0h-1v0q-1 -1 -2 -1.5l-1 -0.5h-1.5h-0.5q-2 -1 -4 -1.5t-4 -0.5q-3 -1 -5 -1.5t-4 -0.5l-8 -2t-9 -2q-1 0 -3 -0.5t-3 -1.5q-3 0 -6 -0.5
t-6 -1.5q-4 -1 -8.5 -1.5t-8.5 -1.5q-6 -1 -11 -1.5t-10 -0.5q-3 0 -5.5 -0.5t-5.5 -0.5h-4.5h-4.5h-5.5t-5.5 -1h-4.5h-4.5h-5t-5 -1h-4h-4q-8 0 -15.5 0.5t-15.5 1.5q-7 0 -14 1.5t-14 3.5q-6 2 -11 6t-7 8q-4 5 -5.5 10t-1.5 12q0 5 1.5 9t3.5 8t6.5 7t10.5 6q5 2 10 4.5
t12 3.5q6 2 12 3t13 2h2.5h2.5h2.5h1.5h1.5h0.5h0.5h1.5h0.5h0.5h1t3 1h0.5h1.5h1h2h2.5h3.5q2 -1 4 -1h5q4 0 9 -0.5t11 -1.5q5 -1 9.5 -1.5t10.5 -1.5q3 0 5.5 -0.5t5.5 -0.5q3 -1 5.5 -1.5t5.5 -0.5q2 -1 4.5 -1.5t4.5 -0.5h2h2q2 -1 3.5 -1h2.5t2 -0.5t2 -0.5q0 -1 1 -1
h2t2.5 -0.5t2.5 -0.5h2.5h2.5t1.5 -0.5t1.5 -0.5q0 -1 0.5 -1h1.5h2h2q1 -1 2 -1h2q1 -1 2 -1.5t3 -0.5h1.5h1.5q1 -1 1.5 -1h1.5q3 -1 6 -1.5t4 -0.5q2 -1 4.5 -1.5t5.5 -0.5q-1 2 -1.5 6t-0.5 8q0 3 -0.5 6.5t-1.5 6.5q0 2 -0.5 4t-0.5 4q-1 3 -1.5 6t-0.5 6v6v7l-2 6
t-1 6v3.5v3.5q-1 1 -1 3v4v0.5v1.5v1v2q-1 0 -1 0.5v1.5v1.5v1.5v1.5v1.5v1v2q-1 0 -1.5 0.5t-0.5 1.5v1.5v1.5q-1 5 -1.5 10.5t-0.5 9.5q0 2 -0.5 3.5t-0.5 2.5t-0.5 2t-0.5 2q0 2 -0.5 4.5t-0.5 4.5q-1 5 -1 8.5v6.5v6v5v8.5v9.5t1 10l2 10t1.5 10.5t1.5 11.5q2 5 2.5 11
t1.5 12v0v0v0v1v0v0v0.5v1.5v2t1 3v2.5v2.5q0 2 0.5 3t0.5 3l0.5 0.5l0.5 0.5q0 1 0.5 2t0.5 2v4.5v5.5v3t1 3q0 1 0.5 2.5t0.5 2.5q2 5 2.5 10.5t0.5 9.5v4t1 5v4v4q-1 0 -2 -0.5l-1 -0.5q-1 -1 -2 -1h-2h-2h-1q-1 -1 -1.5 -1h-0.5h-1.5h-0.5q-1 -1 -1.5 -1h-0.5h-0.5h-0.5
h-1.5h-0.5q-1 -1 -2 -1.5l-1 -0.5h-2h-2t-2 -0.5t-2 -0.5q-1 -1 -2 -1h-2h-1h-1h-1v0q-1 -1 -2 -1h-1q-1 0 -2 -0.5l-1 -0.5q-1 -1 -2 -1h-2h-2h-2q-1 -1 -2 -1h-2q-4 -1 -7.5 -1.5t-7.5 -1.5t-7.5 -1.5t-7.5 -1.5q-5 -1 -10 -1.5t-10 -1.5q-4 -1 -9 -1.5t-10 -0.5
q-4 -1 -8.5 -1.5t-9.5 -0.5h-9.5h-8.5h-2.5h-3.5h-3h-2h-0.5h-0.5h-1.5h-0.5h-1.5t-0.5 1h-3h-1h-1.5h-0.5q-7 1 -13.5 2.5t-11.5 2.5q-6 2 -11.5 3.5t-10.5 4.5q-5 2 -9 5t-6 7q-2 3 -3.5 7.5t-1.5 9.5q0 7 1.5 13t5.5 10q4 5 8.5 8.5t11.5 5.5q6 2 13.5 4t14.5 3
q8 2 16.5 2.5t17.5 0.5h3.5h3.5q2 -1 4 -1h4q3 0 7 -0.5t8 -0.5q1 0 2.5 -0.5t2.5 -0.5q3 0 6.5 -1t7.5 -1q2 0 3.5 -0.5t3.5 -0.5q3 0 6 -0.5t6 -0.5q2 -1 5 -1.5t6 -0.5q1 0 2 -0.5t2 -0.5q0 -1 1 -1h2t2.5 -0.5t2.5 -0.5h2.5h2.5t2 -0.5t2 -0.5q1 -1 2 -1h2t2.5 -0.5
t3.5 -1.5h1.5h1.5t2 -0.5t2 -0.5q0 -1 1 -1h2t2 -0.5t2 -0.5h2h2t1 -0.5t1 -0.5t2 -0.5t2 -0.5t2 -0.5t2 -0.5q0 -1 1 -1h2t1.5 -0.5t1.5 -0.5q0 -1 0.5 -1h1.5h2h2q0 -1 1 -1h2v0h1q0 -1 0.5 -1h0.5h1h2v-1.5t1 -0.5h0.5h1.5v0v1q-1 0 -1 0.5v0.5v0.5v1.5h-1.5t-0.5 1v0.5
v1.5l-2 2t-1 2v2.5v2.5q-1 4 -2.5 8t-2.5 8t-2.5 8.5t-2.5 9.5t-2.5 9.5t-2.5 8.5q-1 5 -2.5 10t-2.5 10q-1 3 -1.5 6t-1.5 6q-1 2 -1.5 5t-0.5 6t-0.5 6t-1.5 6q0 2 -0.5 5t-1.5 6q-1 5 -1.5 10.5t-0.5 10.5v9.5v8.5v2v2v3.5v2.5v1.5v1.5v1t1 2v0.5v1.5v1.5v1.5q1 4 2 7
t2 7q0 2 1 3.5t1 3.5q1 1 1.5 2.5t0.5 2.5q2 4 3.5 8t4.5 8q3 5 7 8.5t10 6.5q5 2 11.5 3.5t13.5 1.5v2v0v0z" />
    <glyph glyph-name="periodcentered" unicode="&#x2219;" horiz-adv-x="325" 
d="M162 405q8 -1 14.5 -3l13.5 -4q3 -1 6 -2.5t7 -2.5l6 -4l6 -4q5 -4 9 -9.5t7 -10.5t4.5 -10.5t1.5 -11.5q0 -7 -1.5 -13t-4.5 -11t-7 -9.5t-9 -9.5l-6 -4l-6 -4q-4 -2 -7 -3l-6 -2q-7 -2 -13.5 -3t-14.5 -1t-15.5 1t-14.5 3q-4 1 -8 3l-8 4q-2 2 -4 3.5t-4 2.5l-9.5 9.5
t-6.5 9.5q-3 5 -4 11t-1 13q0 6 1 11.5t4 10.5q2 5 6.5 10.5t9.5 9.5q2 2 4 3l4 2q4 3 8 5t8 3q7 2 14.5 3.5t15.5 1.5v2v0v0z" />
    <glyph glyph-name="quotesinglbase" unicode="&#x201a;" 
 />
    <glyph glyph-name="quotedblbase" unicode="&#x201e;" horiz-adv-x="533" 
d="M80 -115v19q1 2 1.5 2.5l1.5 1.5q1 0 1.5 0.5t1.5 0.5q0 1 0.5 1.5t1.5 0.5q0 1 1.5 1.5t2.5 1.5l0.5 0.5t1.5 0.5l1.5 1.5l0.5 0.5q1 1 2 1.5t2 1.5q0 1 0.5 2t1.5 1q0 1 0.5 1.5t1.5 0.5l1.5 1.5l0.5 0.5q0 1 0.5 1.5l1.5 1.5l2 2l2 2q0 1 1 2l2 2q1 2 2 3.5t3 3.5
q1 2 1.5 4t1.5 4q0 1 0.5 2.5t1.5 3.5l0.5 0.5t0.5 1.5q1 4 2 7.5t2 8.5v4t1 4v4v4v1.5v0.5v0v0v1.5v0.5v0v0v1v0v1.5v0.5v0v0h-1v1v0.5v1.5v1.5v1.5v1.5v1.5q-7 1 -14.5 2.5t-13.5 3.5q-2 1 -3.5 1.5t-3.5 1.5q-4 2 -7.5 4.5t-6.5 5.5q-4 4 -8 8.5t-6 9.5q-1 5 -2.5 10.5
t-1.5 11.5q0 8 1.5 14t3.5 12t6.5 10.5t10.5 8.5q5 4 11 7t12 5q7 2 14.5 3t15.5 1q10 0 18.5 -2t15.5 -5q8 -4 15 -9t13 -12q5 -7 9 -14.5t7 -15.5t4.5 -17t1.5 -18q0 -14 -2.5 -26.5t-7.5 -23.5q-4 -11 -11 -22t-15 -21q-10 -10 -21 -18.5t-24 -15.5q-13 -8 -28.5 -13.5
t-32.5 -9.5v-1v0v0zM353 -115v19l2.5 2.5l1.5 1.5t2.5 1.5t2.5 1.5q0 1 1 1.5l3 1.5q1 1 2 1.5t2 1.5l1.5 1.5l1.5 1.5q0 1 0.5 1.5l1.5 1.5h0.5h0.5l2 2l2 2q0 1 0.5 1.5l1.5 1.5q2 1 2.5 2.5t1.5 3.5q1 0 1.5 0.5t0.5 1.5q1 1 1.5 2t1.5 2q0 1 0.5 1.5l1.5 1.5q2 2 2.5 4
t1.5 4q0 2 1 4l2 4q1 4 1.5 7.5t1.5 8.5q0 2 0.5 4t0.5 4t0.5 4t0.5 4v1.5v0.5v0v0v1.5v0.5v0v0v1v0v1.5v0.5v0v0h-1.5t-0.5 1v0.5v1.5v1.5v1.5v1.5v1.5q-7 1 -14.5 2.5t-12.5 3.5q-6 2 -11 5.5t-10 7.5t-8.5 8.5t-5.5 9.5t-3 10.5t-1 11.5q0 8 1 14t4 12q2 6 6.5 10.5
t9.5 8.5q2 1 4 2.5t4 2.5l8 4t8 3q7 2 14.5 3t15.5 1q10 0 18.5 -2t15.5 -5q8 -4 15 -9t12 -12q6 -7 10 -14.5t7 -15.5q2 -8 4 -17t2 -18q0 -14 -2.5 -26.5t-7.5 -23.5q-4 -11 -11 -22t-15 -21q-10 -10 -21 -18.5t-24 -15.5q-13 -8 -29 -13.5t-33 -9.5v-1v0v0z" />
    <glyph glyph-name="perthousand" unicode="&#x2030;" horiz-adv-x="1262" 
d="M731 691l-561 -701h-94l561 701h94v0v0v0zM602 296q19 -1 37.5 -4.5t35.5 -8.5q17 -6 32 -14.5t29 -19.5t24.5 -23t17.5 -26q8 -13 11.5 -28t3.5 -31t-3.5 -30t-11.5 -28q-7 -13 -17.5 -26t-24.5 -24t-29 -19.5t-32 -13.5q-17 -4 -35.5 -6.5t-37.5 -2.5t-37 2.5t-35 6.5
q-17 5 -33 13.5t-30 19.5t-24 23.5t-18 25.5q-7 14 -10.5 28.5t-3.5 30.5t3.5 31t10.5 28q8 14 18 26t24 23t30 19.5t33 14.5q17 5 35 8t37 3v2v0v0zM602 222q-10 -1 -19.5 -3t-17.5 -5q-10 -3 -17.5 -7.5t-15.5 -10.5q-7 -6 -12.5 -12.5t-9.5 -13.5t-5.5 -14t-1.5 -15
t1.5 -15.5t5.5 -15.5q4 -7 9.5 -13.5t12.5 -11.5q8 -6 15.5 -10.5t17.5 -7.5q8 -3 17.5 -4t19.5 -1q11 0 20 1t18 4q8 3 16.5 7.5t15.5 10.5q7 5 12 11.5t9 13.5q4 8 6 15.5t2 15.5t-2 15t-6 14t-9 13.5t-12 12.5t-15.5 10.5t-16.5 7.5q-9 3 -18 4.5t-20 1.5v2v0v0z
M1056 296q19 -1 37.5 -4.5t34.5 -8.5q17 -6 32.5 -14.5t29.5 -19.5t24.5 -23t17.5 -26q8 -13 11.5 -28t3.5 -31t-3.5 -30t-11.5 -28q-7 -13 -17.5 -26t-24.5 -24t-29.5 -19.5t-32.5 -13.5q-16 -4 -34.5 -6.5t-37.5 -2.5t-37.5 2.5t-35.5 6.5q-16 5 -32 13.5t-30 19.5
t-24.5 23.5t-18.5 25.5q-7 14 -10 28.5t-3 30.5t3 31t10 28q8 14 18.5 26t24.5 23t30 19.5t32 14.5q17 5 35.5 8t37.5 3v2v0v0zM1056 222q-10 -1 -19.5 -3t-18.5 -5t-16.5 -7.5t-15.5 -10.5q-7 -6 -13 -12.5t-10 -13.5t-5 -14t-1 -15t1 -15.5t5 -15.5q4 -7 10 -13.5
t13 -11.5q8 -6 15.5 -10.5t16.5 -7.5t18.5 -4t19.5 -1q11 0 20 1t17 4q9 3 17.5 7.5t15.5 10.5q7 5 12 11.5t9 13.5q4 8 6 15.5t2 15.5t-2 15t-6 14t-9 13.5t-12 12.5t-15.5 10.5t-17.5 7.5q-8 3 -17 4.5t-20 1.5v2v0v0zM207 690q19 -1 37.5 -4.5t35.5 -8.5q17 -6 32 -14.5
t29 -19.5t24.5 -23t17.5 -26q8 -13 11.5 -28t3.5 -31t-3.5 -30t-11.5 -28q-7 -13 -17.5 -26t-24.5 -24t-29 -19.5t-32 -14.5t-35.5 -8.5t-37.5 -2.5t-37 2.5t-35 8.5q-17 5 -33 13.5t-30 19.5t-24 24t-18 26q-7 14 -10.5 28.5t-3.5 30.5t3.5 31t10.5 28q8 14 18 26t24 23
t30 19.5t33 14.5q17 5 35 8t37 3v2v0v0zM207 616q-10 -1 -19.5 -3t-17.5 -5q-10 -3 -17.5 -7.5t-15.5 -10.5q-7 -6 -12.5 -12.5t-9.5 -13.5t-5.5 -14t-1.5 -15t1.5 -15.5t5.5 -15.5q4 -7 9.5 -13.5t12.5 -11.5q8 -6 15.5 -10.5t17.5 -7.5q8 -3 17.5 -4t19.5 -1q11 0 20 1
t18 4q8 3 16.5 7.5t15.5 10.5q7 5 12 11.5t9 13.5q4 8 6 15.5t2 15.5t-2 15t-6 14t-9 13.5t-12 12.5t-15.5 10.5t-16.5 7.5q-9 3 -18 4.5t-20 1.5v2v0v0z" />
    <glyph glyph-name="Acircumflex" unicode="&#xc2;" horiz-adv-x="833" 
d="M452 686l381 -686h-125l-113 201h-363l-107 -201h-125l366 686h86v0v0v0zM407 536l-127 -247h265l-138 247v0v0v0zM473 877l118 -151h-69l-109 87l-103 -87h-67l114 151h116v0v0v0z" />
    <glyph glyph-name="Ecircumflex" unicode="&#xca;" horiz-adv-x="625" 
d="M577 682v-88h-361v-206h349v-88h-349v-212h372v-88h-495v682h484v0v0v0zM370 877l117 -151h-69l-108 87l-104 -87h-66l113 151h117v0v0v0z" />
    <glyph glyph-name="Aacute" unicode="&#xc1;" horiz-adv-x="833" 
d="M452 686l381 -686h-125l-113 201h-363l-107 -201h-125l366 686h86v0v0v0zM407 536l-127 -247h265l-138 247v0v0v0zM431 874h125l-140 -147h-69l84 147v0v0v0z" />
    <glyph glyph-name="Edieresis" unicode="&#xcb;" horiz-adv-x="625" 
d="M577 682v-88h-361v-206h349v-88h-349v-212h372v-88h-495v682h484v0v0v0zM197 848q3 -1 6 -1.5t6 -1.5q2 -1 5 -1.5t6 -1.5q5 -1 9.5 -3.5t8.5 -5.5q4 -4 7 -7.5t5 -7.5q0 -1 0.5 -2t1.5 -2q1 -4 2 -7.5t1 -6.5q0 -4 -1 -7.5t-2 -6.5q-1 -1 -1.5 -2t-0.5 -2q-2 -4 -5 -8
t-7 -7q-4 -4 -8.5 -6.5t-9.5 -4.5q-3 -1 -6 -1.5t-5 -0.5q-3 -1 -6 -1h-6q-7 0 -12 1l-10 2q-6 2 -10.5 4.5t-8.5 6.5q-4 3 -8 7t-6 8q-1 4 -2.5 8.5t-1.5 9.5t1.5 9.5t2.5 8.5q2 4 6 7.5t8 7.5q4 3 8.5 5.5t10.5 3.5q5 2 10 3t12 1v2v0v0zM430 848q3 -1 5.5 -1.5t5.5 -1.5
t5.5 -1.5t5.5 -1.5q2 -1 4.5 -2t5.5 -2q2 -1 4.5 -2t4.5 -3q4 -4 7 -7.5t4 -7.5q2 -4 3.5 -8.5t1.5 -9.5t-1.5 -9.5t-3.5 -8.5q-1 -4 -4 -8t-7 -7q-2 -2 -4.5 -3.5t-4.5 -3.5q-3 -1 -5.5 -2t-4.5 -2q-3 -1 -5.5 -1.5t-5.5 -0.5q-3 -1 -5.5 -1h-5.5q-7 0 -12.5 1l-10.5 2
q-5 2 -10 4.5t-9 6.5q-4 3 -7.5 7t-5.5 8t-3 8.5t-1 9.5t1 9.5t3 8.5t5.5 7.5l7.5 7.5q4 3 9 5.5t10 3.5q5 2 10.5 3t12.5 1v2v0v0z" />
    <glyph glyph-name="Egrave" unicode="&#xc8;" horiz-adv-x="625" 
d="M577 682v-88h-361v-206h349v-88h-349v-212h372v-88h-495v682h484v0v0v0zM305 874l83 -147h-68l-140 147h125v0v0v0z" />
    <glyph glyph-name="Iacute" unicode="&#xcd;" horiz-adv-x="312" 
d="M217 682v-682h-122v682h122v0v0v0zM171 874h125l-140 -147h-69l84 147v0v0v0z" />
    <glyph glyph-name="Icircumflex" unicode="&#xce;" horiz-adv-x="312" 
d="M217 682v-682h-122v682h122v0v0v0zM213 877l118 -151h-69l-109 87l-103 -87h-66l113 151h116v0v0v0z" />
    <glyph glyph-name="Idieresis" unicode="&#xcf;" horiz-adv-x="312" 
d="M217 682v-682h-122v682h122v0v0v0zM41 848q3 -1 5.5 -1.5t5.5 -1.5t5.5 -1.5t5.5 -1.5q5 -1 10 -3.5t9 -5.5q4 -4 7 -7.5t4 -7.5q2 -4 3.5 -8.5t1.5 -9.5t-1.5 -9.5t-3.5 -8.5q-1 -4 -4 -8t-7 -7q-4 -4 -9 -6.5t-10 -4.5q-3 -1 -5.5 -1.5t-5.5 -0.5q-3 -1 -5.5 -1h-5.5
q-7 0 -12.5 1l-10.5 2q-5 2 -9.5 4.5t-8.5 6.5q0 2 -1.5 3.5t-2.5 3.5t-2.5 4t-2.5 4q0 1 -0.5 2t-1.5 2q-1 3 -2 6.5t-1 7.5q0 3 1 6.5t2 7.5q1 1 1.5 2t0.5 2q1 2 2.5 4t2.5 4q1 1 2.5 3t1.5 4q4 3 8.5 5.5t9.5 3.5q5 2 10.5 3t12.5 1v2v0v0zM273 848q3 -1 6 -1.5t6 -1.5
q2 -1 5 -1.5t6 -1.5q5 -1 9.5 -3.5l9.5 -5.5q4 -4 6.5 -7.5t4.5 -7.5q0 -1 0.5 -2t1.5 -2q1 -4 2 -7.5t1 -6.5q0 -4 -1 -7.5t-2 -6.5q-1 -1 -1.5 -2t-0.5 -2q-2 -4 -4.5 -8t-6.5 -7q-5 -4 -9.5 -6.5t-9.5 -4.5q-3 -1 -6 -1.5t-5 -0.5q-3 -1 -6 -1h-6q-6 0 -11.5 1l-10.5 2
q-6 2 -10.5 4.5t-8.5 6.5q-4 3 -8 7t-6 8q-1 4 -2 8.5t-1 9.5t1 9.5t2 8.5q2 4 6 7.5t8 7.5q4 3 8.5 5.5t10.5 3.5q5 2 10.5 3t11.5 1v2v0v0z" />
    <glyph glyph-name="Igrave" unicode="&#xcc;" horiz-adv-x="312" 
d="M217 682v-682h-122v682h122v0v0v0zM148 874l84 -147h-69l-140 147h125v0v0v0z" />
    <glyph glyph-name="Oacute" unicode="&#xd3;" horiz-adv-x="1028" 
d="M56 341q0 35 7.5 67.5t23.5 63.5q15 30 38.5 58.5t55.5 54.5q31 26 67.5 45.5t77.5 32.5t88 19.5t99 6.5q53 0 100 -6.5t89 -19.5t78.5 -32.5t67.5 -45.5q32 -26 55 -54.5t38 -59.5t23 -64t8 -68q0 -34 -8 -67t-23 -63q-15 -31 -38 -59.5t-53 -54.5q-31 -26 -67.5 -45.5
t-79.5 -32.5t-91 -19t-101 -6q-52 0 -99.5 6t-88.5 19t-77 32.5t-68 45.5q-31 26 -54 54.5t-38 58.5t-22.5 63t-7.5 68v2v0v0zM182 341q0 -29 6 -55.5t18 -49.5q11 -23 29 -44t41 -39q23 -19 49.5 -33t56.5 -23t63 -13.5t68 -4.5q36 0 69 4.5t63 13.5t56.5 23t49.5 33
q23 18 41 39t30 44q11 23 17.5 49t6.5 54t-6.5 53.5t-17.5 48.5q-12 23 -30 44t-41 40q-23 18 -49.5 32t-56.5 23t-63 14t-69 5q-35 0 -68 -5t-63 -14t-56.5 -23t-49.5 -32q-23 -19 -41 -40t-29 -44q-12 -23 -18 -48.5t-6 -53.5v2v0v0zM528 874h125l-140 -147h-68l83 147v0
v0v0z" />
    <glyph glyph-name="Ocircumflex" unicode="&#xd4;" horiz-adv-x="1028" 
d="M56 341q0 35 7.5 67.5t23.5 63.5q15 30 38.5 58.5t55.5 54.5q31 26 67.5 45.5t77.5 32.5t88 19.5t99 6.5q53 0 100 -6.5t89 -19.5t78.5 -32.5t67.5 -45.5q32 -26 55 -54.5t38 -59.5t23 -64t8 -68q0 -34 -8 -67t-23 -63q-15 -31 -38 -59.5t-53 -54.5q-31 -26 -67.5 -45.5
t-79.5 -32.5t-91 -19t-101 -6q-52 0 -99.5 6t-88.5 19t-77 32.5t-68 45.5q-31 26 -54 54.5t-38 58.5t-22.5 63t-7.5 68v2v0v0zM182 341q0 -29 6 -55.5t18 -49.5q11 -23 29 -44t41 -39q23 -19 49.5 -33t56.5 -23t63 -13.5t68 -4.5q36 0 69 4.5t63 13.5t56.5 23t49.5 33
q23 18 41 39t30 44q11 23 17.5 49t6.5 54t-6.5 53.5t-17.5 48.5q-12 23 -30 44t-41 40q-23 18 -49.5 32t-56.5 23t-63 14t-69 5q-35 0 -68 -5t-63 -14t-56.5 -23t-49.5 -32q-23 -19 -41 -40t-29 -44q-12 -23 -18 -48.5t-6 -53.5v2v0v0zM571 877l117 -151h-68l-109 87
l-104 -87h-66l114 151h116v0v0v0z" />
    <glyph glyph-name="apple" unicode="&#xf000;" 
 />
    <glyph glyph-name="Ograve" unicode="&#xd2;" 
 />
    <glyph glyph-name="Uacute" unicode="&#xda;" horiz-adv-x="885" 
d="M810 682v-414q0 -32 -6.5 -60.5t-17.5 -54.5q-12 -25 -30 -47t-41 -41q-24 -19 -53 -33t-65 -23q-35 -8 -77 -12.5t-89 -4.5q-34 0 -66.5 4t-62.5 10q-31 8 -60 19.5t-56 27.5q-28 16 -48.5 36.5t-34.5 45.5q-13 26 -20 56t-7 65v426h122v-403q0 -16 0.5 -29t2.5 -24
t4 -20t5 -17q2 -7 6 -14.5t9 -13.5q5 -7 11.5 -13t13.5 -11q8 -7 17.5 -14t19.5 -12q11 -5 22 -9.5t23 -8.5q11 -4 23 -6.5t25 -4.5l26.5 -2t26.5 -1q17 0 33.5 1t31.5 3t28.5 5t26.5 7t24 8.5l21 8.5q10 5 19 10.5t16 11.5q8 6 14.5 13.5l12.5 14.5q5 8 9 16.5t7 18.5
q2 6 3.5 12.5t2.5 13.5q1 4 1.5 7.5t1.5 6.5q1 11 1.5 22.5t0.5 23.5v399h123v0v0v0zM457 874h125l-140 -147h-69l84 147v0v0v0z" />
    <glyph glyph-name="Ucircumflex" unicode="&#xdb;" horiz-adv-x="885" 
d="M810 682v-414q0 -32 -6.5 -60.5t-17.5 -54.5q-12 -25 -30 -47t-41 -41q-24 -19 -53 -33t-65 -23q-35 -8 -77 -12.5t-89 -4.5q-34 0 -66.5 4t-62.5 10q-31 8 -60 19.5t-56 27.5q-28 16 -48.5 36.5t-34.5 45.5q-13 26 -20 56t-7 65v426h122v-403q0 -16 0.5 -29t2.5 -24
t4 -20t5 -17q2 -7 6 -14.5t9 -13.5q5 -7 11.5 -13t13.5 -11q8 -7 17.5 -14t19.5 -12q11 -5 22 -9.5t23 -8.5q11 -4 23 -6.5t25 -4.5l26.5 -2t26.5 -1q17 0 33.5 1t31.5 3t28.5 5t26.5 7t24 8.5l21 8.5q10 5 19 10.5t16 11.5q8 6 14.5 13.5l12.5 14.5q5 8 9 16.5t7 18.5
q2 6 3.5 12.5t2.5 13.5q1 4 1.5 7.5t1.5 6.5q1 11 1.5 22.5t0.5 23.5v399h123v0v0v0zM500 877l117 -151h-69l-108 87l-104 -87h-66l113 151h117v0v0v0z" />
    <glyph glyph-name="Ugrave" unicode="&#xd9;" horiz-adv-x="885" 
d="M810 682v-414q0 -32 -6.5 -60.5t-17.5 -54.5q-12 -25 -30 -47t-41 -41q-24 -19 -53 -33t-65 -23q-35 -8 -77 -12.5t-89 -4.5q-34 0 -66.5 4t-62.5 10q-31 8 -60 19.5t-56 27.5q-28 16 -48.5 36.5t-34.5 45.5q-13 26 -20 56t-7 65v426h122v-403q0 -16 0.5 -29t2.5 -24
t4 -20t5 -17q2 -7 6 -14.5t9 -13.5q5 -7 11.5 -13t13.5 -11q8 -7 17.5 -14t19.5 -12q11 -5 22 -9.5t23 -8.5q11 -4 23 -6.5t25 -4.5l26.5 -2t26.5 -1q17 0 33.5 1t31.5 3t28.5 5t26.5 7t24 8.5l21 8.5q10 5 19 10.5t16 11.5q8 6 14.5 13.5l12.5 14.5q5 8 9 16.5t7 18.5
q2 6 3.5 12.5t2.5 13.5q1 4 1.5 7.5t1.5 6.5q1 11 1.5 22.5t0.5 23.5v399h123v0v0v0zM435 874l83 -147h-68l-140 147h125v0v0v0z" />
    <glyph glyph-name="dotlessi" unicode="&#x131;" horiz-adv-x="273" 
d="M192 449v-449h-111v449h111v0v0v0z" />
    <glyph glyph-name="circumflex" unicode="&#x2c6;" horiz-adv-x="416" 
d="M343 643h48q0 -14 -2 -26.5t-6 -23.5q-4 -10 -8.5 -20t-11.5 -18t-15 -14t-17 -10q-3 -1 -6.5 -2.5t-6.5 -2.5q-6 -2 -12.5 -2.5t-13.5 -0.5h-13t-12 1q-4 0 -8 0.5t-8 1.5q-2 1 -4 1.5t-4 0.5q-2 1 -3.5 1t-3.5 1q-4 1 -7.5 2t-6.5 2q-5 2 -10 3.5t-10 3.5h-2h-1
q-1 0 -2 0.5t-2 0.5q-2 0 -3 0.5t-2 1.5q-2 0 -3.5 0.5t-3.5 1.5h-1.5t-0.5 1q-1 0 -1.5 0.5t-1.5 0.5h-2t-1 1q-1 0 -2 0.5t-2 0.5h-2t-2 1q-1 0 -2 0.5t-2 0.5h-2h-1q-1 0 -2 0.5t-2 0.5h-2t-2 1q-1 0 -2 0.5t-2 0.5q-4 1 -7.5 1.5t-7.5 0.5h-4t-3 1h-4h-4q-4 0 -8 -0.5
t-8 -1.5t-7.5 -3t-6.5 -4q-2 -2 -4 -5l-4 -6q-2 -4 -3 -7.5t-1 -7.5l-51 2q1 13 3.5 25t6.5 22q4 11 8.5 20t11.5 16q5 8 12.5 13t15.5 9q9 4 18.5 6t20.5 2h3.5h2.5q2 -1 3.5 -1h3.5h2.5h2.5q2 -1 3.5 -1h3.5q3 -1 6 -1.5t7 -0.5t7.5 -0.5t7.5 -1.5q2 -1 5 -1.5t6 -1.5
q2 0 3 -0.5t3 -0.5q1 -1 2.5 -1.5t2.5 -0.5q1 -1 2.5 -1.5t2.5 -0.5h2.5h1.5h1.5h0.5q1 0 1.5 -0.5t1.5 -0.5q0 -1 0.5 -1h1.5h2h2q0 -1 1 -1h2q3 -1 5.5 -2t5.5 -2t5.5 -1.5t5.5 -1.5q4 -1 7.5 -2t6.5 -2q2 -1 3.5 -1t3.5 -1q5 -1 10 -2.5t9 -1.5q2 0 4 -0.5t4 -0.5h4h4
q5 0 9.5 0.5t8.5 1.5l7 3.5t5 3.5q3 2 6 5t4 7q2 3 3 7.5t2 9.5v2v0v0z" />
    <glyph glyph-name="tilde" unicode="&#x2dc;" horiz-adv-x="416" 
d="M265 657l117 -151h-69l-108 87l-104 -87h-66l113 151h117v0v0v0z" />
    <glyph glyph-name="macron" unicode="&#x2c9;" horiz-adv-x="416" 
d="M415 615v-73h-414v73h414v0v0v0z" />
    <glyph glyph-name="breve" unicode="&#x2d8;" horiz-adv-x="416" 
d="M300 643h85q-4 -16 -9.5 -30.5t-13.5 -26.5q-7 -12 -16.5 -22.5t-20.5 -18.5t-24.5 -14t-27.5 -11q-15 -4 -30.5 -6t-32.5 -2q-19 0 -35.5 2t-31.5 6q-15 5 -28 11t-24 14q-12 8 -21.5 18.5t-17.5 22.5q-7 12 -12.5 25.5t-8.5 29.5l84 2q2 -9 5 -16t7 -13t9.5 -11
t11.5 -9t13 -6.5t14 -4.5q8 -2 17 -3t19 -1q8 0 16 1t15 3q8 2 14.5 4.5t11.5 6.5q6 4 10.5 8.5t8.5 10.5t7 13t6 15v2v0v0z" />
    <glyph glyph-name="dotaccent" unicode="&#x2d9;" horiz-adv-x="416" 
d="M208 628q3 -1 6 -1.5t6 -1.5q2 -1 5 -1.5t6 -1.5q5 -1 9.5 -3.5l9.5 -5.5q4 -4 6.5 -7.5t4.5 -7.5q0 -1 0.5 -2t1.5 -2q1 -4 2 -7.5t1 -6.5q0 -4 -1 -7.5t-2 -6.5q-1 -1 -1.5 -2t-0.5 -2q-2 -4 -4.5 -8t-6.5 -7q-5 -4 -9.5 -6.5t-9.5 -4.5q-3 -1 -6 -1.5t-5 -0.5
q-3 -1 -6 -1h-6q-6 0 -11.5 1l-10.5 2q-6 2 -10.5 4.5t-8.5 6.5q-4 3 -8 7t-6 8q-1 4 -2 8.5t-1 9.5t1 9.5t2 8.5q2 4 6 7.5t8 7.5q4 3 8.5 5.5t10.5 3.5q5 2 10.5 3t11.5 1v2v0v0z" />
    <glyph glyph-name="ring" unicode="&#x2da;" horiz-adv-x="416" 
d="M208 691q11 -1 22.5 -3.5t21.5 -5.5q11 -4 20 -9t18 -12q8 -7 15 -14.5t11 -15.5t6.5 -17t2.5 -18q0 -10 -2.5 -19t-6.5 -17t-11 -15.5t-15 -14.5q-9 -7 -18 -12t-20 -8q-10 -4 -21.5 -5.5t-22.5 -1.5q-12 0 -23 1.5t-22 5.5q-10 3 -19.5 8t-17.5 12t-14.5 14.5
t-10.5 15.5t-6.5 17t-2.5 19q0 9 2.5 18t6.5 17t10.5 15.5t14.5 14.5t17.5 12t19.5 9q11 3 22 5t23 2v2v0v0zM208 653q-7 -1 -13.5 -2.5t-12.5 -3.5q-7 -2 -12 -5t-10 -7q-6 -4 -9.5 -8.5t-5.5 -9.5q-3 -5 -4 -10.5t-1 -10.5q0 -6 1 -11t4 -10q2 -5 5.5 -9.5t9.5 -8.5
q5 -4 10 -7t12 -5q6 -2 12.5 -3t13.5 -1t13.5 1t13.5 3q3 1 5.5 2t5.5 3q3 1 5.5 3t5.5 4q5 4 8.5 8.5t6.5 9.5q2 5 3.5 10t1.5 11q0 5 -1.5 10.5t-3.5 10.5q-3 5 -6.5 9.5t-8.5 8.5q-3 2 -5.5 3.5t-5.5 3.5q-3 1 -5.5 2.5t-5.5 2.5q-7 2 -13.5 3t-13.5 1v2v0v0z" />
    <glyph glyph-name="cedilla" unicode="&#xb8;" horiz-adv-x="416" 
d="M261 8l-9 -24q8 -1 14.5 -3t13.5 -5q2 -1 3.5 -2t3.5 -2q4 -2 7.5 -4.5t6.5 -5.5q5 -4 8.5 -8.5t5.5 -9.5q0 -1 0.5 -2.5t1.5 -2.5q1 -4 2 -8.5t1 -8.5q0 -11 -2.5 -21t-7.5 -19q-6 -9 -13.5 -16t-18.5 -13q-10 -5 -21 -9.5t-25 -7.5q-13 -3 -27 -4.5t-29 -1.5h-2h-2h-2
h-2h-1.5h-0.5h-1.5h-1.5t-2 0.5l-1 0.5h-2h-2h-3h-2h-3h-3q-2 1 -3.5 1h-3.5h-3.5h-2.5q-1 1 -1.5 1h-0.5h-2h-2v54q1 1 2 1t2 -1h1h1h1.5h1.5h2t2 -1h3.5h2.5h2h2h1h2h4.5h5.5q8 0 14.5 0.5t13.5 1.5q2 0 3.5 0.5t3.5 1.5h2h2q3 1 5.5 1.5t4.5 1.5q5 2 8.5 4.5l6.5 4.5
q0 1 0.5 1.5l1.5 1.5q1 2 2 4.5t1 4.5q0 3 -1 6t-3 5q-1 2 -4 4l-6 4q-4 2 -8.5 3.5t-10.5 2.5q-5 1 -11 1h-12h-2h-1v0v0h-1v0h-0.5h-0.5h-1.5h-0.5h-1v-1h-1.5h-0.5h-2h-1h-1.5h-0.5h-0.5h-0.5h-0.5h-0.5l32 69h71v0v0v0z" />
    <glyph glyph-name="hungarumlaut" unicode="&#x2ba;" horiz-adv-x="416" 
d="M86 654h125l-140 -147h-69l84 147v0v0v0zM286 654h125l-140 -147h-69l84 147v0v0v0z" />
    <glyph glyph-name="ogonek" unicode="&#x2db;" horiz-adv-x="416" 
d="M332 -96v-67q0 1 -1 1h-1q-1 -1 -2 -1.5t-2 -0.5t-2 -0.5t-2 -0.5t-1 -0.5t-1 -0.5h-3t-2 -1q-2 0 -3 -0.5t-2 -1.5q-3 -1 -5.5 -1.5t-4.5 -0.5h-2t-2 -1q-1 0 -2 -0.5t-2 -0.5h-2.5t-2.5 -1h-3h-3q-3 0 -6 -0.5t-5 -1.5h-2h-1h-2h-2h-0.5h-1.5t-1.5 -0.5t-2.5 -0.5h-2.5
h-3.5h-1.5h-1.5h-2h-1h-2h-2q-14 0 -27 2t-24 5t-21.5 8t-18.5 12q-10 7 -16.5 14.5t-10.5 15.5q-4 9 -6 18t-2 19v8t1 8q0 4 1 8t3 8q1 4 2.5 7.5t4.5 7.5q2 4 4.5 7.5t6.5 7.5q2 2 3.5 4t3.5 4l2 2l2 2q0 1 1 1.5t2 1.5q0 1 1 1.5t2 1.5q0 1 0.5 1.5t1.5 0.5q1 1 2 1h1h1
v1q1 0 1.5 0.5l0.5 0.5q1 0 2 0.5t2 1.5q0 1 1 1.5t2 1.5l83 2q-1 -1 -1.5 -2t-0.5 -2l-0.5 -0.5l-0.5 -0.5q-1 0 -1.5 -0.5t-0.5 -1.5l-1.5 -1.5l-0.5 -0.5h-1v0q-3 -2 -5 -4t-4 -5l-4 -4l-4 -4t-3.5 -4t-2.5 -5q0 -1 -0.5 -2t-1.5 -2q0 -1 -0.5 -2t-1.5 -2q-2 -4 -4 -7.5
t-3 -7.5q-1 -3 -1 -6v-5v-4t1 -5l2 -4l2 -4q2 -4 5.5 -7.5l7.5 -7.5l10.5 -6t11.5 -4q5 -2 11 -3t12 -1h1.5h1.5q1 1 2 1h2q2 0 4.5 0.5t6.5 1.5q1 1 2 1.5t3 0.5h2h2h1h2q2 1 3.5 1.5t3.5 0.5h2h2q0 1 1 1h2v0v0v0h1v1v0h0.5h0.5h0.5h0.5v0v0h0.5h1.5v0v0h1h2v1v0h0.5h1.5
v0v0h1h2v1v0h0.5h1.5v-1v0v0z" />
    <glyph glyph-name="caron" unicode="&#x2c7;" horiz-adv-x="416" 
d="M265 507h-117l-113 151h66l104 -87l108 87h69l-117 -151v0v0v0z" />
    <glyph glyph-name="Lslash" unicode="&#x141;" horiz-adv-x="612" 
d="M387 536v-88l-172 -114v-246h385v-88h-508v263l-110 -73v88l110 73v331h123v-260l172 114v0v0v0z" />
    <glyph glyph-name="lslash" unicode="&#x142;" horiz-adv-x="273" 
d="M291 482v-78l-99 -64v-340h-111v276l-98 -64v78l98 64v328h111v-264l99 64v0v0v0z" />
    <glyph glyph-name="Scaron" unicode="&#x160;" horiz-adv-x="572" 
d="M498 643v-111l-26.5 17.5t-26.5 15.5t-26 12t-26 9q-3 1 -6.5 2t-6.5 2l-19.5 4t-17.5 3q-12 2 -23 3t-22 1q-15 0 -28.5 -1.5t-26.5 -4.5q-12 -3 -22.5 -7.5t-19.5 -9.5q-10 -6 -17 -12t-12 -14q-4 -7 -6.5 -15t-2.5 -17q0 -10 2.5 -18.5t6.5 -16.5q4 -7 10.5 -14.5
t14.5 -13.5q8 -7 18 -13l21 -12l22 -12t24 -11q4 -2 7.5 -4t7.5 -4l4 -2t4 -1l4 -2l4 -2q3 -1 6 -2.5t6 -3.5q1 0 3 -0.5t3 -1.5l4 -2t4 -1q2 -1 4.5 -2t4.5 -2q17 -8 33 -17t32 -19q17 -10 32 -20.5l30 -21.5q14 -12 24.5 -25.5t17.5 -29.5q8 -16 11.5 -34t3.5 -38
t-4.5 -38t-12.5 -35q-9 -16 -21 -31t-29 -28t-36.5 -23t-41.5 -16q-22 -4 -45 -7.5t-49 -3.5q-17 0 -34 1t-33 3q-16 1 -31 3t-29 6q-15 4 -29.5 8.5t-28.5 10.5q-13 6 -26.5 13t-26.5 15v126q11 -13 24 -24.5t26 -20.5t26.5 -17t28.5 -14q14 -7 28.5 -11.5t29.5 -7.5
t30.5 -4.5t31.5 -1.5q14 0 27 1t24 4q11 2 21.5 6t18.5 9t15 10.5t12 11.5q6 5 10 11t7 13v2v2q0 2 0.5 3.5t1.5 2.5v0.5v1.5v1t1 2v0.5v1.5v1.5v1.5q0 11 -2.5 21.5t-8.5 19.5q-5 9 -12.5 18t-18.5 16q-11 8 -22.5 15.5t-23.5 14.5q-6 4 -12.5 7.5l-13.5 7.5l-13 6.5
t-14 7.5q-1 0 -2.5 0.5t-2.5 1.5q-2 0 -3 0.5l-3 1.5q-3 2 -6 3.5l-5 2.5l-3 1.5t-2 1.5q-2 0 -3 1l-2 2q-2 0 -3 0.5t-2 1.5l-3 1.5t-2 1.5q-18 8 -35 17t-33 19q-16 9 -31 19.5l-29 20.5q-15 11 -25.5 23t-18.5 26q-7 14 -10 30t-3 34q0 20 4 39t13 35q8 17 21.5 31
t31.5 27q17 12 38 21.5t44 15.5t49.5 9.5t56.5 3.5h4h4h2h2q3 -1 6 -1h6q6 0 12 -0.5t13 -1.5q3 0 6 -0.5t6 -1.5q2 0 5 -0.5t6 -1.5t6 -1.5t6 -0.5q3 -1 6.5 -1.5t6.5 -1.5q12 -3 24 -6.5t23 -8.5q6 -2 11.5 -4.5l11.5 -5.5q6 -2 11.5 -5l11.5 -6v2v0v0zM343 727h-116
l-114 151h67l103 -87l109 87h69l-118 -151v0v0v0z" />
    <glyph glyph-name="scaron" unicode="&#x161;" horiz-adv-x="481" 
d="M405 421v-88q-13 5 -24.5 10t-22.5 9q-7 3 -14 5.5t-14 5.5q-4 1 -7 2t-7 2q-11 2 -21 4.5t-19 3.5q-10 2 -18 2.5t-16 0.5t-15.5 -0.5t-14.5 -2.5q-7 -1 -13 -3.5t-11 -5.5q-3 -1 -5 -3t-4 -3l-3.5 -3.5t-2.5 -3.5q-2 -4 -3.5 -7.5t-1.5 -8.5q0 -4 2 -7.5t6 -8.5
q2 -2 4 -4.5t5 -4.5q3 -3 7 -5.5t8 -4.5l18 -11t23 -13l29 -15t35 -16l17.5 -10t15.5 -10q8 -4 15 -8.5t14 -8.5t12.5 -8l10.5 -8t9 -8l8 -8q3 -4 6 -7.5t4 -6.5l2 -4t2 -3q1 -2 2 -3.5t2 -3.5q1 -4 1.5 -7.5t1.5 -6.5q2 -4 2.5 -7.5t0.5 -7.5q0 -15 -3.5 -28.5t-10.5 -25.5
t-16 -22t-23 -19q-13 -9 -28 -15.5t-32 -10.5q-16 -4 -34 -6t-38 -2h-6h-5q-3 1 -6 1h-6h-3.5h-3.5h-2h-2q-3 1 -5.5 1h-4.5q-3 0 -5.5 0.5t-5.5 0.5q-3 1 -5.5 1h-5.5q-6 1 -10.5 1.5t-9.5 1.5q-7 1 -13.5 1.5t-13.5 1.5q-6 2 -12.5 3.5t-13.5 3.5q-2 1 -4.5 1.5t-4.5 1.5
q-4 2 -8.5 3.5t-9.5 3.5q-4 1 -7.5 2.5t-6.5 2.5q-4 2 -7.5 3.5t-7.5 2.5v98l12.5 -8l13.5 -8l13.5 -6l12.5 -6q14 -6 26 -10.5t24 -8.5q11 -4 22.5 -6.5l21.5 -4.5q11 -1 20 -2t18 -1q8 0 16 1.5t15 2.5q3 1 6.5 2t6.5 2q3 2 6.5 3.5t6.5 2.5q6 3 10.5 7t8.5 8
q3 5 4.5 10.5t1.5 11.5v3t-1 3q0 1 -0.5 2.5t-0.5 2.5q-1 1 -1.5 2t-1.5 2l-0.5 0.5t-0.5 1.5q-1 1 -2 2.5t-3 2.5q-3 2 -6 4.5t-7 5.5q-2 1 -4 2.5t-4 2.5q-2 2 -4 3.5t-4 2.5l-9 4.5l-11 5.5q-3 1 -5.5 2t-5.5 3q-3 1 -5.5 2.5t-5.5 2.5q-7 2 -13.5 5t-11.5 6l-4 2l-4 2
l-8 4l-8 4q-12 5 -23.5 11t-22.5 13l-22 14.5l-22 15.5q-10 8 -18 16t-13 18q-6 10 -8 20.5t-2 21.5q0 14 2.5 27t9.5 24q6 11 15.5 20.5t22.5 17.5q12 8 27 14.5t31 10.5q17 4 36 6t41 2q9 0 19.5 -0.5t20.5 -1.5q9 -1 19.5 -3l20.5 -4t20.5 -5t20.5 -7q11 -4 22 -7.5
t22 -8.5v2v0v0zM297 507h-116l-114 151h66l104 -87l109 87h69l-118 -151v0v0v0z" />
    <glyph glyph-name="Zcaron" unicode="&#x17d;" 
 />
    <glyph glyph-name="zcaron" unicode="&#x17e;" 
 />
    <glyph glyph-name="brokenbar" unicode="&#xa6;" 
 />
    <glyph glyph-name="Eth" unicode="&#xd0;" horiz-adv-x="937" 
d="M95 0v297h-100v88h100v297h331q53 -1 101 -8t89 -21q41 -13 77.5 -33t66.5 -46t52.5 -54t37.5 -57q15 -30 22.5 -61t7.5 -63q0 -34 -8.5 -65.5t-23.5 -60.5q-15 -30 -37.5 -57.5t-52.5 -53.5t-66 -45.5t-77 -31.5q-41 -13 -88 -19t-100 -6h-332v0v0v0zM217 88h198
q35 -1 68 2.5t63 11.5t57 20.5t52 28.5q24 17 42 36.5t31 43.5q13 23 19 50t6 58q0 26 -5 50t-16 46q-11 23 -27 43t-37 39t-48.5 33t-59.5 23q-33 9 -71.5 14t-82.5 5l-189 2v-209h241v-88h-241v-209v0v0v0z" />
    <glyph glyph-name="eth" unicode="&#xf0;" horiz-adv-x="703" 
d="M627 637l-129 -49q10 -10 19 -20l18 -20l16 -19.5t15 -19.5q3 -5 6.5 -10t6.5 -10q3 -6 6 -11l6 -10q2 -3 3.5 -6.5t3.5 -7.5q4 -6 7.5 -12.5t6.5 -13.5q2 -5 3.5 -10t3.5 -9q2 -5 3.5 -10t3.5 -10q3 -10 5.5 -19.5t4.5 -18.5q2 -10 3.5 -19t2.5 -18q0 -3 0.5 -6t0.5 -6
q1 -5 1.5 -10.5t0.5 -11.5q0 -36 -5.5 -68t-14.5 -59q-10 -27 -25 -49.5t-35 -40.5q-21 -19 -44.5 -32.5t-52.5 -22.5q-28 -8 -60 -12t-67 -4q-33 0 -63 4t-56 11q-26 8 -49.5 20.5t-44.5 29.5t-37 35.5t-26 39.5t-15 45t-5 50q0 24 5 46t16 43q11 20 26.5 39t37.5 35
q21 17 45.5 29t50.5 20t54.5 12.5t60.5 4.5h4.5h5.5q1 -1 2 -1h2h3.5h3.5h3h3q4 0 8.5 -0.5t10.5 -1.5q7 -1 14.5 -1.5t14.5 -2.5q8 -1 15.5 -3.5t14.5 -4.5q1 0 2 -1t2 -1l4 -2l4 -2q4 -1 7.5 -2.5t7.5 -3.5q2 -1 3.5 -2t3.5 -1q2 -1 3.5 -2t3.5 -2t3.5 -2t3.5 -2t3.5 -2
t3.5 -2l2 4q-2 4 -5 8.5t-6 9.5q-4 5 -7.5 11t-7.5 12l-9 11l-10 12q-2 2 -3.5 4t-3.5 4q-3 4 -6.5 8t-7.5 8q-1 1 -2.5 2t-2.5 2q-1 2 -2.5 3.5l-2.5 2.5l-1 0.5l-1 0.5q-1 1 -2 1.5t-2 1.5q-2 2 -3 3.5t-2 2.5q-3 2 -6 4.5t-5 5.5q-3 2 -6 4.5t-6 5.5l-166 -61l-35 53
l141 53q-2 1 -3.5 1.5t-3.5 0.5q-3 2 -6.5 3.5t-7.5 3.5q-3 2 -5.5 3t-4.5 3q-3 1 -5.5 2.5t-4.5 2.5q-5 2 -10.5 4.5t-10.5 4.5q-4 2 -7.5 3.5t-6.5 2.5q-2 1 -3.5 1.5t-3.5 1.5l76 61l8 -4t8 -3q3 -2 7 -3.5t8 -3.5q8 -3 15.5 -6.5t14.5 -7.5t14 -7.5t14 -8.5l12.5 -8
l13.5 -8l151 60l35 -53v0v0v0zM158 229q0 -19 3 -35.5t10 -30.5q5 -15 14.5 -27.5t22.5 -23.5t27 -19.5t31 -13.5t35 -7.5t39 -2.5t41 2.5t37 7.5t33 13.5t29 18.5q12 11 21 23t16 26t10.5 30.5t3.5 35.5q0 16 -3.5 31t-10.5 28q-7 14 -16.5 26t-23.5 22q-14 11 -29.5 18.5
t-32.5 13.5q-17 5 -36 8t-39 3t-38 -3t-35 -8q-16 -5 -30.5 -12.5t-26.5 -18.5q-13 -10 -23.5 -22t-15.5 -26q-7 -13 -10 -28t-3 -31v2v0v0z" />
    <glyph glyph-name="Yacute" unicode="&#xdd;" 
 />
    <glyph glyph-name="yacute" unicode="&#xfd;" 
 />
    <glyph glyph-name="Thorn" unicode="&#xde;" horiz-adv-x="637" 
d="M87 682h123v-148h143q35 -1 65.5 -5t56.5 -12q25 -7 46 -18t37 -25q17 -14 29 -30t20 -33t13 -36t5 -39t-5 -38.5t-13 -35.5q-9 -17 -22 -32.5t-30 -29.5q-18 -14 -40.5 -24.5t-49.5 -17.5q-28 -7 -59.5 -10t-68.5 -3l-127 2v-147h-123v682v0v0v0zM210 446v-211h138
q17 -1 32.5 0t29.5 5q13 3 25 8.5t22 12.5q11 7 18.5 15.5t12.5 18.5t7.5 21t2.5 24v0v1v0v0v0.5v1.5v0v0v0.5v1.5v0v1v0v0v0.5v1.5v0v0v0.5v1.5q-1 8 -3.5 16.5t-7.5 16.5q-2 4 -5 8l-6 8q-3 3 -6.5 7t-7.5 8q-8 8 -19 13t-25 9q-13 4 -29.5 6t-35.5 2l-143 2v0v0v0z" />
    <glyph glyph-name="thorn" unicode="&#xfe;" horiz-adv-x="625" 
d="M182 11v-241h-111v912h111v-233h81q39 -1 73 -5t62 -12q29 -7 54.5 -18.5t45.5 -25.5q20 -15 35 -32.5t25 -38.5q11 -21 16.5 -45.5t5.5 -52.5q0 -25 -5.5 -48.5t-14.5 -43.5q-10 -21 -25 -39t-35 -34q-21 -16 -43.5 -28t-48.5 -20q-26 -6 -54 -10t-59 -4h-2h-2h-2h-2
h-2.5h-2.5h-1.5h-0.5h-2h-1q-1 1 -2.5 1h-1.5h-1.5h-0.5q-3 0 -6 0.5t-5 0.5q-3 1 -6 1.5t-6 0.5t-5.5 0.5t-4.5 0.5q-2 1 -4.5 1.5t-5.5 0.5t-5.5 0.5t-5.5 0.5t-5.5 0.5t-5.5 1.5q-6 2 -12 3.5t-12 3.5v2v0v0zM182 369v-278q4 -3 8.5 -4.5t9.5 -3.5q4 -1 8.5 -2.5
t8.5 -2.5t8.5 -2t9.5 -2q4 -1 8.5 -1.5t8.5 -1.5q1 0 2 -0.5t2 -0.5q1 -1 2 -1h2h4.5h5.5h2h2h1h2h4.5h5.5q19 0 36.5 2.5t33.5 7.5t30.5 13.5t27.5 19.5q12 11 21 23t16 25q7 14 10.5 29t3.5 31q0 17 -3.5 33t-9.5 29q-5 14 -13.5 25t-19.5 21t-26 17.5t-32 11.5
q-16 5 -36 7.5t-43 2.5l-101 2v0v0v0z" />
    <glyph glyph-name="minus" unicode="&#x2212;" 
 />
    <glyph glyph-name="onesuperior" unicode="&#xb9;" 
 />
    <glyph glyph-name="twosuperior" unicode="&#xb2;" 
 />
    <glyph glyph-name="threesuperior" unicode="&#xb3;" 
 />
    <glyph glyph-name="onehalf" unicode="&#xbd;" horiz-adv-x="1055" 
d="M756 691l-569 -718h-84l569 718h84v0v0v0zM915 54v-54h-334v7l46.5 38.5l42.5 35.5l35.5 32.5l30.5 29.5q13 14 23.5 27t17.5 25t10.5 24t3.5 22q0 7 -2 13t-4 11q-3 5 -7 10t-10 9q-5 4 -11.5 7t-14.5 5q-7 2 -15 3.5t-16 1.5q-4 0 -8.5 -0.5t-8.5 -0.5q-4 -1 -8.5 -1.5
t-8.5 -1.5q-8 -2 -16 -5t-16 -7q-9 -4 -16.5 -9t-13.5 -10q-7 -5 -12.5 -11l-10.5 -12v80q2 0 2.5 0.5t1.5 0.5t1.5 0.5l0.5 0.5q1 0 2 0.5t2 1.5q1 0 2 0.5t2 1.5q1 0 2 1t3 2q1 0 2 0.5t2 1.5l1 0.5t2 0.5t2 0.5t2 1.5l1 0.5t2 0.5h2t2 1l1 0.5t2 1.5q1 0 2 0.5t2 0.5
l1 0.5l1 0.5q1 0 2 0.5t2 1.5q1 0 2 0.5t2 0.5q4 1 8.5 2t8.5 2q3 1 6 1.5t6 1.5q1 0 3 0.5t3 0.5q4 1 8.5 1.5t8.5 0.5h5.5t4.5 1h4.5h4.5q18 0 34 -2t31 -6q14 -4 27 -9.5t24 -13.5t20 -17t14 -19q6 -10 8.5 -21.5t2.5 -23.5q0 -10 -2.5 -20.5t-7.5 -21.5t-12 -22.5
t-16 -22.5q-10 -12 -22 -24l-26 -26l-31 -27t-35 -29l189 2v0v0v0zM243 687v-355h-86v355h86v0v0v0z" />
    <glyph glyph-name="onequarter" unicode="&#xbc;" 
 />
    <glyph glyph-name="threequarters" unicode="&#xbe;" 
 />
    <glyph glyph-name="franc" unicode="&#x20a3;" 
 />
    <glyph glyph-name="Gbreve" unicode="&#x11e;" 
 />
    <glyph glyph-name="gbreve" unicode="&#x11f;" 
 />
    <glyph glyph-name="Idot" unicode="&#x130;" 
 />
    <glyph glyph-name="Scedilla" unicode="&#x15e;" 
 />
    <glyph glyph-name="scedilla" unicode="&#x15f;" 
 />
    <glyph glyph-name="Cacute" unicode="&#x106;" 
 />
    <glyph glyph-name="cacute" unicode="&#x107;" 
 />
    <glyph glyph-name="ccaron" unicode="&#x10d;" 
 />
    <glyph glyph-name="Dcaron" unicode="&#x10e;" 
 />
    <glyph glyph-name="dslash" unicode="&#x111;" 
 />
    <glyph glyph-name="arrowright" unicode="&#x2192;" horiz-adv-x="625" 
 />
    <glyph glyph-name="house" unicode="&#x2302;" 
 />
    <glyph glyph-name="endash" unicode="&#x2013;" horiz-adv-x="625" 
d="M636 285v-64h-647v64h647v0v0v0z" />
    <glyph glyph-name="sfthyphen" unicode="&#xad;" horiz-adv-x="625" 
 />
    <glyph glyph-name="filledbox" unicode="&#x25a0;" horiz-adv-x="625" 
 />
    <glyph glyph-name="bullet" unicode="&#x2022;" horiz-adv-x="442" 
d="M221 465q16 -1 31 -4t28 -8q3 -1 6.5 -2.5t6.5 -2.5q10 -4 19.5 -9.5t17.5 -12.5q11 -9 19.5 -19t13.5 -21q6 -10 9.5 -22t3.5 -25t-3.5 -25t-9.5 -23q-5 -11 -13.5 -21t-19.5 -19q-8 -7 -17.5 -12.5t-19.5 -9.5q-3 -1 -6.5 -2.5t-6.5 -2.5q-13 -4 -28 -6.5t-31 -2.5
t-31 2.5t-29 6.5q-14 5 -26.5 11.5t-23.5 15.5t-19.5 19t-14.5 21q-5 11 -8 23t-3 25t3 25t8 22q6 11 14.5 21t19.5 19t23.5 16t26.5 11q14 5 29 7.5t31 2.5v2v0v0z" />
    <glyph glyph-name="overstore" unicode="&#xaf;" 
 />
    <glyph glyph-name="degree" unicode="&#xb0;" 
 />
    <glyph glyph-name="middot" unicode="&#xb7;" 
 />
    <glyph glyph-name="multiply" unicode="&#xd7;" 
 />
    <glyph glyph-name="underscoredbl" unicode="&#x2017;" 
 />
    <glyph glyph-name="exclamdbl" unicode="&#x203c;" 
 />
    <glyph glyph-name="nsuperior" unicode="&#x207f;" 
 />
    <glyph glyph-name="peseta" unicode="&#x20a7;" 
 />
    <glyph glyph-name="Gamma" unicode="&#x393;" 
 />
    <glyph glyph-name="Theta" unicode="&#x398;" 
 />
    <glyph glyph-name="Phi" unicode="&#x3a6;" 
 />
    <glyph glyph-name="alpha" unicode="&#x3b1;" 
 />
    <glyph glyph-name="delta" unicode="&#x3b4;" 
 />
    <glyph glyph-name="epsilon" unicode="&#x3b5;" 
 />
    <glyph glyph-name="sigma" unicode="&#x3c3;" 
 />
    <glyph glyph-name="tau" unicode="&#x3c4;" 
 />
    <glyph glyph-name="phi" unicode="&#x3c6;" 
 />
    <glyph glyph-name="arrowleft" unicode="&#x2190;" 
 />
    <glyph glyph-name="arrowup" unicode="&#x2191;" 
 />
    <glyph glyph-name="arrowdown" unicode="&#x2193;" 
 />
    <glyph glyph-name="arrowboth" unicode="&#x2194;" 
 />
    <glyph glyph-name="arrowupdn" unicode="&#x2195;" 
 />
    <glyph glyph-name="arrowupdnbase" unicode="&#x21a8;" 
 />
    <glyph glyph-name="orthogonal" unicode="&#x221f;" 
 />
    <glyph glyph-name="intersection" unicode="&#x2229;" 
 />
    <glyph glyph-name="equivalence" unicode="&#x2261;" 
 />
    <glyph glyph-name="revlogicalnot" unicode="&#x2310;" 
 />
    <glyph glyph-name="integraltp" unicode="&#x2320;" 
 />
    <glyph glyph-name="integralbt" unicode="&#x2321;" 
 />
    <glyph glyph-name="filledrect" unicode="&#x25ac;" 
 />
    <glyph glyph-name="circle" unicode="&#x25cb;" 
 />
    <glyph glyph-name="triagup" unicode="&#x25b2;" 
 />
    <glyph glyph-name="triagrt" unicode="&#x25ba;" 
 />
    <glyph glyph-name="triagdn" unicode="&#x25bc;" 
 />
    <glyph glyph-name="triaglf" unicode="&#x25c4;" 
 />
    <glyph glyph-name="invbullet" unicode="&#x25d8;" 
 />
    <glyph glyph-name="invcircle" unicode="&#x25d9;" 
 />
    <glyph glyph-name="Rcaron" unicode="&#x158;" 
 />
    <glyph glyph-name="upblock" unicode="&#x2580;" 
 />
    <glyph glyph-name="dnblock" unicode="&#x2584;" 
 />
    <glyph glyph-name="block" unicode="&#x2588;" 
 />
    <glyph glyph-name="lfblock" unicode="&#x258c;" 
 />
    <glyph glyph-name="rtblock" unicode="&#x2590;" 
 />
    <glyph glyph-name="ltshade" unicode="&#x2591;" 
 />
    <glyph glyph-name="shade" unicode="&#x2592;" 
 />
    <glyph glyph-name="dkshade" unicode="&#x2593;" 
 />
    <glyph glyph-name="smileface" unicode="&#x263a;" 
 />
    <glyph glyph-name="invsmileface" unicode="&#x263b;" 
 />
    <glyph glyph-name="sun" unicode="&#x263c;" 
 />
    <glyph glyph-name="female" unicode="&#x2640;" 
 />
    <glyph glyph-name="male" unicode="&#x2642;" 
 />
    <glyph glyph-name="spade" unicode="&#x2660;" 
 />
    </font>
</defs>
</svg>
